<svg width="122" height="13" viewBox="0 0 122 13" fill="none" xmlns="http://www.w3.org/2000/svg">
<path d="M121.417 6.5L111.417 0.726497V12.2735L121.417 6.5ZM0.916504 7.5H1.92067V5.5H0.916504V7.5ZM3.929 7.5H5.93734V5.5H3.929V7.5ZM7.94567 7.5H9.954V5.5H7.94567V7.5ZM11.9623 7.5H13.9707V5.5H11.9623V7.5ZM15.979 7.5H17.9873V5.5H15.979V7.5ZM19.9957 7.5H22.004V5.5H19.9957V7.5ZM24.0123 7.5H26.0207V5.5H24.0123V7.5ZM28.029 7.5H30.0373V5.5H28.029V7.5ZM32.0457 7.5H34.054V5.5H32.0457V7.5ZM36.0623 7.5H38.0707V5.5H36.0623V7.5ZM40.079 7.5H42.0873V5.5H40.079V7.5ZM44.0957 7.5H46.104V5.5H44.0957V7.5ZM48.1124 7.5H50.1207V5.5H48.1124V7.5ZM52.129 7.5H54.1374V5.5H52.129V7.5ZM56.1457 7.5H58.154V5.5H56.1457V7.5ZM60.1624 7.5H62.1707V5.5H60.1624V7.5ZM64.179 7.5H66.1874V5.5H64.179V7.5ZM68.1957 7.5H70.204V5.5H68.1957V7.5ZM72.2124 7.5H74.2207V5.5H72.2124V7.5ZM76.229 7.5H78.2374V5.5H76.229V7.5ZM80.2457 7.5H82.254V5.5H80.2457V7.5ZM84.2623 7.5H86.2707V5.5H84.2623V7.5ZM88.279 7.5H90.2873V5.5H88.279V7.5ZM92.2957 7.5H94.304V5.5H92.2957V7.5ZM96.3123 7.5H98.3207V5.5H96.3123V7.5ZM100.329 7.5H102.337V5.5H100.329V7.5ZM104.346 7.5H106.354V5.5H104.346V7.5ZM108.362 7.5H110.371V5.5H108.362V7.5ZM112.379 7.5H114.387V5.5H112.379V7.5ZM116.396 7.5H118.404V5.5H116.396V7.5Z" fill="#38C19D"/>
</svg>
