<svg width="94" height="94" viewBox="0 0 94 94" fill="none" xmlns="http://www.w3.org/2000/svg">
<path d="M40.4375 25.125H60.125V29.5H40.4375V25.125Z" fill="#38C19D"/>
<path d="M40.4375 33.875H60.125V38.25H40.4375V33.875Z" fill="#38C19D"/>
<path d="M40.4375 42.625H60.125V47H40.4375V42.625Z" fill="#38C19D"/>
<path d="M40.4375 51.375H60.125V55.75H40.4375V51.375Z" fill="#38C19D"/>
<path d="M40.4375 60.125H60.125V64.5H40.4375V60.125Z" fill="#38C19D"/>
<path d="M31.6875 25.125H36.0625V29.5H31.6875V25.125Z" fill="#38C19D"/>
<path d="M31.6875 33.875H36.0625V38.25H31.6875V33.875Z" fill="#38C19D"/>
<path d="M31.6875 42.625H36.0625V47H31.6875V42.625Z" fill="#38C19D"/>
<path d="M31.6875 51.375H36.0625V55.75H31.6875V51.375Z" fill="#38C19D"/>
<path d="M31.6875 60.125H36.0625V64.5H31.6875V60.125Z" fill="#38C19D"/>
<path d="M68.8751 12H25.125C23.9647 12 22.8519 12.4609 22.0314 13.2814C21.2109 14.1019 20.75 15.2147 20.75 16.375V77.6251C20.75 78.7854 21.2109 79.8982 22.0314 80.7187C22.8519 81.5392 23.9647 82.0001 25.125 82.0001H68.8751C70.0354 82.0001 71.1482 81.5392 71.9687 80.7187C72.7891 79.8982 73.2501 78.7854 73.2501 77.6251V16.375C73.2501 15.2147 72.7891 14.1019 71.9687 13.2814C71.1482 12.4609 70.0354 12 68.8751 12ZM68.8751 77.6251H25.125V16.375H68.8751V77.6251Z" fill="#38C19D"/>
</svg>
