<svg width="95" height="94" viewBox="0 0 95 94" fill="none" xmlns="http://www.w3.org/2000/svg">
<path d="M47.8333 13L80.3333 26.2857V30.7143H75.9999C75.9999 31.314 75.7686 31.833 75.3059 32.2712C74.8432 32.7094 74.2959 32.9286 73.664 32.9286H22.0025C21.3706 32.9286 20.8233 32.7094 20.3606 32.2712C19.8979 31.833 19.6666 31.314 19.6666 30.7143H15.3333V26.2857L47.8333 13ZM23.9999 35.1429H32.6666V61.7143H36.9999V35.1429H45.6666V61.7143H49.9999V35.1429H58.6666V61.7143H62.9999V35.1429H71.6666V61.7143H73.664C74.2959 61.7143 74.8432 61.9334 75.3059 62.3717C75.7686 62.8099 75.9999 63.3289 75.9999 63.9286V66.1429H19.6666V63.9286C19.6666 63.3289 19.8979 62.8099 20.3606 62.3717C20.8233 61.9334 21.3706 61.7143 22.0025 61.7143H23.9999V35.1429ZM77.9973 68.3571C78.6293 68.3571 79.1766 68.5763 79.6392 69.0145C80.1019 69.4528 80.3333 69.9717 80.3333 70.5714V75H15.3333V70.5714C15.3333 69.9717 15.5646 69.4528 16.0273 69.0145C16.4899 68.5763 17.0372 68.3571 17.6692 68.3571H77.9973Z" fill="#38C19D"/>
</svg>
