<svg width="95" height="94" viewBox="0 0 95 94" fill="none" xmlns="http://www.w3.org/2000/svg">
<path d="M47.2937 22.9008C46.897 22.94 46.5324 23.1323 46.2801 23.4353C46.0279 23.7383 45.9087 24.1271 45.9487 24.5163C46.2043 26.9991 43.2715 28.5466 41.3 26.9674C41.1476 26.8409 40.971 26.7455 40.7806 26.6866C40.5901 26.6278 40.3896 26.6068 40.1908 26.6247C39.992 26.6427 39.7988 26.6993 39.6226 26.7913C39.4463 26.8833 39.2905 27.0088 39.1642 27.1605C39.0379 27.3122 38.9437 27.487 38.8871 27.6748C38.8304 27.8626 38.8124 28.0596 38.8342 28.2542C38.856 28.4489 38.9171 28.6374 39.0139 28.8087C39.1107 28.9799 39.2414 29.1306 39.3982 29.2518C41.3697 30.8309 40.4115 33.9587 37.8788 34.2095C37.482 34.2488 37.1174 34.4411 36.8652 34.744C36.6129 35.047 36.4937 35.4359 36.5338 35.825C36.5738 36.2142 36.7699 36.5718 37.0787 36.8193C37.3876 37.0667 37.784 37.1836 38.1808 37.1443C40.7121 36.8937 42.2897 39.7704 40.6797 41.7042C40.4357 42.0079 40.323 42.3935 40.366 42.7779C40.409 43.1623 40.6043 43.5148 40.9096 43.7594C41.215 44.004 41.6061 44.1212 41.9987 44.0857C42.3913 44.0502 42.754 43.8649 43.0086 43.5696C44.6186 41.6358 47.8073 42.5756 48.063 45.06C48.103 45.4491 48.2991 45.8068 48.608 46.0542C48.9168 46.3016 49.3133 46.4185 49.71 46.3792C50.1068 46.3399 50.4714 46.1477 50.7236 45.8447C50.9759 45.5417 51.0951 45.1529 51.055 44.7637C50.7995 42.2809 53.7323 40.7334 55.7038 42.3126C55.8562 42.4391 56.0328 42.5345 56.2232 42.5934C56.4136 42.6522 56.6141 42.6732 56.8129 42.6553C57.0117 42.6373 57.2049 42.5806 57.3812 42.4887C57.5574 42.3967 57.7133 42.2712 57.8395 42.1195C57.9658 41.9678 58.0601 41.793 58.1167 41.6052C58.1734 41.4174 58.1913 41.2204 58.1696 41.0257C58.1478 40.8311 58.0867 40.6426 57.9899 40.4713C57.893 40.3001 57.7624 40.1494 57.6056 40.0282C55.6341 38.4491 56.5922 35.3213 59.125 35.0705C59.5218 35.0312 59.8864 34.8389 60.1386 34.536C60.3908 34.233 60.51 33.8441 60.47 33.455C60.4299 33.0658 60.2339 32.7081 59.925 32.4607C59.6162 32.2133 59.2197 32.0964 58.823 32.1357C56.2917 32.3863 54.7141 29.5096 56.3241 27.5758C56.5681 27.2721 56.6807 26.8865 56.6377 26.5021C56.5947 26.1177 56.3995 25.7652 56.0941 25.5206C55.7888 25.276 55.3977 25.1588 55.0051 25.1943C54.6125 25.2298 54.2498 25.4151 53.9952 25.7104C52.3852 27.6442 49.1964 26.7043 48.9408 24.22C48.9007 23.8309 48.7047 23.4732 48.3958 23.2258C48.0869 22.9784 47.6905 22.8615 47.2937 22.9008ZM42.935 24.4841C42.9036 23.367 43.3044 22.2796 44.0568 21.4403C44.8092 20.6011 45.8575 20.0722 46.9911 19.96C48.1247 19.8478 49.2596 20.1604 50.1678 20.8352C51.0761 21.51 51.6903 22.497 51.8872 23.5977C52.6712 22.7896 53.7375 22.3017 54.8725 22.2319C56.0076 22.162 57.1277 22.5153 58.0086 23.221C58.8894 23.9268 59.4659 24.9328 59.6227 26.0377C59.7796 27.1426 59.5051 28.2649 58.8542 29.1797C59.9932 29.1487 61.1019 29.5417 61.9576 30.2795C62.8133 31.0174 63.3526 32.0456 63.4673 33.1575C63.5819 34.2694 63.2633 35.3827 62.5755 36.2736C61.8877 37.1646 60.8816 37.7673 59.7594 37.9605C60.5833 38.7295 61.0807 39.7754 61.1519 40.8888C61.2231 42.0022 60.8629 43.1009 60.1435 43.9649C59.424 44.8289 58.3983 45.3944 57.2719 45.5482C56.1454 45.702 55.0013 45.4328 54.0686 44.7944C54.1 45.9115 53.6992 46.999 52.9468 47.8382C52.1944 48.6774 51.1461 49.2063 50.0125 49.3185C48.8789 49.4308 47.744 49.1181 46.8358 48.4433C45.9276 47.7685 45.3133 46.7816 45.1165 45.6808C44.3327 46.4891 43.2665 46.9772 42.1314 47.0473C40.9963 47.1175 39.8762 46.7644 38.9952 46.0589C38.1142 45.3534 37.5374 44.3475 37.3803 43.2426C37.2232 42.1377 37.4974 41.0154 38.148 40.1004C37.0091 40.1312 35.9005 39.7381 35.0449 39.0001C34.1893 38.2621 33.6501 37.2338 33.5357 36.1219C33.4213 35.01 33.74 33.8968 34.428 33.0059C35.116 32.1151 36.1221 31.5126 37.2443 31.3195C36.4182 30.551 35.9189 29.5045 35.8466 28.39C35.7743 27.2755 36.1343 26.1754 36.8544 25.3104C37.5746 24.4454 38.6016 23.8795 39.7293 23.7262C40.8571 23.573 42.0023 23.8437 42.935 24.4841Z" fill="#38C19D"/>
<path d="M48.198 31.7029C47.4045 31.7815 46.6753 32.1661 46.1708 32.772C45.6663 33.378 45.4279 34.1557 45.508 34.934C45.5881 35.7124 45.9802 36.4276 46.5979 36.9225C47.2157 37.4173 48.0085 37.6511 48.8021 37.5726C49.5956 37.494 50.3248 37.1094 50.8293 36.5035C51.3338 35.8975 51.5722 35.1199 51.4921 34.3415C51.412 33.5631 51.0199 32.8479 50.4021 32.353C49.7844 31.8582 48.9915 31.6244 48.198 31.7029ZM43.8422 30.9068C44.3366 30.2916 44.9508 29.779 45.6493 29.3991C46.3477 29.0192 47.1162 28.7795 47.9101 28.6941C48.704 28.6087 49.5072 28.6791 50.273 28.9015C51.0388 29.1238 51.7518 29.4934 52.3704 29.9889C52.9889 30.4844 53.5007 31.0958 53.8758 31.7873C54.251 32.4789 54.4819 33.2368 54.5552 34.0169C54.6285 34.7969 54.5427 35.5835 54.3028 36.3306C54.0629 37.0778 53.6737 37.7706 53.1578 38.3687C52.1393 39.5496 50.6886 40.2909 49.1182 40.4329C47.5478 40.5749 45.9834 40.1062 44.7619 39.1278C43.5404 38.1494 42.7596 36.7395 42.5876 35.2018C42.4156 33.6642 42.8661 32.1218 43.8422 30.9068Z" fill="#38C19D"/>
<path d="M20.8122 12.7019C20.5399 12.7289 20.2897 12.8608 20.1166 13.0688C19.9435 13.2767 19.8617 13.5435 19.8892 13.8106C20.0645 15.5146 18.0518 16.5766 16.6987 15.4928C16.5941 15.406 16.4729 15.3405 16.3422 15.3001C16.2116 15.2598 16.074 15.2453 15.9375 15.2577C15.8011 15.27 15.6685 15.3089 15.5475 15.372C15.4266 15.4351 15.3196 15.5213 15.233 15.6254C15.1463 15.7295 15.0816 15.8495 15.0427 15.9783C15.0039 16.1072 14.9915 16.2424 15.0065 16.376C15.0214 16.5096 15.0633 16.6389 15.1298 16.7565C15.1962 16.874 15.2859 16.9774 15.3935 17.0606C16.7466 18.1444 16.089 20.291 14.3508 20.4631C14.0785 20.49 13.8282 20.622 13.6551 20.8299C13.482 21.0379 13.4002 21.3047 13.4277 21.5718C13.4552 21.8389 13.5897 22.0844 13.8017 22.2542C14.0137 22.424 14.2857 22.5042 14.558 22.4772C16.2952 22.3052 17.378 24.2795 16.273 25.6067C16.1056 25.8151 16.0283 26.0798 16.0578 26.3436C16.0873 26.6074 16.2213 26.8493 16.4308 27.0172C16.6404 27.185 16.9088 27.2655 17.1783 27.2411C17.4477 27.2167 17.6966 27.0895 17.8714 26.8869C18.9763 25.5598 21.1647 26.2048 21.3402 27.9097C21.3677 28.1768 21.5022 28.4223 21.7142 28.5921C21.9262 28.7619 22.1982 28.8421 22.4705 28.8152C22.7428 28.7882 22.9931 28.6562 23.1662 28.4483C23.3393 28.2404 23.4211 27.9735 23.3936 27.7064C23.2182 26.0024 25.231 24.9404 26.584 26.0242C26.6887 26.111 26.8098 26.1765 26.9405 26.2169C27.0712 26.2573 27.2088 26.2717 27.3453 26.2594C27.4817 26.2471 27.6143 26.2082 27.7352 26.1451C27.8562 26.0819 27.9632 25.9958 28.0498 25.8917C28.1365 25.7876 28.2012 25.6676 28.24 25.5387C28.2789 25.4098 28.2913 25.2747 28.2763 25.1411C28.2614 25.0075 28.2194 24.8781 28.153 24.7606C28.0865 24.643 27.9969 24.5397 27.8893 24.4565C26.5362 23.3727 27.1938 21.2261 28.932 21.054C29.2043 21.027 29.4546 20.8951 29.6277 20.6871C29.8008 20.4792 29.8826 20.2123 29.8551 19.9452C29.8276 19.6781 29.6931 19.4327 29.4811 19.2629C29.2691 19.0931 28.997 19.0129 28.7247 19.0398C26.9875 19.2118 25.9048 17.2376 27.0097 15.9104C27.1772 15.7019 27.2545 15.4373 27.225 15.1735C27.1955 14.9097 27.0615 14.6678 26.8519 14.4999C26.6424 14.332 26.374 14.2516 26.1045 14.276C25.8351 14.3003 25.5862 14.4275 25.4114 14.6301C24.3065 15.9573 22.1181 15.3123 21.9426 13.6073C21.9151 13.3402 21.7806 13.0948 21.5686 12.925C21.3566 12.7552 21.0845 12.6749 20.8122 12.7019ZM17.8209 13.7886C17.7993 13.0219 18.0743 12.2756 18.5907 11.6996C19.1071 11.1236 19.8265 10.7607 20.6045 10.6837C21.3825 10.6066 22.1614 10.8212 22.7847 11.2843C23.408 11.7475 23.8296 12.4248 23.9647 13.1802C24.5028 12.6256 25.2346 12.2908 26.0136 12.2428C26.7926 12.1949 27.5613 12.4374 28.1658 12.9217C28.7703 13.406 29.166 14.0965 29.2736 14.8548C29.3812 15.6131 29.1929 16.3833 28.7462 17.0112C29.5279 16.9899 30.2887 17.2595 30.876 17.766C31.4633 18.2724 31.8335 18.978 31.9121 19.7411C31.9908 20.5042 31.7721 21.2682 31.3001 21.8797C30.8281 22.4912 30.1376 22.9048 29.3674 23.0374C29.9329 23.5652 30.2742 24.283 30.3231 25.0471C30.372 25.8112 30.1248 26.5652 29.631 27.1582C29.1372 27.7511 28.4333 28.1392 27.6602 28.2448C26.8871 28.3504 26.1019 28.1656 25.4618 27.7275C25.4834 28.4942 25.2083 29.2405 24.692 29.8164C24.1756 30.3924 23.4561 30.7554 22.6781 30.8324C21.9001 30.9094 21.1213 30.6948 20.4979 30.2317C19.8746 29.7686 19.4531 29.0913 19.318 28.3358C18.7801 28.8906 18.0483 29.2256 17.2693 29.2737C16.4903 29.3218 15.7216 29.0795 15.1169 28.5953C14.5123 28.1111 14.1165 27.4208 14.0087 26.6625C13.9008 25.9042 14.089 25.134 14.5356 24.506C13.7539 24.5271 12.9931 24.2574 12.4059 23.7509C11.8187 23.2444 11.4486 22.5387 11.3701 21.7756C11.2916 21.0124 11.5103 20.2484 11.9825 19.6371C12.4546 19.0257 13.1452 18.6122 13.9153 18.4797C13.3484 17.9523 13.0057 17.2341 12.9561 16.4692C12.9064 15.7043 13.1535 14.9493 13.6478 14.3556C14.142 13.762 14.8468 13.3736 15.6208 13.2684C16.3948 13.1633 17.1807 13.3491 17.8209 13.7886Z" fill="#38C19D"/>
<path d="M21.4287 18.7431C20.8841 18.797 20.3836 19.0609 20.0374 19.4768C19.6912 19.8926 19.5276 20.4264 19.5825 20.9605C19.6375 21.4947 19.9066 21.9856 20.3305 22.3252C20.7545 22.6648 21.2986 22.8253 21.8432 22.7714C22.3879 22.7175 22.8883 22.4535 23.2345 22.0377C23.5807 21.6218 23.7444 21.0881 23.6894 20.5539C23.6344 20.0197 23.3653 19.5288 22.9414 19.1892C22.5174 18.8496 21.9733 18.6891 21.4287 18.7431ZM18.4393 18.1967C18.7786 17.7744 19.2002 17.4227 19.6795 17.162C20.1588 16.9012 20.6863 16.7367 21.2311 16.6781C21.7759 16.6195 22.3272 16.6678 22.8528 16.8204C23.3783 16.973 23.8676 17.2267 24.2922 17.5667C24.7167 17.9068 25.0679 18.3264 25.3254 18.801C25.5828 19.2756 25.7413 19.7958 25.7916 20.3311C25.8419 20.8664 25.783 21.4063 25.6184 21.919C25.4537 22.4318 25.1866 22.9073 24.8326 23.3177C24.1336 24.1282 23.138 24.637 22.0602 24.7344C20.9825 24.8319 19.9088 24.5102 19.0705 23.8387C18.2322 23.1672 17.6963 22.1996 17.5782 21.1444C17.4602 20.0891 17.7694 19.0305 18.4393 18.1967Z" fill="#38C19D"/>
<path d="M13.7534 54.1773H82.5601L82.5597 57.0492H13.7538L13.7534 54.1773Z" fill="#38C19D"/>
<path d="M28.3931 82.4181C28.3931 81.8894 28.8301 81.4608 29.3691 81.4608H66.9444C67.4834 81.4608 67.9204 81.8894 67.9204 82.4181V83.3754C67.9204 83.9042 67.4834 84.3328 66.9444 84.3328H29.3691C28.8301 84.3328 28.3931 83.9042 28.3931 83.3754V82.4181Z" fill="#38C19D"/>
<path d="M59.1365 73.8023C59.6756 73.8023 60.1125 74.2309 60.1125 74.7596V81.9395C60.1125 82.4682 59.6756 82.8968 59.1365 82.8968H58.1606C57.6215 82.8968 57.1846 82.4682 57.1846 81.9395V74.7596C57.1846 74.2309 57.6215 73.8023 58.1606 73.8023H59.1365Z" fill="#38C19D"/>
<path d="M38.1529 73.8023C38.692 73.8023 39.1289 74.2309 39.1289 74.7596V81.9395C39.1289 82.4682 38.692 82.8968 38.1529 82.8968H37.177C36.6379 82.8968 36.201 82.4682 36.201 81.9395V74.7596C36.201 74.2309 36.6379 73.8023 37.177 73.8023H38.1529Z" fill="#38C19D"/>
<path d="M50.8407 62.7931C50.8407 64.3792 49.5298 65.6651 47.9128 65.6651C46.2957 65.6651 44.9848 64.3792 44.9848 62.7931C44.9848 61.207 46.2957 59.9212 47.9128 59.9212C49.5298 59.9212 50.8407 61.207 50.8407 62.7931ZM46.6129 62.7931C46.6129 63.4973 47.1949 64.0681 47.9128 64.0681C48.6306 64.0681 49.2126 63.4973 49.2126 62.7931C49.2126 62.089 48.6306 61.5181 47.9128 61.5181C47.1949 61.5181 46.6129 62.089 46.6129 62.7931Z" fill="#38C19D"/>
<path d="M11.3135 58.0065C11.3135 63.8732 11.3135 66.8066 13.1716 68.6291C15.0296 70.4517 18.0202 70.4517 24.0012 70.4517H72.3123C78.2933 70.4517 81.2839 70.4517 83.1419 68.6291C85 66.8066 85 63.8732 85 58.0065V27.3724C85 21.5057 85 18.5723 83.1419 16.7498C81.2839 14.9272 78.2933 14.9272 72.3123 14.9272H34.737V16.8419H69.8723C75.8534 16.8419 78.8439 16.8419 80.702 18.6644C82.5601 20.487 82.5601 23.4203 82.5601 29.287V54.1773L82.5597 57.0492V57.0523C82.5597 62.9166 82.5597 64.8922 80.702 66.7145C78.8439 68.537 75.8534 68.537 69.8723 68.537H26.4412C20.4601 68.537 17.4696 68.537 15.6115 66.7145C13.7538 64.8922 13.7538 62.9166 13.7538 57.0523V57.0492L13.7534 54.1773L13.7535 31.2016H11.3135V58.0065Z" fill="#38C19D"/>
</svg>
