<svg width="94" height="95" viewBox="0 0 94 95" fill="none" xmlns="http://www.w3.org/2000/svg">
<path d="M26.1333 47.9995H9.62964C8.13706 47.998 6.70585 47.4107 5.65053 46.3661C4.59497 45.3218 4.00153 43.9053 4 42.4282L4.90066 32.5549C5.06465 30.6824 5.93426 28.9394 7.33661 27.6722C8.73895 26.4049 10.5715 25.7064 12.4705 25.7144C12.9135 25.7141 13.331 25.919 13.5989 26.2681C15.9184 29.3009 23.0447 29.3004 25.3641 26.2681C25.6299 25.9193 26.0455 25.7141 26.4869 25.7144H26.4925C28.811 25.7085 31.0041 26.7559 32.442 28.5557C29.515 28.8396 26.8171 30.2473 24.9265 32.4768C23.0359 34.7063 22.1035 37.58 22.3294 40.4821C22.555 43.384 23.9206 46.083 26.1335 48L26.1333 47.9995ZM19.4814 9C8.22215 9 8.22215 25.7141 19.4814 25.7141C30.7407 25.7141 30.7407 9 19.4814 9ZM42 39.6425C42 41.8589 41.1104 43.9846 39.5267 45.5518C37.943 47.119 35.7952 47.9995 33.5555 47.9995C31.3159 47.9995 29.168 47.1191 27.5844 45.5518C26.0008 43.9845 25.1111 41.8589 25.1111 39.6425C25.1111 37.426 26.0007 35.3004 27.5844 33.7332C29.1681 32.166 31.3159 31.2854 33.5555 31.2854C35.7945 31.2879 37.9408 32.1691 39.5238 33.736C41.1072 35.3026 41.9975 37.4267 42 39.6425ZM36.3704 38.2496H30.7407C30.2494 38.2664 29.8027 38.5357 29.5617 38.9597C29.3211 39.3838 29.3211 39.9011 29.5617 40.3252C29.8027 40.7493 30.2494 41.0185 30.7407 41.0353H36.3704C36.8617 41.0185 37.3084 40.7493 37.5494 40.3252C37.79 39.9011 37.79 39.3838 37.5494 38.9597C37.3084 38.5357 36.8617 38.2664 36.3704 38.2496Z" fill="#6416CA"/>
<path d="M64.1333 79.9995H47.6296C46.1371 79.998 44.7058 79.4107 43.6505 78.3661C42.595 77.3218 42.0015 75.9053 42 74.4282L42.9007 64.5549C43.0647 62.6824 43.9343 60.9394 45.3366 59.6722C46.739 58.4049 48.5715 57.7064 50.4705 57.7144C50.9135 57.7141 51.331 57.919 51.5989 58.2681C53.9184 61.3009 61.0447 61.3004 63.3641 58.2681C63.6299 57.9193 64.0455 57.7141 64.4869 57.7144H64.4925C66.811 57.7085 69.0041 58.7559 70.442 60.5557C67.515 60.8396 64.8171 62.2473 62.9265 64.4768C61.0359 66.7063 60.1035 69.58 60.3294 72.4821C60.555 75.384 61.9206 78.083 64.1335 80L64.1333 79.9995ZM57.4814 41C46.2221 41 46.2221 57.7141 57.4814 57.7141C68.7407 57.7141 68.7407 41 57.4814 41ZM80 71.6425C80 73.8589 79.1104 75.9846 77.5267 77.5518C75.943 79.119 73.7952 79.9995 71.5555 79.9995C69.3159 79.9995 67.168 79.1191 65.5844 77.5518C64.0008 75.9845 63.1111 73.8589 63.1111 71.6425C63.1111 69.426 64.0007 67.3004 65.5844 65.7332C67.1681 64.166 69.3159 63.2854 71.5555 63.2854C73.7945 63.2879 75.9408 64.1691 77.5238 65.736C79.1072 67.3026 79.9975 69.4267 80 71.6425ZM74.3704 70.2496H68.7407C68.2494 70.2664 67.8027 70.5357 67.5617 70.9597C67.3211 71.3838 67.3211 71.9011 67.5617 72.3252C67.8027 72.7493 68.2494 73.0185 68.7407 73.0353H74.3704C74.8617 73.0185 75.3084 72.7493 75.5494 72.3252C75.79 71.9011 75.79 71.3838 75.5494 70.9597C75.3084 70.5357 74.8617 70.2664 74.3704 70.2496Z" fill="#38C19D"/>
<rect x="77" y="73" width="10" height="3" rx="1.5" transform="rotate(-180 77 73)" fill="white"/>
<rect x="73.5" y="66.5" width="10" height="3" rx="1.5" transform="rotate(90 73.5 66.5)" fill="white"/>
</svg>
