<svg width="1440" height="1225" viewBox="0 0 1440 1225" fill="none" xmlns="http://www.w3.org/2000/svg">
<g opacity="0.39">
<path d="M-171.648 426.063C-124.226 576.833 33.3153 891.7 284.106 945.008C597.594 1011.64 729.36 828.984 974.089 646.97C1122.83 536.344 1312.92 460.777 1524.81 683.5" stroke="url(#paint0_linear_158_5809)" stroke-width="1.37543"/>
<path d="M-144.114 158.501C-82.5434 312.103 115.384 634.966 414.529 697.6C788.461 775.893 938.139 596.535 1221.73 421.847C1394.09 315.672 1616.7 246.294 1875.76 478.246" stroke="url(#paint1_linear_158_5809)" stroke-width="1.37543"/>
<path d="M-171.196 421.676C-123.542 572.492 34.6613 887.49 286.244 940.951C600.723 1007.78 732.784 825.172 978.149 643.278C1127.28 532.725 1317.9 457.259 1530.56 680.134" stroke="url(#paint2_linear_158_5809)" stroke-width="1.37543"/>
<path d="M-170.748 417.29C-122.862 568.153 36.0039 883.283 288.38 936.896C603.849 1003.91 736.203 821.362 982.206 639.589C1131.72 529.109 1322.88 453.744 1536.31 676.77" stroke="url(#paint3_linear_158_5809)" stroke-width="1.37543"/>
<path d="M-170.296 412.904C-122.178 563.814 37.3497 879.074 290.518 932.84C606.979 1000.05 739.626 817.552 986.266 635.898C1136.17 525.491 1327.86 450.228 1542.06 673.406" stroke="url(#paint4_linear_158_5809)" stroke-width="1.37543"/>
<path d="M-169.844 408.517C-121.494 559.473 38.6958 874.864 292.657 928.783C610.108 996.182 743.05 813.74 990.326 632.207C1140.62 521.873 1332.84 446.711 1547.82 670.04" stroke="url(#paint5_linear_158_5809)" stroke-width="1.37543"/>
<path d="M-169.392 404.132C-120.811 555.134 40.0413 870.657 294.795 924.729C613.238 992.319 746.473 809.931 994.386 628.518C1145.07 518.256 1337.82 443.196 1553.57 666.676" stroke="url(#paint6_linear_158_5809)" stroke-width="1.37543"/>
<path d="M-168.941 399.746C-120.127 550.795 41.3868 866.448 296.933 920.673C616.367 988.454 749.895 806.12 998.446 624.827C1149.51 514.639 1342.8 439.68 1559.33 663.312" stroke="url(#paint7_linear_158_5809)" stroke-width="1.37543"/>
<path d="M-168.489 395.358C-119.443 546.453 42.7329 862.238 299.072 916.616C619.496 984.588 753.318 802.308 1002.51 621.135C1153.96 511.02 1347.78 436.163 1565.08 659.946" stroke="url(#paint8_linear_158_5809)" stroke-width="1.37543"/>
<path d="M-168.037 390.972C-118.759 542.114 44.0787 858.03 301.211 912.56C622.626 980.724 756.741 798.498 1006.57 617.445C1158.41 507.403 1352.76 432.647 1570.83 656.581" stroke="url(#paint9_linear_158_5809)" stroke-width="1.37543"/>
<path d="M-167.588 386.586C-118.079 537.774 45.4215 853.821 303.346 908.505C625.752 976.859 760.162 794.688 1010.62 613.755C1162.85 503.786 1357.74 429.131 1576.58 653.217" stroke="url(#paint10_linear_158_5809)" stroke-width="1.37543"/>
<path d="M-167.136 382.199C-117.395 533.434 46.7673 849.612 305.485 904.448C628.882 972.994 763.585 790.877 1014.68 610.064C1167.3 500.167 1362.72 425.615 1582.34 649.851" stroke="url(#paint11_linear_158_5809)" stroke-width="1.37543"/>
<path d="M-166.685 377.813C-116.711 529.094 48.1131 845.403 307.623 900.393C632.011 969.129 767.007 787.066 1018.74 606.373C1171.75 496.55 1367.7 422.099 1588.09 646.487" stroke="url(#paint12_linear_158_5809)" stroke-width="1.37543"/>
<path d="M-166.233 373.428C-116.028 524.755 49.4586 841.195 309.761 896.337C635.14 965.265 770.43 783.256 1022.8 602.684C1176.19 492.933 1372.68 418.583 1593.85 643.122" stroke="url(#paint13_linear_158_5809)" stroke-width="1.37543"/>
<path d="M-165.781 369.041C-115.344 520.414 50.8047 836.985 311.9 892.281C638.27 961.399 773.854 779.445 1026.86 598.992C1180.64 489.315 1377.66 415.066 1599.6 639.757" stroke="url(#paint14_linear_158_5809)" stroke-width="1.37543"/>
<path d="M-165.329 364.654C-114.66 516.074 52.1505 832.777 314.039 888.225C641.399 957.535 777.276 775.634 1030.92 595.301C1185.09 485.697 1382.64 411.55 1605.35 636.392" stroke="url(#paint15_linear_158_5809)" stroke-width="1.37543"/>
<path d="M-164.878 360.27C-113.977 511.736 53.496 828.569 316.177 884.17C644.528 953.671 780.699 771.825 1034.98 591.612C1189.53 482.081 1387.62 408.035 1611.11 633.028" stroke="url(#paint16_linear_158_5809)" stroke-width="1.37543"/>
<path d="M-164.426 355.882C-113.293 507.395 54.8418 824.359 318.315 880.113C647.658 949.806 784.122 768.013 1039.04 587.921C1193.98 478.462 1392.6 404.518 1616.86 629.663" stroke="url(#paint17_linear_158_5809)" stroke-width="1.37543"/>
<path d="M-163.977 351.496C-112.612 503.055 56.185 820.15 320.451 876.057C650.784 945.94 787.543 764.202 1043.1 584.23C1198.43 474.844 1397.58 401.002 1622.61 626.297" stroke="url(#paint18_linear_158_5809)" stroke-width="1.37543"/>
<path d="M-163.526 347.111C-111.929 498.716 57.5303 815.943 322.589 872.003C653.913 942.077 790.965 760.393 1047.16 580.541C1202.87 471.228 1402.56 397.487 1628.37 622.934" stroke="url(#paint19_linear_158_5809)" stroke-width="1.37543"/>
<path d="M-163.071 342.724C-111.242 494.376 58.8789 811.734 324.731 867.946C657.045 938.212 794.391 756.582 1051.22 576.849C1207.32 467.61 1407.54 393.97 1634.12 619.569" stroke="url(#paint20_linear_158_5809)" stroke-width="1.37543"/>
<path d="M-162.622 338.337C-110.561 490.036 60.2221 807.524 326.867 863.89C660.172 934.346 797.811 752.77 1055.28 573.158C1211.77 463.992 1412.52 390.454 1639.87 616.203" stroke="url(#paint21_linear_158_5809)" stroke-width="1.37543"/>
<path d="M-162.17 333.953C-109.877 485.698 61.5676 803.317 329.005 859.835C663.301 930.483 801.234 748.961 1059.34 569.469C1216.22 460.376 1417.5 386.939 1645.63 612.84" stroke="url(#paint22_linear_158_5809)" stroke-width="1.37543"/>
<path d="M-161.718 329.565C-109.193 481.356 62.9136 799.107 331.144 855.778C666.431 926.617 804.657 745.15 1063.4 565.778C1220.66 456.757 1422.48 383.422 1651.38 609.474" stroke="url(#paint23_linear_158_5809)" stroke-width="1.37543"/>
<path d="M-161.267 325.179C-108.51 477.017 64.2592 794.899 333.282 851.723C669.56 922.753 808.08 741.339 1067.46 562.087C1225.11 453.14 1427.46 379.906 1657.13 606.109" stroke="url(#paint24_linear_158_5809)" stroke-width="1.37543"/>
<path d="M-160.817 320.791C-107.828 472.675 65.6028 790.688 335.418 847.665C672.687 918.886 811.501 737.527 1071.52 558.395C1229.55 449.521 1432.44 376.388 1662.89 602.743" stroke="url(#paint25_linear_158_5809)" stroke-width="1.37543"/>
<path d="M-160.366 316.406C-107.145 468.337 66.9481 786.481 337.556 843.611C675.816 915.023 814.923 733.718 1075.58 554.706C1234 445.904 1437.42 372.874 1668.64 599.379" stroke="url(#paint26_linear_158_5809)" stroke-width="1.37543"/>
<path d="M-159.911 312.021C-106.459 463.998 68.2966 782.273 339.697 839.556C678.948 911.159 818.349 729.908 1079.64 551.016C1238.45 442.288 1442.4 369.358 1674.4 596.015" stroke="url(#paint27_linear_158_5809)" stroke-width="1.37543"/>
<path d="M-159.462 307.633C-105.777 459.656 69.6399 778.062 341.833 835.498C682.075 907.293 821.77 726.095 1083.7 547.324C1242.9 438.668 1447.38 365.84 1680.15 592.649" stroke="url(#paint28_linear_158_5809)" stroke-width="1.37543"/>
<path d="M-159.011 303.248C-105.094 455.318 70.9853 773.855 343.971 831.444C685.204 903.429 825.192 722.286 1087.76 543.635C1247.34 435.052 1452.36 362.326 1685.9 589.285" stroke="url(#paint29_linear_158_5809)" stroke-width="1.37543"/>
<path d="M-158.559 298.862C-104.41 450.978 72.331 769.646 346.11 827.388C688.333 899.565 828.615 718.476 1091.82 539.944C1251.79 431.435 1457.34 358.81 1691.65 585.921" stroke="url(#paint30_linear_158_5809)" stroke-width="1.37543"/>
<path d="M-158.107 294.474C-103.727 446.637 73.6771 765.436 348.249 823.331C691.463 895.699 832.038 714.664 1095.88 536.253C1256.24 427.816 1462.32 355.292 1697.41 582.555" stroke="url(#paint31_linear_158_5809)" stroke-width="1.37543"/>
<path d="M-157.658 290.088C-103.046 442.297 75.0199 761.228 350.384 819.275C694.589 891.834 835.458 710.853 1099.94 532.562C1260.68 424.199 1467.3 351.776 1703.16 579.19" stroke="url(#paint32_linear_158_5809)" stroke-width="1.37543"/>
<path d="M-157.204 285.703C-102.359 437.958 76.3684 757.02 352.525 815.22C697.721 887.97 838.884 707.044 1104 528.872C1265.13 420.582 1472.28 348.261 1708.92 575.826" stroke="url(#paint33_linear_158_5809)" stroke-width="1.37543"/>
<path d="M-156.752 281.316C-101.676 433.618 77.7142 752.81 354.664 811.164C700.851 884.105 842.307 703.232 1108.06 525.181C1269.58 416.964 1477.26 344.744 1714.67 572.461" stroke="url(#paint34_linear_158_5809)" stroke-width="1.37543"/>
<path d="M-156.3 276.93C-100.992 429.279 79.0597 748.602 356.802 807.108C703.98 880.241 845.73 699.422 1112.12 521.492C1274.03 413.347 1482.24 341.229 1720.42 569.097" stroke="url(#paint35_linear_158_5809)" stroke-width="1.37543"/>
<path d="M-155.851 272.544C-100.311 424.939 80.4028 744.393 358.938 803.052C707.106 876.376 849.15 695.612 1116.18 517.801C1278.47 409.729 1487.22 337.713 1726.17 565.731" stroke="url(#paint36_linear_158_5809)" stroke-width="1.37543"/>
<path d="M-155.399 268.156C-99.6271 420.598 81.7489 740.183 361.077 798.995C710.236 872.51 852.573 691.8 1120.24 514.109C1282.92 406.11 1492.2 334.195 1731.93 562.365" stroke="url(#paint37_linear_158_5809)" stroke-width="1.37543"/>
<path d="M-154.948 263.772C-98.9436 416.26 83.0945 735.976 363.215 794.941C713.365 868.647 855.996 687.991 1124.3 510.42C1287.37 402.494 1497.18 330.681 1737.68 559.002" stroke="url(#paint38_linear_158_5809)" stroke-width="1.37543"/>
<path d="M-154.498 259.385C-98.2625 411.919 84.4375 731.767 365.351 790.885C716.492 864.782 859.417 684.18 1128.35 506.729C1291.81 398.876 1502.16 327.164 1743.43 555.637" stroke="url(#paint39_linear_158_5809)" stroke-width="1.37543"/>
<path d="M-154.044 254.998C-97.5761 407.579 85.786 727.557 367.492 786.828C719.624 860.916 862.842 680.368 1132.42 503.038C1296.26 395.258 1507.14 323.647 1749.19 552.271" stroke="url(#paint40_linear_158_5809)" stroke-width="1.37543"/>
<path d="M-153.592 250.612C-96.8924 403.239 87.1318 723.349 369.63 782.772C722.753 857.052 866.265 676.558 1136.48 499.347C1300.71 391.64 1512.12 320.131 1754.94 548.907" stroke="url(#paint41_linear_158_5809)" stroke-width="1.37543"/>
<path d="M-153.141 246.227C-96.2092 398.901 88.4771 719.142 371.768 778.718C725.882 853.188 869.688 672.749 1140.54 495.658C1305.15 388.024 1517.1 316.617 1760.7 545.543" stroke="url(#paint42_linear_158_5809)" stroke-width="1.37543"/>
<path d="M-152.692 241.839C-95.5279 394.559 89.8205 714.931 373.904 774.66C729.009 849.322 873.108 668.936 1144.59 491.966C1309.6 384.405 1522.08 313.099 1766.45 542.177" stroke="url(#paint43_linear_158_5809)" stroke-width="1.37543"/>
<path d="M-152.24 237.453C-94.8442 390.219 91.1663 710.723 376.043 770.605C732.139 845.457 876.531 665.126 1148.65 488.276C1314.05 380.788 1527.06 309.583 1772.2 538.812" stroke="url(#paint44_linear_158_5809)" stroke-width="1.37543"/>
<path d="M-151.788 233.068C-94.1607 385.881 92.5118 706.515 378.181 766.55C735.268 841.594 879.954 661.317 1152.71 484.586C1318.49 377.172 1532.04 306.068 1777.96 535.449" stroke="url(#paint45_linear_158_5809)" stroke-width="1.37543"/>
<path d="M-151.336 228.681C-93.4767 381.54 93.8578 702.305 380.32 762.493C738.397 837.728 883.377 657.505 1156.77 480.895C1322.94 373.553 1537.02 302.551 1783.71 532.083" stroke="url(#paint46_linear_158_5809)" stroke-width="1.37543"/>
<path d="M-150.885 224.295C-92.7932 377.2 95.2034 698.097 382.458 758.437C741.527 833.863 886.8 653.694 1160.83 477.204C1327.39 369.935 1542 299.035 1789.46 528.718" stroke="url(#paint47_linear_158_5809)" stroke-width="1.37543"/>
<path d="M-150.433 219.91C-92.1097 372.862 96.549 693.889 384.596 754.383C744.656 830 890.223 649.885 1164.89 473.515C1331.83 366.319 1546.98 295.52 1795.22 525.355" stroke="url(#paint48_linear_158_5809)" stroke-width="1.37543"/>
<path d="M-149.981 215.523C-91.4258 368.521 97.895 689.679 386.735 750.326C747.785 826.134 893.646 646.073 1168.95 469.824C1336.28 362.701 1551.96 292.003 1800.97 521.989" stroke="url(#paint49_linear_158_5809)" stroke-width="1.37543"/>
<path d="M-149.532 211.136C-90.7447 364.181 99.2381 685.47 388.871 746.27C750.912 822.269 897.066 642.262 1173.01 466.133C1340.73 359.083 1556.94 288.487 1806.72 518.624" stroke="url(#paint50_linear_158_5809)" stroke-width="1.37543"/>
<path d="M-149.08 206.751C-90.0612 359.842 100.584 681.262 391.009 742.215C754.041 818.405 900.489 638.453 1177.07 462.443C1345.17 355.466 1561.92 284.972 1812.48 515.26" stroke="url(#paint51_linear_158_5809)" stroke-width="1.37543"/>
<path d="M-148.629 202.364C-89.3775 355.501 101.929 677.053 393.148 738.158C757.17 814.54 903.912 634.642 1181.13 458.752C1349.62 351.848 1566.9 281.455 1818.23 511.894" stroke="url(#paint52_linear_158_5809)" stroke-width="1.37543"/>
<path d="M-148.174 197.978C-88.6911 351.162 103.278 672.844 395.289 734.102C760.303 810.675 907.338 630.831 1185.19 455.061C1354.07 348.23 1571.89 277.939 1823.99 508.53" stroke="url(#paint53_linear_158_5809)" stroke-width="1.37543"/>
<path d="M-147.725 193.592C-88.0103 346.823 104.621 668.636 397.424 730.048C763.429 806.811 910.758 627.021 1189.25 451.372C1358.51 344.614 1576.86 274.424 1829.74 505.166" stroke="url(#paint54_linear_158_5809)" stroke-width="1.37543"/>
<path d="M-147.273 189.205C-87.3263 342.482 105.967 664.426 399.563 725.99C766.559 802.945 914.181 623.209 1193.31 447.68C1362.96 340.995 1581.84 270.906 1835.49 501.8" stroke="url(#paint55_linear_158_5809)" stroke-width="1.37543"/>
<path d="M-146.822 184.819C-86.6426 338.142 107.313 660.218 401.702 721.935C769.688 799.081 917.604 619.399 1197.37 443.99C1367.41 337.378 1586.82 267.39 1841.24 498.435" stroke="url(#paint56_linear_158_5809)" stroke-width="1.37543"/>
<path d="M-146.373 180.432C-85.9618 333.802 108.655 656.009 403.837 717.878C772.814 795.216 921.024 615.588 1201.43 440.299C1371.85 333.759 1591.8 263.874 1847 495.07" stroke="url(#paint57_linear_158_5809)" stroke-width="1.37543"/>
<path d="M-145.921 176.046C-85.2781 329.462 110.001 651.8 405.976 713.823C775.944 791.351 924.447 611.777 1205.49 436.608C1376.3 330.142 1596.78 260.358 1852.75 491.705" stroke="url(#paint58_linear_158_5809)" stroke-width="1.37543"/>
<path d="M-145.466 171.66C-84.5917 325.123 111.35 647.592 408.117 709.768C779.076 787.487 927.873 607.967 1209.55 432.918C1380.75 326.525 1601.77 256.842 1858.51 488.341" stroke="url(#paint59_linear_158_5809)" stroke-width="1.37543"/>
<path d="M-145.015 167.274C-83.9082 320.783 112.695 643.383 410.255 705.712C782.205 783.623 931.296 604.157 1213.61 429.228C1385.2 322.908 1606.75 253.327 1864.26 484.976" stroke="url(#paint60_linear_158_5809)" stroke-width="1.37543"/>
<path d="M-144.566 162.888C-83.2271 316.443 114.038 639.174 412.391 701.656C785.332 779.757 934.716 600.346 1217.67 425.537C1389.64 319.29 1611.72 249.81 1870.01 481.611" stroke="url(#paint61_linear_158_5809)" stroke-width="1.37543"/>
</g>
<defs>
<linearGradient id="paint0_linear_158_5809" x1="700.643" y1="429.974" x2="589.945" y2="1004.11" gradientUnits="userSpaceOnUse">
<stop stop-color="#38C19D"/>
<stop offset="0.205" stop-color="#38C19D"/>
<stop offset="0.55" stop-color="#FFFAF3"/>
<stop offset="0.885" stop-color="#38C19D"/>
<stop offset="1" stop-color="#38C19D"/>
</linearGradient>
<linearGradient id="paint1_linear_158_5809" x1="889.906" y1="193.475" x2="779.127" y2="768.032" gradientUnits="userSpaceOnUse">
<stop stop-color="#38C19D"/>
<stop offset="0.205" stop-color="#38C19D"/>
<stop offset="0.55" stop-color="#FFFAF3"/>
<stop offset="0.885" stop-color="#38C19D"/>
<stop offset="1" stop-color="#38C19D"/>
</linearGradient>
<linearGradient id="paint2_linear_158_5809" x1="703.746" y1="426.096" x2="593.047" y2="1000.24" gradientUnits="userSpaceOnUse">
<stop stop-color="#38C19D"/>
<stop offset="0.205" stop-color="#38C19D"/>
<stop offset="0.55" stop-color="#FFFAF3"/>
<stop offset="0.885" stop-color="#38C19D"/>
<stop offset="1" stop-color="#38C19D"/>
</linearGradient>
<linearGradient id="paint3_linear_158_5809" x1="706.846" y1="422.22" x2="596.145" y2="996.37" gradientUnits="userSpaceOnUse">
<stop stop-color="#38C19D"/>
<stop offset="0.205" stop-color="#38C19D"/>
<stop offset="0.55" stop-color="#FFFAF3"/>
<stop offset="0.885" stop-color="#38C19D"/>
<stop offset="1" stop-color="#38C19D"/>
</linearGradient>
<linearGradient id="paint4_linear_158_5809" x1="709.949" y1="418.343" x2="599.247" y2="992.5" gradientUnits="userSpaceOnUse">
<stop stop-color="#38C19D"/>
<stop offset="0.205" stop-color="#38C19D"/>
<stop offset="0.55" stop-color="#FFFAF3"/>
<stop offset="0.885" stop-color="#38C19D"/>
<stop offset="1" stop-color="#38C19D"/>
</linearGradient>
<linearGradient id="paint5_linear_158_5809" x1="713.053" y1="414.465" x2="602.349" y2="988.629" gradientUnits="userSpaceOnUse">
<stop stop-color="#38C19D"/>
<stop offset="0.205" stop-color="#38C19D"/>
<stop offset="0.55" stop-color="#FFFAF3"/>
<stop offset="0.885" stop-color="#38C19D"/>
<stop offset="1" stop-color="#38C19D"/>
</linearGradient>
<linearGradient id="paint6_linear_158_5809" x1="716.155" y1="410.589" x2="605.451" y2="984.76" gradientUnits="userSpaceOnUse">
<stop stop-color="#38C19D"/>
<stop offset="0.205" stop-color="#38C19D"/>
<stop offset="0.55" stop-color="#FFFAF3"/>
<stop offset="0.885" stop-color="#38C19D"/>
<stop offset="1" stop-color="#38C19D"/>
</linearGradient>
<linearGradient id="paint7_linear_158_5809" x1="719.258" y1="406.712" x2="608.552" y2="980.89" gradientUnits="userSpaceOnUse">
<stop stop-color="#38C19D"/>
<stop offset="0.205" stop-color="#38C19D"/>
<stop offset="0.55" stop-color="#FFFAF3"/>
<stop offset="0.885" stop-color="#38C19D"/>
<stop offset="1" stop-color="#38C19D"/>
</linearGradient>
<linearGradient id="paint8_linear_158_5809" x1="722.361" y1="402.834" x2="611.654" y2="977.019" gradientUnits="userSpaceOnUse">
<stop stop-color="#38C19D"/>
<stop offset="0.205" stop-color="#38C19D"/>
<stop offset="0.55" stop-color="#FFFAF3"/>
<stop offset="0.885" stop-color="#38C19D"/>
<stop offset="1" stop-color="#38C19D"/>
</linearGradient>
<linearGradient id="paint9_linear_158_5809" x1="725.465" y1="398.957" x2="614.756" y2="973.149" gradientUnits="userSpaceOnUse">
<stop stop-color="#38C19D"/>
<stop offset="0.205" stop-color="#38C19D"/>
<stop offset="0.55" stop-color="#FFFAF3"/>
<stop offset="0.885" stop-color="#38C19D"/>
<stop offset="1" stop-color="#38C19D"/>
</linearGradient>
<linearGradient id="paint10_linear_158_5809" x1="728.565" y1="395.08" x2="617.855" y2="969.279" gradientUnits="userSpaceOnUse">
<stop stop-color="#38C19D"/>
<stop offset="0.205" stop-color="#38C19D"/>
<stop offset="0.55" stop-color="#FFFAF3"/>
<stop offset="0.885" stop-color="#38C19D"/>
<stop offset="1" stop-color="#38C19D"/>
</linearGradient>
<linearGradient id="paint11_linear_158_5809" x1="731.668" y1="391.203" x2="620.956" y2="965.408" gradientUnits="userSpaceOnUse">
<stop stop-color="#38C19D"/>
<stop offset="0.205" stop-color="#38C19D"/>
<stop offset="0.55" stop-color="#FFFAF3"/>
<stop offset="0.885" stop-color="#38C19D"/>
<stop offset="1" stop-color="#38C19D"/>
</linearGradient>
<linearGradient id="paint12_linear_158_5809" x1="734.771" y1="387.326" x2="624.058" y2="961.539" gradientUnits="userSpaceOnUse">
<stop stop-color="#38C19D"/>
<stop offset="0.205" stop-color="#38C19D"/>
<stop offset="0.55" stop-color="#FFFAF3"/>
<stop offset="0.885" stop-color="#38C19D"/>
<stop offset="1" stop-color="#38C19D"/>
</linearGradient>
<linearGradient id="paint13_linear_158_5809" x1="737.874" y1="383.45" x2="627.16" y2="957.669" gradientUnits="userSpaceOnUse">
<stop stop-color="#38C19D"/>
<stop offset="0.205" stop-color="#38C19D"/>
<stop offset="0.55" stop-color="#FFFAF3"/>
<stop offset="0.885" stop-color="#38C19D"/>
<stop offset="1" stop-color="#38C19D"/>
</linearGradient>
<linearGradient id="paint14_linear_158_5809" x1="740.977" y1="379.572" x2="630.262" y2="953.798" gradientUnits="userSpaceOnUse">
<stop stop-color="#38C19D"/>
<stop offset="0.205" stop-color="#38C19D"/>
<stop offset="0.55" stop-color="#FFFAF3"/>
<stop offset="0.885" stop-color="#38C19D"/>
<stop offset="1" stop-color="#38C19D"/>
</linearGradient>
<linearGradient id="paint15_linear_158_5809" x1="744.08" y1="375.695" x2="633.363" y2="949.928" gradientUnits="userSpaceOnUse">
<stop stop-color="#38C19D"/>
<stop offset="0.205" stop-color="#38C19D"/>
<stop offset="0.55" stop-color="#FFFAF3"/>
<stop offset="0.885" stop-color="#38C19D"/>
<stop offset="1" stop-color="#38C19D"/>
</linearGradient>
<linearGradient id="paint16_linear_158_5809" x1="747.183" y1="371.819" x2="636.465" y2="946.059" gradientUnits="userSpaceOnUse">
<stop stop-color="#38C19D"/>
<stop offset="0.205" stop-color="#38C19D"/>
<stop offset="0.55" stop-color="#FFFAF3"/>
<stop offset="0.885" stop-color="#38C19D"/>
<stop offset="1" stop-color="#38C19D"/>
</linearGradient>
<linearGradient id="paint17_linear_158_5809" x1="750.286" y1="367.941" x2="639.567" y2="942.188" gradientUnits="userSpaceOnUse">
<stop stop-color="#38C19D"/>
<stop offset="0.205" stop-color="#38C19D"/>
<stop offset="0.55" stop-color="#FFFAF3"/>
<stop offset="0.885" stop-color="#38C19D"/>
<stop offset="1" stop-color="#38C19D"/>
</linearGradient>
<linearGradient id="paint18_linear_158_5809" x1="753.386" y1="364.063" x2="642.666" y2="938.317" gradientUnits="userSpaceOnUse">
<stop stop-color="#38C19D"/>
<stop offset="0.205" stop-color="#38C19D"/>
<stop offset="0.55" stop-color="#FFFAF3"/>
<stop offset="0.885" stop-color="#38C19D"/>
<stop offset="1" stop-color="#38C19D"/>
</linearGradient>
<linearGradient id="paint19_linear_158_5809" x1="756.489" y1="360.188" x2="645.767" y2="934.449" gradientUnits="userSpaceOnUse">
<stop stop-color="#38C19D"/>
<stop offset="0.205" stop-color="#38C19D"/>
<stop offset="0.55" stop-color="#FFFAF3"/>
<stop offset="0.885" stop-color="#38C19D"/>
<stop offset="1" stop-color="#38C19D"/>
</linearGradient>
<linearGradient id="paint20_linear_158_5809" x1="759.595" y1="356.31" x2="648.872" y2="930.578" gradientUnits="userSpaceOnUse">
<stop stop-color="#38C19D"/>
<stop offset="0.205" stop-color="#38C19D"/>
<stop offset="0.55" stop-color="#FFFAF3"/>
<stop offset="0.885" stop-color="#38C19D"/>
<stop offset="1" stop-color="#38C19D"/>
</linearGradient>
<linearGradient id="paint21_linear_158_5809" x1="762.696" y1="352.433" x2="651.971" y2="926.707" gradientUnits="userSpaceOnUse">
<stop stop-color="#38C19D"/>
<stop offset="0.205" stop-color="#38C19D"/>
<stop offset="0.55" stop-color="#FFFAF3"/>
<stop offset="0.885" stop-color="#38C19D"/>
<stop offset="1" stop-color="#38C19D"/>
</linearGradient>
<linearGradient id="paint22_linear_158_5809" x1="765.798" y1="348.557" x2="655.072" y2="922.839" gradientUnits="userSpaceOnUse">
<stop stop-color="#38C19D"/>
<stop offset="0.205" stop-color="#38C19D"/>
<stop offset="0.55" stop-color="#FFFAF3"/>
<stop offset="0.885" stop-color="#38C19D"/>
<stop offset="1" stop-color="#38C19D"/>
</linearGradient>
<linearGradient id="paint23_linear_158_5809" x1="768.902" y1="344.679" x2="658.174" y2="918.967" gradientUnits="userSpaceOnUse">
<stop stop-color="#38C19D"/>
<stop offset="0.205" stop-color="#38C19D"/>
<stop offset="0.55" stop-color="#FFFAF3"/>
<stop offset="0.885" stop-color="#38C19D"/>
<stop offset="1" stop-color="#38C19D"/>
</linearGradient>
<linearGradient id="paint24_linear_158_5809" x1="772.005" y1="340.802" x2="661.276" y2="915.097" gradientUnits="userSpaceOnUse">
<stop stop-color="#38C19D"/>
<stop offset="0.205" stop-color="#38C19D"/>
<stop offset="0.55" stop-color="#FFFAF3"/>
<stop offset="0.885" stop-color="#38C19D"/>
<stop offset="1" stop-color="#38C19D"/>
</linearGradient>
<linearGradient id="paint25_linear_158_5809" x1="775.105" y1="336.923" x2="664.375" y2="911.226" gradientUnits="userSpaceOnUse">
<stop stop-color="#38C19D"/>
<stop offset="0.205" stop-color="#38C19D"/>
<stop offset="0.55" stop-color="#FFFAF3"/>
<stop offset="0.885" stop-color="#38C19D"/>
<stop offset="1" stop-color="#38C19D"/>
</linearGradient>
<linearGradient id="paint26_linear_158_5809" x1="778.208" y1="333.048" x2="667.477" y2="907.357" gradientUnits="userSpaceOnUse">
<stop stop-color="#38C19D"/>
<stop offset="0.205" stop-color="#38C19D"/>
<stop offset="0.55" stop-color="#FFFAF3"/>
<stop offset="0.885" stop-color="#38C19D"/>
<stop offset="1" stop-color="#38C19D"/>
</linearGradient>
<linearGradient id="paint27_linear_158_5809" x1="781.314" y1="329.172" x2="670.581" y2="903.487" gradientUnits="userSpaceOnUse">
<stop stop-color="#38C19D"/>
<stop offset="0.205" stop-color="#38C19D"/>
<stop offset="0.55" stop-color="#FFFAF3"/>
<stop offset="0.885" stop-color="#38C19D"/>
<stop offset="1" stop-color="#38C19D"/>
</linearGradient>
<linearGradient id="paint28_linear_158_5809" x1="784.414" y1="325.293" x2="673.68" y2="899.616" gradientUnits="userSpaceOnUse">
<stop stop-color="#38C19D"/>
<stop offset="0.205" stop-color="#38C19D"/>
<stop offset="0.55" stop-color="#FFFAF3"/>
<stop offset="0.885" stop-color="#38C19D"/>
<stop offset="1" stop-color="#38C19D"/>
</linearGradient>
<linearGradient id="paint29_linear_158_5809" x1="787.517" y1="321.417" x2="676.782" y2="895.747" gradientUnits="userSpaceOnUse">
<stop stop-color="#38C19D"/>
<stop offset="0.205" stop-color="#38C19D"/>
<stop offset="0.55" stop-color="#FFFAF3"/>
<stop offset="0.885" stop-color="#38C19D"/>
<stop offset="1" stop-color="#38C19D"/>
</linearGradient>
<linearGradient id="paint30_linear_158_5809" x1="790.62" y1="317.54" x2="679.883" y2="891.877" gradientUnits="userSpaceOnUse">
<stop stop-color="#38C19D"/>
<stop offset="0.205" stop-color="#38C19D"/>
<stop offset="0.55" stop-color="#FFFAF3"/>
<stop offset="0.885" stop-color="#38C19D"/>
<stop offset="1" stop-color="#38C19D"/>
</linearGradient>
<linearGradient id="paint31_linear_158_5809" x1="793.723" y1="313.662" x2="682.985" y2="888.006" gradientUnits="userSpaceOnUse">
<stop stop-color="#38C19D"/>
<stop offset="0.205" stop-color="#38C19D"/>
<stop offset="0.55" stop-color="#FFFAF3"/>
<stop offset="0.885" stop-color="#38C19D"/>
<stop offset="1" stop-color="#38C19D"/>
</linearGradient>
<linearGradient id="paint32_linear_158_5809" x1="796.823" y1="309.785" x2="686.084" y2="884.136" gradientUnits="userSpaceOnUse">
<stop stop-color="#38C19D"/>
<stop offset="0.205" stop-color="#38C19D"/>
<stop offset="0.55" stop-color="#FFFAF3"/>
<stop offset="0.885" stop-color="#38C19D"/>
<stop offset="1" stop-color="#38C19D"/>
</linearGradient>
<linearGradient id="paint33_linear_158_5809" x1="799.929" y1="305.909" x2="689.189" y2="880.266" gradientUnits="userSpaceOnUse">
<stop stop-color="#38C19D"/>
<stop offset="0.205" stop-color="#38C19D"/>
<stop offset="0.55" stop-color="#FFFAF3"/>
<stop offset="0.885" stop-color="#38C19D"/>
<stop offset="1" stop-color="#38C19D"/>
</linearGradient>
<linearGradient id="paint34_linear_158_5809" x1="803.032" y1="302.031" x2="692.29" y2="876.395" gradientUnits="userSpaceOnUse">
<stop stop-color="#38C19D"/>
<stop offset="0.205" stop-color="#38C19D"/>
<stop offset="0.55" stop-color="#FFFAF3"/>
<stop offset="0.885" stop-color="#38C19D"/>
<stop offset="1" stop-color="#38C19D"/>
</linearGradient>
<linearGradient id="paint35_linear_158_5809" x1="806.135" y1="298.155" x2="695.392" y2="872.526" gradientUnits="userSpaceOnUse">
<stop stop-color="#38C19D"/>
<stop offset="0.205" stop-color="#38C19D"/>
<stop offset="0.55" stop-color="#FFFAF3"/>
<stop offset="0.885" stop-color="#38C19D"/>
<stop offset="1" stop-color="#38C19D"/>
</linearGradient>
<linearGradient id="paint36_linear_158_5809" x1="809.236" y1="294.278" x2="698.491" y2="868.656" gradientUnits="userSpaceOnUse">
<stop stop-color="#38C19D"/>
<stop offset="0.205" stop-color="#38C19D"/>
<stop offset="0.55" stop-color="#FFFAF3"/>
<stop offset="0.885" stop-color="#38C19D"/>
<stop offset="1" stop-color="#38C19D"/>
</linearGradient>
<linearGradient id="paint37_linear_158_5809" x1="812.339" y1="290.399" x2="701.593" y2="864.784" gradientUnits="userSpaceOnUse">
<stop stop-color="#38C19D"/>
<stop offset="0.205" stop-color="#38C19D"/>
<stop offset="0.55" stop-color="#FFFAF3"/>
<stop offset="0.885" stop-color="#38C19D"/>
<stop offset="1" stop-color="#38C19D"/>
</linearGradient>
<linearGradient id="paint38_linear_158_5809" x1="815.442" y1="286.524" x2="704.695" y2="860.916" gradientUnits="userSpaceOnUse">
<stop stop-color="#38C19D"/>
<stop offset="0.205" stop-color="#38C19D"/>
<stop offset="0.55" stop-color="#FFFAF3"/>
<stop offset="0.885" stop-color="#38C19D"/>
<stop offset="1" stop-color="#38C19D"/>
</linearGradient>
<linearGradient id="paint39_linear_158_5809" x1="818.542" y1="282.647" x2="707.794" y2="857.045" gradientUnits="userSpaceOnUse">
<stop stop-color="#38C19D"/>
<stop offset="0.205" stop-color="#38C19D"/>
<stop offset="0.55" stop-color="#FFFAF3"/>
<stop offset="0.885" stop-color="#38C19D"/>
<stop offset="1" stop-color="#38C19D"/>
</linearGradient>
<linearGradient id="paint40_linear_158_5809" x1="821.648" y1="278.769" x2="710.898" y2="853.174" gradientUnits="userSpaceOnUse">
<stop stop-color="#38C19D"/>
<stop offset="0.205" stop-color="#38C19D"/>
<stop offset="0.55" stop-color="#FFFAF3"/>
<stop offset="0.885" stop-color="#38C19D"/>
<stop offset="1" stop-color="#38C19D"/>
</linearGradient>
<linearGradient id="paint41_linear_158_5809" x1="824.751" y1="274.892" x2="714" y2="849.304" gradientUnits="userSpaceOnUse">
<stop stop-color="#38C19D"/>
<stop offset="0.205" stop-color="#38C19D"/>
<stop offset="0.55" stop-color="#FFFAF3"/>
<stop offset="0.885" stop-color="#38C19D"/>
<stop offset="1" stop-color="#38C19D"/>
</linearGradient>
<linearGradient id="paint42_linear_158_5809" x1="827.854" y1="271.016" x2="717.101" y2="845.436" gradientUnits="userSpaceOnUse">
<stop stop-color="#38C19D"/>
<stop offset="0.205" stop-color="#38C19D"/>
<stop offset="0.55" stop-color="#FFFAF3"/>
<stop offset="0.885" stop-color="#38C19D"/>
<stop offset="1" stop-color="#38C19D"/>
</linearGradient>
<linearGradient id="paint43_linear_158_5809" x1="830.954" y1="267.138" x2="720.2" y2="841.564" gradientUnits="userSpaceOnUse">
<stop stop-color="#38C19D"/>
<stop offset="0.205" stop-color="#38C19D"/>
<stop offset="0.55" stop-color="#FFFAF3"/>
<stop offset="0.885" stop-color="#38C19D"/>
<stop offset="1" stop-color="#38C19D"/>
</linearGradient>
<linearGradient id="paint44_linear_158_5809" x1="834.057" y1="263.261" x2="723.302" y2="837.694" gradientUnits="userSpaceOnUse">
<stop stop-color="#38C19D"/>
<stop offset="0.205" stop-color="#38C19D"/>
<stop offset="0.55" stop-color="#FFFAF3"/>
<stop offset="0.885" stop-color="#38C19D"/>
<stop offset="1" stop-color="#38C19D"/>
</linearGradient>
<linearGradient id="paint45_linear_158_5809" x1="837.16" y1="259.385" x2="726.404" y2="833.825" gradientUnits="userSpaceOnUse">
<stop stop-color="#38C19D"/>
<stop offset="0.205" stop-color="#38C19D"/>
<stop offset="0.55" stop-color="#FFFAF3"/>
<stop offset="0.885" stop-color="#38C19D"/>
<stop offset="1" stop-color="#38C19D"/>
</linearGradient>
<linearGradient id="paint46_linear_158_5809" x1="840.263" y1="255.507" x2="729.506" y2="829.954" gradientUnits="userSpaceOnUse">
<stop stop-color="#38C19D"/>
<stop offset="0.205" stop-color="#38C19D"/>
<stop offset="0.55" stop-color="#FFFAF3"/>
<stop offset="0.885" stop-color="#38C19D"/>
<stop offset="1" stop-color="#38C19D"/>
</linearGradient>
<linearGradient id="paint47_linear_158_5809" x1="843.366" y1="251.63" x2="732.607" y2="826.084" gradientUnits="userSpaceOnUse">
<stop stop-color="#38C19D"/>
<stop offset="0.205" stop-color="#38C19D"/>
<stop offset="0.55" stop-color="#FFFAF3"/>
<stop offset="0.885" stop-color="#38C19D"/>
<stop offset="1" stop-color="#38C19D"/>
</linearGradient>
<linearGradient id="paint48_linear_158_5809" x1="846.469" y1="247.754" x2="735.709" y2="822.215" gradientUnits="userSpaceOnUse">
<stop stop-color="#38C19D"/>
<stop offset="0.205" stop-color="#38C19D"/>
<stop offset="0.55" stop-color="#FFFAF3"/>
<stop offset="0.885" stop-color="#38C19D"/>
<stop offset="1" stop-color="#38C19D"/>
</linearGradient>
<linearGradient id="paint49_linear_158_5809" x1="849.572" y1="243.876" x2="738.811" y2="818.344" gradientUnits="userSpaceOnUse">
<stop stop-color="#38C19D"/>
<stop offset="0.205" stop-color="#38C19D"/>
<stop offset="0.55" stop-color="#FFFAF3"/>
<stop offset="0.885" stop-color="#38C19D"/>
<stop offset="1" stop-color="#38C19D"/>
</linearGradient>
<linearGradient id="paint50_linear_158_5809" x1="852.673" y1="239.999" x2="741.91" y2="814.473" gradientUnits="userSpaceOnUse">
<stop stop-color="#38C19D"/>
<stop offset="0.205" stop-color="#38C19D"/>
<stop offset="0.55" stop-color="#FFFAF3"/>
<stop offset="0.885" stop-color="#38C19D"/>
<stop offset="1" stop-color="#38C19D"/>
</linearGradient>
<linearGradient id="paint51_linear_158_5809" x1="855.776" y1="236.123" x2="745.011" y2="810.604" gradientUnits="userSpaceOnUse">
<stop stop-color="#38C19D"/>
<stop offset="0.205" stop-color="#38C19D"/>
<stop offset="0.55" stop-color="#FFFAF3"/>
<stop offset="0.885" stop-color="#38C19D"/>
<stop offset="1" stop-color="#38C19D"/>
</linearGradient>
<linearGradient id="paint52_linear_158_5809" x1="858.879" y1="232.245" x2="748.113" y2="806.733" gradientUnits="userSpaceOnUse">
<stop stop-color="#38C19D"/>
<stop offset="0.205" stop-color="#38C19D"/>
<stop offset="0.55" stop-color="#FFFAF3"/>
<stop offset="0.885" stop-color="#38C19D"/>
<stop offset="1" stop-color="#38C19D"/>
</linearGradient>
<linearGradient id="paint53_linear_158_5809" x1="861.985" y1="228.368" x2="751.217" y2="802.863" gradientUnits="userSpaceOnUse">
<stop stop-color="#38C19D"/>
<stop offset="0.205" stop-color="#38C19D"/>
<stop offset="0.55" stop-color="#FFFAF3"/>
<stop offset="0.885" stop-color="#38C19D"/>
<stop offset="1" stop-color="#38C19D"/>
</linearGradient>
<linearGradient id="paint54_linear_158_5809" x1="865.085" y1="224.492" x2="754.316" y2="798.994" gradientUnits="userSpaceOnUse">
<stop stop-color="#38C19D"/>
<stop offset="0.205" stop-color="#38C19D"/>
<stop offset="0.55" stop-color="#FFFAF3"/>
<stop offset="0.885" stop-color="#38C19D"/>
<stop offset="1" stop-color="#38C19D"/>
</linearGradient>
<linearGradient id="paint55_linear_158_5809" x1="868.188" y1="220.614" x2="757.418" y2="795.123" gradientUnits="userSpaceOnUse">
<stop stop-color="#38C19D"/>
<stop offset="0.205" stop-color="#38C19D"/>
<stop offset="0.55" stop-color="#FFFAF3"/>
<stop offset="0.885" stop-color="#38C19D"/>
<stop offset="1" stop-color="#38C19D"/>
</linearGradient>
<linearGradient id="paint56_linear_158_5809" x1="871.291" y1="216.737" x2="760.52" y2="791.253" gradientUnits="userSpaceOnUse">
<stop stop-color="#38C19D"/>
<stop offset="0.205" stop-color="#38C19D"/>
<stop offset="0.55" stop-color="#FFFAF3"/>
<stop offset="0.885" stop-color="#38C19D"/>
<stop offset="1" stop-color="#38C19D"/>
</linearGradient>
<linearGradient id="paint57_linear_158_5809" x1="874.391" y1="212.859" x2="763.619" y2="787.382" gradientUnits="userSpaceOnUse">
<stop stop-color="#38C19D"/>
<stop offset="0.205" stop-color="#38C19D"/>
<stop offset="0.55" stop-color="#FFFAF3"/>
<stop offset="0.885" stop-color="#38C19D"/>
<stop offset="1" stop-color="#38C19D"/>
</linearGradient>
<linearGradient id="paint58_linear_158_5809" x1="877.494" y1="208.983" x2="766.72" y2="783.512" gradientUnits="userSpaceOnUse">
<stop stop-color="#38C19D"/>
<stop offset="0.205" stop-color="#38C19D"/>
<stop offset="0.55" stop-color="#FFFAF3"/>
<stop offset="0.885" stop-color="#38C19D"/>
<stop offset="1" stop-color="#38C19D"/>
</linearGradient>
<linearGradient id="paint59_linear_158_5809" x1="880.6" y1="205.106" x2="769.825" y2="779.643" gradientUnits="userSpaceOnUse">
<stop stop-color="#38C19D"/>
<stop offset="0.205" stop-color="#38C19D"/>
<stop offset="0.55" stop-color="#FFFAF3"/>
<stop offset="0.885" stop-color="#38C19D"/>
<stop offset="1" stop-color="#38C19D"/>
</linearGradient>
<linearGradient id="paint60_linear_158_5809" x1="883.703" y1="201.229" x2="772.926" y2="775.773" gradientUnits="userSpaceOnUse">
<stop stop-color="#38C19D"/>
<stop offset="0.205" stop-color="#38C19D"/>
<stop offset="0.55" stop-color="#FFFAF3"/>
<stop offset="0.885" stop-color="#38C19D"/>
<stop offset="1" stop-color="#38C19D"/>
</linearGradient>
<linearGradient id="paint61_linear_158_5809" x1="886.803" y1="197.352" x2="776.026" y2="771.902" gradientUnits="userSpaceOnUse">
<stop stop-color="#38C19D"/>
<stop offset="0.205" stop-color="#38C19D"/>
<stop offset="0.55" stop-color="#FFFAF3"/>
<stop offset="0.885" stop-color="#38C19D"/>
<stop offset="1" stop-color="#38C19D"/>
</linearGradient>
</defs>
</svg>
