<svg width="50" height="50" viewBox="0 0 50 50" fill="none" xmlns="http://www.w3.org/2000/svg">
<path d="M29.1667 20.832C29.1667 22.9549 28.525 24.9237 27.4333 26.5695L21.4437 20.5799C21.0521 20.1883 20.8333 19.6591 20.8333 19.107V10.6258C25.5875 11.5904 29.1667 15.7924 29.1667 20.832ZM16.6667 19.9695V10.6258C11.3542 11.7049 7.50833 16.8258 8.48542 22.6404C9.1625 26.6695 12.2771 30.0216 16.2542 30.957C19.3167 31.6758 22.2125 31.0258 24.4875 29.5174L17.8854 22.9154C17.1042 22.1341 16.6667 21.0737 16.6667 19.9695ZM39.5833 10.4154H35.4167C34.2646 10.4154 33.3333 11.3487 33.3333 12.4987C33.3333 13.6487 34.2646 14.582 35.4167 14.582H39.5833C40.7354 14.582 41.6667 13.6487 41.6667 12.4987C41.6667 11.3487 40.7354 10.4154 39.5833 10.4154ZM39.5833 18.7487H35.4167C34.2646 18.7487 33.3333 19.682 33.3333 20.832C33.3333 21.982 34.2646 22.9154 35.4167 22.9154H39.5833C40.7354 22.9154 41.6667 21.982 41.6667 20.832C41.6667 19.682 40.7354 18.7487 39.5833 18.7487ZM39.5833 27.082H35.4167C34.2646 27.082 33.3333 28.0154 33.3333 29.1654C33.3333 30.3154 34.2646 31.2487 35.4167 31.2487H39.5833C40.7354 31.2487 41.6667 30.3154 41.6667 29.1654C41.6667 28.0154 40.7354 27.082 39.5833 27.082ZM50 12.4987V29.1654C50 34.9091 45.3271 39.582 39.5833 39.582H27.0833V43.7487H35.4167C36.5687 43.7487 37.5 44.682 37.5 45.832C37.5 46.982 36.5687 47.9154 35.4167 47.9154H14.5833C13.4312 47.9154 12.5 46.982 12.5 45.832C12.5 44.682 13.4312 43.7487 14.5833 43.7487H22.9167V39.582H10.4167C4.67292 39.582 0 34.9091 0 29.1654V12.4987C0 6.75495 4.67292 2.08203 10.4167 2.08203H39.5833C45.3271 2.08203 50 6.75495 50 12.4987ZM45.8333 12.4987C45.8333 9.05286 43.0292 6.2487 39.5833 6.2487H10.4167C6.97083 6.2487 4.16667 9.05286 4.16667 12.4987V29.1654C4.16667 32.6112 6.97083 35.4154 10.4167 35.4154H39.5833C43.0292 35.4154 45.8333 32.6112 45.8333 29.1654V12.4987Z" fill="#38C19D"/>
</svg>
