<svg width="50" height="50" viewBox="0 0 50 50" fill="none" xmlns="http://www.w3.org/2000/svg">
<g clip-path="url(#clip0_749_347)">
<path d="M49.3896 46.4437L36.9542 34.0083C39.8958 30.4146 41.6667 25.8271 41.6667 20.8333C41.6667 9.34583 32.3208 0 20.8333 0C9.34583 0 0 9.34583 0 20.8333C0 32.3208 9.34583 41.6667 20.8333 41.6667C25.8292 41.6667 30.4167 39.8958 34.0083 36.9542L46.4437 49.3896C46.85 49.7958 47.3833 50 47.9167 50C48.45 50 48.9833 49.7958 49.3896 49.3896C50.2042 48.575 50.2042 47.2583 49.3896 46.4437ZM4.16667 20.8333C4.16667 11.6438 11.6438 4.16667 20.8333 4.16667C30.0229 4.16667 37.5 11.6438 37.5 20.8333C37.5 30.0229 30.0229 37.5 20.8333 37.5C11.6438 37.5 4.16667 30.0229 4.16667 20.8333ZM22.9167 12.5V29.1667C22.9167 30.3187 21.9833 31.25 20.8333 31.25C19.6833 31.25 18.75 30.3187 18.75 29.1667V12.5C18.75 11.3479 19.6833 10.4167 20.8333 10.4167C21.9833 10.4167 22.9167 11.3479 22.9167 12.5ZM29.1667 18.75V22.9167C29.1667 24.0687 28.2333 25 27.0833 25C25.9333 25 25 24.0687 25 22.9167V18.75C25 17.5979 25.9333 16.6667 27.0833 16.6667C28.2333 16.6667 29.1667 17.5979 29.1667 18.75ZM16.6667 16.6667V25C16.6667 26.1521 15.7333 27.0833 14.5833 27.0833C13.4333 27.0833 12.5 26.1521 12.5 25V16.6667C12.5 15.5146 13.4333 14.5833 14.5833 14.5833C15.7333 14.5833 16.6667 15.5146 16.6667 16.6667Z" fill="#38C19D"/>
</g>
<defs>
<clipPath id="clip0_749_347">
<rect width="50" height="50" fill="white"/>
</clipPath>
</defs>
</svg>
