<svg width="50" height="50" viewBox="0 0 50 50" fill="none" xmlns="http://www.w3.org/2000/svg">
<g clip-path="url(#clip0_750_351)">
<path d="M48.9437 22.9526C47.9292 21.5901 46.3729 20.8068 44.6729 20.8068H43.75V16.6672C43.75 10.9234 39.0771 6.25052 33.3333 6.25052H22.8C22.4792 6.25052 22.1542 6.17344 21.8687 6.03177L15.2958 2.74427C14.4333 2.31302 13.4667 2.08594 12.5 2.08594H8.33333C3.7375 2.08386 0 5.82135 0 10.4172V37.5005C0 43.2443 4.67292 47.9172 10.4167 47.9172H36.5792C41.2167 47.9172 45.225 44.9339 46.5833 40.4026L49.775 27.6609C50.2625 26.0318 49.9583 24.3172 48.9437 22.9526ZM4.16667 37.5005V10.4172C4.16667 8.11927 6.03542 6.25052 8.33333 6.25052H12.5C12.8208 6.25052 13.1458 6.32761 13.4312 6.46927L20.0042 9.75677C20.8667 10.188 21.8333 10.4151 22.8 10.4151H33.3333C36.7792 10.4151 39.5833 13.2193 39.5833 16.6651V20.8047H17.9479C14.4062 20.8047 11.2437 23.0526 10.0542 26.4714L5.49167 41.3422C4.6625 40.2818 4.16667 38.9484 4.16667 37.5005ZM45.7583 26.5568L42.5667 39.2964C41.7667 41.9609 39.3604 43.7505 36.5792 43.7505H10.4167C9.98333 43.7505 9.56042 43.7068 9.15208 43.6214L14.0146 27.7693C14.5958 26.0964 16.1792 24.9734 17.95 24.9734H44.675C45.1792 24.9734 45.4729 25.2651 45.6021 25.4401C45.7312 25.6151 45.9271 25.9797 45.7583 26.5568Z" fill="#38C19D"/>
</g>
<defs>
<clipPath id="clip0_750_351">
<rect width="50" height="50" fill="white"/>
</clipPath>
</defs>
</svg>
