<svg width="75" height="75" viewBox="0 0 75 75" fill="none" xmlns="http://www.w3.org/2000/svg">
<g clip-path="url(#clip0_748_338)">
<path d="M23.4845 15.6492C23.3109 15.2218 23.014 14.8557 22.6317 14.5975C22.2494 14.3393 21.799 14.2006 21.3376 14.1992C20.8677 14.2006 20.4091 14.3436 20.0217 14.6095C19.6343 14.8754 19.336 15.2519 19.1657 15.6898L12.9876 31.8992C12.8961 32.1391 12.8528 32.3946 12.8602 32.6512C12.8675 32.9078 12.9254 33.1604 13.0305 33.3947C13.1355 33.6289 13.2857 33.8401 13.4725 34.0162C13.6592 34.1923 13.8789 34.3299 14.1189 34.4211C14.3407 34.5046 14.5756 34.548 14.8126 34.5492C15.2074 34.5494 15.593 34.43 15.9188 34.2069C16.2445 33.9838 16.4951 33.6674 16.6376 33.2992L17.697 30.5211H24.9189L25.9657 33.293C26.0562 33.533 26.1931 33.7529 26.3686 33.9401C26.5441 34.1273 26.7547 34.2781 26.9884 34.3838C27.2222 34.4896 27.4745 34.5483 27.7309 34.5566C27.9873 34.5648 28.2429 34.5225 28.4829 34.432C28.723 34.3415 28.9429 34.2047 29.1301 34.0292C29.3172 33.8537 29.468 33.6431 29.5738 33.4093C29.6796 33.1756 29.7383 32.9233 29.7465 32.6669C29.7548 32.4105 29.7125 32.1549 29.622 31.9148L23.4845 15.6492ZM19.1845 26.6055L21.322 20.9805L23.4439 26.6055H19.1845Z" fill="#38C19D"/>
<path d="M35.1016 14.1992C34.5838 14.2 34.0875 14.4061 33.7214 14.7722C33.3553 15.1383 33.1493 15.6346 33.1484 16.1523V32.5961C33.1484 33.1141 33.3542 33.6109 33.7205 33.9772C34.0868 34.3434 34.5836 34.5492 35.1016 34.5492C35.6196 34.5492 36.1163 34.3434 36.4826 33.9772C36.8489 33.6109 37.0547 33.1141 37.0547 32.5961V16.1523C37.0547 15.6343 36.8489 15.1376 36.4826 14.7713C36.1163 14.405 35.6196 14.1992 35.1016 14.1992Z" fill="#38C19D"/>
<path d="M59.375 0H15.625C11.4825 0.00496206 7.51112 1.65276 4.58194 4.58194C1.65276 7.51112 0.00496206 11.4825 0 15.625L0 59.375C0.00496206 63.5175 1.65276 67.4889 4.58194 70.4181C7.51112 73.3473 11.4825 74.995 15.625 75H51.0719C53.1247 75.0059 55.1584 74.6045 57.0551 73.8192C58.9518 73.0339 60.674 71.8803 62.1219 70.425L70.4219 62.1188C71.8773 60.6715 73.0314 58.95 73.8172 57.0538C74.603 55.1576 75.005 53.1244 75 51.0719V15.625C74.995 11.4825 73.3473 7.51112 70.4181 4.58194C67.4889 1.65276 63.5175 0.00496206 59.375 0ZM6.25 59.375V15.625C6.25 13.1386 7.23772 10.754 8.99587 8.99587C10.754 7.23772 13.1386 6.25 15.625 6.25H59.375C61.8614 6.25 64.246 7.23772 66.0041 8.99587C67.7623 10.754 68.75 13.1386 68.75 15.625V46.875H56.25C53.7636 46.875 51.379 47.8627 49.6209 49.6209C47.8627 51.379 46.875 53.7636 46.875 56.25V68.75H15.625C13.1386 68.75 10.754 67.7623 8.99587 66.0041C7.23772 64.246 6.25 61.8614 6.25 59.375ZM57.7031 66.0063C56.4469 67.2594 54.8583 68.1269 53.125 68.5063V56.25C53.125 55.4212 53.4542 54.6263 54.0403 54.0403C54.6263 53.4542 55.4212 53.125 56.25 53.125H68.5156C68.129 54.8547 67.2626 56.4404 66.0156 57.7L57.7031 66.0063Z" fill="#38C19D"/>
</g>
<defs>
<clipPath id="clip0_748_338">
<rect width="75" height="75" fill="white"/>
</clipPath>
</defs>
</svg>
