<svg width="75" height="75" viewBox="0 0 75 75" fill="none" xmlns="http://www.w3.org/2000/svg">
<g clip-path="url(#clip0_748_332)">
<path d="M37.5 0C16.8219 0 0 16.8219 0 37.5C0 58.1781 16.8219 75 37.5 75C58.1781 75 75 58.1781 75 37.5C75 16.8219 58.1781 0 37.5 0ZM37.5 68.75C20.2688 68.75 6.25 54.7312 6.25 37.5C6.25 32.8313 7.28125 28.4 9.125 24.4156L14.3312 29.8875C15.1594 30.7563 16.3063 31.25 17.5063 31.25H23.5969C24.4969 31.25 25.3594 31.6062 25.9969 32.2437L27.1625 33.4094C27.7813 34.0281 28.1281 34.8656 28.1281 35.7375V38.7469C28.1281 39.95 28.6062 41.1 29.4562 41.95L33.175 45.6688C33.9469 46.4406 34.3812 47.4875 34.3812 48.5781V55.9687C34.3812 57.85 35.9063 59.375 37.7875 59.375H38.4531C39.7813 59.375 40.9875 58.6031 41.5437 57.3969L48.5469 42.2219C49.3812 40.4156 48.7406 38.275 47.0562 37.2187L39.05 32.2156C38.0406 31.5844 36.875 31.25 35.6844 31.25H31.2125C30.2406 31.25 29.3062 30.8625 28.6187 30.175L26.7687 28.325C25.7937 27.35 25.7937 25.7719 26.7687 24.8L28.4219 23.1469C29.1813 22.3875 30.3406 22.2 31.3 22.6812L34.05 24.0562C35.1781 24.6219 36.5437 24.4 37.4375 23.5062L37.4469 23.4969C38.4 22.5438 38.5812 21.0656 37.8875 19.9125L35.2719 15.55C34.725 14.6375 34.7375 13.5062 35.3156 12.6125C36.2406 11.1844 37.7531 8.85625 39.4281 6.3125C49.6531 6.9375 58.5687 12.5 63.8062 20.6437L58.8375 23.5094C57.3062 24.3906 56.5469 26.1812 56.9781 27.8937L58.9375 35.7281C59.2188 36.8531 59.9781 37.7969 61.0156 38.3125L68.4313 41.9937C66.2469 57.1031 53.2094 68.75 37.5062 68.75H37.5Z" fill="#38C19D"/>
</g>
<defs>
<clipPath id="clip0_748_332">
<rect width="75" height="75" fill="white"/>
</clipPath>
</defs>
</svg>
