<svg width="75" height="75" viewBox="0 0 75 75" fill="none" xmlns="http://www.w3.org/2000/svg">
<g clip-path="url(#clip0_748_336)">
<path d="M51.5625 21.875H23.4375C22.5625 21.875 21.875 22.5625 21.875 23.4375V51.5625C21.875 52.4375 22.5625 53.125 23.4375 53.125H51.5625C52.4375 53.125 53.125 52.4375 53.125 51.5625V23.4375C53.125 22.5625 52.4375 21.875 51.5625 21.875ZM50 50H25V25H50V50ZM73.4375 34.375C74.3125 34.375 75 33.6875 75 32.8125C75 31.9375 74.3125 31.25 73.4375 31.25H68.75V25H73.4375C74.3125 25 75 24.3125 75 23.4375C75 22.5625 74.3125 21.875 73.4375 21.875H68.75V20.3125C68.75 12.5625 62.4375 6.25 54.6875 6.25H53.125V1.5625C53.125 0.6875 52.4375 0 51.5625 0C50.6875 0 50 0.6875 50 1.5625V6.25H43.75V1.5625C43.75 0.6875 43.0625 0 42.1875 0C41.3125 0 40.625 0.6875 40.625 1.5625V6.25H34.375V1.5625C34.375 0.6875 33.6875 0 32.8125 0C31.9375 0 31.25 0.6875 31.25 1.5625V6.25H25V1.5625C25 0.6875 24.3125 0 23.4375 0C22.5625 0 21.875 0.6875 21.875 1.5625V6.25H20.3125C12.5625 6.25 6.25 12.5625 6.25 20.3125V21.875H1.5625C0.6875 21.875 0 22.5625 0 23.4375C0 24.3125 0.6875 25 1.5625 25H6.25V31.25H1.5625C0.6875 31.25 0 31.9375 0 32.8125C0 33.6875 0.6875 34.375 1.5625 34.375H6.25V40.625H1.5625C0.6875 40.625 0 41.3125 0 42.1875C0 43.0625 0.6875 43.75 1.5625 43.75H6.25V50H1.5625C0.6875 50 0 50.6875 0 51.5625C0 52.4375 0.6875 53.125 1.5625 53.125H6.25V54.6875C6.25 62.4375 12.5625 68.75 20.3125 68.75H21.875V73.4375C21.875 74.3125 22.5625 75 23.4375 75C24.3125 75 25 74.3125 25 73.4375V68.75H31.25V73.4375C31.25 74.3125 31.9375 75 32.8125 75C33.6875 75 34.375 74.3125 34.375 73.4375V68.75H40.625V73.4375C40.625 74.3125 41.3125 75 42.1875 75C43.0625 75 43.75 74.3125 43.75 73.4375V68.75H50V73.4375C50 74.3125 50.6875 75 51.5625 75C52.4375 75 53.125 74.3125 53.125 73.4375V68.75H54.6875C62.4375 68.75 68.75 62.4375 68.75 54.6875V53.125H73.4375C74.3125 53.125 75 52.4375 75 51.5625C75 50.6875 74.3125 50 73.4375 50H68.75V43.75H73.4375C74.3125 43.75 75 43.0625 75 42.1875C75 41.3125 74.3125 40.625 73.4375 40.625H68.75V34.375H73.4375ZM65.625 54.6875C65.625 60.7188 60.7188 65.625 54.6875 65.625H20.3125C14.2813 65.625 9.375 60.7188 9.375 54.6875V20.3125C9.375 14.2813 14.2813 9.375 20.3125 9.375H54.6875C60.7188 9.375 65.625 14.2813 65.625 20.3125V54.6875Z" fill="#38C19D" stroke="#38C19D" stroke-width="2"/>
</g>
<defs>
<clipPath id="clip0_748_336">
<rect width="75" height="75" fill="white"/>
</clipPath>
</defs>
</svg>
