<?xml version="1.0" encoding="UTF-8"?>
<!DOCTYPE svg PUBLIC "-//W3C//DTD SVG 1.1//EN" "http://www.w3.org/Graphics/SVG/1.1/DTD/svg11.dtd">
<!-- Creator: CorelDRAW -->
<svg xmlns="http://www.w3.org/2000/svg" xml:space="preserve" width="67.0613mm" height="130.247mm" version="1.1" style="shape-rendering:geometricPrecision; text-rendering:geometricPrecision; image-rendering:optimizeQuality; fill-rule:evenodd; clip-rule:evenodd"
viewBox="0 0 17.13 33.27"
 xmlns:xlink="http://www.w3.org/1999/xlink"
 xmlns:xodm="http://www.corel.com/coreldraw/odm/2003">
 <defs>
  <style type="text/css">
   <![CDATA[
    .fil2 {fill:#EEEDEC;fill-rule:nonzero}
    .fil23 {fill:#EBEBF0;fill-rule:nonzero}
    .fil8 {fill:#E0E1E5;fill-rule:nonzero}
    .fil0 {fill:#D8D6D7;fill-rule:nonzero}
    .fil10 {fill:#C5C3C5;fill-rule:nonzero}
    .fil1 {fill:#BDBBBA;fill-rule:nonzero}
    .fil11 {fill:#B2AFB1;fill-rule:nonzero}
    .fil25 {fill:#9C9A9A;fill-rule:nonzero}
    .fil20 {fill:#979496;fill-rule:nonzero}
    .fil9 {fill:#939193;fill-rule:nonzero}
    .fil14 {fill:#938F90;fill-rule:nonzero}
    .fil4 {fill:#908E90;fill-rule:nonzero}
    .fil24 {fill:#8F8C8F;fill-rule:nonzero}
    .fil5 {fill:#6D6E6E;fill-rule:nonzero}
    .fil19 {fill:#625462;fill-rule:nonzero}
    .fil18 {fill:#484046;fill-rule:nonzero}
    .fil17 {fill:#463E44;fill-rule:nonzero}
    .fil16 {fill:#302A2A;fill-rule:nonzero}
    .fil15 {fill:#312B2B;fill-rule:nonzero}
    .fil21 {fill:#2E2A29;fill-rule:nonzero}
    .fil22 {fill:#2F2A2A;fill-rule:nonzero}
    .fil13 {fill:#47365A;fill-rule:nonzero}
    .fil12 {fill:#443352;fill-rule:nonzero}
    .fil3 {fill:#583085;fill-rule:nonzero}
    .fil6 {fill:#7B34D9;fill-rule:nonzero}
    .fil7 {fill:#ABA8A8;fill-rule:nonzero}
   ]]>
  </style>
 </defs>
 <g id="Слой_x0020_1">
  <metadata id="CorelCorpID_0Corel-Layer"/>
  <g id="_2374576918352">
   <polygon class="fil0" points="17.13,27.39 17.13,28 8.94,23.18 8.94,22.61 "/>
   <polygon class="fil0" points="-0,28.46 0,27.85 8.94,22.61 8.94,23.18 "/>
   <polygon class="fil0" points="8.19,33.27 -0,28.46 8.94,23.18 17.13,28 "/>
   <polygon class="fil1" points="0,27.85 8.94,22.61 17.13,27.39 8.19,32.67 "/>
   <polygon class="fil0" points="8.19,32.67 8.19,33.27 -0,28.46 0,27.85 "/>
   <polygon class="fil0" points="17.13,26.79 17.13,27.39 8.94,22.61 8.95,22.02 "/>
   <polygon class="fil0" points="0.42,27.61 0.42,27.01 8.95,22.02 8.94,22.61 "/>
   <polygon class="fil0" points="8.61,32.42 0.42,27.61 8.94,22.61 17.13,27.39 "/>
   <polygon class="fil1" points="0.42,27.01 8.95,22.02 17.13,26.79 8.61,31.83 "/>
   <polygon class="fil0" points="8.61,31.83 8.61,32.42 0.42,27.61 0.42,27.01 "/>
   <polygon class="fil0" points="1.1,26.62 1.1,26.01 8.94,21.37 8.95,22.02 "/>
   <polygon class="fil0" points="17.13,26.19 17.13,26.79 8.95,22.02 8.94,21.37 "/>
   <polygon class="fil0" points="9.29,31.43 1.1,26.62 8.95,22.02 17.13,26.79 "/>
   <polygon class="fil2" points="9.29,30.82 17.13,26.19 17.13,26.79 17.13,27.39 15.19,28.53 17.13,27.39 17.13,28 8.19,33.27 8.19,32.67 8.61,32.42 8.61,31.83 9.29,31.43 "/>
   <polygon class="fil1" points="1.1,26.01 8.94,21.37 17.13,26.19 9.29,30.82 "/>
   <polygon class="fil0" points="9.29,30.82 9.29,31.43 1.1,26.62 1.1,26.01 "/>
   <polygon class="fil3" points="3.57,8.93 3.57,9.47 9.47,12.88 9.43,28.8 3.53,25.39 "/>
   <polygon class="fil4" points="3.57,8.93 8.93,5.82 8.92,6.36 3.57,9.47 "/>
   <polygon class="fil5" points="3.57,9.47 8.92,6.36 14.83,9.77 9.47,12.88 "/>
   <polygon class="fil6" points="9.47,12.88 14.83,9.77 14.78,25.69 9.43,28.8 "/>
   <polygon class="fil7" points="9.48,11.36 9.47,12.88 3.57,9.47 3.57,8.93 3.58,7.95 "/>
   <polygon class="fil8" points="9.48,11.36 14.83,8.25 14.83,9.77 9.47,12.88 "/>
   <polygon class="fil9" points="9.48,10.97 4.25,7.95 8.93,5.23 14.16,8.25 "/>
   <path class="fil8" d="M9.48 10.97l-5.23 -3.02 4.68 -2.72 5.23 3.02 -4.68 2.72zm-0.55 -6.13l-5.35 3.11 5.9 3.41 5.35 -3.11 -5.9 -3.41z"/>
   <polygon class="fil6" points="13.31,8.74 8.93,6.21 5.09,8.44 4.25,7.95 9.48,10.97 14.16,8.25 "/>
   <polygon class="fil7" points="8.93,6.21 8.93,5.23 4.25,7.95 5.09,8.44 "/>
   <polygon class="fil7" points="13.31,8.74 14.16,8.25 8.93,5.23 8.93,6.21 "/>
   <polygon class="fil10" points="4.31,25.6 4.75,25.34 5.1,25.54 4.65,25.8 "/>
   <polygon class="fil11" points="4.33,16.94 4.77,16.69 4.75,25.34 4.31,25.6 "/>
   <polygon class="fil12" points="4.68,17.14 5.12,16.89 5.1,25.54 4.65,25.8 "/>
   <polygon class="fil10" points="5.1,23.49 5.55,23.24 5.9,23.44 5.45,23.7 "/>
   <polygon class="fil10" points="7.47,27.42 7.92,27.17 8.26,27.37 7.82,27.63 "/>
   <polygon class="fil10" points="5.89,23.95 6.34,23.69 6.69,23.89 6.24,24.15 "/>
   <polygon class="fil10" points="6.69,24.41 7.13,24.15 7.48,24.35 7.04,24.61 "/>
   <polygon class="fil8" points="3.77,16.01 4.22,15.75 4.49,15.91 4.04,16.16 "/>
   <polygon class="fil8" points="4.68,17.14 4.65,25.8 4.31,25.6 4.33,16.94 "/>
   <polygon class="fil13" points="4.33,16.94 4.77,16.69 5.12,16.89 4.68,17.14 "/>
   <polygon class="fil11" points="5.12,17.4 5.57,17.14 5.55,23.24 5.1,23.49 "/>
   <polygon class="fil11" points="4.33,15.93 4.78,15.67 4.78,16.07 4.33,16.33 "/>
   <polygon class="fil8" points="4.05,15.49 4.49,15.24 4.78,15.4 4.33,15.66 "/>
   <polygon class="fil8" points="5.47,17.6 5.45,23.7 5.1,23.49 5.12,17.4 "/>
   <polygon class="fil12" points="5.47,17.6 5.91,17.34 5.9,23.44 5.45,23.7 "/>
   <polygon class="fil13" points="5.12,17.4 5.57,17.14 5.91,17.34 5.47,17.6 "/>
   <polygon class="fil11" points="5.91,17.86 6.36,17.6 6.34,23.69 5.89,23.95 "/>
   <polygon class="fil8" points="6.26,18.06 6.24,24.15 5.89,23.95 5.91,17.86 "/>
   <polygon class="fil13" points="5.91,17.86 6.36,17.6 6.71,17.8 6.26,18.06 "/>
   <polygon class="fil12" points="6.26,18.06 6.71,17.8 6.69,23.89 6.24,24.15 "/>
   <polygon class="fil8" points="4.34,15.09 4.78,14.83 5.12,15.03 4.68,15.29 "/>
   <polygon class="fil11" points="6.7,18.31 7.15,18.06 7.13,24.15 6.69,24.41 "/>
   <polygon class="fil13" points="6.7,18.31 7.15,18.06 7.5,18.26 7.05,18.52 "/>
   <polygon class="fil12" points="7.05,18.52 7.5,18.26 7.48,24.35 7.04,24.61 "/>
   <polygon class="fil11" points="7.5,18.77 7.94,18.51 7.92,27.17 7.47,27.42 "/>
   <polygon class="fil13" points="7.5,18.77 7.94,18.51 8.29,18.71 7.84,18.97 "/>
   <polygon class="fil8" points="7.84,18.97 7.82,27.63 7.47,27.42 7.5,18.77 "/>
   <polygon class="fil12" points="7.84,18.97 8.29,18.71 8.26,27.37 7.82,27.63 "/>
   <polygon class="fil10" points="4.33,16.33 4.78,16.07 8.31,18.11 7.87,18.37 "/>
   <polygon class="fil8" points="7.87,17.97 7.87,18.37 4.33,16.33 4.33,15.93 "/>
   <polygon class="fil12" points="7.87,17.97 8.31,17.71 8.31,18.11 7.87,18.37 "/>
   <polygon class="fil13" points="4.33,15.93 4.78,15.67 8.31,17.71 7.87,17.97 "/>
   <path class="fil3" d="M6.08 15.47c-0.21,-0.12 -0.37,-0.02 -0.37,0.21 -0,0.24 0.17,0.53 0.37,0.64l0.03 0.02c0.21,0.12 0.37,0.02 0.37,-0.21 0,-0.24 -0.17,-0.53 -0.37,-0.64l-0.03 -0.02zm1.78 2.9l0 -0.4 -3.53 -2.04 -0 0.4 3.53 2.04zm-0.83 6.24l0.02 -6.09 -0.35 -0.2 -0.02 6.09 0.35 0.2zm-1.58 -0.91l0.02 -6.09 -0.35 -0.2 -0.02 6.09 0.35 0.2zm0.79 0.46l0.02 -6.09 -0.35 -0.2 -0.02 6.09 0.35 0.2zm-1.59 1.65l0.02 -8.65 -0.35 -0.2 -0.02 8.65 0.35 0.2zm3.17 1.83l0.02 -8.65 -0.35 -0.2 -0.02 8.65 0.35 0.2zm0.31 -9.1l0.27 0.16 -0.03 10.01 -4.63 -2.68 0.03 -10.01 0.27 0.16 0 -0.67 0.29 0.17 0 -0.57 0.34 0.2c0.01,-0.89 0.64,-1.24 1.42,-0.8 0.78,0.45 1.41,1.53 1.41,2.43l0.34 0.2 -0 0.57 0.29 0.17 -0 0.67z"/>
   <polygon class="fil8" points="7.05,18.52 7.04,24.61 6.69,24.41 6.7,18.31 "/>
   <path class="fil8" d="M6.12 15.49c0.21,0.12 0.37,0.41 0.37,0.64 -0,0.24 -0.17,0.33 -0.37,0.21l-0.03 -0.02c-0.21,-0.12 -0.37,-0.41 -0.37,-0.64 0,-0.24 0.17,-0.33 0.37,-0.21l0.03 0.02z"/>
   <polygon class="fil10" points="8.13,18.53 8.58,18.27 8.85,18.42 8.41,18.68 "/>
   <polygon class="fil8" points="8.41,18.68 8.85,18.42 8.82,28.43 8.38,28.69 "/>
   <polygon class="fil10" points="7.85,17.69 8.29,17.43 8.58,17.6 8.13,17.85 "/>
   <polygon class="fil8" points="8.13,17.85 8.58,17.6 8.58,18.27 8.13,18.53 "/>
   <polygon class="fil8" points="7.85,17.12 8.29,16.86 8.29,17.43 7.85,17.69 "/>
   <polygon class="fil10" points="7.51,16.92 7.95,16.66 8.29,16.86 7.85,17.12 "/>
   <path class="fil8" d="M7.9 16.19l-0 -0.01 -0.01 -0.03 -0 -0.01 -0.01 -0.03 -0 -0.01 -0.01 -0.03 -0 -0.01 -0.01 -0.03 -0 -0.02 -0.01 -0.03 -0 -0.01 -0.01 -0.03 -0 -0.01 -0.01 -0.03 -0 -0.01c-0,-0.01 -0.01,-0.02 -0.01,-0.04l-0 -0.01c-0,-0.01 -0.01,-0.02 -0.01,-0.04l-0 -0.01c-0,-0.01 -0.01,-0.03 -0.01,-0.04l-0 -0 -0 -0c-0,-0.01 -0.01,-0.03 -0.02,-0.04l-0 -0.01 -0.01 -0.03 -0 -0.01 -0.01 -0.03 -0.01 -0.01 -0.01 -0.02 -0.01 -0.02 -0.01 -0.03 -0.01 -0.01 -0.01 -0.03 -0.01 -0.02 -0.01 -0.03 -0 -0.01c-0.01,-0.01 -0.01,-0.02 -0.02,-0.04l-0 -0c-0.01,-0.01 -0.01,-0.03 -0.02,-0.04l-0 -0c-0.01,-0.01 -0.01,-0.03 -0.02,-0.04l-0 -0.01c-0.02,-0.04 -0.04,-0.08 -0.07,-0.12l-0 -0 -0 -0c-0.01,-0.01 -0.01,-0.02 -0.02,-0.03l-0 -0 -0 -0c-0.01,-0.01 -0.01,-0.02 -0.02,-0.03l-0 -0 -0 -0c-0.01,-0.01 -0.02,-0.02 -0.02,-0.04l-0 -0 -0 -0 -0 -0c-0.01,-0.01 -0.02,-0.02 -0.02,-0.03l-0 -0 -0 -0 -0 -0c-0.01,-0.01 -0.02,-0.02 -0.02,-0.03l-0 -0 -0 -0 -0 -0 -0.02 -0.03 -0.01 -0.01c-0.01,-0.01 -0.02,-0.02 -0.02,-0.03l-0 -0 -0 -0c-0.01,-0.01 -0.02,-0.02 -0.03,-0.03l-0 -0 -0 -0 -0 -0 -0.03 -0.03 -0 -0 -0 -0 -0.02 -0.03 -0.01 -0.01c-0.01,-0.01 -0.02,-0.02 -0.03,-0.03l-0 -0c-0.01,-0.01 -0.02,-0.02 -0.03,-0.03l-0 -0 -0 -0 -0 -0c-0.01,-0.01 -0.02,-0.02 -0.03,-0.03l-0 -0.01 -0.03 -0.03 -0 -0 -0 -0c-0.02,-0.02 -0.04,-0.04 -0.06,-0.06l-0 -0 -0 -0 -0 -0c-0.01,-0.01 -0.02,-0.02 -0.03,-0.03l-0 -0c-0.04,-0.04 -0.09,-0.08 -0.13,-0.12l-0 -0 -0 -0c-0.01,-0.01 -0.02,-0.02 -0.03,-0.03l-0 -0c-0.07,-0.06 -0.14,-0.11 -0.21,-0.15l-0 -0c-0.02,-0.02 -0.05,-0.03 -0.07,-0.04l-0.01 -0 -0.01 -0 -0.01 -0 -0 -0 -0.02 -0.01 -0 -0 -0.02 -0.01 -0 -0c-0.07,-0.04 -0.14,-0.07 -0.21,-0.1l-0 -0c-0.18,-0.06 -0.35,-0.08 -0.5,-0.06l-0 0c-0.01,0 -0.03,0.01 -0.04,0.01l-0 0 -0 0c-0.04,0.01 -0.07,0.02 -0.11,0.03l-0.01 0 -0 0 -0 0 -0.01 0 -0 0c-0.01,0 -0.02,0.01 -0.02,0.01l-0.01 0.01 -0 0 -0.01 0 -0 0 -0 0 -0.01 0.01 -0.44 0.26 0.01 -0.01 0.01 -0 0 -0 0.01 -0 0 -0 0.01 -0.01c0.01,-0 0.02,-0.01 0.02,-0.01l0 -0 0.01 -0 0.01 -0 0 -0 0.01 -0c0.01,-0.01 0.03,-0.01 0.04,-0.01l0 -0 0 -0c0.01,-0 0.03,-0.01 0.04,-0.01l0 -0c0.01,-0 0.02,-0 0.03,-0.01l0 -0 0 -0 0.01 -0 0 -0c0.01,-0 0.02,-0 0.03,-0.01l0 -0 0.01 -0 0 -0 0 -0c0.12,-0.02 0.25,-0.01 0.38,0.03 0.03,0.01 0.07,0.02 0.1,0.03l0 0c0.01,0 0.02,0.01 0.03,0.01l0 0c0.02,0.01 0.05,0.02 0.07,0.03l0 0 0.02 0.01 0 0 0.01 0.01 0 0 0 0 0.01 0.01 0 0 0 0c0.02,0.01 0.03,0.02 0.05,0.02l0 0 0 0 0.02 0.01 0 0 0.01 0.01 0.01 0 0 0 0.01 0 0.01 0 0.01 0c0.01,0.01 0.02,0.01 0.04,0.02l0 0 0 0 0 0c0.01,0.01 0.02,0.01 0.03,0.02l0 0 0 0 0 0 0 0 0 0c0.01,0.01 0.02,0.01 0.03,0.02l0 0 0 0c0.06,0.04 0.11,0.08 0.17,0.13l0 0 0 0c0.01,0.01 0.02,0.02 0.03,0.03l0 0 0 0c0.01,0.01 0.02,0.02 0.03,0.03l0 0 0 0c0.01,0.01 0.02,0.02 0.03,0.03l0 0c0.01,0.01 0.02,0.02 0.03,0.03l0 0 0 0c0.01,0.01 0.02,0.02 0.03,0.03l0 0 0 0 0 0c0.01,0.01 0.02,0.02 0.03,0.03l0.01 0.01c0.01,0.01 0.02,0.02 0.03,0.03l0 0.01c0.01,0.01 0.02,0.02 0.03,0.03l0 0 0 0 0.02 0.03 0.01 0.01 0.02 0.03 0.01 0.01 0 0 0.02 0.02 0.01 0.01 0.02 0.03 0.01 0.01 0.02 0.03 0.01 0.01c0.01,0.01 0.01,0.02 0.02,0.03l0.01 0.01 0.02 0.03 0.01 0.01 0.02 0.03 0.01 0.01 0.02 0.02 0.01 0.01 0.02 0.03 0.01 0.01 0.02 0.03 0.01 0.01c0.01,0.01 0.02,0.02 0.02,0.03l0 0 0 0c0.01,0.01 0.01,0.02 0.02,0.03l0 0 0 0c0.01,0.01 0.01,0.02 0.02,0.04l0 0c0.08,0.13 0.16,0.27 0.22,0.42 0.04,0.1 0.08,0.2 0.12,0.31l0 0c0.03,0.1 0.06,0.19 0.08,0.29 0.02,0.08 0.03,0.16 0.04,0.23l0 0c0,0.04 0.01,0.09 0.01,0.13l0 0 0 0c0,0.01 0,0.03 0,0.04l0 0 0 0c0,0.01 0,0.03 0,0.04l0.44 -0.26c-0,-0.01 -0,-0.03 -0,-0.04l-0 -0 -0 -0c-0,-0.01 -0,-0.03 -0,-0.04l-0 -0 -0 -0c-0,-0.01 -0,-0.03 -0,-0.04l0 -0 -0 -0c-0,-0.01 -0,-0.03 -0,-0.04l-0 -0 -0 -0c-0,-0.01 -0,-0.03 -0,-0.04l-0 -0 -0 -0 0 -0c-0,-0.01 -0,-0.03 -0,-0.04l-0 -0 -0 -0 -0 -0c-0,-0.01 -0,-0.02 -0.01,-0.04l-0 -0.01c-0,-0.01 -0,-0.03 -0.01,-0.04l-0 -0 -0 -0c-0,-0.01 -0,-0.02 -0.01,-0.03l-0 -0.01c-0,-0.01 -0,-0.02 -0.01,-0.03l-0 -0.01 -0.01 -0.03z"/>
   <polygon class="fil8" points="4.89,11 4.89,12.62 4.54,12.42 4.55,10.8 "/>
   <polygon class="fil8" points="5.69,11.46 5.68,13.08 5.33,12.88 5.34,11.25 "/>
   <polygon class="fil8" points="6.48,11.91 6.47,13.54 6.12,13.34 6.13,11.71 "/>
   <polygon class="fil8" points="7.27,12.37 7.26,13.99 6.92,13.79 6.92,12.17 "/>
   <polygon class="fil8" points="8.06,12.83 8.06,14.45 7.71,14.25 7.71,12.62 "/>
   <polygon class="fil8" points="10.86,12.91 10.89,25.36 10.54,25.56 10.51,13.11 "/>
   <polygon class="fil8" points="11.65,12.45 11.68,24.9 11.33,25.1 11.3,12.66 "/>
   <polygon class="fil8" points="12.44,12 12.47,24.44 12.13,24.64 12.09,12.2 "/>
   <polygon class="fil8" points="13.23,11.54 13.27,23.99 12.92,24.19 12.88,11.74 "/>
   <polygon class="fil8" points="14.02,11.08 14.06,23.53 13.71,23.73 13.67,11.28 "/>
   <polygon class="fil1" points="6.44,8.75 6.44,7.97 9.43,9.7 9.43,10.48 "/>
   <polygon class="fil6" points="6.44,7.97 8.97,6.5 11.96,8.23 9.43,9.7 "/>
   <polygon class="fil8" points="11.96,8.23 11.96,8.98 9.43,10.48 9.43,9.7 "/>
   <polygon class="fil1" points="7.53,8.05 7.53,7.57 9.34,8.62 9.34,9.09 "/>
   <polygon class="fil6" points="7.53,7.57 9.06,6.68 10.87,7.73 9.34,8.62 "/>
   <polygon class="fil8" points="10.87,7.73 10.87,8.18 9.34,9.09 9.34,8.62 "/>
   <path class="fil9" d="M9.12 0.07c0.01,0.37 -0.16,7.57 0.04,8.03l-0.65 -0.38c0.21,-0.23 0.61,-7.29 0.61,-7.65z"/>
   <path class="fil1" d="M9.12 0.07l0.16 -0.07 0 0.02 0 0c0.02,0.54 0.34,6.63 0.55,7.58 0.01,0.03 0.01,0.06 0.02,0.08 0,0.01 0.01,0.02 0.01,0.02l-0.69 0.4c-0.01,-0.02 -0.02,-0.05 -0.03,-0.1 -0.16,-0.97 -0.02,-7.36 -0.02,-7.91l0 -0 -0 -0.02z"/>
   <polygon class="fil14" points="5.1,25.41 5.36,25.26 5.35,26.98 5.1,27.12 "/>
   <polygon class="fil15" points="5.22,26.82 5.47,26.67 5.55,26.81 5.3,26.96 "/>
   <path class="fil16" d="M5.3 26.96l0.25 -0.15c0,0.01 0.01,0.01 0.01,0.01 -0.08,0.05 -0.17,0.1 -0.25,0.15 -0,-0 -0.01,-0.01 -0.01,-0.01z"/>
   <path class="fil16" d="M5.56 26.82c0,0 0.01,0 0.01,0l-0.25 0.15c-0,0 -0.01,0 -0.01,-0 0.08,-0.05 0.17,-0.1 0.25,-0.15z"/>
   <path class="fil17" d="M5.32 26.95l0.25 -0.15c0.01,0.01 0.01,0.02 -0,0.03l-0.25 0.15c0.01,-0 0.01,-0.01 0,-0.03z"/>
   <path class="fil17" d="M5.32 26.97l0.25 -0.15 -0.25 0.15 -0 0c0,-0 0,-0 0,-0zm0.25 -0.15l0 -0c-0,0 -0,0 -0,0z"/>
   <path class="fil16" d="M5.22 26.8l0 -0 0 -0 0 -0 0 -0 0 -0 0 -0 0 -0 0 -0 0 -0 0 -0 0 -0 0 -0 0 -0 0 -0 0 -0 0 -0 0 -0 0 -0 0 -0 0 -0 0 -0 0 -0 0 -0 0 -0 0 -0 0 -0 0 -0 0 -0 0 -0 0 -0 0 -0 0 -0 0 -0 0 -0 0 -0 0 -0 0 -0 0 -0 0 -0 0 -0 0 -0 0 -0 0 -0 0 -0 0 -0 0 -0 0 -0 0 -0 0 -0 0 -0 0 -0 0 -0 0 -0 0 -0 0 -0 0 -0 0 -0 0 -0 0 -0 0 -0 0 -0 0 -0 0 -0 0 -0c-0.01,0 -0.01,0.02 -0,0.03l-0.25 0.15c-0.01,-0.01 -0.01,-0.02 0,-0.03z"/>
   <path class="fil17" d="M5.22 26.8l0.25 -0.15c0,-0 0.01,-0 0.01,0l-0.25 0.15c-0,-0 -0.01,-0 -0.01,-0z"/>
   <polygon class="fil18" points="5.24,26.81 5.49,26.66 5.57,26.8 5.32,26.95 "/>
   <path class="fil19" d="M5.23 26.8c0,0 0.01,0.01 0.01,0.01l0.08 0.14c0.01,0.01 0.01,0.02 -0,0.03 -0,0 -0.01,0 -0.01,-0 -0,-0 -0.01,-0.01 -0.01,-0.01l-0.08 -0.14c-0.01,-0.01 -0.01,-0.02 0,-0.03 0,-0 0.01,-0 0.01,0z"/>
   <path class="fil17" d="M5.23 26.8l0.25 -0.15c0,0 0.01,0.01 0.01,0.01l-0.25 0.15c-0,-0.01 -0.01,-0.01 -0.01,-0.01z"/>
   <polygon class="fil20" points="5.1,27.12 5.35,26.98 6.03,27.37 5.77,27.51 "/>
   <polygon class="fil15" points="5.22,26.56 5.47,26.41 5.89,27.12 5.63,27.27 "/>
   <path class="fil16" d="M5.63 27.27l0.25 -0.15c0,0.01 0.01,0.01 0.01,0.01 0,0 0.01,0 0.01,0l-0.25 0.15c-0,0 -0.01,0 -0.01,-0 -0,-0 -0.01,-0.01 -0.01,-0.01z"/>
   <path class="fil16" d="M5.22 26.53l0.25 -0.15c-0.01,0 -0.01,0.01 -0,0.03l-0.25 0.15c-0.01,-0.01 -0.01,-0.02 0,-0.03z"/>
   <path class="fil17" d="M5.22 26.53l0.25 -0.15c0,-0 0.01,-0 0.01,0l-0.25 0.15c-0,-0 -0.01,-0 -0.01,-0z"/>
   <path class="fil17" d="M5.65 27.26l0.25 -0.15c0.01,0.01 0.01,0.02 -0,0.03l-0.25 0.15c0.01,-0 0.01,-0.02 0,-0.03z"/>
   <polygon class="fil18" points="5.24,26.54 5.49,26.4 5.91,27.11 5.65,27.26 "/>
   <path class="fil17" d="M5.23 26.53l0.25 -0.15c0,0 0.01,0.01 0.01,0.01l-0.25 0.15c-0,-0.01 -0.01,-0.01 -0.01,-0.01z"/>
   <path class="fil19" d="M5.23 26.53c0,0 0.01,0.01 0.01,0.01l0.41 0.71c0.01,0.01 0.01,0.02 -0,0.03 -0,0 -0.01,0 -0.01,-0 -0,-0 -0.01,-0.01 -0.01,-0.01l-0.41 -0.72c-0.01,-0.01 -0.01,-0.02 0,-0.03 0,-0 0.01,-0 0.01,0z"/>
   <polygon class="fil20" points="5.88,27.58 6.14,27.43 6.58,27.69 6.33,27.83 "/>
   <polygon class="fil15" points="5.4,26.22 5.65,26.07 5.93,26.55 5.67,26.69 "/>
   <path class="fil16" d="M5.67 26.69l0.25 -0.15c0,0.01 0.01,0.01 0.01,0.01 0,0 0.01,0 0.01,0l-0.25 0.15c-0,0 -0.01,0 -0.01,-0 -0,-0 -0.01,-0.01 -0.01,-0.01z"/>
   <path class="fil17" d="M5.69 26.68l0.25 -0.15c0.01,0.01 0.01,0.02 -0,0.03l-0.25 0.15c0.01,-0 0.01,-0.02 0,-0.03z"/>
   <polygon class="fil18" points="5.42,26.2 5.67,26.06 5.95,26.53 5.69,26.68 "/>
   <path class="fil16" d="M5.4 26.19l0.25 -0.15c-0.01,0 -0.01,0.01 0,0.03l-0.25 0.15c-0.01,-0.01 -0.01,-0.02 -0,-0.03z"/>
   <path class="fil17" d="M5.4 26.19l0.25 -0.15c0,-0 0,-0 0,-0l-0.25 0.15c-0,0 -0,0 -0,0z"/>
   <g>
    <path class="fil16" d="M5.4 26.19l0 -0 0 -0 0 -0 -0.01 0.01c0,-0 0,-0 0,-0zm0.01 -0.01l0 -0 -0 0zm0 -0l0 -0 -0 0zm0 -0l0 -0 -0 0zm0 -0l0 -0 0 -0 0 -0 0 -0 0 -0 -0 0 -0.02 0.01zm0.02 -0.01l0 -0 0 -0 -0.01 0zm0.09 -0.05l0 -0 0.01 -0 0 -0 -0.02 0.01zm0.03 -0.02l0 -0 0 -0 0 -0 0 -0 0 -0 0.01 -0 0 -0 0 -0 0 -0 0 -0 0 -0 0 -0 0 -0 0 -0 0 -0 0 -0 0 -0 0 -0 0 -0 0 -0 0 -0 0 -0 -0.09 0.05z"/>
   </g>
   <path class="fil17" d="M5.4 26.19l0.25 -0.15c0,-0 0.01,-0 0.01,0l-0.25 0.15c-0,-0 -0.01,-0 -0.01,-0z"/>
   <path class="fil17" d="M5.41 26.19l0.25 -0.15c0,0 0.01,0.01 0.01,0.01l-0.25 0.15c-0,-0.01 -0.01,-0.01 -0.01,-0.01z"/>
   <polygon class="fil15" points="5.2,25.65 5.46,25.5 5.85,26.18 5.59,26.33 "/>
   <path class="fil16" d="M5.59 26.33l0.25 -0.15c0,0.01 0.01,0.01 0.01,0.01 -0.08,0.05 -0.17,0.1 -0.25,0.15 -0,-0 -0.01,-0.01 -0.01,-0.01z"/>
   <path class="fil16" d="M5.86 26.19c0,0 0.01,0 0.01,0l-0.25 0.15c-0,0 -0.01,0 -0.01,-0 0.08,-0.05 0.17,-0.1 0.25,-0.15z"/>
   <path class="fil16" d="M5.62 26.34l0.25 -0.15c0,-0 0,-0 0,-0l-0.25 0.15c-0,0 -0,0 -0,0z"/>
   <path class="fil17" d="M5.62 26.32l0.25 -0.15c0.01,0.01 0.01,0.02 0,0.03l-0.25 0.15 -0 0 -0 0 0 -0 0 -0c0.01,-0 0,-0.01 -0,-0.03z"/>
   <polygon class="fil18" points="5.22,25.64 5.48,25.49 5.87,26.17 5.62,26.32 "/>
   <polygon class="fil21" points="5.78,25.79 6.03,25.65 6.03,27.37 5.77,27.51 "/>
   <polygon class="fil14" points="5.89,26.47 6.14,26.32 6.14,27.43 5.88,27.58 "/>
   <polygon class="fil15" points="6,27.26 6.26,27.12 6.37,27.31 6.11,27.45 "/>
   <path class="fil16" d="M6.11 27.45l0.25 -0.15c0,0.01 0.01,0.01 0.01,0.01 0,0 0.01,0 0.01,0l-0.25 0.15c-0,0 -0.01,0 -0.01,-0 -0,-0 -0.01,-0.01 -0.01,-0.01z"/>
   <path class="fil16" d="M6 27.24l0.25 -0.15c-0.01,0 -0.01,0.02 -0,0.03l-0.25 0.15c-0.01,-0.01 -0.01,-0.02 0,-0.03z"/>
   <path class="fil16" d="M6 27.24l0.25 -0.15c-0,0 -0,0 -0,0l-0.25 0.15c0,-0 0,-0 0,-0z"/>
   <path class="fil17" d="M6 27.24l0.25 -0.15c0,-0 0.01,-0 0.01,0l-0.25 0.15c-0,-0 -0.01,-0 -0.01,-0z"/>
   <path class="fil17" d="M6.14 27.44l0.25 -0.15c0.01,0.01 0.01,0.02 -0,0.03l-0.25 0.15c0.01,-0 0.01,-0.02 0,-0.03z"/>
   <polygon class="fil18" points="6.03,27.25 6.28,27.1 6.39,27.29 6.14,27.44 "/>
   <path class="fil19" d="M6.01 27.24c0,0 0.01,0.01 0.01,0.01l0.11 0.19c0.01,0.01 0.01,0.02 -0,0.03 -0,0 -0.01,0 -0.01,-0 -0,-0 -0.01,-0.01 -0.01,-0.01l-0.11 -0.19c-0.01,-0.01 -0.01,-0.02 0,-0.03 0,-0 0.01,-0 0.01,0z"/>
   <path class="fil17" d="M6.01 27.24l0.25 -0.15c0,0 0.01,0.01 0.01,0.01l-0.25 0.15c-0,-0.01 -0.01,-0.01 -0.01,-0.01z"/>
   <path class="fil19" d="M5.41 26.19c0,0 0.01,0.01 0.01,0.01l0.28 0.48c0.01,0.01 0.01,0.02 -0,0.03 -0,0 -0.01,0 -0.01,-0 -0,-0 -0.01,-0.01 -0.01,-0.01l-0.27 -0.48c-0.01,-0.01 -0.01,-0.02 0,-0.03 0,-0 0.01,-0 0.01,0z"/>
   <path class="fil16" d="M5.2 25.62l0.25 -0.15c-0.01,0 -0.01,0.02 -0,0.03l-0.25 0.15c-0.01,-0.01 -0.01,-0.02 0,-0.03z"/>
   <path class="fil17" d="M5.2 25.62l0.25 -0.15c0,-0 0.01,-0 0.01,0l-0.25 0.15c-0,-0 -0.01,-0 -0.01,-0z"/>
   <path class="fil17" d="M5.21 25.63l0.25 -0.15c0,0 0.01,0.01 0.01,0.01l-0.25 0.15c-0,-0.01 -0.01,-0.01 -0.01,-0.01z"/>
   <path class="fil20" d="M5.32 26.97c0.01,-0 0.01,-0.01 0,-0.03l-0.08 -0.14c-0,-0.01 -0.01,-0.01 -0.01,-0.01 -0,-0 -0.01,-0 -0.01,-0 -0.01,0 -0.01,0.02 -0,0.03l0.08 0.14c0,0.01 0.01,0.01 0.01,0.01 0,0 0.01,0 0.01,0zm0.38 -0.27c0.01,-0 0.01,-0.02 0,-0.03l-0.28 -0.48c-0,-0.01 -0.01,-0.01 -0.01,-0.01 -0,-0 -0.01,-0 -0.01,-0 -0.01,0 -0.01,0.01 -0,0.03l0.27 0.48c0,0.01 0.01,0.01 0.01,0.01 0,0 0.01,0 0.01,0zm-0.49 -1.08c-0.01,0 -0.01,0.02 -0,0.03l0.39 0.68c0,0.01 0.01,0.01 0.01,0.01 0,0 0.01,0 0.01,0 0.01,-0 0.01,-0.01 0,-0.03l-0.39 -0.68c-0,-0.01 -0.01,-0.01 -0.01,-0.01 -0,-0 -0.01,-0 -0.01,-0zm0.45 1.66c0.01,-0 0.01,-0.02 0,-0.03l-0.41 -0.71c-0,-0.01 -0.01,-0.01 -0.01,-0.01 -0,-0 -0.01,-0 -0.01,-0 -0.01,0 -0.01,0.01 -0,0.03l0.41 0.72c0,0.01 0.01,0.01 0.01,0.01 0,0 0.01,0 0.01,0zm-0.55 -1.88l0.67 0.39 -0 1.72 -0.67 -0.39 0 -1.72z"/>
   <polygon class="fil15" points="5.96,26.83 6.21,26.68 6.49,27.15 6.23,27.3 "/>
   <path class="fil16" d="M6.23 27.3l0.25 -0.15c0,0.01 0.01,0.01 0.01,0.01 0,0 0.01,0 0.01,0l-0.25 0.15c-0,0 -0.01,0 -0.01,-0 -0,-0 -0.01,-0.01 -0.01,-0.01z"/>
   <path class="fil16" d="M5.96 26.8l0 -0 0 -0 0 -0 0 -0 0 -0 0 -0 0 -0 0 -0 0 -0 0 -0 0 -0 0 -0 0 -0 0 -0 0 -0 0 -0 0 -0 0 -0 0 -0 0 -0 0 -0 0 -0 0 -0 0 -0 0 -0 0 -0 0 -0 0 -0 0 -0 0 -0 0 -0 0 -0 0 -0 0 -0 0 -0 0 -0 0 -0 0 -0 0 -0 0 -0 0 -0 0 -0 0 -0 0 -0 0 -0 0 -0 0 -0 0 -0 0 -0 0 -0 0 -0 0 -0 0 -0 0 -0 0 -0 0 -0 0 -0 0 -0 0 -0 0 -0 0 -0 0 -0 0 -0 0 -0c-0.01,0 -0.01,0.01 -0,0.03l-0.25 0.15c-0.01,-0.01 -0.01,-0.02 0,-0.03z"/>
   <polygon class="fil16" points="5.96,26.8 5.96,26.8 5.97,26.8 5.97,26.79 5.98,26.79 5.98,26.79 5.98,26.79 5.99,26.78 5.99,26.78 6,26.78 6,26.78 6,26.77 6.01,26.77 6.01,26.77 6.02,26.77 6.02,26.77 6.02,26.76 6.03,26.76 6.03,26.76 6.04,26.76 6.04,26.75 6.04,26.75 6.05,26.75 6.05,26.75 6.05,26.74 6.06,26.74 6.06,26.74 6.07,26.74 6.07,26.74 6.07,26.73 6.08,26.73 6.08,26.73 6.09,26.73 6.09,26.72 6.09,26.72 6.1,26.72 6.1,26.72 6.11,26.71 6.11,26.71 6.11,26.71 6.12,26.71 6.12,26.71 6.13,26.7 6.13,26.7 6.13,26.7 6.14,26.7 6.14,26.69 6.15,26.69 6.15,26.69 6.15,26.69 6.16,26.68 6.16,26.68 6.17,26.68 6.17,26.68 6.17,26.68 6.18,26.67 6.18,26.67 6.19,26.67 6.19,26.67 6.19,26.66 6.2,26.66 6.2,26.66 6.21,26.66 6.21,26.65 6.21,26.65 "/>
   <path class="fil17" d="M5.96 26.8l0.25 -0.15c0,-0 0.01,-0 0.01,0l-0.25 0.15c-0,-0 -0.01,-0 -0.01,-0z"/>
   <path class="fil17" d="M6.26 27.29l0.25 -0.15c0.01,0.01 0.01,0.02 -0,0.03l-0.25 0.15c0.01,-0 0.01,-0.01 0,-0.03z"/>
   <polygon class="fil18" points="5.98,26.81 6.24,26.67 6.51,27.14 6.26,27.29 "/>
   <path class="fil17" d="M5.97 26.8l0.25 -0.15c0,0 0.01,0.01 0.01,0.01l-0.25 0.15c-0,-0.01 -0.01,-0.01 -0.01,-0.01z"/>
   <path class="fil19" d="M5.97 26.8c0,0 0.01,0.01 0.01,0.01l0.28 0.48c0.01,0.01 0.01,0.02 -0,0.03 -0,0 -0.01,0 -0.01,-0 -0,-0 -0.01,-0.01 -0.01,-0.01l-0.28 -0.48c-0.01,-0.01 -0.01,-0.02 0,-0.03 0,-0 0.01,-0 0.01,0z"/>
   <polygon class="fil22" points="5.1,25.41 5.36,25.26 6.03,25.65 5.78,25.79 "/>
   <polygon class="fil21" points="6.33,26.73 6.58,26.58 6.58,27.69 6.33,27.83 "/>
   <path class="fil20" d="M6.14 27.47c0.01,-0 0.01,-0.02 0,-0.03l-0.11 -0.19c-0,-0.01 -0.01,-0.01 -0.01,-0.01 -0,-0 -0.01,-0 -0.01,-0 -0.01,0 -0.01,0.02 -0,0.03l0.11 0.19c0,0 0.01,0.01 0.01,0.01 0,0 0.01,0 0.01,0zm0.12 -0.15c0.01,-0 0.01,-0.01 0,-0.03l-0.28 -0.48c-0,-0.01 -0.01,-0.01 -0.01,-0.01 -0,-0 -0.01,-0 -0.01,-0 -0.01,0 -0.01,0.01 -0,0.03l0.28 0.48c0,0.01 0.01,0.01 0.01,0.01 0,0 0.01,0 0.01,0zm-0.37 -0.85l0.44 0.26 -0 1.11 -0.44 -0.26 0 -1.11z"/>
   <polygon class="fil22" points="5.89,26.47 6.14,26.32 6.58,26.58 6.33,26.73 "/>
   <polygon class="fil14" points="5.89,25.86 6.14,25.71 6.14,26.19 5.89,26.34 "/>
   <polygon class="fil20" points="5.89,26.34 6.14,26.19 6.58,26.45 6.33,26.59 "/>
   <polygon class="fil15" points="6.09,26.16 6.34,26.02 6.42,26.15 6.17,26.3 "/>
   <path class="fil16" d="M6.17 26.3l0.25 -0.15c0,0.01 0.01,0.01 0.01,0.01 0,0 0.01,0 0.01,0l-0.25 0.15c-0,0 -0.01,0 -0.01,-0 -0,-0 -0.01,-0.01 -0.01,-0.01z"/>
   <path class="fil17" d="M6.19 26.29l0.25 -0.15c0.01,0.01 0.01,0.02 -0,0.03l-0.25 0.15c0.01,-0 0.01,-0.01 0,-0.03z"/>
   <path class="fil17" d="M6.19 26.31l0.25 -0.15 -0.25 0.15 -0 0c0,-0 0,-0 0,-0zm0.25 -0.15l0 -0c-0,0 -0,0 -0,0z"/>
   <path class="fil16" d="M6.09 26.14l0.25 -0.15c-0.01,0 -0.01,0.02 0,0.03l-0.25 0.15c-0.01,-0.01 -0.01,-0.02 0,-0.03z"/>
   <path class="fil17" d="M6.09 26.14l0.25 -0.15c0,-0 0.01,-0 0.01,0l-0.25 0.15c-0,-0 -0.01,-0 -0.01,-0z"/>
   <path class="fil19" d="M6.1 26.14c0,0 0.01,0.01 0.01,0.01l0.08 0.14c0.01,0.01 0.01,0.02 0,0.03 -0,0 -0.01,0 -0.01,-0 -0,-0 -0.01,-0.01 -0.01,-0.01l-0.08 -0.14c-0.01,-0.01 -0.01,-0.02 0,-0.03 0,-0 0.01,-0 0.01,0z"/>
   <path class="fil17" d="M6.1 26.14l0.25 -0.15c0,0 0.01,0.01 0.01,0.01l-0.25 0.15c-0,-0.01 -0.01,-0.01 -0.01,-0.01z"/>
   <polygon class="fil18" points="6.11,26.15 6.37,26 6.44,26.14 6.19,26.29 "/>
   <polygon class="fil22" points="5.89,25.86 6.14,25.71 6.59,25.97 6.33,26.12 "/>
   <polygon class="fil21" points="6.33,26.12 6.59,25.97 6.58,26.45 6.33,26.59 "/>
   <path class="fil20" d="M6.19 26.31c0.01,-0 0.01,-0.01 0,-0.03l-0.08 -0.14c-0,-0.01 -0.01,-0.01 -0.01,-0.01 -0,-0 -0.01,-0 -0.01,-0 -0.01,0 -0.01,0.02 -0,0.03l0.08 0.14c0,0.01 0.01,0.01 0.01,0.01 0,0 0.01,0 0.01,0zm-0.3 -0.45l0.44 0.26 -0 0.48 -0.44 -0.26 0 -0.48z"/>
   <path class="fil23" d="M6.33 26.59l0 -0.48 -0.44 -0.26 -0 0.48 0.44 0.26zm-0 1.24l0 -1.11 -0.44 -0.26 -0 1.11 0.44 0.26zm-0.56 -0.32l0 -1.72 -0.67 -0.39 -0 1.72 0.67 0.39zm-0.78 -2.3l1.46 0.84 -0.01 1.95 -1.46 -0.84 0.01 -1.95z"/>
   <path class="fil19" d="M5.21 25.63c0,0 0.01,0.01 0.01,0.01l0.39 0.68c0.01,0.01 0.01,0.02 -0,0.03 -0,0 -0.01,0 -0.01,-0 -0,-0 -0.01,-0.01 -0.01,-0.01l-0.39 -0.68c-0.01,-0.01 -0.01,-0.02 0,-0.03 0,-0 0.01,-0 0.01,0z"/>
   <polygon class="fil11" points="6.45,26.05 6.7,25.91 6.7,27.86 6.44,28.01 "/>
   <polygon class="fil20" points="4.99,25.21 5.24,25.07 6.7,25.91 6.45,26.05 "/>
   <polygon class="fil14" points="5.1,24.77 5.36,24.63 5.36,24.89 5.1,25.04 "/>
   <polygon class="fil24" points="5.1,24.76 5.36,24.61 5.36,24.63 5.1,24.77 "/>
   <path class="fil25" d="M5.18 24.62l0.25 -0.15c-0.04,0.02 -0.07,0.07 -0.07,0.13l-0.25 0.15c0.01,-0.07 0.03,-0.11 0.07,-0.13z"/>
   <polygon class="fil20" points="5.1,25.04 5.36,24.89 6.03,25.28 5.78,25.43 "/>
   <polygon class="fil15" points="5.37,24.78 5.62,24.63 5.9,25.1 5.64,25.25 "/>
   <path class="fil16" d="M5.64 25.25l0 -0 0 -0 0 -0 0 -0 0 -0 0 -0 0 -0 0 -0 0 -0 0 -0 0 -0 0 -0 0 -0 0 -0 0 -0 0 -0 0 -0 0 -0 0 -0 0 -0 0 -0 0 -0 0 -0 0 -0 0 -0 0 -0 0 -0 0 -0 0 -0 0 -0 0 -0 0 -0 0 -0 0 -0 0 -0 0 -0 0 -0 0 -0 0 -0 0 -0 0 -0 0 -0 0 -0 0 -0 0 -0 0 -0 0 -0 0 -0 0 -0 0 -0 0 -0 0 -0 0 -0 0 -0 0 -0 0 -0 0 -0 0 -0 0 -0 0 -0 0 -0 0 -0 0 -0 0 -0c0,0.01 0.01,0.01 0.01,0.01 -0.08,0.05 -0.17,0.1 -0.25,0.15 -0,-0 -0.01,-0.01 -0.01,-0.01z"/>
   <path class="fil16" d="M5.91 25.12c0,0 0.01,0 0.01,0l-0.25 0.15c-0,0 -0.01,0 -0.01,-0 0.08,-0.05 0.17,-0.1 0.25,-0.15z"/>
   <path class="fil16" d="M5.37 24.75l0.25 -0.15c-0.01,0 -0.01,0.02 0,0.03l-0.25 0.15c-0.01,-0.01 -0.01,-0.02 0,-0.03z"/>
   <path class="fil17" d="M5.37 24.75l0.25 -0.15c0,-0 0.01,-0 0.01,0l-0.25 0.15c-0,-0 -0.01,-0 -0.01,-0z"/>
   <path class="fil17" d="M5.67 25.24l0.25 -0.15c0.01,0.01 0.01,0.02 0,0.03l-0.25 0.15c0.01,-0 0.01,-0.02 0,-0.03z"/>
   <polygon class="fil18" points="5.39,24.76 5.65,24.62 5.92,25.09 5.67,25.24 "/>
   <path class="fil17" d="M5.38 24.75l0.25 -0.15c0,0 0.01,0.01 0.01,0.01l-0.25 0.15c-0,-0.01 -0.01,-0.01 -0.01,-0.01z"/>
   <path class="fil19" d="M5.38 24.75c0,0 0.01,0.01 0.01,0.01l0.28 0.48c0.01,0.01 0.01,0.02 -0,0.03 -0,0 -0.01,0 -0.01,-0 -0,-0 -0.01,-0.01 -0.01,-0.01l-0.28 -0.48c-0.01,-0.01 -0.01,-0.02 0,-0.03 0,-0 0.01,-0 0.01,0z"/>
   <path class="fil16" d="M5.18 24.62l0.25 -0.15c0.05,-0.03 0.11,-0.02 0.18,0.02l-0.25 0.15c-0.07,-0.04 -0.13,-0.04 -0.18,-0.02z"/>
   <path class="fil20" d="M5.1 24.49l0.25 -0.15c0.07,-0.04 0.16,-0.03 0.26,0.03l-0.25 0.15c-0.1,-0.06 -0.19,-0.06 -0.26,-0.03z"/>
   <polygon class="fil21" points="5.78,24.89 6.03,24.74 6.03,25.28 5.78,25.43 "/>
   <polygon class="fil14" points="5.89,24.95 6.15,24.8 6.14,25.35 5.89,25.49 "/>
   <polygon class="fil15" points="5.98,25.24 6.23,25.09 6.31,25.23 6.06,25.38 "/>
   <polygon class="fil22" points="5.35,24.64 5.61,24.49 6.03,24.74 5.78,24.89 "/>
   <polygon class="fil20" points="5.89,25.49 6.14,25.35 6.59,25.6 6.34,25.75 "/>
   <path class="fil16" d="M6.06 25.38l0.25 -0.15c0,0.01 0.01,0.01 0.01,0.01 0,0 0.01,0 0.01,0l0 -0 -0 0 -0.25 0.15c-0,0 -0.01,0 -0.01,-0 -0,-0 -0.01,-0.01 -0.01,-0.01z"/>
   <path class="fil16" d="M5.98 25.22l0.25 -0.15c-0.01,0 -0.01,0.01 0,0.03l-0.25 0.15c-0.01,-0.01 -0.01,-0.02 -0,-0.03z"/>
   <path class="fil17" d="M6.08 25.37l0.25 -0.15c0.01,0.01 0.01,0.02 -0,0.03l-0.25 0.15c0.01,-0 0.01,-0.01 0,-0.03z"/>
   <path class="fil17" d="M6.08 25.39l0.25 -0.15 -0.25 0.15 -0 0c0,-0 0,-0 0,-0zm0.25 -0.15l0 -0c-0,0 -0,0 -0,0z"/>
   <path class="fil17" d="M5.98 25.22l0.25 -0.15c0,-0 0,-0 0,-0l-0.25 0.15c-0,0 -0,0 -0,0z"/>
   <path class="fil17" d="M5.98 25.22l0.25 -0.15c0,-0 0.01,-0 0.01,0l-0.25 0.15c-0,-0 -0.01,-0 -0.01,-0z"/>
   <polygon class="fil18" points="6,25.23 6.26,25.08 6.34,25.22 6.08,25.37 "/>
   <path class="fil17" d="M5.99 25.22l0.25 -0.15c0,0 0.01,0.01 0.01,0.01l-0.25 0.15c-0,-0.01 -0.01,-0.01 -0.01,-0.01z"/>
   <polygon class="fil21" points="6.34,25.57 6.59,25.42 6.59,25.6 6.34,25.75 "/>
   <polygon class="fil22" points="5.89,24.95 6.15,24.8 6.34,24.92 6.09,25.06 "/>
   <path class="fil20" d="M6.08 25.39c0.01,-0 0.01,-0.01 0,-0.03l-0.08 -0.14c-0,-0.01 -0.01,-0.01 -0.01,-0.01 -0,-0 -0.01,-0 -0.01,-0 -0.01,0 -0.01,0.01 -0,0.03l0.08 0.14c0,0.01 0.01,0.01 0.01,0.01 0,0 0.01,0 0.01,0zm0.25 0.08l0 0.1 -0 0.18 -0.45 -0.26 0 -0.54 0.2 0.11c0.13,0.08 0.24,0.25 0.25,0.41z"/>
   <path class="fil19" d="M5.99 25.22c0,0 0.01,0.01 0.01,0.01l0.08 0.14c0.01,0.01 0.01,0.02 -0,0.03 -0,0 -0.01,0 -0.01,-0 -0,-0 -0.01,-0.01 -0.01,-0.01l-0.08 -0.14c-0.01,-0.01 -0.01,-0.02 0,-0.03 0,-0 0.01,-0 0.01,0z"/>
   <path class="fil16" d="M6.09 25.06l0.25 -0.15c0.13,0.08 0.24,0.25 0.25,0.41l-0.25 0.15c-0.01,-0.16 -0.12,-0.33 -0.25,-0.41z"/>
   <path class="fil23" d="M6.34 25.75l-0.45 -0.26 0 -0.54 0.2 0.11c0.13,0.08 0.24,0.25 0.25,0.41l0 0.1 -0 0.18zm-0.56 -0.32l-0.68 -0.39 0 -0.27 0 -0.02c0.02,-0.14 0.12,-0.19 0.25,-0.12l0.43 0.25 -0 0.54zm0.67 0.1l0 -0c-0.02,-0.23 -0.17,-0.48 -0.36,-0.59l-0.73 -0.42c-0.19,-0.11 -0.35,-0.04 -0.36,0.17l-0 0.01 -0 0.41 1.46 0.84 0 -0.31 -0 -0.11z"/>
   <path class="fil20" d="M5.67 25.27c0.01,-0 0.01,-0.02 0,-0.03l-0.28 -0.48c-0,-0.01 -0.01,-0.01 -0.01,-0.01 -0,-0 -0.01,-0 -0.01,-0 -0.01,0 -0.01,0.02 -0,0.03l0.28 0.48c0,0.01 0.01,0.01 0.01,0.01 0,0 0.01,0 0.01,0zm-0.31 -0.62l0.43 0.25 -0 0.54 -0.68 -0.39 0 -0.27 0 -0.02c0.02,-0.14 0.12,-0.19 0.25,-0.12z"/>
   <polygon class="fil11" points="6.45,25.63 6.7,25.49 6.7,25.8 6.45,25.95 "/>
   <polygon class="fil20" points="5.35,24.51 5.61,24.36 6.34,24.79 6.09,24.93 "/>
   <polygon class="fil11" points="6.45,25.53 6.7,25.38 6.7,25.49 6.45,25.63 "/>
   <polygon class="fil14" points="6.45,25.52 6.7,25.38 6.7,25.38 6.45,25.53 "/>
   <path class="fil20" d="M6.09 24.93l0.25 -0.15c0.19,0.11 0.34,0.36 0.36,0.59l-0.25 0.15c-0.02,-0.23 -0.17,-0.48 -0.36,-0.59z"/>
  </g>
 </g>
</svg>
