<svg width="53" height="53" viewBox="0 0 53 53" fill="none" xmlns="http://www.w3.org/2000/svg">
<path fill-rule="evenodd" clip-rule="evenodd" d="M44.2632 6.43884H8.73684C7.48055 6.43884 6.27572 6.9379 5.38739 7.82623C4.49906 8.71456 4 9.9194 4 11.1757V34.8599C4 36.1162 4.49906 37.321 5.38739 38.2094C6.27572 39.0977 7.48055 39.5967 8.73684 39.5967H44.2632C45.5195 39.5967 46.7243 39.0977 47.6126 38.2094C48.5009 37.321 49 36.1162 49 34.8599V11.1757C49 9.9194 48.5009 8.71456 47.6126 7.82623C46.7243 6.9379 45.5195 6.43884 44.2632 6.43884ZM6.36842 11.1757C6.36842 10.5475 6.61795 9.94512 7.06212 9.50096C7.50628 9.05679 8.1087 8.80726 8.73684 8.80726H44.2632C44.8913 8.80726 45.4937 9.05679 45.9379 9.50096C46.3821 9.94512 46.6316 10.5475 46.6316 11.1757V34.8599C46.6316 35.488 46.3821 36.0905 45.9379 36.5346C45.4937 36.9788 44.8913 37.2283 44.2632 37.2283H8.73684C8.1087 37.2283 7.50628 36.9788 7.06212 36.5346C6.61795 36.0905 6.36842 35.488 6.36842 34.8599V11.1757Z" fill="#38C19D"/>
<path d="M26.4999 36.0441C26.0288 36.0441 25.577 35.8569 25.2439 35.5238C24.9108 35.1907 24.7236 34.7389 24.7236 34.2678C24.7236 33.7967 24.9108 33.3449 25.2439 33.0117C25.577 32.6786 26.0288 32.4915 26.4999 32.4915C26.9711 32.4915 27.4229 32.6786 27.756 33.0117C28.0891 33.3449 28.2763 33.7967 28.2763 34.2678C28.2763 34.7389 28.0891 35.1907 27.756 35.5238C27.4229 35.8569 26.9711 36.0441 26.4999 36.0441Z" fill="#38C19D"/>
<path fill-rule="evenodd" clip-rule="evenodd" d="M30.0525 37.2283H22.9473C22.3191 37.2283 21.7167 37.4778 21.2726 37.922C20.8284 38.3661 20.5789 38.9685 20.5789 39.5967V45.5177C20.5789 46.1459 20.8284 46.7483 21.2726 47.1925C21.7167 47.6366 22.3191 47.8862 22.9473 47.8862H30.0525C30.6807 47.8862 31.2831 47.6366 31.7273 47.1925C32.1714 46.7483 32.421 46.1459 32.421 45.5177V39.5967C32.421 38.9685 32.1714 38.3661 31.7273 37.922C31.2831 37.4778 30.6807 37.2283 30.0525 37.2283ZM22.9473 45.5177V39.5967H30.0525V45.5177H22.9473Z" fill="#38C19D"/>
<path d="M15.8422 47.8862C15.5281 47.8862 15.2269 47.7615 15.0048 47.5394C14.7827 47.3173 14.658 47.0161 14.658 46.702C14.658 46.388 14.7827 46.0868 15.0048 45.8647C15.2269 45.6426 15.5281 45.5178 15.8422 45.5178H37.158C37.472 45.5178 37.7732 45.6426 37.9953 45.8647C38.2174 46.0868 38.3422 46.388 38.3422 46.702C38.3422 47.0161 38.2174 47.3173 37.9953 47.5394C37.7732 47.7615 37.472 47.8862 37.158 47.8862H15.8422Z" fill="#38C19D"/>
<path fill-rule="evenodd" clip-rule="evenodd" d="M47.8159 31.3073H5.18433V28.9388H47.8159V31.3073Z" fill="#38C19D"/>
</svg>
