<svg width="53" height="53" viewBox="0 0 53 53" fill="none" xmlns="http://www.w3.org/2000/svg">
<g clip-path="url(#clip0_158_9014)">
<path d="M37.0706 18.1378L28.3698 26.6914C27.4312 26.2393 26.363 26.1335 25.354 26.3928C24.3449 26.652 23.46 27.2596 22.8556 28.1082C22.2512 28.9567 21.9662 29.9916 22.051 31.03C22.1358 32.0683 22.5849 33.0433 23.319 33.7825C24.053 34.5218 25.0248 34.9778 26.0625 35.0699C27.1002 35.162 28.1371 34.8843 28.9899 34.286C29.8427 33.6876 30.4565 32.807 30.7229 31.7998C30.9893 30.7926 30.8911 29.7237 30.4456 28.782L39.1611 20.2284L37.0706 18.1378Z" fill="#38C19D"/>
<path d="M26.5001 6.25697C21.8666 6.25167 17.3283 7.57246 13.4213 10.0634C9.51432 12.5543 6.40174 16.1112 4.45121 20.3142C2.50067 24.5171 1.79365 29.1905 2.41364 33.7823C3.03363 38.3742 4.95474 42.6927 7.95009 46.2278L8.39175 46.7431H44.6084L45.0501 46.2278C48.0454 42.6927 49.9665 38.3742 50.5865 33.7823C51.2065 29.1905 50.4995 24.5171 48.549 20.3142C46.5984 16.1112 43.4858 12.5543 39.5788 10.0634C35.6718 7.57246 31.1336 6.25167 26.5001 6.25697ZM43.1951 43.7986H9.80508C7.16344 40.4931 5.56912 36.474 5.22647 32.2564H10.3056V29.312H5.22647C5.47302 24.6373 7.25882 20.1754 10.3056 16.6214L13.9126 20.2284L15.9884 18.1525L12.4109 14.5309C15.9196 11.4297 20.3558 9.57653 25.0279 9.26031V14.4131H27.9723V9.27503C33.1331 9.6493 37.9813 11.8891 41.6116 15.5763C45.2419 19.2635 47.4061 24.1459 47.7001 29.312H42.5768V32.2564H47.7737C47.431 36.474 45.8367 40.4931 43.1951 43.7986Z" fill="#38C19D"/>
</g>
<defs>
<clipPath id="clip0_158_9014">
<rect width="53" height="53" fill="white"/>
</clipPath>
</defs>
</svg>
