<svg width="53" height="53" viewBox="0 0 53 53" fill="none" xmlns="http://www.w3.org/2000/svg">
<path d="M26.5 3.3125L6.625 9.9375V29.8125C6.625 40.7903 15.5222 49.6875 26.5 49.6875C37.4778 49.6875 46.375 40.7903 46.375 29.8125V9.9375L26.5 3.3125ZM42.6484 29.8125C42.6484 38.7304 35.4179 45.9609 26.5 45.9609C17.5821 45.9609 10.3516 38.7304 10.3516 29.8125V12.7324L26.5 7.03906L42.6484 12.7324V29.8125Z" fill="#38C19D"/>
<path d="M19.5852 24.5901C19.4125 24.4167 19.2072 24.279 18.9812 24.1851C18.7551 24.0911 18.5127 24.0428 18.2679 24.0428C18.0231 24.0428 17.7808 24.0911 17.5547 24.1851C17.3287 24.279 17.1234 24.4167 16.9507 24.5901C16.7772 24.7628 16.6395 24.9681 16.5456 25.1942C16.4517 25.4202 16.4033 25.6626 16.4033 25.9074C16.4033 26.1522 16.4517 26.3945 16.5456 26.6206C16.6395 26.8466 16.7772 27.0519 16.9507 27.2246L23.6482 33.9221L23.7568 34.0308C23.9202 34.1944 24.1142 34.3243 24.3278 34.4129C24.5414 34.5015 24.7704 34.547 25.0016 34.547C25.2329 34.547 25.4618 34.5015 25.6754 34.4129C25.889 34.3243 26.083 34.1944 26.2464 34.0308L37.8143 22.4629C37.9779 22.2995 38.1078 22.1055 38.1964 21.8919C38.285 21.6783 38.3306 21.4494 38.3306 21.2181C38.3306 20.9869 38.285 20.7579 38.1964 20.5443C38.1078 20.3307 37.9779 20.1367 37.8143 19.9733L37.6693 19.8284C37.506 19.6648 37.312 19.5349 37.0984 19.4463C36.8848 19.3577 36.6558 19.3121 36.4246 19.3121C36.1933 19.3121 35.9644 19.3577 35.7508 19.4463C35.5372 19.5349 35.3432 19.6648 35.1798 19.8284L24.999 30.004L19.5852 24.5901Z" fill="#38C19D"/>
</svg>
