<svg width="53" height="53" viewBox="0 0 53 53" fill="none" xmlns="http://www.w3.org/2000/svg">
<path d="M44.9395 19.7049L44.1313 19.2544C43.42 18.8881 42.8216 18.3355 42.3999 17.6556C42.3624 17.596 42.3271 17.5319 42.2564 17.4083C41.7805 16.6439 41.5494 15.7525 41.5939 14.8532L41.6071 13.9147C41.6336 12.413 41.6469 11.6578 41.4349 10.982C41.2475 10.3807 40.9335 9.82654 40.514 9.3567C40.0414 8.8267 39.3856 8.44686 38.0716 7.69161L36.9807 7.06224C35.6734 6.3092 35.0175 5.93157 34.3219 5.78803C33.7073 5.66079 33.0726 5.66606 32.4602 5.80349C31.769 5.95807 31.122 6.34674 29.8301 7.11965L29.8235 7.12407L29.0417 7.59003C28.9181 7.66511 28.854 7.70045 28.7922 7.73578C28.1783 8.07807 27.4937 8.26578 26.7892 8.28786C26.7186 8.29228 26.6457 8.29228 26.5021 8.29228L26.2151 8.29007C25.5103 8.26788 24.8212 8.07705 24.2055 7.73357C24.1436 7.70045 24.084 7.6629 23.9604 7.58782L23.172 7.11524C21.8713 6.33349 21.2198 5.94482 20.5242 5.78803C19.9095 5.6503 19.2725 5.64579 18.6559 5.77478C17.9581 5.92053 17.3044 6.30036 15.9949 7.06003L15.9883 7.06224L14.9106 7.6872L14.8996 7.69603C13.6011 8.44686 12.9496 8.8267 12.4814 9.35449C12.0642 9.82353 11.7518 10.3761 11.565 10.9754C11.3552 11.6534 11.3662 12.4086 11.3927 13.9191L11.4082 14.8554C11.4082 14.999 11.4148 15.0697 11.4126 15.1381C11.4009 15.9404 11.1712 16.7244 10.7479 17.4061C10.675 17.5297 10.6419 17.5916 10.6043 17.649C10.232 18.25 9.7208 18.7529 9.11372 19.1153L8.86639 19.2544L8.06918 19.6961C6.73977 20.4315 6.07506 20.8003 5.59364 21.3259C5.16562 21.7892 4.84183 22.3389 4.64406 22.9379C4.42322 23.6159 4.42322 24.3734 4.42543 25.8927L4.42985 27.136C4.43206 28.6443 4.43647 29.3973 4.65952 30.0709C4.85647 30.6662 5.17791 31.2127 5.60247 31.6741C6.08389 32.1953 6.74197 32.5619 8.06035 33.295L8.85093 33.7345C8.98564 33.8096 9.0541 33.8449 9.11814 33.8847C9.81018 34.2995 10.3753 34.896 10.7523 35.6094L10.9003 35.8744C11.2733 36.5786 11.4488 37.3707 11.4082 38.1666L11.3927 39.0654C11.3662 40.5803 11.3552 41.34 11.5672 42.0179C11.7549 42.6186 12.0685 43.1729 12.4881 43.6433C12.9606 44.1733 13.6187 44.5509 14.9305 45.3084L16.0214 45.9377C17.3309 46.6908 17.9846 47.0684 18.6802 47.2119C19.2948 47.3391 19.9295 47.3339 20.5418 47.1965C21.2353 47.0419 21.8823 46.6532 23.1786 45.8759L23.9604 45.4077C24.6337 44.9742 25.4124 44.7322 26.2129 44.7077H26.787C27.4893 44.7298 28.1783 44.9219 28.7966 45.2642L28.9998 45.3857L29.8301 45.8847C31.133 46.6665 31.7823 47.0552 32.4779 47.2097C33.0923 47.3488 33.7293 47.3548 34.3461 47.2274C35.0418 47.0817 35.6999 46.6996 37.0094 45.9399L38.1025 45.3062C39.401 44.5509 40.0525 44.1733 40.5206 43.6455C40.9402 43.1751 41.2494 42.623 41.4371 42.0246C41.6469 41.351 41.6359 40.6024 41.6094 39.114L41.5917 38.1423C41.5478 37.2445 41.7789 36.3547 42.2542 35.5917L42.3977 35.3488C42.7701 34.7477 43.2813 34.2449 43.8884 33.8824L44.1313 33.7477L44.1357 33.7455L44.9329 33.3039C46.2623 32.5663 46.927 32.1997 47.4106 31.6741C47.8391 31.2104 48.1615 30.6583 48.358 30.062C48.5789 29.3885 48.5789 28.6332 48.5744 27.1316L48.57 25.864C48.5678 24.3557 48.5656 23.6004 48.3426 22.9269C48.1446 22.3323 47.8224 21.7865 47.3974 21.3259C46.9182 20.8047 46.2601 20.4381 44.9439 19.7072L44.9395 19.7049Z" stroke="#38C19D" stroke-width="2" stroke-linecap="round" stroke-linejoin="round"/>
<path d="M17.6665 26.5C17.6665 28.8427 18.5972 31.0895 20.2537 32.7461C21.9103 34.4026 24.1571 35.3333 26.4998 35.3333C28.8426 35.3333 31.0894 34.4026 32.7459 32.7461C34.4025 31.0895 35.3332 28.8427 35.3332 26.5C35.3332 24.1572 34.4025 21.9104 32.7459 20.2538C31.0894 18.5973 28.8426 17.6666 26.4998 17.6666C24.1571 17.6666 21.9103 18.5973 20.2537 20.2538C18.5972 21.9104 17.6665 24.1572 17.6665 26.5Z" stroke="#38C19D" stroke-width="2" stroke-linecap="round" stroke-linejoin="round"/>
</svg>
