<svg width="50" height="50" viewBox="0 0 50 50" fill="none" xmlns="http://www.w3.org/2000/svg">
<path fill-rule="evenodd" clip-rule="evenodd" d="M3.125 25C3.125 12.9188 12.9188 3.125 25 3.125C37.0812 3.125 46.875 12.9188 46.875 25C46.875 37.0812 37.0812 46.875 25 46.875C12.9188 46.875 3.125 37.0812 3.125 25ZM25 5.20833C14.0694 5.20833 5.20833 14.0694 5.20833 25C5.20833 35.9306 14.0694 44.7917 25 44.7917C35.9306 44.7917 44.7917 35.9306 44.7917 25C44.7917 14.0694 35.9306 5.20833 25 5.20833Z" fill="#38C19D"/>
<path fill-rule="evenodd" clip-rule="evenodd" d="M25.0026 11.457C25.5779 11.457 26.0443 11.9234 26.0443 12.4987V24.5672L31.9892 30.5121C32.396 30.9189 32.396 31.5785 31.9892 31.9853C31.5824 32.3921 30.9228 32.3921 30.516 31.9853L24.266 25.7353C24.0707 25.5399 23.9609 25.275 23.9609 24.9987V12.4987C23.9609 11.9234 24.4273 11.457 25.0026 11.457Z" fill="#38C19D"/>
<path fill-rule="evenodd" clip-rule="evenodd" d="M40.3173 1.34758L48.6506 9.68092C49.0574 10.0877 49.0574 10.7473 48.6506 11.1541C48.2438 11.5609 47.5843 11.5609 47.1775 11.1541L38.8442 2.82072C38.4374 2.41393 38.4374 1.75438 38.8442 1.34758C39.251 0.940787 39.9105 0.940787 40.3173 1.34758Z" fill="#38C19D"/>
<path fill-rule="evenodd" clip-rule="evenodd" d="M9.6827 1.34758L1.34937 9.68092C0.942572 10.0877 0.942572 10.7473 1.34937 11.1541C1.75616 11.5609 2.41571 11.5609 2.82251 11.1541L11.1558 2.82072C11.5626 2.41393 11.5626 1.75438 11.1558 1.34758C10.749 0.940787 10.0895 0.940787 9.6827 1.34758Z" fill="#38C19D"/>
</svg>
