<svg width="50" height="50" viewBox="0 0 50 50" fill="none" xmlns="http://www.w3.org/2000/svg">
<path fill-rule="evenodd" clip-rule="evenodd" d="M48.6506 11.7621C49.0574 12.1689 49.0574 12.8285 48.6506 13.2353L28.859 33.0269C28.4522 33.4337 27.7926 33.4337 27.3858 33.0269L17.7057 23.3468L2.8173 38.2353C2.4105 38.6421 1.75096 38.6421 1.34416 38.2353C0.937363 37.8285 0.937363 37.1689 1.34416 36.7621L16.9692 21.1371C17.376 20.7303 18.0355 20.7303 18.4423 21.1371L28.1224 30.8172L47.1775 11.7621C47.5843 11.3553 48.2438 11.3553 48.6506 11.7621Z" fill="#38C19D"/>
<path fill-rule="evenodd" clip-rule="evenodd" d="M34.375 12.4987C34.375 11.9234 34.8414 11.457 35.4167 11.457H47.9167C48.492 11.457 48.9583 11.9234 48.9583 12.4987V24.9987C48.9583 25.574 48.492 26.0404 47.9167 26.0404C47.3414 26.0404 46.875 25.574 46.875 24.9987V13.5404H35.4167C34.8414 13.5404 34.375 13.074 34.375 12.4987Z" fill="#38C19D"/>
</svg>
