<svg width="2352" height="2160" viewBox="0 0 2352 2160" fill="none" xmlns="http://www.w3.org/2000/svg">
<rect width="2352" height="2160" fill="white"/>
<rect x="393" y="198" width="1726" height="1558" fill="black"/>
<rect x="397" y="202" width="1718" height="1550" fill="white"/>
<rect x="464" y="202" width="5" height="11" fill="#38C19D"/>
<rect x="464" y="227" width="5" height="19" fill="#38C19D"/>
<rect x="464" y="261" width="5" height="19" fill="#38C19D"/>
<rect x="464" y="295" width="5" height="19" fill="#38C19D"/>
<rect x="464" y="329" width="5" height="19" fill="#38C19D"/>
<rect x="464" y="363" width="5" height="19" fill="#38C19D"/>
<rect x="464" y="397" width="5" height="19" fill="#38C19D"/>
<rect x="464" y="431" width="5" height="19" fill="#38C19D"/>
<rect x="464" y="465" width="5" height="19" fill="#38C19D"/>
<rect x="464" y="499" width="5" height="19" fill="#38C19D"/>
<rect x="464" y="533" width="5" height="19" fill="#38C19D"/>
<rect x="464" y="567" width="5" height="19" fill="#38C19D"/>
<rect x="464" y="601" width="5" height="19" fill="#38C19D"/>
<rect x="464" y="635" width="5" height="19" fill="#38C19D"/>
<rect x="464" y="669" width="5" height="19" fill="#38C19D"/>
<rect x="464" y="703" width="5" height="19" fill="#38C19D"/>
<rect x="464" y="737" width="5" height="19" fill="#38C19D"/>
<rect x="464" y="771" width="5" height="19" fill="#38C19D"/>
<rect x="464" y="805" width="5" height="19" fill="#38C19D"/>
<rect x="464" y="839" width="5" height="19" fill="#38C19D"/>
<rect x="464" y="873" width="5" height="19" fill="#38C19D"/>
<rect x="464" y="907" width="5" height="19" fill="#38C19D"/>
<rect x="464" y="941" width="5" height="19" fill="#38C19D"/>
<rect x="464" y="975" width="5" height="19" fill="#38C19D"/>
<rect x="464" y="1008" width="5" height="19" fill="#38C19D"/>
<rect x="464" y="1042" width="5" height="19" fill="#38C19D"/>
<rect x="464" y="1076" width="5" height="19" fill="#38C19D"/>
<rect x="464" y="1110" width="5" height="19" fill="#38C19D"/>
<rect x="464" y="1144" width="5" height="19" fill="#38C19D"/>
<rect x="464" y="1178" width="5" height="19" fill="#38C19D"/>
<rect x="464" y="1212" width="5" height="19" fill="#38C19D"/>
<rect x="464" y="1246" width="5" height="19" fill="#38C19D"/>
<rect x="464" y="1280" width="5" height="19" fill="#38C19D"/>
<rect x="464" y="1314" width="5" height="19" fill="#38C19D"/>
<rect x="464" y="1484" width="5" height="19" fill="#38C19D"/>
<rect x="464" y="1348" width="5" height="19" fill="#38C19D"/>
<rect x="464" y="1518" width="5" height="19" fill="#38C19D"/>
<rect x="464" y="1382" width="5" height="19" fill="#38C19D"/>
<rect x="464" y="1552" width="5" height="19" fill="#38C19D"/>
<rect x="464" y="1416" width="5" height="19" fill="#38C19D"/>
<rect x="464" y="1586" width="5" height="19" fill="#38C19D"/>
<rect x="464" y="1450" width="5" height="19" fill="#38C19D"/>
<rect x="464" y="1620" width="5" height="19" fill="#38C19D"/>
<rect x="464" y="1654" width="5" height="19" fill="#38C19D"/>
<rect x="464" y="1689" width="5" height="19" fill="#38C19D"/>
<rect x="464" y="1688" width="5" height="19" fill="#38C19D"/>
<rect x="464" y="1722" width="5" height="10" fill="#38C19D"/>
<rect x="625" y="203" width="5" height="11" fill="#38C19D"/>
<rect x="625" y="228" width="5" height="19" fill="#38C19D"/>
<rect x="625" y="262" width="5" height="19" fill="#38C19D"/>
<rect x="625" y="296" width="5" height="19" fill="#38C19D"/>
<rect x="625" y="330" width="5" height="19" fill="#38C19D"/>
<rect x="625" y="364" width="5" height="19" fill="#38C19D"/>
<rect x="625" y="398" width="5" height="19" fill="#38C19D"/>
<rect x="625" y="432" width="5" height="19" fill="#38C19D"/>
<rect x="625" y="466" width="5" height="19" fill="#38C19D"/>
<rect x="625" y="500" width="5" height="19" fill="#38C19D"/>
<rect x="625" y="534" width="5" height="19" fill="#38C19D"/>
<rect x="625" y="568" width="5" height="19" fill="#38C19D"/>
<rect x="625" y="602" width="5" height="19" fill="#38C19D"/>
<rect x="625" y="636" width="5" height="19" fill="#38C19D"/>
<rect x="625" y="670" width="5" height="19" fill="#38C19D"/>
<rect x="625" y="704" width="5" height="19" fill="#38C19D"/>
<rect x="625" y="738" width="5" height="19" fill="#38C19D"/>
<rect x="625" y="772" width="5" height="19" fill="#38C19D"/>
<rect x="625" y="806" width="5" height="19" fill="#38C19D"/>
<rect x="625" y="840" width="5" height="19" fill="#38C19D"/>
<rect x="625" y="874" width="5" height="19" fill="#38C19D"/>
<rect x="625" y="908" width="5" height="19" fill="#38C19D"/>
<rect x="625" y="942" width="5" height="19" fill="#38C19D"/>
<rect x="625" y="976" width="5" height="19" fill="#38C19D"/>
<rect x="625" y="1009" width="5" height="19" fill="#38C19D"/>
<rect x="625" y="1043" width="5" height="19" fill="#38C19D"/>
<rect x="625" y="1077" width="5" height="19" fill="#38C19D"/>
<rect x="625" y="1111" width="5" height="19" fill="#38C19D"/>
<rect x="625" y="1145" width="5" height="19" fill="#38C19D"/>
<rect x="625" y="1179" width="5" height="19" fill="#38C19D"/>
<rect x="625" y="1213" width="5" height="19" fill="#38C19D"/>
<rect x="625" y="1247" width="5" height="19" fill="#38C19D"/>
<rect x="625" y="1281" width="5" height="19" fill="#38C19D"/>
<rect x="625" y="1315" width="5" height="19" fill="#38C19D"/>
<rect x="625" y="1349" width="5" height="19" fill="#38C19D"/>
<rect x="625" y="1383" width="5" height="19" fill="#38C19D"/>
<rect x="625" y="1417" width="5" height="19" fill="#38C19D"/>
<rect x="625" y="1451" width="5" height="19" fill="#38C19D"/>
<rect x="625" y="1485" width="5" height="19" fill="#38C19D"/>
<rect x="625" y="1519" width="5" height="19" fill="#38C19D"/>
<rect x="625" y="1553" width="5" height="19" fill="#38C19D"/>
<rect x="625" y="1587" width="5" height="19" fill="#38C19D"/>
<rect x="625" y="1621" width="5" height="19" fill="#38C19D"/>
<rect x="625" y="1655" width="5" height="19" fill="#38C19D"/>
<rect x="625" y="1690" width="5" height="19" fill="#38C19D"/>
<rect x="625" y="1689" width="5" height="19" fill="#38C19D"/>
<rect x="625" y="1723" width="5" height="10" fill="#38C19D"/>
<rect x="786" y="203" width="5" height="11" fill="#38C19D"/>
<rect x="786" y="228" width="5" height="19" fill="#38C19D"/>
<rect x="786" y="262" width="5" height="19" fill="#38C19D"/>
<rect x="786" y="296" width="5" height="19" fill="#38C19D"/>
<rect x="786" y="330" width="5" height="19" fill="#38C19D"/>
<rect x="786" y="364" width="5" height="19" fill="#38C19D"/>
<rect x="786" y="398" width="5" height="19" fill="#38C19D"/>
<rect x="786" y="432" width="5" height="19" fill="#38C19D"/>
<rect x="786" y="466" width="5" height="19" fill="#38C19D"/>
<rect x="786" y="500" width="5" height="19" fill="#38C19D"/>
<rect x="786" y="534" width="5" height="19" fill="#38C19D"/>
<rect x="786" y="568" width="5" height="19" fill="#38C19D"/>
<rect x="786" y="602" width="5" height="19" fill="#38C19D"/>
<rect x="786" y="636" width="5" height="19" fill="#38C19D"/>
<rect x="786" y="670" width="5" height="19" fill="#38C19D"/>
<rect x="786" y="704" width="5" height="19" fill="#38C19D"/>
<rect x="786" y="738" width="5" height="19" fill="#38C19D"/>
<rect x="786" y="772" width="5" height="19" fill="#38C19D"/>
<rect x="786" y="806" width="5" height="19" fill="#38C19D"/>
<rect x="786" y="840" width="5" height="19" fill="#38C19D"/>
<rect x="786" y="874" width="5" height="19" fill="#38C19D"/>
<rect x="786" y="908" width="5" height="19" fill="#38C19D"/>
<rect x="786" y="942" width="5" height="19" fill="#38C19D"/>
<rect x="786" y="976" width="5" height="19" fill="#38C19D"/>
<rect x="786" y="1009" width="5" height="19" fill="#38C19D"/>
<rect x="786" y="1043" width="5" height="19" fill="#38C19D"/>
<rect x="786" y="1077" width="5" height="19" fill="#38C19D"/>
<rect x="786" y="1111" width="5" height="19" fill="#38C19D"/>
<rect x="786" y="1145" width="5" height="19" fill="#38C19D"/>
<rect x="786" y="1179" width="5" height="19" fill="#38C19D"/>
<rect x="786" y="1213" width="5" height="19" fill="#38C19D"/>
<rect x="786" y="1247" width="5" height="19" fill="#38C19D"/>
<rect x="786" y="1281" width="5" height="19" fill="#38C19D"/>
<rect x="786" y="1315" width="5" height="19" fill="#38C19D"/>
<rect x="786" y="1349" width="5" height="19" fill="#38C19D"/>
<rect x="786" y="1383" width="5" height="19" fill="#38C19D"/>
<rect x="786" y="1417" width="5" height="19" fill="#38C19D"/>
<rect x="786" y="1451" width="5" height="19" fill="#38C19D"/>
<rect x="786" y="1485" width="5" height="19" fill="#38C19D"/>
<rect x="786" y="1519" width="5" height="19" fill="#38C19D"/>
<rect x="786" y="1553" width="5" height="19" fill="#38C19D"/>
<rect x="786" y="1587" width="5" height="19" fill="#38C19D"/>
<rect x="786" y="1621" width="5" height="19" fill="#38C19D"/>
<rect x="786" y="1655" width="5" height="19" fill="#38C19D"/>
<rect x="786" y="1690" width="5" height="19" fill="#38C19D"/>
<rect x="786" y="1689" width="5" height="19" fill="#38C19D"/>
<rect x="786" y="1723" width="5" height="10" fill="#38C19D"/>
<rect x="947" y="202" width="5" height="11" fill="#38C19D"/>
<rect x="947" y="227" width="5" height="19" fill="#38C19D"/>
<rect x="947" y="261" width="5" height="19" fill="#38C19D"/>
<rect x="947" y="295" width="5" height="19" fill="#38C19D"/>
<rect x="947" y="329" width="5" height="19" fill="#38C19D"/>
<rect x="947" y="363" width="5" height="19" fill="#38C19D"/>
<rect x="947" y="397" width="5" height="19" fill="#38C19D"/>
<rect x="947" y="431" width="5" height="19" fill="#38C19D"/>
<rect x="947" y="465" width="5" height="19" fill="#38C19D"/>
<rect x="947" y="499" width="5" height="19" fill="#38C19D"/>
<rect x="947" y="533" width="5" height="19" fill="#38C19D"/>
<rect x="947" y="567" width="5" height="19" fill="#38C19D"/>
<rect x="947" y="601" width="5" height="19" fill="#38C19D"/>
<rect x="947" y="635" width="5" height="19" fill="#38C19D"/>
<rect x="947" y="669" width="5" height="19" fill="#38C19D"/>
<rect x="947" y="703" width="5" height="19" fill="#38C19D"/>
<rect x="947" y="737" width="5" height="19" fill="#38C19D"/>
<rect x="947" y="771" width="5" height="19" fill="#38C19D"/>
<rect x="947" y="805" width="5" height="19" fill="#38C19D"/>
<rect x="947" y="839" width="5" height="19" fill="#38C19D"/>
<rect x="947" y="873" width="5" height="19" fill="#38C19D"/>
<rect x="947" y="907" width="5" height="19" fill="#38C19D"/>
<rect x="947" y="941" width="5" height="19" fill="#38C19D"/>
<rect x="947" y="975" width="5" height="19" fill="#38C19D"/>
<rect x="947" y="1008" width="5" height="19" fill="#38C19D"/>
<rect x="947" y="1042" width="5" height="19" fill="#38C19D"/>
<rect x="947" y="1076" width="5" height="19" fill="#38C19D"/>
<rect x="947" y="1110" width="5" height="19" fill="#38C19D"/>
<rect x="947" y="1144" width="5" height="19" fill="#38C19D"/>
<rect x="947" y="1178" width="5" height="19" fill="#38C19D"/>
<rect x="947" y="1212" width="5" height="19" fill="#38C19D"/>
<rect x="947" y="1246" width="5" height="19" fill="#38C19D"/>
<rect x="947" y="1280" width="5" height="19" fill="#38C19D"/>
<rect x="947" y="1314" width="5" height="19" fill="#38C19D"/>
<rect x="947" y="1348" width="5" height="19" fill="#38C19D"/>
<rect x="947" y="1382" width="5" height="19" fill="#38C19D"/>
<rect x="947" y="1416" width="5" height="19" fill="#38C19D"/>
<rect x="947" y="1450" width="5" height="19" fill="#38C19D"/>
<rect x="947" y="1484" width="5" height="19" fill="#38C19D"/>
<rect x="947" y="1518" width="5" height="19" fill="#38C19D"/>
<rect x="947" y="1552" width="5" height="19" fill="#38C19D"/>
<rect x="947" y="1586" width="5" height="19" fill="#38C19D"/>
<rect x="947" y="1620" width="5" height="19" fill="#38C19D"/>
<rect x="947" y="1654" width="5" height="19" fill="#38C19D"/>
<rect x="947" y="1689" width="5" height="19" fill="#38C19D"/>
<rect x="947" y="1688" width="5" height="19" fill="#38C19D"/>
<rect x="947" y="1722" width="5" height="10" fill="#38C19D"/>
<rect x="1108" y="203" width="5" height="11" fill="#38C19D"/>
<rect x="1108" y="228" width="5" height="19" fill="#38C19D"/>
<rect x="1108" y="262" width="5" height="19" fill="#38C19D"/>
<rect x="1108" y="296" width="5" height="19" fill="#38C19D"/>
<rect x="1108" y="330" width="5" height="19" fill="#38C19D"/>
<rect x="1108" y="364" width="5" height="19" fill="#38C19D"/>
<rect x="1108" y="398" width="5" height="19" fill="#38C19D"/>
<rect x="1108" y="432" width="5" height="19" fill="#38C19D"/>
<rect x="1108" y="466" width="5" height="19" fill="#38C19D"/>
<rect x="1108" y="500" width="5" height="19" fill="#38C19D"/>
<rect x="1108" y="534" width="5" height="19" fill="#38C19D"/>
<rect x="1108" y="568" width="5" height="19" fill="#38C19D"/>
<rect x="1108" y="602" width="5" height="19" fill="#38C19D"/>
<rect x="1108" y="636" width="5" height="19" fill="#38C19D"/>
<rect x="1108" y="670" width="5" height="19" fill="#38C19D"/>
<rect x="1108" y="704" width="5" height="19" fill="#38C19D"/>
<rect x="1108" y="738" width="5" height="19" fill="#38C19D"/>
<rect x="1108" y="772" width="5" height="19" fill="#38C19D"/>
<rect x="1108" y="806" width="5" height="19" fill="#38C19D"/>
<rect x="1108" y="840" width="5" height="19" fill="#38C19D"/>
<rect x="1108" y="874" width="5" height="19" fill="#38C19D"/>
<rect x="1108" y="908" width="5" height="19" fill="#38C19D"/>
<rect x="1108" y="942" width="5" height="19" fill="#38C19D"/>
<rect x="1108" y="976" width="5" height="19" fill="#38C19D"/>
<rect x="1108" y="1009" width="5" height="19" fill="#38C19D"/>
<rect x="1108" y="1043" width="5" height="19" fill="#38C19D"/>
<rect x="1108" y="1077" width="5" height="19" fill="#38C19D"/>
<rect x="1108" y="1111" width="5" height="19" fill="#38C19D"/>
<rect x="1108" y="1145" width="5" height="19" fill="#38C19D"/>
<rect x="1108" y="1179" width="5" height="19" fill="#38C19D"/>
<rect x="1108" y="1213" width="5" height="19" fill="#38C19D"/>
<rect x="1108" y="1247" width="5" height="19" fill="#38C19D"/>
<rect x="1108" y="1281" width="5" height="19" fill="#38C19D"/>
<rect x="1108" y="1315" width="5" height="19" fill="#38C19D"/>
<rect x="1108" y="1349" width="5" height="19" fill="#38C19D"/>
<rect x="1108" y="1383" width="5" height="19" fill="#38C19D"/>
<rect x="1108" y="1417" width="5" height="19" fill="#38C19D"/>
<rect x="1108" y="1451" width="5" height="19" fill="#38C19D"/>
<rect x="1108" y="1485" width="5" height="19" fill="#38C19D"/>
<rect x="1108" y="1519" width="5" height="19" fill="#38C19D"/>
<rect x="1108" y="1553" width="5" height="19" fill="#38C19D"/>
<rect x="1108" y="1587" width="5" height="19" fill="#38C19D"/>
<rect x="1108" y="1621" width="5" height="19" fill="#38C19D"/>
<rect x="1108" y="1655" width="5" height="19" fill="#38C19D"/>
<rect x="1108" y="1690" width="5" height="19" fill="#38C19D"/>
<rect x="1108" y="1689" width="5" height="19" fill="#38C19D"/>
<rect x="1108" y="1723" width="5" height="10" fill="#38C19D"/>
<rect x="1269" y="203" width="5" height="11" fill="#38C19D"/>
<rect x="1269" y="228" width="5" height="19" fill="#38C19D"/>
<rect x="1269" y="262" width="5" height="19" fill="#38C19D"/>
<rect x="1269" y="296" width="5" height="19" fill="#38C19D"/>
<rect x="1269" y="330" width="5" height="19" fill="#38C19D"/>
<rect x="1269" y="364" width="5" height="19" fill="#38C19D"/>
<rect x="1269" y="398" width="5" height="19" fill="#38C19D"/>
<rect x="1269" y="432" width="5" height="19" fill="#38C19D"/>
<rect x="1269" y="466" width="5" height="19" fill="#38C19D"/>
<rect x="1269" y="500" width="5" height="19" fill="#38C19D"/>
<rect x="1269" y="534" width="5" height="19" fill="#38C19D"/>
<rect x="1269" y="568" width="5" height="19" fill="#38C19D"/>
<rect x="1269" y="602" width="5" height="19" fill="#38C19D"/>
<rect x="1269" y="636" width="5" height="19" fill="#38C19D"/>
<rect x="1269" y="670" width="5" height="19" fill="#38C19D"/>
<rect x="1269" y="704" width="5" height="19" fill="#38C19D"/>
<rect x="1269" y="738" width="5" height="19" fill="#38C19D"/>
<rect x="1269" y="772" width="5" height="19" fill="#38C19D"/>
<rect x="1269" y="806" width="5" height="19" fill="#38C19D"/>
<rect x="1269" y="840" width="5" height="19" fill="#38C19D"/>
<rect x="1269" y="874" width="5" height="19" fill="#38C19D"/>
<rect x="1269" y="908" width="5" height="19" fill="#38C19D"/>
<rect x="1269" y="942" width="5" height="19" fill="#38C19D"/>
<rect x="1269" y="976" width="5" height="19" fill="#38C19D"/>
<rect x="1269" y="1009" width="5" height="19" fill="#38C19D"/>
<rect x="1269" y="1043" width="5" height="19" fill="#38C19D"/>
<rect x="1269" y="1077" width="5" height="19" fill="#38C19D"/>
<rect x="1269" y="1111" width="5" height="19" fill="#38C19D"/>
<rect x="1269" y="1145" width="5" height="19" fill="#38C19D"/>
<rect x="1269" y="1179" width="5" height="19" fill="#38C19D"/>
<rect x="1269" y="1213" width="5" height="19" fill="#38C19D"/>
<rect x="1269" y="1247" width="5" height="19" fill="#38C19D"/>
<rect x="1269" y="1281" width="5" height="19" fill="#38C19D"/>
<rect x="1269" y="1315" width="5" height="19" fill="#38C19D"/>
<rect x="1269" y="1349" width="5" height="19" fill="#38C19D"/>
<rect x="1269" y="1383" width="5" height="19" fill="#38C19D"/>
<rect x="1269" y="1417" width="5" height="19" fill="#38C19D"/>
<rect x="1269" y="1451" width="5" height="19" fill="#38C19D"/>
<rect x="1269" y="1485" width="5" height="19" fill="#38C19D"/>
<rect x="1269" y="1519" width="5" height="19" fill="#38C19D"/>
<rect x="1269" y="1553" width="5" height="19" fill="#38C19D"/>
<rect x="1269" y="1587" width="5" height="19" fill="#38C19D"/>
<rect x="1269" y="1621" width="5" height="19" fill="#38C19D"/>
<rect x="1269" y="1655" width="5" height="19" fill="#38C19D"/>
<rect x="1269" y="1690" width="5" height="19" fill="#38C19D"/>
<rect x="1269" y="1689" width="5" height="19" fill="#38C19D"/>
<rect x="1269" y="1723" width="5" height="10" fill="#38C19D"/>
<rect x="1427" y="203" width="5" height="11" fill="#38C19D"/>
<rect x="1427" y="228" width="5" height="19" fill="#38C19D"/>
<rect x="1427" y="262" width="5" height="19" fill="#38C19D"/>
<rect x="1427" y="296" width="5" height="19" fill="#38C19D"/>
<rect x="1427" y="330" width="5" height="19" fill="#38C19D"/>
<rect x="1427" y="364" width="5" height="19" fill="#38C19D"/>
<rect x="1427" y="398" width="5" height="19" fill="#38C19D"/>
<rect x="1427" y="432" width="5" height="19" fill="#38C19D"/>
<rect x="1427" y="466" width="5" height="19" fill="#38C19D"/>
<rect x="1427" y="500" width="5" height="19" fill="#38C19D"/>
<rect x="1427" y="534" width="5" height="19" fill="#38C19D"/>
<rect x="1427" y="568" width="5" height="19" fill="#38C19D"/>
<rect x="1427" y="602" width="5" height="19" fill="#38C19D"/>
<rect x="1427" y="636" width="5" height="19" fill="#38C19D"/>
<rect x="1427" y="670" width="5" height="19" fill="#38C19D"/>
<rect x="1427" y="704" width="5" height="19" fill="#38C19D"/>
<rect x="1427" y="738" width="5" height="19" fill="#38C19D"/>
<rect x="1427" y="772" width="5" height="19" fill="#38C19D"/>
<rect x="1427" y="806" width="5" height="19" fill="#38C19D"/>
<rect x="1427" y="840" width="5" height="19" fill="#38C19D"/>
<rect x="1427" y="874" width="5" height="19" fill="#38C19D"/>
<rect x="1427" y="908" width="5" height="19" fill="#38C19D"/>
<rect x="1427" y="942" width="5" height="19" fill="#38C19D"/>
<rect x="1427" y="976" width="5" height="19" fill="#38C19D"/>
<rect x="1427" y="1009" width="5" height="19" fill="#38C19D"/>
<rect x="1427" y="1043" width="5" height="19" fill="#38C19D"/>
<rect x="1427" y="1077" width="5" height="19" fill="#38C19D"/>
<rect x="1427" y="1111" width="5" height="19" fill="#38C19D"/>
<rect x="1427" y="1145" width="5" height="19" fill="#38C19D"/>
<rect x="1427" y="1179" width="5" height="19" fill="#38C19D"/>
<rect x="1427" y="1213" width="5" height="19" fill="#38C19D"/>
<rect x="1427" y="1247" width="5" height="19" fill="#38C19D"/>
<rect x="1427" y="1281" width="5" height="19" fill="#38C19D"/>
<rect x="1427" y="1315" width="5" height="19" fill="#38C19D"/>
<rect x="1427" y="1349" width="5" height="19" fill="#38C19D"/>
<rect x="1427" y="1383" width="5" height="19" fill="#38C19D"/>
<rect x="1427" y="1417" width="5" height="19" fill="#38C19D"/>
<rect x="1427" y="1451" width="5" height="19" fill="#38C19D"/>
<rect x="1427" y="1485" width="5" height="19" fill="#38C19D"/>
<rect x="1427" y="1519" width="5" height="19" fill="#38C19D"/>
<rect x="1427" y="1553" width="5" height="19" fill="#38C19D"/>
<rect x="1427" y="1587" width="5" height="19" fill="#38C19D"/>
<rect x="1427" y="1621" width="5" height="19" fill="#38C19D"/>
<rect x="1427" y="1655" width="5" height="19" fill="#38C19D"/>
<rect x="1427" y="1690" width="5" height="19" fill="#38C19D"/>
<rect x="1427" y="1689" width="5" height="19" fill="#38C19D"/>
<rect x="1427" y="1723" width="5" height="10" fill="#38C19D"/>
<rect x="1588" y="203" width="5" height="11" fill="#38C19D"/>
<rect x="1588" y="228" width="5" height="19" fill="#38C19D"/>
<rect x="1588" y="262" width="5" height="19" fill="#38C19D"/>
<rect x="1588" y="296" width="5" height="19" fill="#38C19D"/>
<rect x="1588" y="330" width="5" height="19" fill="#38C19D"/>
<rect x="1588" y="364" width="5" height="19" fill="#38C19D"/>
<rect x="1588" y="398" width="5" height="19" fill="#38C19D"/>
<rect x="1588" y="432" width="5" height="19" fill="#38C19D"/>
<rect x="1588" y="466" width="5" height="19" fill="#38C19D"/>
<rect x="1588" y="500" width="5" height="19" fill="#38C19D"/>
<rect x="1588" y="534" width="5" height="19" fill="#38C19D"/>
<rect x="1588" y="568" width="5" height="19" fill="#38C19D"/>
<rect x="1588" y="602" width="5" height="19" fill="#38C19D"/>
<rect x="1588" y="636" width="5" height="19" fill="#38C19D"/>
<rect x="1588" y="670" width="5" height="19" fill="#38C19D"/>
<rect x="1588" y="704" width="5" height="19" fill="#38C19D"/>
<rect x="1588" y="738" width="5" height="19" fill="#38C19D"/>
<rect x="1588" y="772" width="5" height="19" fill="#38C19D"/>
<rect x="1588" y="806" width="5" height="19" fill="#38C19D"/>
<rect x="1588" y="840" width="5" height="19" fill="#38C19D"/>
<rect x="1588" y="874" width="5" height="19" fill="#38C19D"/>
<rect x="1588" y="908" width="5" height="19" fill="#38C19D"/>
<rect x="1588" y="942" width="5" height="19" fill="#38C19D"/>
<rect x="1588" y="976" width="5" height="19" fill="#38C19D"/>
<rect x="1588" y="1009" width="5" height="19" fill="#38C19D"/>
<rect x="1588" y="1043" width="5" height="19" fill="#38C19D"/>
<rect x="1588" y="1077" width="5" height="19" fill="#38C19D"/>
<rect x="1588" y="1111" width="5" height="19" fill="#38C19D"/>
<rect x="1588" y="1145" width="5" height="19" fill="#38C19D"/>
<rect x="1588" y="1179" width="5" height="19" fill="#38C19D"/>
<rect x="1588" y="1213" width="5" height="19" fill="#38C19D"/>
<rect x="1588" y="1247" width="5" height="19" fill="#38C19D"/>
<rect x="1588" y="1281" width="5" height="19" fill="#38C19D"/>
<rect x="1588" y="1315" width="5" height="19" fill="#38C19D"/>
<rect x="1588" y="1349" width="5" height="19" fill="#38C19D"/>
<rect x="1588" y="1383" width="5" height="19" fill="#38C19D"/>
<rect x="1588" y="1417" width="5" height="19" fill="#38C19D"/>
<rect x="1588" y="1451" width="5" height="19" fill="#38C19D"/>
<rect x="1588" y="1485" width="5" height="19" fill="#38C19D"/>
<rect x="1588" y="1519" width="5" height="19" fill="#38C19D"/>
<rect x="1588" y="1553" width="5" height="19" fill="#38C19D"/>
<rect x="1588" y="1587" width="5" height="19" fill="#38C19D"/>
<rect x="1588" y="1621" width="5" height="19" fill="#38C19D"/>
<rect x="1588" y="1655" width="5" height="19" fill="#38C19D"/>
<rect x="1588" y="1690" width="5" height="19" fill="#38C19D"/>
<rect x="1588" y="1689" width="5" height="19" fill="#38C19D"/>
<rect x="1588" y="1723" width="5" height="10" fill="#38C19D"/>
<rect x="1749" y="203" width="5" height="11" fill="#38C19D"/>
<rect x="1749" y="228" width="5" height="19" fill="#38C19D"/>
<rect x="1749" y="262" width="5" height="19" fill="#38C19D"/>
<rect x="1749" y="296" width="5" height="19" fill="#38C19D"/>
<rect x="1749" y="330" width="5" height="19" fill="#38C19D"/>
<rect x="1749" y="364" width="5" height="19" fill="#38C19D"/>
<rect x="1749" y="398" width="5" height="19" fill="#38C19D"/>
<rect x="1749" y="432" width="5" height="19" fill="#38C19D"/>
<rect x="1749" y="466" width="5" height="19" fill="#38C19D"/>
<rect x="1749" y="500" width="5" height="19" fill="#38C19D"/>
<rect x="1749" y="534" width="5" height="19" fill="#38C19D"/>
<rect x="1749" y="568" width="5" height="19" fill="#38C19D"/>
<rect x="1749" y="602" width="5" height="19" fill="#38C19D"/>
<rect x="1749" y="636" width="5" height="19" fill="#38C19D"/>
<rect x="1749" y="670" width="5" height="19" fill="#38C19D"/>
<rect x="1749" y="704" width="5" height="19" fill="#38C19D"/>
<rect x="1749" y="738" width="5" height="19" fill="#38C19D"/>
<rect x="1749" y="772" width="5" height="19" fill="#38C19D"/>
<rect x="1749" y="806" width="5" height="19" fill="#38C19D"/>
<rect x="1749" y="840" width="5" height="19" fill="#38C19D"/>
<rect x="1749" y="874" width="5" height="19" fill="#38C19D"/>
<rect x="1749" y="908" width="5" height="19" fill="#38C19D"/>
<rect x="1749" y="942" width="5" height="19" fill="#38C19D"/>
<rect x="1749" y="976" width="5" height="19" fill="#38C19D"/>
<rect x="1749" y="1009" width="5" height="19" fill="#38C19D"/>
<rect x="1749" y="1043" width="5" height="19" fill="#38C19D"/>
<rect x="1749" y="1077" width="5" height="19" fill="#38C19D"/>
<rect x="1749" y="1111" width="5" height="19" fill="#38C19D"/>
<rect x="1749" y="1145" width="5" height="19" fill="#38C19D"/>
<rect x="1749" y="1179" width="5" height="19" fill="#38C19D"/>
<rect x="1749" y="1213" width="5" height="19" fill="#38C19D"/>
<rect x="1749" y="1247" width="5" height="19" fill="#38C19D"/>
<rect x="1749" y="1281" width="5" height="19" fill="#38C19D"/>
<rect x="1749" y="1315" width="5" height="19" fill="#38C19D"/>
<rect x="1749" y="1349" width="5" height="19" fill="#38C19D"/>
<rect x="1749" y="1383" width="5" height="19" fill="#38C19D"/>
<rect x="1749" y="1417" width="5" height="19" fill="#38C19D"/>
<rect x="1749" y="1451" width="5" height="19" fill="#38C19D"/>
<rect x="1749" y="1485" width="5" height="19" fill="#38C19D"/>
<rect x="1749" y="1519" width="5" height="19" fill="#38C19D"/>
<rect x="1749" y="1553" width="5" height="19" fill="#38C19D"/>
<rect x="1749" y="1587" width="5" height="19" fill="#38C19D"/>
<rect x="1749" y="1621" width="5" height="19" fill="#38C19D"/>
<rect x="1749" y="1655" width="5" height="19" fill="#38C19D"/>
<rect x="1749" y="1690" width="5" height="19" fill="#38C19D"/>
<rect x="1749" y="1689" width="5" height="19" fill="#38C19D"/>
<rect x="1749" y="1723" width="5" height="10" fill="#38C19D"/>
<rect x="1910" y="203" width="5" height="11" fill="#38C19D"/>
<rect x="1910" y="228" width="5" height="19" fill="#38C19D"/>
<rect x="1910" y="262" width="5" height="19" fill="#38C19D"/>
<rect x="1910" y="296" width="5" height="19" fill="#38C19D"/>
<rect x="1910" y="330" width="5" height="19" fill="#38C19D"/>
<rect x="1910" y="364" width="5" height="19" fill="#38C19D"/>
<rect x="1910" y="398" width="5" height="19" fill="#38C19D"/>
<rect x="1910" y="432" width="5" height="19" fill="#38C19D"/>
<rect x="1910" y="466" width="5" height="19" fill="#38C19D"/>
<rect x="1910" y="500" width="5" height="19" fill="#38C19D"/>
<rect x="1910" y="534" width="5" height="19" fill="#38C19D"/>
<rect x="1910" y="568" width="5" height="19" fill="#38C19D"/>
<rect x="1910" y="602" width="5" height="19" fill="#38C19D"/>
<rect x="1910" y="636" width="5" height="19" fill="#38C19D"/>
<rect x="1910" y="670" width="5" height="19" fill="#38C19D"/>
<rect x="1910" y="704" width="5" height="19" fill="#38C19D"/>
<rect x="1910" y="738" width="5" height="19" fill="#38C19D"/>
<rect x="1910" y="772" width="5" height="19" fill="#38C19D"/>
<rect x="1910" y="806" width="5" height="19" fill="#38C19D"/>
<rect x="1910" y="840" width="5" height="19" fill="#38C19D"/>
<rect x="1910" y="874" width="5" height="19" fill="#38C19D"/>
<rect x="1910" y="908" width="5" height="19" fill="#38C19D"/>
<rect x="1910" y="942" width="5" height="19" fill="#38C19D"/>
<rect x="1910" y="976" width="5" height="19" fill="#38C19D"/>
<rect x="1910" y="1009" width="5" height="19" fill="#38C19D"/>
<rect x="1910" y="1043" width="5" height="19" fill="#38C19D"/>
<rect x="1910" y="1077" width="5" height="19" fill="#38C19D"/>
<rect x="1910" y="1111" width="5" height="19" fill="#38C19D"/>
<rect x="1910" y="1145" width="5" height="19" fill="#38C19D"/>
<rect x="1910" y="1179" width="5" height="19" fill="#38C19D"/>
<rect x="1910" y="1213" width="5" height="19" fill="#38C19D"/>
<rect x="1910" y="1247" width="5" height="19" fill="#38C19D"/>
<rect x="1910" y="1281" width="5" height="19" fill="#38C19D"/>
<rect x="1910" y="1315" width="5" height="19" fill="#38C19D"/>
<rect x="1910" y="1349" width="5" height="19" fill="#38C19D"/>
<rect x="1910" y="1383" width="5" height="19" fill="#38C19D"/>
<rect x="1910" y="1417" width="5" height="19" fill="#38C19D"/>
<rect x="1910" y="1451" width="5" height="19" fill="#38C19D"/>
<rect x="1910" y="1485" width="5" height="19" fill="#38C19D"/>
<rect x="1910" y="1519" width="5" height="19" fill="#38C19D"/>
<rect x="1910" y="1553" width="5" height="19" fill="#38C19D"/>
<rect x="1910" y="1587" width="5" height="19" fill="#38C19D"/>
<rect x="1910" y="1621" width="5" height="19" fill="#38C19D"/>
<rect x="1910" y="1655" width="5" height="19" fill="#38C19D"/>
<rect x="1910" y="1690" width="5" height="19" fill="#38C19D"/>
<rect x="1910" y="1689" width="5" height="19" fill="#38C19D"/>
<rect x="1910" y="1723" width="5" height="10" fill="#38C19D"/>
<rect x="2071" y="203" width="5" height="11" fill="#38C19D"/>
<rect x="2071" y="228" width="5" height="19" fill="#38C19D"/>
<rect x="2071" y="262" width="5" height="19" fill="#38C19D"/>
<rect x="2071" y="296" width="5" height="19" fill="#38C19D"/>
<rect x="2071" y="330" width="5" height="19" fill="#38C19D"/>
<rect x="2071" y="364" width="5" height="19" fill="#38C19D"/>
<rect x="2071" y="398" width="5" height="19" fill="#38C19D"/>
<rect x="2071" y="432" width="5" height="19" fill="#38C19D"/>
<rect x="2071" y="466" width="5" height="19" fill="#38C19D"/>
<rect x="2071" y="500" width="5" height="19" fill="#38C19D"/>
<rect x="2071" y="534" width="5" height="19" fill="#38C19D"/>
<rect x="2071" y="568" width="5" height="19" fill="#38C19D"/>
<rect x="2071" y="602" width="5" height="19" fill="#38C19D"/>
<rect x="2071" y="636" width="5" height="19" fill="#38C19D"/>
<rect x="2071" y="670" width="5" height="19" fill="#38C19D"/>
<rect x="2071" y="704" width="5" height="19" fill="#38C19D"/>
<rect x="2071" y="738" width="5" height="19" fill="#38C19D"/>
<rect x="2071" y="772" width="5" height="19" fill="#38C19D"/>
<rect x="2071" y="806" width="5" height="19" fill="#38C19D"/>
<rect x="2071" y="840" width="5" height="19" fill="#38C19D"/>
<rect x="2071" y="874" width="5" height="19" fill="#38C19D"/>
<rect x="2071" y="908" width="5" height="19" fill="#38C19D"/>
<rect x="2071" y="942" width="5" height="19" fill="#38C19D"/>
<rect x="2071" y="976" width="5" height="19" fill="#38C19D"/>
<rect x="2071" y="1009" width="5" height="19" fill="#38C19D"/>
<rect x="2071" y="1043" width="5" height="19" fill="#38C19D"/>
<rect x="2071" y="1077" width="5" height="19" fill="#38C19D"/>
<rect x="2071" y="1111" width="5" height="19" fill="#38C19D"/>
<rect x="2071" y="1145" width="5" height="19" fill="#38C19D"/>
<rect x="2071" y="1179" width="5" height="19" fill="#38C19D"/>
<rect x="2071" y="1213" width="5" height="19" fill="#38C19D"/>
<rect x="2071" y="1247" width="5" height="19" fill="#38C19D"/>
<rect x="2071" y="1281" width="5" height="19" fill="#38C19D"/>
<rect x="2071" y="1315" width="5" height="19" fill="#38C19D"/>
<rect x="2071" y="1349" width="5" height="19" fill="#38C19D"/>
<rect x="2071" y="1383" width="5" height="19" fill="#38C19D"/>
<rect x="2071" y="1417" width="5" height="19" fill="#38C19D"/>
<rect x="2071" y="1451" width="5" height="19" fill="#38C19D"/>
<rect x="2071" y="1485" width="5" height="19" fill="#38C19D"/>
<rect x="2071" y="1519" width="5" height="19" fill="#38C19D"/>
<rect x="2071" y="1553" width="5" height="19" fill="#38C19D"/>
<rect x="2071" y="1587" width="5" height="19" fill="#38C19D"/>
<rect x="2071" y="1621" width="5" height="19" fill="#38C19D"/>
<rect x="2071" y="1655" width="5" height="19" fill="#38C19D"/>
<rect x="2071" y="1690" width="5" height="19" fill="#38C19D"/>
<rect x="2071" y="1689" width="5" height="19" fill="#38C19D"/>
<rect x="2071" y="1723" width="5" height="10" fill="#38C19D"/>
<rect x="410" y="242" width="10" height="5" fill="#FF4040"/>
<rect x="435" y="242" width="17" height="5" fill="#FF4040"/>
<rect x="469" y="242" width="17" height="5" fill="#FF4040"/>
<rect x="502" y="242" width="17" height="5" fill="#FF4040"/>
<rect x="536" y="242" width="17" height="5" fill="#FF4040"/>
<rect x="570" y="242" width="17" height="5" fill="#FF4040"/>
<rect x="603" y="242" width="17" height="5" fill="#FF4040"/>
<rect x="635" y="242" width="17" height="5" fill="#FF4040"/>
<rect x="669" y="242" width="17" height="5" fill="#FF4040"/>
<rect x="702" y="242" width="17" height="5" fill="#FF4040"/>
<rect x="736" y="242" width="17" height="5" fill="#FF4040"/>
<rect x="770" y="242" width="17" height="5" fill="#FF4040"/>
<rect x="803" y="242" width="17" height="5" fill="#FF4040"/>
<rect x="837" y="242" width="17" height="5" fill="#FF4040"/>
<rect x="870" y="242" width="17" height="5" fill="#FF4040"/>
<rect x="902" y="242" width="17" height="5" fill="#FF4040"/>
<rect x="936" y="242" width="17" height="5" fill="#FF4040"/>
<rect x="970" y="242" width="17" height="5" fill="#FF4040"/>
<rect x="1003" y="242" width="17" height="5" fill="#FF4040"/>
<rect x="1037" y="242" width="17" height="5" fill="#FF4040"/>
<rect x="1071" y="242" width="17" height="5" fill="#FF4040"/>
<rect x="1203" y="242" width="17" height="5" fill="#FF4040"/>
<rect x="1336" y="240" width="17" height="5" fill="#FF4040"/>
<rect x="1470" y="239" width="17" height="5" fill="#FF4040"/>
<rect x="1102" y="242" width="17" height="5" fill="#FF4040"/>
<rect x="1234" y="242" width="17" height="5" fill="#FF4040"/>
<rect x="1370" y="240" width="17" height="5" fill="#FF4040"/>
<rect x="1504" y="238" width="17" height="5" fill="#FF4040"/>
<rect x="1604" y="238" width="17" height="5" fill="#FF4040"/>
<rect x="1671" y="238" width="17" height="5" fill="#FF4040"/>
<rect x="1771" y="238" width="17" height="5" fill="#FF4040"/>
<rect x="1136" y="242" width="17" height="5" fill="#FF4040"/>
<rect x="1270" y="240" width="17" height="5" fill="#FF4040"/>
<rect x="1403" y="240" width="17" height="5" fill="#FF4040"/>
<rect x="1538" y="238" width="17" height="5" fill="#FF4040"/>
<rect x="1638" y="238" width="17" height="5" fill="#FF4040"/>
<rect x="1700" y="238" width="17" height="5" fill="#FF4040"/>
<rect x="1804" y="237" width="17" height="5" fill="#FF4040"/>
<rect x="1170" y="242" width="17" height="5" fill="#FF4040"/>
<rect x="1303" y="240" width="17" height="5" fill="#FF4040"/>
<rect x="1437" y="240" width="17" height="5" fill="#FF4040"/>
<rect x="1572" y="238" width="17" height="5" fill="#FF4040"/>
<rect x="1734" y="238" width="17" height="5" fill="#FF4040"/>
<rect x="1837" y="237" width="17" height="5" fill="#FF4040"/>
<rect x="1871" y="237" width="17" height="5" fill="#FF4040"/>
<rect x="1904" y="236" width="17" height="5" fill="#FF4040"/>
<rect x="1938" y="236" width="17" height="5" fill="#FF4040"/>
<rect x="1972" y="236" width="17" height="5" fill="#FF4040"/>
<rect x="2005" y="236" width="17" height="5" fill="#FF4040"/>
<rect x="2038" y="236" width="17" height="5" fill="#FF4040"/>
<rect x="2072" y="236" width="17" height="5" fill="#FF4040"/>
<rect x="2104" y="236" width="9" height="5" fill="#FF4040"/>
<rect x="410" y="529" width="10" height="5" fill="#FF4040"/>
<rect x="435" y="529" width="17" height="5" fill="#FF4040"/>
<rect x="469" y="529" width="17" height="5" fill="#FF4040"/>
<rect x="502" y="529" width="17" height="5" fill="#FF4040"/>
<rect x="536" y="529" width="17" height="5" fill="#FF4040"/>
<rect x="570" y="529" width="17" height="5" fill="#FF4040"/>
<rect x="603" y="529" width="17" height="5" fill="#FF4040"/>
<rect x="635" y="529" width="17" height="5" fill="#FF4040"/>
<rect x="669" y="529" width="17" height="5" fill="#FF4040"/>
<rect x="702" y="529" width="17" height="5" fill="#FF4040"/>
<rect x="736" y="529" width="17" height="5" fill="#FF4040"/>
<rect x="770" y="529" width="17" height="5" fill="#FF4040"/>
<rect x="803" y="529" width="17" height="5" fill="#FF4040"/>
<rect x="837" y="529" width="17" height="5" fill="#FF4040"/>
<rect x="870" y="529" width="17" height="5" fill="#FF4040"/>
<rect x="902" y="529" width="17" height="5" fill="#FF4040"/>
<rect x="936" y="529" width="17" height="5" fill="#FF4040"/>
<rect x="970" y="529" width="17" height="5" fill="#FF4040"/>
<rect x="1003" y="529" width="17" height="5" fill="#FF4040"/>
<rect x="1037" y="529" width="17" height="5" fill="#FF4040"/>
<rect x="1071" y="529" width="17" height="5" fill="#FF4040"/>
<rect x="1203" y="529" width="17" height="5" fill="#FF4040"/>
<rect x="1336" y="527" width="17" height="5" fill="#FF4040"/>
<rect x="1470" y="526" width="17" height="5" fill="#FF4040"/>
<rect x="1102" y="529" width="17" height="5" fill="#FF4040"/>
<rect x="1234" y="529" width="17" height="5" fill="#FF4040"/>
<rect x="1370" y="527" width="17" height="5" fill="#FF4040"/>
<rect x="1504" y="525" width="17" height="5" fill="#FF4040"/>
<rect x="1604" y="525" width="17" height="5" fill="#FF4040"/>
<rect x="1671" y="525" width="17" height="5" fill="#FF4040"/>
<rect x="1771" y="525" width="17" height="5" fill="#FF4040"/>
<rect x="1136" y="529" width="17" height="5" fill="#FF4040"/>
<rect x="1270" y="527" width="17" height="5" fill="#FF4040"/>
<rect x="1403" y="527" width="17" height="5" fill="#FF4040"/>
<rect x="1538" y="525" width="17" height="5" fill="#FF4040"/>
<rect x="1638" y="525" width="17" height="5" fill="#FF4040"/>
<rect x="1700" y="525" width="17" height="5" fill="#FF4040"/>
<rect x="1804" y="524" width="17" height="5" fill="#FF4040"/>
<rect x="1170" y="529" width="17" height="5" fill="#FF4040"/>
<rect x="1303" y="527" width="17" height="5" fill="#FF4040"/>
<rect x="1437" y="527" width="17" height="5" fill="#FF4040"/>
<rect x="1572" y="525" width="17" height="5" fill="#FF4040"/>
<rect x="1734" y="525" width="17" height="5" fill="#FF4040"/>
<rect x="1837" y="524" width="17" height="5" fill="#FF4040"/>
<rect x="1871" y="524" width="17" height="5" fill="#FF4040"/>
<rect x="1904" y="523" width="17" height="5" fill="#FF4040"/>
<rect x="1938" y="523" width="17" height="5" fill="#FF4040"/>
<rect x="1972" y="523" width="17" height="5" fill="#FF4040"/>
<rect x="2005" y="523" width="17" height="5" fill="#FF4040"/>
<rect x="2038" y="523" width="17" height="5" fill="#FF4040"/>
<rect x="2072" y="523" width="17" height="5" fill="#FF4040"/>
<rect x="2104" y="523" width="9" height="5" fill="#FF4040"/>
<rect x="410" y="816" width="10" height="5" fill="#FF4040"/>
<rect x="435" y="816" width="17" height="5" fill="#FF4040"/>
<rect x="469" y="816" width="17" height="5" fill="#FF4040"/>
<rect x="502" y="816" width="17" height="5" fill="#FF4040"/>
<rect x="536" y="816" width="17" height="5" fill="#FF4040"/>
<rect x="570" y="816" width="17" height="5" fill="#FF4040"/>
<rect x="603" y="816" width="17" height="5" fill="#FF4040"/>
<rect x="635" y="816" width="17" height="5" fill="#FF4040"/>
<rect x="669" y="816" width="17" height="5" fill="#FF4040"/>
<rect x="702" y="816" width="17" height="5" fill="#FF4040"/>
<rect x="736" y="816" width="17" height="5" fill="#FF4040"/>
<rect x="770" y="816" width="17" height="5" fill="#FF4040"/>
<rect x="803" y="816" width="17" height="5" fill="#FF4040"/>
<rect x="837" y="816" width="17" height="5" fill="#FF4040"/>
<rect x="870" y="816" width="17" height="5" fill="#FF4040"/>
<rect x="902" y="816" width="17" height="5" fill="#FF4040"/>
<rect x="936" y="816" width="17" height="5" fill="#FF4040"/>
<rect x="970" y="816" width="17" height="5" fill="#FF4040"/>
<rect x="1003" y="816" width="17" height="5" fill="#FF4040"/>
<rect x="1037" y="816" width="17" height="5" fill="#FF4040"/>
<rect x="1071" y="816" width="17" height="5" fill="#FF4040"/>
<rect x="1203" y="816" width="17" height="5" fill="#FF4040"/>
<rect x="1336" y="814" width="17" height="5" fill="#FF4040"/>
<rect x="1470" y="813" width="17" height="5" fill="#FF4040"/>
<rect x="1102" y="816" width="17" height="5" fill="#FF4040"/>
<rect x="1234" y="816" width="17" height="5" fill="#FF4040"/>
<rect x="1370" y="814" width="17" height="5" fill="#FF4040"/>
<rect x="1504" y="812" width="17" height="5" fill="#FF4040"/>
<rect x="1604" y="812" width="17" height="5" fill="#FF4040"/>
<rect x="1671" y="812" width="17" height="5" fill="#FF4040"/>
<rect x="1771" y="812" width="17" height="5" fill="#FF4040"/>
<rect x="1136" y="816" width="17" height="5" fill="#FF4040"/>
<rect x="1270" y="814" width="17" height="5" fill="#FF4040"/>
<rect x="1403" y="814" width="17" height="5" fill="#FF4040"/>
<rect x="1538" y="812" width="17" height="5" fill="#FF4040"/>
<rect x="1638" y="812" width="17" height="5" fill="#FF4040"/>
<rect x="1700" y="812" width="17" height="5" fill="#FF4040"/>
<rect x="1804" y="811" width="17" height="5" fill="#FF4040"/>
<rect x="1170" y="816" width="17" height="5" fill="#FF4040"/>
<rect x="1303" y="814" width="17" height="5" fill="#FF4040"/>
<rect x="1437" y="814" width="17" height="5" fill="#FF4040"/>
<rect x="1572" y="812" width="17" height="5" fill="#FF4040"/>
<rect x="1734" y="812" width="17" height="5" fill="#FF4040"/>
<rect x="1837" y="811" width="17" height="5" fill="#FF4040"/>
<rect x="1871" y="811" width="17" height="5" fill="#FF4040"/>
<rect x="1904" y="810" width="17" height="5" fill="#FF4040"/>
<rect x="1938" y="810" width="17" height="5" fill="#FF4040"/>
<rect x="1972" y="810" width="17" height="5" fill="#FF4040"/>
<rect x="2005" y="810" width="17" height="5" fill="#FF4040"/>
<rect x="2038" y="810" width="17" height="5" fill="#FF4040"/>
<rect x="2072" y="810" width="17" height="5" fill="#FF4040"/>
<rect x="2104" y="810" width="9" height="5" fill="#FF4040"/>
<rect x="415" y="1102" width="10" height="5" fill="#FF4040"/>
<rect x="440" y="1102" width="17" height="5" fill="#FF4040"/>
<rect x="474" y="1102" width="17" height="5" fill="#FF4040"/>
<rect x="507" y="1102" width="17" height="5" fill="#FF4040"/>
<rect x="541" y="1102" width="17" height="5" fill="#FF4040"/>
<rect x="575" y="1102" width="17" height="5" fill="#FF4040"/>
<rect x="608" y="1102" width="17" height="5" fill="#FF4040"/>
<rect x="640" y="1102" width="17" height="5" fill="#FF4040"/>
<rect x="674" y="1102" width="17" height="5" fill="#FF4040"/>
<rect x="707" y="1102" width="17" height="5" fill="#FF4040"/>
<rect x="741" y="1102" width="17" height="5" fill="#FF4040"/>
<rect x="775" y="1102" width="17" height="5" fill="#FF4040"/>
<rect x="808" y="1102" width="17" height="5" fill="#FF4040"/>
<rect x="842" y="1102" width="17" height="5" fill="#FF4040"/>
<rect x="875" y="1102" width="17" height="5" fill="#FF4040"/>
<rect x="907" y="1102" width="17" height="5" fill="#FF4040"/>
<rect x="941" y="1102" width="17" height="5" fill="#FF4040"/>
<rect x="975" y="1102" width="17" height="5" fill="#FF4040"/>
<rect x="1008" y="1102" width="17" height="5" fill="#FF4040"/>
<rect x="1042" y="1102" width="17" height="5" fill="#FF4040"/>
<rect x="1076" y="1102" width="17" height="5" fill="#FF4040"/>
<rect x="1208" y="1102" width="17" height="5" fill="#FF4040"/>
<rect x="1341" y="1100" width="17" height="5" fill="#FF4040"/>
<rect x="1475" y="1099" width="17" height="5" fill="#FF4040"/>
<rect x="1107" y="1102" width="17" height="5" fill="#FF4040"/>
<rect x="1239" y="1102" width="17" height="5" fill="#FF4040"/>
<rect x="1375" y="1100" width="17" height="5" fill="#FF4040"/>
<rect x="1509" y="1098" width="17" height="5" fill="#FF4040"/>
<rect x="1609" y="1098" width="17" height="5" fill="#FF4040"/>
<rect x="1676" y="1098" width="17" height="5" fill="#FF4040"/>
<rect x="1776" y="1098" width="17" height="5" fill="#FF4040"/>
<rect x="1141" y="1102" width="17" height="5" fill="#FF4040"/>
<rect x="1275" y="1100" width="17" height="5" fill="#FF4040"/>
<rect x="1408" y="1100" width="17" height="5" fill="#FF4040"/>
<rect x="1543" y="1098" width="17" height="5" fill="#FF4040"/>
<rect x="1643" y="1098" width="17" height="5" fill="#FF4040"/>
<rect x="1705" y="1098" width="17" height="5" fill="#FF4040"/>
<rect x="1809" y="1097" width="17" height="5" fill="#FF4040"/>
<rect x="1175" y="1102" width="17" height="5" fill="#FF4040"/>
<rect x="1308" y="1100" width="17" height="5" fill="#FF4040"/>
<rect x="1442" y="1100" width="17" height="5" fill="#FF4040"/>
<rect x="1577" y="1098" width="17" height="5" fill="#FF4040"/>
<rect x="1739" y="1098" width="17" height="5" fill="#FF4040"/>
<rect x="1842" y="1097" width="17" height="5" fill="#FF4040"/>
<rect x="1876" y="1097" width="17" height="5" fill="#FF4040"/>
<rect x="1909" y="1096" width="17" height="5" fill="#FF4040"/>
<rect x="1943" y="1096" width="17" height="5" fill="#FF4040"/>
<rect x="1977" y="1096" width="17" height="5" fill="#FF4040"/>
<rect x="2010" y="1096" width="17" height="5" fill="#FF4040"/>
<rect x="2043" y="1096" width="17" height="5" fill="#FF4040"/>
<rect x="2077" y="1096" width="17" height="5" fill="#FF4040"/>
<rect x="2109" y="1096" width="9" height="5" fill="#FF4040"/>
<rect x="410" y="1388" width="10" height="5" fill="#FF4040"/>
<rect x="435" y="1388" width="17" height="5" fill="#FF4040"/>
<rect x="469" y="1388" width="17" height="5" fill="#FF4040"/>
<rect x="502" y="1388" width="17" height="5" fill="#FF4040"/>
<rect x="536" y="1388" width="17" height="5" fill="#FF4040"/>
<rect x="570" y="1388" width="17" height="5" fill="#FF4040"/>
<rect x="603" y="1388" width="17" height="5" fill="#FF4040"/>
<rect x="635" y="1388" width="17" height="5" fill="#FF4040"/>
<rect x="669" y="1388" width="17" height="5" fill="#FF4040"/>
<rect x="702" y="1388" width="17" height="5" fill="#FF4040"/>
<rect x="736" y="1388" width="17" height="5" fill="#FF4040"/>
<rect x="770" y="1388" width="17" height="5" fill="#FF4040"/>
<rect x="803" y="1388" width="17" height="5" fill="#FF4040"/>
<rect x="837" y="1388" width="17" height="5" fill="#FF4040"/>
<rect x="870" y="1388" width="17" height="5" fill="#FF4040"/>
<rect x="902" y="1388" width="17" height="5" fill="#FF4040"/>
<rect x="936" y="1388" width="17" height="5" fill="#FF4040"/>
<rect x="970" y="1388" width="17" height="5" fill="#FF4040"/>
<rect x="1003" y="1388" width="17" height="5" fill="#FF4040"/>
<rect x="1037" y="1388" width="17" height="5" fill="#FF4040"/>
<rect x="1071" y="1388" width="17" height="5" fill="#FF4040"/>
<rect x="1203" y="1388" width="17" height="5" fill="#FF4040"/>
<rect x="1336" y="1386" width="17" height="5" fill="#FF4040"/>
<rect x="1470" y="1385" width="17" height="5" fill="#FF4040"/>
<rect x="1102" y="1388" width="17" height="5" fill="#FF4040"/>
<rect x="1234" y="1388" width="17" height="5" fill="#FF4040"/>
<rect x="1370" y="1386" width="17" height="5" fill="#FF4040"/>
<rect x="1504" y="1384" width="17" height="5" fill="#FF4040"/>
<rect x="1604" y="1384" width="17" height="5" fill="#FF4040"/>
<rect x="1671" y="1384" width="17" height="5" fill="#FF4040"/>
<rect x="1771" y="1384" width="17" height="5" fill="#FF4040"/>
<rect x="1136" y="1388" width="17" height="5" fill="#FF4040"/>
<rect x="1270" y="1386" width="17" height="5" fill="#FF4040"/>
<rect x="1403" y="1386" width="17" height="5" fill="#FF4040"/>
<rect x="1538" y="1384" width="17" height="5" fill="#FF4040"/>
<rect x="1638" y="1384" width="17" height="5" fill="#FF4040"/>
<rect x="1700" y="1384" width="17" height="5" fill="#FF4040"/>
<rect x="1804" y="1383" width="17" height="5" fill="#FF4040"/>
<rect x="1170" y="1388" width="17" height="5" fill="#FF4040"/>
<rect x="1303" y="1386" width="17" height="5" fill="#FF4040"/>
<rect x="1437" y="1386" width="17" height="5" fill="#FF4040"/>
<rect x="1572" y="1384" width="17" height="5" fill="#FF4040"/>
<rect x="1734" y="1384" width="17" height="5" fill="#FF4040"/>
<rect x="1837" y="1383" width="17" height="5" fill="#FF4040"/>
<rect x="1871" y="1383" width="17" height="5" fill="#FF4040"/>
<rect x="1904" y="1382" width="17" height="5" fill="#FF4040"/>
<rect x="1938" y="1382" width="17" height="5" fill="#FF4040"/>
<rect x="1972" y="1382" width="17" height="5" fill="#FF4040"/>
<rect x="2005" y="1382" width="17" height="5" fill="#FF4040"/>
<rect x="2038" y="1382" width="17" height="5" fill="#FF4040"/>
<rect x="2072" y="1382" width="17" height="5" fill="#FF4040"/>
<rect x="2104" y="1382" width="9" height="5" fill="#FF4040"/>
<rect x="416" y="1678" width="10" height="5" fill="#FF4040"/>
<rect x="441" y="1678" width="17" height="5" fill="#FF4040"/>
<rect x="475" y="1678" width="17" height="5" fill="#FF4040"/>
<rect x="508" y="1678" width="17" height="5" fill="#FF4040"/>
<rect x="542" y="1678" width="17" height="5" fill="#FF4040"/>
<rect x="576" y="1678" width="17" height="5" fill="#FF4040"/>
<rect x="609" y="1678" width="17" height="5" fill="#FF4040"/>
<rect x="641" y="1678" width="17" height="5" fill="#FF4040"/>
<rect x="675" y="1678" width="17" height="5" fill="#FF4040"/>
<rect x="708" y="1678" width="17" height="5" fill="#FF4040"/>
<rect x="742" y="1678" width="17" height="5" fill="#FF4040"/>
<rect x="776" y="1678" width="17" height="5" fill="#FF4040"/>
<rect x="809" y="1678" width="17" height="5" fill="#FF4040"/>
<rect x="843" y="1678" width="17" height="5" fill="#FF4040"/>
<rect x="876" y="1678" width="17" height="5" fill="#FF4040"/>
<rect x="908" y="1678" width="17" height="5" fill="#FF4040"/>
<rect x="942" y="1678" width="17" height="5" fill="#FF4040"/>
<rect x="976" y="1678" width="17" height="5" fill="#FF4040"/>
<rect x="1009" y="1678" width="17" height="5" fill="#FF4040"/>
<rect x="1043" y="1678" width="17" height="5" fill="#FF4040"/>
<rect x="1077" y="1678" width="17" height="5" fill="#FF4040"/>
<rect x="1209" y="1678" width="17" height="5" fill="#FF4040"/>
<rect x="1342" y="1676" width="17" height="5" fill="#FF4040"/>
<rect x="1476" y="1675" width="17" height="5" fill="#FF4040"/>
<rect x="1108" y="1678" width="17" height="5" fill="#FF4040"/>
<rect x="1240" y="1678" width="17" height="5" fill="#FF4040"/>
<rect x="1376" y="1676" width="17" height="5" fill="#FF4040"/>
<rect x="1510" y="1674" width="17" height="5" fill="#FF4040"/>
<rect x="1610" y="1674" width="17" height="5" fill="#FF4040"/>
<rect x="1677" y="1674" width="17" height="5" fill="#FF4040"/>
<rect x="1777" y="1674" width="17" height="5" fill="#FF4040"/>
<rect x="1142" y="1678" width="17" height="5" fill="#FF4040"/>
<rect x="1276" y="1676" width="17" height="5" fill="#FF4040"/>
<rect x="1409" y="1676" width="17" height="5" fill="#FF4040"/>
<rect x="1544" y="1674" width="17" height="5" fill="#FF4040"/>
<rect x="1644" y="1674" width="17" height="5" fill="#FF4040"/>
<rect x="1706" y="1674" width="17" height="5" fill="#FF4040"/>
<rect x="1810" y="1673" width="17" height="5" fill="#FF4040"/>
<rect x="1176" y="1678" width="17" height="5" fill="#FF4040"/>
<rect x="1309" y="1676" width="17" height="5" fill="#FF4040"/>
<rect x="1443" y="1676" width="17" height="5" fill="#FF4040"/>
<rect x="1578" y="1674" width="17" height="5" fill="#FF4040"/>
<rect x="1740" y="1674" width="17" height="5" fill="#FF4040"/>
<rect x="1843" y="1673" width="17" height="5" fill="#FF4040"/>
<rect x="1877" y="1673" width="17" height="5" fill="#FF4040"/>
<rect x="1910" y="1672" width="17" height="5" fill="#FF4040"/>
<rect x="1944" y="1672" width="17" height="5" fill="#FF4040"/>
<rect x="1978" y="1672" width="17" height="5" fill="#FF4040"/>
<rect x="2011" y="1672" width="17" height="5" fill="#FF4040"/>
<rect x="2044" y="1672" width="17" height="5" fill="#FF4040"/>
<rect x="2078" y="1672" width="17" height="5" fill="#FF4040"/>
<rect x="2110" y="1672" width="9" height="5" fill="#FF4040"/>
<rect x="1565" y="1297" width="554" height="459" fill="black"/>
<rect x="1569" y="1301" width="546" height="451" fill="white"/>
<path d="M468.5 1676H460.5V1460.5H495.5L496 865.5L512.5 848L513 415H527.5V391.5H548.5V347.312H563.5V297H586.5V282H2077V290.5H593V305.5H571.5V354.5H555V398H536L535.5 421.5H521.5L521 852.5L504.5 870V1468H468.5V1676Z" fill="#38C19D"/>
<path d="M468.5 1459H460.5V1383L477 1355.5V909.5L496 865.5V634L538 633.5V484H552.5L553 269.5L612 269L647 248.5H2077V256L649 257L614 278.5H561.5V491H545L544 642H502.5L502 867L485.5 909.5L485 1358L469 1383L468.5 1459Z" fill="#8B50D7"/>
<path d="M1808.98 1398V1355.7H1815.22V1392.66H1835.98V1398H1808.98ZM1842.09 1398V1355.7H1856.73C1861.49 1355.7 1865.51 1356.52 1868.79 1358.16C1872.11 1359.8 1874.61 1362.2 1876.29 1365.36C1878.01 1368.48 1878.87 1372.3 1878.87 1376.82C1878.87 1381.3 1878.01 1385.12 1876.29 1388.28C1874.61 1391.44 1872.11 1393.86 1868.79 1395.54C1865.51 1397.18 1861.49 1398 1856.73 1398H1842.09ZM1848.33 1392.78H1856.37C1861.81 1392.78 1865.85 1391.46 1868.49 1388.82C1871.17 1386.18 1872.51 1382.18 1872.51 1376.82C1872.51 1371.46 1871.17 1367.48 1868.49 1364.88C1865.85 1362.24 1861.81 1360.92 1856.37 1360.92H1848.33V1392.78ZM1882.12 1398L1900.96 1355.7H1906.3L1925.44 1398H1919.02L1913.8 1386L1916.44 1387.68H1890.82L1893.64 1386L1888.42 1398H1882.12ZM1903.54 1362.54L1894.42 1384.08L1892.98 1382.7H1914.28L1913.08 1384.08L1903.78 1362.54H1903.54Z" fill="black"/>
<path d="M1824.26 1499.54C1820.86 1499.54 1817.78 1499.12 1815.02 1498.28C1812.26 1497.4 1809.86 1496.16 1807.82 1494.56L1809.92 1489.64C1811.28 1490.68 1812.68 1491.54 1814.12 1492.22C1815.6 1492.9 1817.16 1493.42 1818.8 1493.78C1820.48 1494.1 1822.3 1494.26 1824.26 1494.26C1827.62 1494.26 1830.08 1493.66 1831.64 1492.46C1833.24 1491.26 1834.04 1489.68 1834.04 1487.72C1834.04 1486.04 1833.48 1484.74 1832.36 1483.82C1831.28 1482.9 1829.36 1482.16 1826.6 1481.6L1820.06 1480.28C1816.18 1479.48 1813.28 1478.18 1811.36 1476.38C1809.48 1474.54 1808.54 1472.04 1808.54 1468.88C1808.54 1466.32 1809.22 1464.08 1810.58 1462.16C1811.94 1460.24 1813.82 1458.76 1816.22 1457.72C1818.66 1456.68 1821.5 1456.16 1824.74 1456.16C1827.74 1456.16 1830.5 1456.6 1833.02 1457.48C1835.54 1458.32 1837.66 1459.58 1839.38 1461.26L1837.34 1466C1835.54 1464.44 1833.62 1463.3 1831.58 1462.58C1829.54 1461.82 1827.22 1461.44 1824.62 1461.44C1821.54 1461.44 1819.12 1462.08 1817.36 1463.36C1815.64 1464.64 1814.78 1466.38 1814.78 1468.58C1814.78 1470.34 1815.32 1471.72 1816.4 1472.72C1817.52 1473.72 1819.36 1474.48 1821.92 1475L1828.46 1476.26C1832.5 1477.1 1835.48 1478.4 1837.4 1480.16C1839.32 1481.88 1840.28 1484.26 1840.28 1487.3C1840.28 1489.74 1839.62 1491.88 1838.3 1493.72C1837.02 1495.56 1835.18 1497 1832.78 1498.04C1830.38 1499.04 1827.54 1499.54 1824.26 1499.54ZM1860.75 1499L1842.15 1456.7H1848.87L1864.71 1493.78H1862.55L1878.45 1456.7H1884.87L1866.21 1499H1860.75ZM1889.79 1499V1456.7H1895.25L1911.57 1493.48H1909.77L1926.09 1456.7H1931.49V1499H1925.85V1465.16H1927.83L1912.59 1499H1908.69L1893.45 1465.16H1895.49V1499H1889.79Z" fill="black"/>
<path d="M1809.98 1600V1557.7H1827.86C1832.38 1557.7 1835.88 1558.78 1838.36 1560.94C1840.84 1563.06 1842.08 1566.04 1842.08 1569.88C1842.08 1572.4 1841.52 1574.56 1840.4 1576.36C1839.28 1578.16 1837.7 1579.54 1835.66 1580.5C1833.62 1581.42 1831.22 1581.88 1828.46 1581.88L1829.42 1580.92H1831.04C1832.68 1580.92 1834.14 1581.34 1835.42 1582.18C1836.74 1583.02 1837.82 1584.36 1838.66 1586.2L1844.72 1600H1837.88L1831.88 1586.14C1831.28 1584.5 1830.34 1583.44 1829.06 1582.96C1827.82 1582.48 1826.28 1582.24 1824.44 1582.24H1816.22V1600H1809.98ZM1816.22 1577.5H1826.84C1829.84 1577.5 1832.1 1576.86 1833.62 1575.58C1835.18 1574.3 1835.96 1572.46 1835.96 1570.06C1835.96 1567.62 1835.18 1565.78 1833.62 1564.54C1832.1 1563.3 1829.84 1562.68 1826.84 1562.68H1816.22V1577.5ZM1851.82 1600V1557.7H1878.94V1562.68H1858.06V1576.24H1877.56V1581.22H1858.06V1600H1851.82Z" fill="black"/>
<path d="M1828 1701.54C1823.68 1701.54 1820 1700.66 1816.96 1698.9C1813.92 1697.14 1811.58 1694.64 1809.94 1691.4C1808.34 1688.12 1807.54 1684.26 1807.54 1679.82C1807.54 1675.38 1808.34 1671.54 1809.94 1668.3C1811.58 1665.06 1813.92 1662.56 1816.96 1660.8C1820 1659.04 1823.68 1658.16 1828 1658.16C1831 1658.16 1833.68 1658.6 1836.04 1659.48C1838.4 1660.36 1840.46 1661.64 1842.22 1663.32L1840.06 1668.3C1838.14 1666.66 1836.26 1665.48 1834.42 1664.76C1832.62 1664.04 1830.52 1663.68 1828.12 1663.68C1823.56 1663.68 1820.08 1665.08 1817.68 1667.88C1815.28 1670.68 1814.08 1674.66 1814.08 1679.82C1814.08 1684.98 1815.28 1688.98 1817.68 1691.82C1820.08 1694.62 1823.56 1696.02 1828.12 1696.02C1830.52 1696.02 1832.62 1695.66 1834.42 1694.94C1836.26 1694.22 1838.14 1693.02 1840.06 1691.34L1842.22 1696.32C1840.46 1698 1838.4 1699.3 1836.04 1700.22C1833.68 1701.1 1831 1701.54 1828 1701.54ZM1847.33 1679.82C1847.33 1675.38 1848.11 1671.54 1849.67 1668.3C1851.23 1665.06 1853.49 1662.56 1856.45 1660.8C1859.45 1659.04 1863.01 1658.16 1867.13 1658.16C1871.21 1658.16 1874.73 1659.04 1877.69 1660.8C1880.65 1662.56 1882.93 1665.06 1884.53 1668.3C1886.17 1671.54 1886.99 1675.36 1886.99 1679.76C1886.99 1684.2 1886.17 1688.06 1884.53 1691.34C1882.93 1694.58 1880.63 1697.1 1877.63 1698.9C1874.67 1700.66 1871.17 1701.54 1867.13 1701.54C1863.01 1701.54 1859.47 1700.66 1856.51 1698.9C1853.55 1697.1 1851.27 1694.58 1849.67 1691.34C1848.11 1688.06 1847.33 1684.22 1847.33 1679.82ZM1853.87 1679.82C1853.87 1684.94 1854.99 1688.94 1857.23 1691.82C1859.47 1694.7 1862.77 1696.14 1867.13 1696.14C1871.37 1696.14 1874.65 1694.72 1876.97 1691.88C1879.29 1689 1880.45 1684.98 1880.45 1679.82C1880.45 1674.66 1879.29 1670.66 1876.97 1667.82C1874.69 1664.98 1871.41 1663.56 1867.13 1663.56C1862.77 1663.56 1859.47 1664.98 1857.23 1667.82C1854.99 1670.66 1853.87 1674.66 1853.87 1679.82ZM1895.58 1701V1658.7H1901.04L1917.36 1695.48H1915.56L1931.88 1658.7H1937.28V1701H1931.64V1667.16H1933.62L1918.38 1701H1914.48L1899.24 1667.16H1901.28V1701H1895.58ZM1947.38 1701V1658.7H1965.02C1969.58 1658.7 1973.08 1659.66 1975.52 1661.58C1978 1663.5 1979.24 1666.2 1979.24 1669.68C1979.24 1672.28 1978.46 1674.46 1976.9 1676.22C1975.34 1677.98 1973.2 1679.16 1970.48 1679.76V1678.86C1973.6 1679.26 1976.02 1680.36 1977.74 1682.16C1979.46 1683.96 1980.32 1686.34 1980.32 1689.3C1980.32 1693.06 1979.04 1695.96 1976.48 1698C1973.96 1700 1970.4 1701 1965.8 1701H1947.38ZM1953.44 1696.14H1965.14C1967.98 1696.14 1970.2 1695.6 1971.8 1694.52C1973.44 1693.44 1974.26 1691.62 1974.26 1689.06C1974.26 1686.5 1973.44 1684.68 1971.8 1683.6C1970.2 1682.52 1967.98 1681.98 1965.14 1681.98H1953.44V1696.14ZM1953.44 1677.18H1964.06C1967.1 1677.18 1969.38 1676.6 1970.9 1675.44C1972.42 1674.28 1973.18 1672.58 1973.18 1670.34C1973.18 1668.1 1972.42 1666.4 1970.9 1665.24C1969.38 1664.08 1967.1 1663.5 1964.06 1663.5H1953.44V1677.18ZM1998.01 1701V1681.14L1999.39 1685.1L1981.57 1658.7H1988.77L2002.03 1678.92H2000.53L2013.79 1658.7H2020.75L2002.99 1685.1L2004.25 1681.14V1701H1998.01Z" fill="black"/>
<path d="M464.5 1309.5V1301H475V1245H498V1215H517V1113.5H534V1081H613V1015H637V920H654V899H683.5V747.5H702.5V614.845H759.24V577H824.5V549.5H1184.5V528.5H1214V505.5L1275 505V482.5L1351 482V457H1399L1410 413L1502.5 412.5V383.5L1548.5 383V354L1628.5 353.5V320H1746.5V278H2077V283L1753 283.5L1752.8 328H1635V360H1555V389.5H1508.5V419H1416L1405 465.5H1357V488.5H1281.5V511.5H1220V536.5H1190.5V558H830.5V583L765.5 583.5V623.5H708.602V753.629H689.5V905H660V926.5H643.5V1023H620V1088.5H540V1120H525.5V1221H506.5V1252.5H483.5V1309.5H464.5Z" fill="black"/>
<rect x="1667" y="1674" width="113" height="8" fill="#FF4040"/>
<rect x="1667" y="1573" width="113" height="8" fill="#6416CA"/>
<rect x="1667" y="1472" width="113" height="8" fill="#38C19D"/>
<rect x="1667" y="1371" width="113" height="8" fill="black"/>
<path d="M284 207.68H289.568V218.176H323.488V221.504L315.68 208.704H322.08L329.12 220.032V224.832H289.568V234.688H284V207.68ZM276.128 245.415L278.304 242.599C279.627 243.836 280.843 244.668 281.952 245.095C283.061 245.564 284.213 245.799 285.408 245.799L284 247.207V242.151H291.616V249.767H286.432C284.512 249.767 282.741 249.447 281.12 248.807C279.456 248.167 277.792 247.036 276.128 245.415ZM283.424 272.763C283.424 267.557 285.408 263.547 289.376 260.731C293.387 257.957 299.125 256.571 306.592 256.571C314.187 256.571 319.925 257.957 323.808 260.731C327.733 263.547 329.696 267.557 329.696 272.763C329.696 278.011 327.733 282.021 323.808 284.795C319.925 287.568 314.208 288.955 306.656 288.955C299.147 288.955 293.387 287.547 289.376 284.731C285.408 281.957 283.424 277.968 283.424 272.763ZM288.992 272.763C288.992 276.048 290.421 278.48 293.28 280.059C296.139 281.68 300.597 282.491 306.656 282.491C312.757 282.491 317.195 281.68 319.968 280.059C322.784 278.48 324.192 276.048 324.192 272.763C324.192 269.52 322.784 267.088 319.968 265.467C317.195 263.845 312.779 263.035 306.72 263.035C300.619 263.035 296.139 263.845 293.28 265.467C290.421 267.131 288.992 269.563 288.992 272.763Z" fill="black"/>
<path d="M285.424 505.2C285.424 499.995 287.408 495.984 291.376 493.168C295.387 490.395 301.125 489.008 308.592 489.008C316.187 489.008 321.925 490.395 325.808 493.168C329.733 495.984 331.696 499.995 331.696 505.2C331.696 510.448 329.733 514.459 325.808 517.232C321.925 520.005 316.208 521.392 308.656 521.392C301.147 521.392 295.387 519.984 291.376 517.168C287.408 514.395 285.424 510.405 285.424 505.2ZM290.992 505.2C290.992 508.485 292.421 510.917 295.28 512.496C298.139 514.117 302.597 514.928 308.656 514.928C314.757 514.928 319.195 514.117 321.968 512.496C324.784 510.917 326.192 508.485 326.192 505.2C326.192 501.957 324.784 499.525 321.968 497.904C319.195 496.283 314.779 495.472 308.72 495.472C302.619 495.472 298.139 496.283 295.28 497.904C292.421 499.568 290.992 502 290.992 505.2ZM278.128 531.415L280.304 528.599C281.627 529.836 282.843 530.668 283.952 531.095C285.061 531.564 286.213 531.799 287.408 531.799L286 533.207V528.151H293.616V535.767H288.432C286.512 535.767 284.741 535.447 283.12 534.807C281.456 534.167 279.792 533.036 278.128 531.415ZM285.424 558.763C285.424 553.557 286.533 549.504 288.752 546.603C290.971 543.701 294.064 542.251 298.032 542.251C301.189 542.251 303.792 543.211 305.84 545.131C307.931 547.051 309.189 549.568 309.616 552.683H308.464C309.061 549.867 310.363 547.605 312.368 545.899C314.373 544.235 316.805 543.403 319.664 543.403C323.419 543.403 326.363 544.768 328.496 547.499C330.629 550.229 331.696 553.984 331.696 558.763C331.696 563.584 330.629 567.36 328.496 570.091C326.363 572.821 323.419 574.187 319.664 574.187C316.805 574.187 314.352 573.376 312.304 571.755C310.299 570.176 309.04 568 308.528 565.227H309.616C309.189 568.299 307.931 570.752 305.84 572.587C303.792 574.421 301.189 575.339 298.032 575.339C294.064 575.339 290.971 573.888 288.752 570.987C286.533 568.085 285.424 564.011 285.424 558.763ZM290.672 558.763C290.672 562.219 291.312 564.8 292.592 566.507C293.915 568.213 295.877 569.067 298.48 569.067C301.083 569.067 303.024 568.213 304.304 566.507C305.584 564.8 306.224 562.219 306.224 558.763C306.224 555.307 305.584 552.725 304.304 551.019C303.024 549.312 301.083 548.459 298.48 548.459C295.877 548.459 293.915 549.312 292.592 551.019C291.312 552.768 290.672 555.349 290.672 558.763ZM311.472 558.763C311.472 561.749 312.133 564.011 313.456 565.547C314.821 567.125 316.677 567.915 319.024 567.915C321.328 567.915 323.141 567.125 324.464 565.547C325.787 564.011 326.448 561.749 326.448 558.763C326.448 555.819 325.787 553.557 324.464 551.979C323.141 550.4 321.328 549.611 319.024 549.611C316.677 549.611 314.821 550.4 313.456 551.979C312.133 553.557 311.472 555.819 311.472 558.763Z" fill="black"/>
<path d="M285.424 792.2C285.424 786.995 287.408 782.984 291.376 780.168C295.387 777.395 301.125 776.008 308.592 776.008C316.187 776.008 321.925 777.395 325.808 780.168C329.733 782.984 331.696 786.995 331.696 792.2C331.696 797.448 329.733 801.459 325.808 804.232C321.925 807.005 316.208 808.392 308.656 808.392C301.147 808.392 295.387 806.984 291.376 804.168C287.408 801.395 285.424 797.405 285.424 792.2ZM290.992 792.2C290.992 795.485 292.421 797.917 295.28 799.496C298.139 801.117 302.597 801.928 308.656 801.928C314.757 801.928 319.195 801.117 321.968 799.496C324.784 797.917 326.192 795.485 326.192 792.2C326.192 788.957 324.784 786.525 321.968 784.904C319.195 783.283 314.779 782.472 308.72 782.472C302.619 782.472 298.139 783.283 295.28 784.904C292.421 786.568 290.992 789 290.992 792.2ZM278.128 818.415L280.304 815.599C281.627 816.836 282.843 817.668 283.952 818.095C285.061 818.564 286.213 818.799 287.408 818.799L286 820.207V815.151H293.616V822.767H288.432C286.512 822.767 284.741 822.447 283.12 821.807C281.456 821.167 279.792 820.036 278.128 818.415ZM285.424 847.299C285.424 841.709 287.365 837.4 291.248 834.371C295.131 831.384 300.571 829.891 307.568 829.891C312.773 829.891 317.147 830.659 320.688 832.195C324.272 833.731 327.003 835.907 328.88 838.723C330.757 841.581 331.696 845.016 331.696 849.027C331.696 851.416 331.227 853.805 330.288 856.195C329.392 858.584 328.112 860.589 326.448 862.211L321.456 859.843C322.992 858.264 324.144 856.536 324.912 854.659C325.68 852.781 326.064 850.883 326.064 848.963C326.064 844.824 324.613 841.667 321.712 839.491C318.853 837.315 314.565 836.227 308.848 836.227H303.408V835.587C305.712 835.885 307.696 836.611 309.36 837.763C311.067 838.915 312.368 840.408 313.264 842.243C314.16 844.077 314.608 846.125 314.608 848.387C314.608 851.075 313.989 853.443 312.752 855.491C311.515 857.581 309.808 859.224 307.632 860.419C305.499 861.613 303.045 862.211 300.272 862.211C297.413 862.211 294.853 861.571 292.592 860.291C290.331 859.011 288.56 857.24 287.28 854.979C286.043 852.76 285.424 850.2 285.424 847.299ZM290.8 846.915C290.8 848.707 291.184 850.264 291.952 851.587C292.72 852.952 293.787 854.019 295.152 854.787C296.56 855.555 298.181 855.939 300.016 855.939C301.851 855.939 303.451 855.555 304.816 854.787C306.181 854.019 307.248 852.952 308.016 851.587C308.827 850.264 309.232 848.707 309.232 846.915C309.232 845.123 308.827 843.544 308.016 842.179C307.248 840.813 306.181 839.747 304.816 838.979C303.451 838.211 301.851 837.827 300.016 837.827C298.181 837.827 296.56 838.211 295.152 838.979C293.787 839.747 292.72 840.813 291.952 842.179C291.184 843.544 290.8 845.123 290.8 846.915Z" fill="black"/>
<path d="M288.424 1078.2C288.424 1072.99 290.408 1068.98 294.376 1066.17C298.387 1063.39 304.125 1062.01 311.592 1062.01C319.187 1062.01 324.925 1063.39 328.808 1066.17C332.733 1068.98 334.696 1072.99 334.696 1078.2C334.696 1083.45 332.733 1087.46 328.808 1090.23C324.925 1093.01 319.208 1094.39 311.656 1094.39C304.147 1094.39 298.387 1092.98 294.376 1090.17C290.408 1087.39 288.424 1083.41 288.424 1078.2ZM293.992 1078.2C293.992 1081.49 295.421 1083.92 298.28 1085.5C301.139 1087.12 305.597 1087.93 311.656 1087.93C317.757 1087.93 322.195 1087.12 324.968 1085.5C327.784 1083.92 329.192 1081.49 329.192 1078.2C329.192 1074.96 327.784 1072.53 324.968 1070.9C322.195 1069.28 317.779 1068.47 311.72 1068.47C305.619 1068.47 301.139 1069.28 298.28 1070.9C295.421 1072.57 293.992 1075 293.992 1078.2ZM281.128 1104.42L283.304 1101.6C284.627 1102.84 285.843 1103.67 286.952 1104.1C288.061 1104.56 289.213 1104.8 290.408 1104.8L289 1106.21V1101.15H296.616V1108.77H291.432C289.512 1108.77 287.741 1108.45 286.12 1107.81C284.456 1107.17 282.792 1106.04 281.128 1104.42ZM289 1136.37H298.344V1115.51H303.08L334.12 1137.46V1142.83H303.528V1149.55H298.344V1142.83H289V1136.37ZM303.528 1136.37H326.248V1137.84L301.928 1120.69H303.528V1136.37Z" fill="black"/>
<path d="M288.424 1366.2C288.424 1360.99 290.408 1356.98 294.376 1354.17C298.387 1351.39 304.125 1350.01 311.592 1350.01C319.187 1350.01 324.925 1351.39 328.808 1354.17C332.733 1356.98 334.696 1360.99 334.696 1366.2C334.696 1371.45 332.733 1375.46 328.808 1378.23C324.925 1381.01 319.208 1382.39 311.656 1382.39C304.147 1382.39 298.387 1380.98 294.376 1378.17C290.408 1375.39 288.424 1371.41 288.424 1366.2ZM293.992 1366.2C293.992 1369.49 295.421 1371.92 298.28 1373.5C301.139 1375.12 305.597 1375.93 311.656 1375.93C317.757 1375.93 322.195 1375.12 324.968 1373.5C327.784 1371.92 329.192 1369.49 329.192 1366.2C329.192 1362.96 327.784 1360.53 324.968 1358.9C322.195 1357.28 317.779 1356.47 311.72 1356.47C305.619 1356.47 301.139 1357.28 298.28 1358.9C295.421 1360.57 293.992 1363 293.992 1366.2ZM281.128 1392.42L283.304 1389.6C284.627 1390.84 285.843 1391.67 286.952 1392.1C288.061 1392.56 289.213 1392.8 290.408 1392.8L289 1394.21V1389.15H296.616V1396.77H291.432C289.512 1396.77 287.741 1396.45 286.12 1395.81C284.456 1395.17 282.792 1394.04 281.128 1392.42ZM289 1405.87H293.928L310.12 1421.36C312.211 1423.37 314.173 1424.86 316.008 1425.84C317.843 1426.82 319.741 1427.31 321.704 1427.31C324.136 1427.31 325.971 1426.55 327.208 1425.01C328.445 1423.52 329.064 1421.34 329.064 1418.48C329.064 1416.22 328.659 1414.09 327.848 1412.08C327.037 1410.12 325.8 1408.22 324.136 1406.39L329.192 1404.08C330.856 1405.87 332.179 1408.09 333.16 1410.74C334.184 1413.43 334.696 1416.26 334.696 1419.25C334.696 1423.94 333.629 1427.55 331.496 1430.07C329.363 1432.63 326.312 1433.91 322.344 1433.91C319.528 1433.91 316.819 1433.22 314.216 1431.86C311.656 1430.49 309.011 1428.45 306.28 1425.71L292.776 1412.34H294.568V1435.76H289V1405.87Z" fill="black"/>
<path d="M291.424 1654.2C291.424 1648.99 293.408 1644.98 297.376 1642.17C301.387 1639.39 307.125 1638.01 314.592 1638.01C322.187 1638.01 327.925 1639.39 331.808 1642.17C335.733 1644.98 337.696 1648.99 337.696 1654.2C337.696 1659.45 335.733 1663.46 331.808 1666.23C327.925 1669.01 322.208 1670.39 314.656 1670.39C307.147 1670.39 301.387 1668.98 297.376 1666.17C293.408 1663.39 291.424 1659.41 291.424 1654.2ZM296.992 1654.2C296.992 1657.49 298.421 1659.92 301.28 1661.5C304.139 1663.12 308.597 1663.93 314.656 1663.93C320.757 1663.93 325.195 1663.12 327.968 1661.5C330.784 1659.92 332.192 1657.49 332.192 1654.2C332.192 1650.96 330.784 1648.53 327.968 1646.9C325.195 1645.28 320.779 1644.47 314.72 1644.47C308.619 1644.47 304.139 1645.28 301.28 1646.9C298.421 1648.57 296.992 1651 296.992 1654.2ZM284.128 1680.42L286.304 1677.6C287.627 1678.84 288.843 1679.67 289.952 1680.1C291.061 1680.56 292.213 1680.8 293.408 1680.8L292 1682.21V1677.15H299.616V1684.77H294.432C292.512 1684.77 290.741 1684.45 289.12 1683.81C287.456 1683.17 285.792 1682.04 284.128 1680.42ZM291.424 1707.76C291.424 1702.56 293.408 1698.55 297.376 1695.73C301.387 1692.96 307.125 1691.57 314.592 1691.57C322.187 1691.57 327.925 1692.96 331.808 1695.73C335.733 1698.55 337.696 1702.56 337.696 1707.76C337.696 1713.01 335.733 1717.02 331.808 1719.79C327.925 1722.57 322.208 1723.95 314.656 1723.95C307.147 1723.95 301.387 1722.55 297.376 1719.73C293.408 1716.96 291.424 1712.97 291.424 1707.76ZM296.992 1707.76C296.992 1711.05 298.421 1713.48 301.28 1715.06C304.139 1716.68 308.597 1717.49 314.656 1717.49C320.757 1717.49 325.195 1716.68 327.968 1715.06C330.784 1713.48 332.192 1711.05 332.192 1707.76C332.192 1704.52 330.784 1702.09 327.968 1700.47C325.195 1698.85 320.779 1698.03 314.72 1698.03C308.619 1698.03 304.139 1698.85 301.28 1700.47C298.421 1702.13 296.992 1704.56 296.992 1707.76Z" fill="black"/>
<path d="M428.68 1856V1850.43H439.176V1816.51H442.504L429.704 1824.32V1817.92L441.032 1810.88H445.832V1850.43H455.688V1856H428.68ZM466.415 1863.87L463.599 1861.7C464.836 1860.37 465.668 1859.16 466.095 1858.05C466.564 1856.94 466.799 1855.79 466.799 1854.59L468.207 1856H463.151V1848.38H470.767V1853.57C470.767 1855.49 470.447 1857.26 469.807 1858.88C469.167 1860.54 468.036 1862.21 466.415 1863.87ZM493.763 1856.58C488.557 1856.58 484.547 1854.59 481.731 1850.62C478.957 1846.61 477.571 1840.87 477.571 1833.41C477.571 1825.81 478.957 1820.07 481.731 1816.19C484.547 1812.27 488.557 1810.3 493.763 1810.3C499.011 1810.3 503.021 1812.27 505.795 1816.19C508.568 1820.07 509.955 1825.79 509.955 1833.34C509.955 1840.85 508.547 1846.61 505.731 1850.62C502.957 1854.59 498.968 1856.58 493.763 1856.58ZM493.763 1851.01C497.048 1851.01 499.48 1849.58 501.059 1846.72C502.68 1843.86 503.491 1839.4 503.491 1833.34C503.491 1827.24 502.68 1822.81 501.059 1820.03C499.48 1817.22 497.048 1815.81 493.763 1815.81C490.52 1815.81 488.088 1817.22 486.467 1820.03C484.845 1822.81 484.035 1827.22 484.035 1833.28C484.035 1839.38 484.845 1843.86 486.467 1846.72C488.131 1849.58 490.563 1851.01 493.763 1851.01Z" fill="black"/>
<path d="M761.2 1856.58C755.995 1856.58 751.984 1854.59 749.168 1850.62C746.395 1846.61 745.008 1840.87 745.008 1833.41C745.008 1825.81 746.395 1820.07 749.168 1816.19C751.984 1812.27 755.995 1810.3 761.2 1810.3C766.448 1810.3 770.459 1812.27 773.232 1816.19C776.005 1820.07 777.392 1825.79 777.392 1833.34C777.392 1840.85 775.984 1846.61 773.168 1850.62C770.395 1854.59 766.405 1856.58 761.2 1856.58ZM761.2 1851.01C764.485 1851.01 766.917 1849.58 768.496 1846.72C770.117 1843.86 770.928 1839.4 770.928 1833.34C770.928 1827.24 770.117 1822.81 768.496 1820.03C766.917 1817.22 764.485 1815.81 761.2 1815.81C757.957 1815.81 755.525 1817.22 753.904 1820.03C752.283 1822.81 751.472 1827.22 751.472 1833.28C751.472 1839.38 752.283 1843.86 753.904 1846.72C755.568 1849.58 758 1851.01 761.2 1851.01ZM787.415 1863.87L784.599 1861.7C785.836 1860.37 786.668 1859.16 787.095 1858.05C787.564 1856.94 787.799 1855.79 787.799 1854.59L789.207 1856H784.151V1848.38H791.767V1853.57C791.767 1855.49 791.447 1857.26 790.807 1858.88C790.167 1860.54 789.036 1862.21 787.415 1863.87ZM814.763 1856.58C809.557 1856.58 805.504 1855.47 802.603 1853.25C799.701 1851.03 798.251 1847.94 798.251 1843.97C798.251 1840.81 799.211 1838.21 801.131 1836.16C803.051 1834.07 805.568 1832.81 808.683 1832.38V1833.54C805.867 1832.94 803.605 1831.64 801.899 1829.63C800.235 1827.63 799.403 1825.19 799.403 1822.34C799.403 1818.58 800.768 1815.64 803.499 1813.5C806.229 1811.37 809.984 1810.3 814.763 1810.3C819.584 1810.3 823.36 1811.37 826.091 1813.5C828.821 1815.64 830.187 1818.58 830.187 1822.34C830.187 1825.19 829.376 1827.65 827.755 1829.7C826.176 1831.7 824 1832.96 821.227 1833.47V1832.38C824.299 1832.81 826.752 1834.07 828.587 1836.16C830.421 1838.21 831.339 1840.81 831.339 1843.97C831.339 1847.94 829.888 1851.03 826.987 1853.25C824.085 1855.47 820.011 1856.58 814.763 1856.58ZM814.763 1851.33C818.219 1851.33 820.8 1850.69 822.507 1849.41C824.213 1848.09 825.067 1846.12 825.067 1843.52C825.067 1840.92 824.213 1838.98 822.507 1837.7C820.8 1836.42 818.219 1835.78 814.763 1835.78C811.307 1835.78 808.725 1836.42 807.019 1837.7C805.312 1838.98 804.459 1840.92 804.459 1843.52C804.459 1846.12 805.312 1848.09 807.019 1849.41C808.768 1850.69 811.349 1851.33 814.763 1851.33ZM814.763 1830.53C817.749 1830.53 820.011 1829.87 821.547 1828.54C823.125 1827.18 823.915 1825.32 823.915 1822.98C823.915 1820.67 823.125 1818.86 821.547 1817.54C820.011 1816.21 817.749 1815.55 814.763 1815.55C811.819 1815.55 809.557 1816.21 807.979 1817.54C806.4 1818.86 805.611 1820.67 805.611 1822.98C805.611 1825.32 806.4 1827.18 807.979 1828.54C809.557 1829.87 811.819 1830.53 814.763 1830.53Z" fill="black"/>
<path d="M1082.2 1856.58C1076.99 1856.58 1072.98 1854.59 1070.17 1850.62C1067.39 1846.61 1066.01 1840.87 1066.01 1833.41C1066.01 1825.81 1067.39 1820.07 1070.17 1816.19C1072.98 1812.27 1076.99 1810.3 1082.2 1810.3C1087.45 1810.3 1091.46 1812.27 1094.23 1816.19C1097.01 1820.07 1098.39 1825.79 1098.39 1833.34C1098.39 1840.85 1096.98 1846.61 1094.17 1850.62C1091.39 1854.59 1087.41 1856.58 1082.2 1856.58ZM1082.2 1851.01C1085.49 1851.01 1087.92 1849.58 1089.5 1846.72C1091.12 1843.86 1091.93 1839.4 1091.93 1833.34C1091.93 1827.24 1091.12 1822.81 1089.5 1820.03C1087.92 1817.22 1085.49 1815.81 1082.2 1815.81C1078.96 1815.81 1076.53 1817.22 1074.9 1820.03C1073.28 1822.81 1072.47 1827.22 1072.47 1833.28C1072.47 1839.38 1073.28 1843.86 1074.9 1846.72C1076.57 1849.58 1079 1851.01 1082.2 1851.01ZM1108.42 1863.87L1105.6 1861.7C1106.84 1860.37 1107.67 1859.16 1108.1 1858.05C1108.56 1856.94 1108.8 1855.79 1108.8 1854.59L1110.21 1856H1105.15V1848.38H1112.77V1853.57C1112.77 1855.49 1112.45 1857.26 1111.81 1858.88C1111.17 1860.54 1110.04 1862.21 1108.42 1863.87ZM1137.3 1856.58C1131.71 1856.58 1127.4 1854.63 1124.37 1850.75C1121.38 1846.87 1119.89 1841.43 1119.89 1834.43C1119.89 1829.23 1120.66 1824.85 1122.19 1821.31C1123.73 1817.73 1125.91 1815 1128.72 1813.12C1131.58 1811.24 1135.02 1810.3 1139.03 1810.3C1141.42 1810.3 1143.81 1810.77 1146.19 1811.71C1148.58 1812.61 1150.59 1813.89 1152.21 1815.55L1149.84 1820.54C1148.26 1819.01 1146.54 1817.86 1144.66 1817.09C1142.78 1816.32 1140.88 1815.94 1138.96 1815.94C1134.82 1815.94 1131.67 1817.39 1129.49 1820.29C1127.31 1823.15 1126.23 1827.43 1126.23 1833.15V1838.59H1125.59C1125.89 1836.29 1126.61 1834.3 1127.76 1832.64C1128.91 1830.93 1130.41 1829.63 1132.24 1828.74C1134.08 1827.84 1136.13 1827.39 1138.39 1827.39C1141.07 1827.39 1143.44 1828.01 1145.49 1829.25C1147.58 1830.49 1149.22 1832.19 1150.42 1834.37C1151.61 1836.5 1152.21 1838.95 1152.21 1841.73C1152.21 1844.59 1151.57 1847.15 1150.29 1849.41C1149.01 1851.67 1147.24 1853.44 1144.98 1854.72C1142.76 1855.96 1140.2 1856.58 1137.3 1856.58ZM1136.91 1851.2C1138.71 1851.2 1140.26 1850.82 1141.59 1850.05C1142.95 1849.28 1144.02 1848.21 1144.79 1846.85C1145.55 1845.44 1145.94 1843.82 1145.94 1841.98C1145.94 1840.15 1145.55 1838.55 1144.79 1837.18C1144.02 1835.82 1142.95 1834.75 1141.59 1833.98C1140.26 1833.17 1138.71 1832.77 1136.91 1832.77C1135.12 1832.77 1133.54 1833.17 1132.18 1833.98C1130.81 1834.75 1129.75 1835.82 1128.98 1837.18C1128.21 1838.55 1127.83 1840.15 1127.83 1841.98C1127.83 1843.82 1128.21 1845.44 1128.98 1846.85C1129.75 1848.21 1130.81 1849.28 1132.18 1850.05C1133.54 1850.82 1135.12 1851.2 1136.91 1851.2Z" fill="black"/>
<path d="M1403.2 1856.58C1397.99 1856.58 1393.98 1854.59 1391.17 1850.62C1388.39 1846.61 1387.01 1840.87 1387.01 1833.41C1387.01 1825.81 1388.39 1820.07 1391.17 1816.19C1393.98 1812.27 1397.99 1810.3 1403.2 1810.3C1408.45 1810.3 1412.46 1812.27 1415.23 1816.19C1418.01 1820.07 1419.39 1825.79 1419.39 1833.34C1419.39 1840.85 1417.98 1846.61 1415.17 1850.62C1412.39 1854.59 1408.41 1856.58 1403.2 1856.58ZM1403.2 1851.01C1406.49 1851.01 1408.92 1849.58 1410.5 1846.72C1412.12 1843.86 1412.93 1839.4 1412.93 1833.34C1412.93 1827.24 1412.12 1822.81 1410.5 1820.03C1408.92 1817.22 1406.49 1815.81 1403.2 1815.81C1399.96 1815.81 1397.53 1817.22 1395.9 1820.03C1394.28 1822.81 1393.47 1827.22 1393.47 1833.28C1393.47 1839.38 1394.28 1843.86 1395.9 1846.72C1397.57 1849.58 1400 1851.01 1403.2 1851.01ZM1429.42 1863.87L1426.6 1861.7C1427.84 1860.37 1428.67 1859.16 1429.1 1858.05C1429.56 1856.94 1429.8 1855.79 1429.8 1854.59L1431.21 1856H1426.15V1848.38H1433.77V1853.57C1433.77 1855.49 1433.45 1857.26 1432.81 1858.88C1432.17 1860.54 1431.04 1862.21 1429.42 1863.87ZM1461.37 1856V1846.66H1440.51V1841.92L1462.46 1810.88H1467.83V1841.47H1474.55V1846.66H1467.83V1856H1461.37ZM1461.37 1841.47V1818.75H1462.84L1445.69 1843.07V1841.47H1461.37Z" fill="black"/>
<path d="M1725.2 1856.58C1719.99 1856.58 1715.98 1854.59 1713.17 1850.62C1710.39 1846.61 1709.01 1840.87 1709.01 1833.41C1709.01 1825.81 1710.39 1820.07 1713.17 1816.19C1715.98 1812.27 1719.99 1810.3 1725.2 1810.3C1730.45 1810.3 1734.46 1812.27 1737.23 1816.19C1740.01 1820.07 1741.39 1825.79 1741.39 1833.34C1741.39 1840.85 1739.98 1846.61 1737.17 1850.62C1734.39 1854.59 1730.41 1856.58 1725.2 1856.58ZM1725.2 1851.01C1728.49 1851.01 1730.92 1849.58 1732.5 1846.72C1734.12 1843.86 1734.93 1839.4 1734.93 1833.34C1734.93 1827.24 1734.12 1822.81 1732.5 1820.03C1730.92 1817.22 1728.49 1815.81 1725.2 1815.81C1721.96 1815.81 1719.53 1817.22 1717.9 1820.03C1716.28 1822.81 1715.47 1827.22 1715.47 1833.28C1715.47 1839.38 1716.28 1843.86 1717.9 1846.72C1719.57 1849.58 1722 1851.01 1725.2 1851.01ZM1751.42 1863.87L1748.6 1861.7C1749.84 1860.37 1750.67 1859.16 1751.1 1858.05C1751.56 1856.94 1751.8 1855.79 1751.8 1854.59L1753.21 1856H1748.15V1848.38H1755.77V1853.57C1755.77 1855.49 1755.45 1857.26 1754.81 1858.88C1754.17 1860.54 1753.04 1862.21 1751.42 1863.87ZM1764.87 1856V1851.07L1780.36 1834.88C1782.37 1832.79 1783.86 1830.83 1784.84 1828.99C1785.82 1827.16 1786.31 1825.26 1786.31 1823.3C1786.31 1820.86 1785.55 1819.03 1784.01 1817.79C1782.52 1816.55 1780.34 1815.94 1777.48 1815.94C1775.22 1815.94 1773.09 1816.34 1771.08 1817.15C1769.12 1817.96 1767.22 1819.2 1765.39 1820.86L1763.08 1815.81C1764.87 1814.14 1767.09 1812.82 1769.74 1811.84C1772.43 1810.82 1775.26 1810.3 1778.25 1810.3C1782.94 1810.3 1786.55 1811.37 1789.07 1813.5C1791.63 1815.64 1792.91 1818.69 1792.91 1822.66C1792.91 1825.47 1792.22 1828.18 1790.86 1830.78C1789.49 1833.34 1787.45 1835.99 1784.71 1838.72L1771.34 1852.22V1850.43H1794.76V1856H1764.87Z" fill="black"/>
<path d="M2046.2 1856.58C2040.99 1856.58 2036.98 1854.59 2034.17 1850.62C2031.39 1846.61 2030.01 1840.87 2030.01 1833.41C2030.01 1825.81 2031.39 1820.07 2034.17 1816.19C2036.98 1812.27 2040.99 1810.3 2046.2 1810.3C2051.45 1810.3 2055.46 1812.27 2058.23 1816.19C2061.01 1820.07 2062.39 1825.79 2062.39 1833.34C2062.39 1840.85 2060.98 1846.61 2058.17 1850.62C2055.39 1854.59 2051.41 1856.58 2046.2 1856.58ZM2046.2 1851.01C2049.49 1851.01 2051.92 1849.58 2053.5 1846.72C2055.12 1843.86 2055.93 1839.4 2055.93 1833.34C2055.93 1827.24 2055.12 1822.81 2053.5 1820.03C2051.92 1817.22 2049.49 1815.81 2046.2 1815.81C2042.96 1815.81 2040.53 1817.22 2038.9 1820.03C2037.28 1822.81 2036.47 1827.22 2036.47 1833.28C2036.47 1839.38 2037.28 1843.86 2038.9 1846.72C2040.57 1849.58 2043 1851.01 2046.2 1851.01ZM2072.42 1863.87L2069.6 1861.7C2070.84 1860.37 2071.67 1859.16 2072.1 1858.05C2072.56 1856.94 2072.8 1855.79 2072.8 1854.59L2074.21 1856H2069.15V1848.38H2076.77V1853.57C2076.77 1855.49 2076.45 1857.26 2075.81 1858.88C2075.17 1860.54 2074.04 1862.21 2072.42 1863.87ZM2099.76 1856.58C2094.56 1856.58 2090.55 1854.59 2087.73 1850.62C2084.96 1846.61 2083.57 1840.87 2083.57 1833.41C2083.57 1825.81 2084.96 1820.07 2087.73 1816.19C2090.55 1812.27 2094.56 1810.3 2099.76 1810.3C2105.01 1810.3 2109.02 1812.27 2111.79 1816.19C2114.57 1820.07 2115.95 1825.79 2115.95 1833.34C2115.95 1840.85 2114.55 1846.61 2111.73 1850.62C2108.96 1854.59 2104.97 1856.58 2099.76 1856.58ZM2099.76 1851.01C2103.05 1851.01 2105.48 1849.58 2107.06 1846.72C2108.68 1843.86 2109.49 1839.4 2109.49 1833.34C2109.49 1827.24 2108.68 1822.81 2107.06 1820.03C2105.48 1817.22 2103.05 1815.81 2099.76 1815.81C2096.52 1815.81 2094.09 1817.22 2092.47 1820.03C2090.85 1822.81 2090.03 1827.22 2090.03 1833.28C2090.03 1839.38 2090.85 1843.86 2092.47 1846.72C2094.13 1849.58 2096.56 1851.01 2099.76 1851.01Z" fill="black"/>
<path d="M1018.47 2048.63C1014.5 2048.63 1010.91 2048.14 1007.69 2047.16C1004.47 2046.13 1001.67 2044.69 999.29 2042.82L1001.74 2037.08C1003.33 2038.29 1004.96 2039.3 1006.64 2040.09C1008.37 2040.88 1010.19 2041.49 1012.1 2041.91C1014.06 2042.28 1016.18 2042.47 1018.47 2042.47C1022.39 2042.47 1025.26 2041.77 1027.08 2040.37C1028.95 2038.97 1029.88 2037.13 1029.88 2034.84C1029.88 2032.88 1029.23 2031.36 1027.92 2030.29C1026.66 2029.22 1024.42 2028.35 1021.2 2027.7L1013.57 2026.16C1009.04 2025.23 1005.66 2023.71 1003.42 2021.61C1001.23 2019.46 1000.13 2016.55 1000.13 2012.86C1000.13 2009.87 1000.92 2007.26 1002.51 2005.02C1004.1 2002.78 1006.29 2001.05 1009.09 1999.84C1011.94 1998.63 1015.25 1998.02 1019.03 1998.02C1022.53 1998.02 1025.75 1998.53 1028.69 1999.56C1031.63 2000.54 1034.1 2002.01 1036.11 2003.97L1033.73 2009.5C1031.63 2007.68 1029.39 2006.35 1027.01 2005.51C1024.63 2004.62 1021.92 2004.18 1018.89 2004.18C1015.3 2004.18 1012.47 2004.93 1010.42 2006.42C1008.41 2007.91 1007.41 2009.94 1007.41 2012.51C1007.41 2014.56 1008.04 2016.17 1009.3 2017.34C1010.61 2018.51 1012.75 2019.39 1015.74 2020L1023.37 2021.47C1028.08 2022.45 1031.56 2023.97 1033.8 2026.02C1036.04 2028.03 1037.16 2030.8 1037.16 2034.35C1037.16 2037.2 1036.39 2039.69 1034.85 2041.84C1033.36 2043.99 1031.21 2045.67 1028.41 2046.88C1025.61 2048.05 1022.3 2048.63 1018.47 2048.63ZM1048.28 2063.12V2021.19C1048.28 2019.84 1048.21 2018.46 1048.07 2017.06C1047.97 2015.61 1047.86 2014.17 1047.72 2012.72H1054.58L1055.28 2020.7H1054.51C1055.25 2018.04 1056.75 2015.94 1058.99 2014.4C1061.27 2012.86 1063.98 2012.09 1067.11 2012.09C1070.23 2012.09 1072.96 2012.84 1075.3 2014.33C1077.63 2015.78 1079.43 2017.85 1080.69 2020.56C1081.99 2023.27 1082.65 2026.53 1082.65 2030.36C1082.65 2034.14 1081.99 2037.41 1080.69 2040.16C1079.43 2042.91 1077.63 2045.01 1075.3 2046.46C1072.96 2047.91 1070.23 2048.63 1067.11 2048.63C1064.03 2048.63 1061.34 2047.88 1059.06 2046.39C1056.82 2044.85 1055.32 2042.77 1054.58 2040.16H1055.35V2063.12H1048.28ZM1065.36 2043.1C1068.44 2043.1 1070.89 2042.03 1072.71 2039.88C1074.57 2037.73 1075.51 2034.56 1075.51 2030.36C1075.51 2026.16 1074.57 2023.01 1072.71 2020.91C1070.89 2018.76 1068.44 2017.69 1065.36 2017.69C1062.28 2017.69 1059.8 2018.76 1057.94 2020.91C1056.12 2023.01 1055.21 2026.16 1055.21 2030.36C1055.21 2034.56 1056.12 2037.73 1057.94 2039.88C1059.8 2042.03 1062.28 2043.1 1065.36 2043.1ZM1110.04 2048.63C1104.35 2048.63 1099.87 2047.02 1096.6 2043.8C1093.34 2040.58 1091.7 2036.12 1091.7 2030.43C1091.7 2026.74 1092.4 2023.52 1093.8 2020.77C1095.25 2018.02 1097.23 2015.89 1099.75 2014.4C1102.32 2012.86 1105.28 2012.09 1108.64 2012.09C1111.96 2012.09 1114.73 2012.79 1116.97 2014.19C1119.21 2015.59 1120.92 2017.57 1122.08 2020.14C1123.25 2022.66 1123.83 2025.65 1123.83 2029.1V2031.34H1097.23V2027.28H1119L1117.81 2028.19C1117.81 2024.69 1117.02 2021.98 1115.43 2020.07C1113.89 2018.11 1111.65 2017.13 1108.71 2017.13C1105.45 2017.13 1102.93 2018.27 1101.15 2020.56C1099.38 2022.8 1098.49 2025.9 1098.49 2029.87V2030.57C1098.49 2034.72 1099.5 2037.85 1101.5 2039.95C1103.56 2042.05 1106.45 2043.1 1110.18 2043.1C1112.24 2043.1 1114.15 2042.82 1115.92 2042.26C1117.74 2041.65 1119.47 2040.67 1121.1 2039.32L1123.41 2044.15C1121.78 2045.6 1119.8 2046.72 1117.46 2047.51C1115.13 2048.26 1112.66 2048.63 1110.04 2048.63ZM1150.22 2048.63C1146.67 2048.63 1143.57 2047.91 1140.91 2046.46C1138.29 2044.97 1136.26 2042.84 1134.82 2040.09C1133.42 2037.29 1132.72 2033.98 1132.72 2030.15C1132.72 2026.37 1133.44 2023.13 1134.89 2020.42C1136.33 2017.71 1138.36 2015.66 1140.98 2014.26C1143.59 2012.81 1146.67 2012.09 1150.22 2012.09C1152.5 2012.09 1154.72 2012.49 1156.87 2013.28C1159.01 2014.03 1160.79 2015.1 1162.19 2016.5L1159.88 2021.47C1158.57 2020.21 1157.1 2019.28 1155.47 2018.67C1153.83 2018.02 1152.25 2017.69 1150.71 2017.69C1147.35 2017.69 1144.71 2018.76 1142.8 2020.91C1140.88 2023.06 1139.93 2026.16 1139.93 2030.22C1139.93 2034.33 1140.88 2037.48 1142.8 2039.67C1144.71 2041.86 1147.35 2042.96 1150.71 2042.96C1152.2 2042.96 1153.76 2042.68 1155.4 2042.12C1157.03 2041.51 1158.52 2040.56 1159.88 2039.25L1162.19 2044.22C1160.74 2045.62 1158.92 2046.72 1156.73 2047.51C1154.58 2048.26 1152.41 2048.63 1150.22 2048.63ZM1172.48 2048V2012.72H1179.55V2048H1172.48ZM1171.92 2005.37V1998.02H1180.11V2005.37H1171.92ZM1194.81 2048V2018.18H1187.95V2012.72H1196.77L1194.81 2014.54V2008.94C1194.81 2004.79 1195.84 2001.64 1197.89 1999.49C1199.99 1997.3 1203.02 1996.2 1206.99 1996.2C1207.92 1996.2 1208.93 1996.27 1210 1996.41C1211.07 1996.55 1211.98 1996.78 1212.73 1997.11V2002.85C1212.17 2002.62 1211.47 2002.43 1210.63 2002.29C1209.79 2002.1 1208.97 2002.01 1208.18 2002.01C1206.13 2002.01 1204.54 2002.62 1203.42 2003.83C1202.35 2005 1201.81 2006.84 1201.81 2009.36V2014.12L1200.76 2012.72H1224.21V2048H1217.14V2018.18H1201.88V2048H1194.81ZM1216.58 2005.37V1998.02H1224.77V2005.37H1216.58ZM1252.82 2048.63C1249.27 2048.63 1246.17 2047.91 1243.51 2046.46C1240.89 2044.97 1238.86 2042.84 1237.42 2040.09C1236.02 2037.29 1235.32 2033.98 1235.32 2030.15C1235.32 2026.37 1236.04 2023.13 1237.49 2020.42C1238.93 2017.71 1240.96 2015.66 1243.58 2014.26C1246.19 2012.81 1249.27 2012.09 1252.82 2012.09C1255.1 2012.09 1257.32 2012.49 1259.47 2013.28C1261.61 2014.03 1263.39 2015.1 1264.79 2016.5L1262.48 2021.47C1261.17 2020.21 1259.7 2019.28 1258.07 2018.67C1256.43 2018.02 1254.85 2017.69 1253.31 2017.69C1249.95 2017.69 1247.31 2018.76 1245.4 2020.91C1243.48 2023.06 1242.53 2026.16 1242.53 2030.22C1242.53 2034.33 1243.48 2037.48 1245.4 2039.67C1247.31 2041.86 1249.95 2042.96 1253.31 2042.96C1254.8 2042.96 1256.36 2042.68 1258 2042.12C1259.63 2041.51 1261.12 2040.56 1262.48 2039.25L1264.79 2044.22C1263.34 2045.62 1261.52 2046.72 1259.33 2047.51C1257.18 2048.26 1255.01 2048.63 1252.82 2048.63ZM1275.08 2048V2012.72H1282.15V2048H1275.08ZM1274.52 2005.37V1998.02H1282.71V2005.37H1274.52ZM1309.03 2048.63C1305.2 2048.63 1302.31 2047.6 1300.35 2045.55C1298.39 2043.45 1297.41 2040.32 1297.41 2036.17V2018.18H1290.55V2012.72H1297.41V2003.41L1304.48 2001.52V2012.72H1314.28V2018.18H1304.48V2035.54C1304.48 2038.15 1304.95 2040.02 1305.88 2041.14C1306.81 2042.26 1308.17 2042.82 1309.94 2042.82C1310.83 2042.82 1311.6 2042.75 1312.25 2042.61C1312.95 2042.42 1313.58 2042.21 1314.14 2041.98V2047.72C1313.44 2048 1312.62 2048.21 1311.69 2048.35C1310.76 2048.54 1309.87 2048.63 1309.03 2048.63ZM1322.97 2063.89L1321.29 2058.15C1323.48 2057.68 1325.3 2057.12 1326.75 2056.47C1328.24 2055.82 1329.48 2054.95 1330.46 2053.88C1331.44 2052.85 1332.28 2051.52 1332.98 2049.89L1334.73 2045.76L1334.59 2048.63L1319.26 2012.72H1326.82L1338.72 2042.12H1336.83L1348.73 2012.72H1356.01L1339.84 2050.52C1338.81 2052.85 1337.71 2054.81 1336.55 2056.4C1335.38 2057.99 1334.12 2059.27 1332.77 2060.25C1331.41 2061.23 1329.92 2062 1328.29 2062.56C1326.65 2063.12 1324.88 2063.56 1322.97 2063.89Z" fill="black"/>
<path d="M125.63 1237.53C125.63 1241.5 125.14 1245.09 124.16 1248.31C123.133 1251.53 121.687 1254.33 119.82 1256.71L114.08 1254.26C115.293 1252.67 116.297 1251.04 117.09 1249.36C117.883 1247.63 118.49 1245.81 118.91 1243.9C119.283 1241.94 119.47 1239.82 119.47 1237.53C119.47 1233.61 118.77 1230.74 117.37 1228.92C115.97 1227.05 114.127 1226.12 111.84 1226.12C109.88 1226.12 108.363 1226.77 107.29 1228.08C106.217 1229.34 105.353 1231.58 104.7 1234.8L103.16 1242.43C102.227 1246.96 100.71 1250.34 98.61 1252.58C96.4633 1254.77 93.5467 1255.87 89.86 1255.87C86.8733 1255.87 84.26 1255.08 82.02 1253.49C79.78 1251.9 78.0533 1249.71 76.84 1246.91C75.6267 1244.06 75.02 1240.75 75.02 1236.97C75.02 1233.47 75.5333 1230.25 76.56 1227.31C77.54 1224.37 79.01 1221.9 80.97 1219.89L86.5 1222.27C84.68 1224.37 83.35 1226.61 82.51 1228.99C81.6233 1231.37 81.18 1234.08 81.18 1237.11C81.18 1240.7 81.9267 1243.53 83.42 1245.58C84.9133 1247.59 86.9433 1248.59 89.51 1248.59C91.5633 1248.59 93.1733 1247.96 94.34 1246.7C95.5067 1245.39 96.3933 1243.25 97 1240.26L98.47 1232.63C99.45 1227.92 100.967 1224.44 103.02 1222.2C105.027 1219.96 107.803 1218.84 111.35 1218.84C114.197 1218.84 116.693 1219.61 118.84 1221.15C120.987 1222.64 122.667 1224.79 123.88 1227.59C125.047 1230.39 125.63 1233.7 125.63 1237.53ZM125.63 1191.41C125.63 1197.11 124.02 1201.59 120.8 1204.85C117.58 1208.12 113.123 1209.75 107.43 1209.75C103.743 1209.75 100.523 1209.05 97.77 1207.65C95.0167 1206.21 92.8933 1204.22 91.4 1201.7C89.86 1199.14 89.09 1196.17 89.09 1192.81C89.09 1189.5 89.79 1186.72 91.19 1184.48C92.59 1182.24 94.5733 1180.54 97.14 1179.37C99.66 1178.21 102.647 1177.62 106.1 1177.62H108.34V1204.22H104.28V1182.45L105.19 1183.64C101.69 1183.64 98.9833 1184.44 97.07 1186.02C95.11 1187.56 94.13 1189.8 94.13 1192.74C94.13 1196.01 95.2733 1198.53 97.56 1200.3C99.8 1202.08 102.903 1202.96 106.87 1202.96H107.57C111.723 1202.96 114.85 1201.96 116.95 1199.95C119.05 1197.9 120.1 1195.01 120.1 1191.27C120.1 1189.22 119.82 1187.31 119.26 1185.53C118.653 1183.71 117.673 1181.99 116.32 1180.35L121.15 1178.04C122.597 1179.68 123.717 1181.66 124.51 1183.99C125.257 1186.33 125.63 1188.8 125.63 1191.41ZM125 1166.71H98.19C96.8367 1166.71 95.46 1166.78 94.06 1166.92C92.6133 1167.01 91.1667 1167.13 89.72 1167.27V1160.41L97.14 1159.78V1160.62C94.5267 1159.55 92.5433 1157.89 91.19 1155.65C89.79 1153.41 89.09 1150.82 89.09 1147.88C89.09 1143.73 90.2333 1140.6 92.52 1138.5C94.8067 1136.35 98.3533 1135.28 103.16 1135.28H125V1142.35H103.58C100.453 1142.35 98.2133 1142.98 96.86 1144.24C95.46 1145.45 94.76 1147.32 94.76 1149.84C94.76 1152.83 95.6933 1155.21 97.56 1156.98C99.38 1158.75 101.853 1159.64 104.98 1159.64H125V1166.71ZM125.63 1110.31C125.63 1113.25 125.257 1115.95 124.51 1118.43C123.763 1120.9 122.713 1122.95 121.36 1124.59L116.53 1122.42C117.837 1120.69 118.817 1118.78 119.47 1116.68C120.123 1114.58 120.45 1112.43 120.45 1110.24C120.45 1107.67 120.007 1105.73 119.12 1104.43C118.187 1103.12 116.927 1102.47 115.34 1102.47C114.127 1102.47 113.147 1102.89 112.4 1103.73C111.653 1104.52 111.093 1105.85 110.72 1107.72L109.39 1114.44C108.737 1117.42 107.617 1119.69 106.03 1121.23C104.443 1122.77 102.413 1123.54 99.94 1123.54C97.84 1123.54 95.9733 1122.98 94.34 1121.86C92.7067 1120.69 91.4233 1119.06 90.49 1116.96C89.5567 1114.81 89.09 1112.31 89.09 1109.47C89.09 1106.85 89.4633 1104.43 90.21 1102.19C90.9567 1099.95 92.03 1098.08 93.43 1096.59L98.12 1098.83C96.9067 1100.27 95.9733 1101.91 95.32 1103.73C94.62 1105.55 94.27 1107.39 94.27 1109.26C94.27 1111.87 94.76 1113.81 95.74 1115.07C96.72 1116.33 98.0033 1116.96 99.59 1116.96C100.803 1116.96 101.807 1116.58 102.6 1115.84C103.347 1115.04 103.93 1113.81 104.35 1112.13L105.68 1105.41C106.333 1102.23 107.407 1099.85 108.9 1098.27C110.393 1096.68 112.4 1095.89 114.92 1095.89C117.113 1095.89 119.027 1096.49 120.66 1097.71C122.293 1098.92 123.53 1100.6 124.37 1102.75C125.21 1104.89 125.63 1107.41 125.63 1110.31ZM125 1084.75H89.72V1077.68H125V1084.75ZM82.37 1085.31H75.02V1077.12H82.37V1085.31ZM125.63 1050.8C125.63 1054.63 124.603 1057.52 122.55 1059.48C120.45 1061.44 117.323 1062.42 113.17 1062.42H95.18V1069.28H89.72V1062.42H80.41L78.52 1055.35H89.72V1045.55H95.18V1055.35H112.54C115.153 1055.35 117.02 1054.88 118.14 1053.95C119.26 1053.02 119.82 1051.66 119.82 1049.89C119.82 1049 119.75 1048.23 119.61 1047.58C119.423 1046.88 119.213 1046.25 118.98 1045.69H124.72C125 1046.39 125.21 1047.21 125.35 1048.14C125.537 1049.07 125.63 1049.96 125.63 1050.8ZM125 1036.29H89.72V1029.22H125V1036.29ZM82.37 1036.85H75.02V1028.66H82.37V1036.85ZM125 1005.7L89.72 1020.82V1013.26L119.19 1001.36V1003.39L89.72 991.28V984.07L125 999.26V1005.7ZM125 975.662H89.72V968.592H125V975.662ZM82.37 976.222H75.02V968.032H82.37V976.222ZM125.63 941.711C125.63 945.537 124.603 948.431 122.55 950.391C120.45 952.351 117.323 953.331 113.17 953.331H95.18V960.191H89.72V953.331H80.41L78.52 946.261H89.72L89.72 936.461H95.18V946.261H112.54C115.153 946.261 117.02 945.794 118.14 944.861C119.26 943.927 119.82 942.574 119.82 940.801C119.82 939.914 119.75 939.144 119.61 938.491C119.423 937.791 119.213 937.161 118.98 936.601H124.72C125 937.301 125.21 938.117 125.35 939.051C125.537 939.984 125.63 940.871 125.63 941.711ZM140.89 927.772L135.15 929.452C134.683 927.259 134.123 925.439 133.47 923.992C132.817 922.499 131.953 921.262 130.88 920.282C129.853 919.302 128.523 918.462 126.89 917.762L122.76 916.012L125.63 916.152L89.72 931.482V923.922L119.12 912.022V913.912L89.72 902.012V894.732L127.52 910.902C129.853 911.929 131.813 913.026 133.4 914.192C134.987 915.359 136.27 916.619 137.25 917.972C138.23 919.326 139 920.819 139.56 922.452C140.12 924.086 140.563 925.859 140.89 927.772Z" fill="black"/>
</svg>
