<svg width="50" height="50" viewBox="0 0 50 50" fill="none" xmlns="http://www.w3.org/2000/svg">
<path fill-rule="evenodd" clip-rule="evenodd" d="M5.21094 27.0833C5.21094 24.2069 7.54279 21.875 10.4193 21.875H39.5859C42.4624 21.875 44.7943 24.2069 44.7943 27.0833V41.6667C44.7943 44.5431 42.4624 46.875 39.5859 46.875H10.4193C7.54279 46.875 5.21094 44.5431 5.21094 41.6667V27.0833ZM10.4193 23.9583C8.69338 23.9583 7.29427 25.3574 7.29427 27.0833V41.6667C7.29427 43.3926 8.69338 44.7917 10.4193 44.7917H39.5859C41.3118 44.7917 42.7109 43.3926 42.7109 41.6667V27.0833C42.7109 25.3574 41.3118 23.9583 39.5859 23.9583H10.4193Z" fill="#38C19D"/>
<path fill-rule="evenodd" clip-rule="evenodd" d="M24.9974 5.20833C19.8197 5.20833 15.6224 9.40566 15.6224 14.5833V22.9167C15.6224 23.492 15.156 23.9583 14.5807 23.9583C14.0054 23.9583 13.5391 23.492 13.5391 22.9167V14.5833C13.5391 8.25507 18.6691 3.125 24.9974 3.125C31.3257 3.125 36.4557 8.25507 36.4557 14.5833V22.9167C36.4557 23.492 35.9894 23.9583 35.4141 23.9583C34.8388 23.9583 34.3724 23.492 34.3724 22.9167V14.5833C34.3724 9.40566 30.1751 5.20833 24.9974 5.20833Z" fill="#38C19D"/>
</svg>
