<svg width="50" height="50" viewBox="0 0 50 50" fill="none" xmlns="http://www.w3.org/2000/svg">
<path fill-rule="evenodd" clip-rule="evenodd" d="M1.03906 12.5013C1.03906 9.62482 3.37091 7.29297 6.2474 7.29297H43.7474C46.6239 7.29297 48.9557 9.62482 48.9557 12.5013V37.5013C48.9557 40.3778 46.6239 42.7096 43.7474 42.7096H6.2474C3.37091 42.7096 1.03906 40.3778 1.03906 37.5013V12.5013ZM6.2474 9.3763C4.52151 9.3763 3.1224 10.7754 3.1224 12.5013V37.5013C3.1224 39.2272 4.52151 40.6263 6.2474 40.6263H43.7474C45.4733 40.6263 46.8724 39.2272 46.8724 37.5013V12.5013C46.8724 10.7754 45.4733 9.3763 43.7474 9.3763H6.2474Z" fill="#38C19D"/>
<path fill-rule="evenodd" clip-rule="evenodd" d="M1.03906 20.8346C1.03906 20.2593 1.50543 19.793 2.08073 19.793H47.9141C48.4894 19.793 48.9557 20.2593 48.9557 20.8346C48.9557 21.4099 48.4894 21.8763 47.9141 21.8763H2.08073C1.50543 21.8763 1.03906 21.4099 1.03906 20.8346Z" fill="#38C19D"/>
</svg>
