<svg width="2060" height="1866" viewBox="0 0 2060 1866" fill="none" xmlns="http://www.w3.org/2000/svg">
<g clip-path="url(#clip0_2046_30)">
<rect x="406" y="4" width="5" height="11" fill="#38C19D"/>
<rect x="406" y="29" width="5" height="19" fill="#38C19D"/>
<rect x="406" y="63" width="5" height="19" fill="#38C19D"/>
<rect x="406" y="97" width="5" height="19" fill="#38C19D"/>
<rect x="406" y="131" width="5" height="19" fill="#38C19D"/>
<rect x="406" y="165" width="5" height="19" fill="#38C19D"/>
<rect x="406" y="199" width="5" height="19" fill="#38C19D"/>
<rect x="406" y="233" width="5" height="19" fill="#38C19D"/>
<rect x="406" y="267" width="5" height="19" fill="#38C19D"/>
<rect x="406" y="301" width="5" height="19" fill="#38C19D"/>
<rect x="406" y="335" width="5" height="19" fill="#38C19D"/>
<rect x="406" y="369" width="5" height="19" fill="#38C19D"/>
<rect x="406" y="403" width="5" height="19" fill="#38C19D"/>
<rect x="406" y="437" width="5" height="19" fill="#38C19D"/>
<rect x="406" y="471" width="5" height="19" fill="#38C19D"/>
<rect x="406" y="505" width="5" height="19" fill="#38C19D"/>
<rect x="406" y="539" width="5" height="19" fill="#38C19D"/>
<rect x="406" y="573" width="5" height="19" fill="#38C19D"/>
<rect x="406" y="607" width="5" height="19" fill="#38C19D"/>
<rect x="406" y="641" width="5" height="19" fill="#38C19D"/>
<rect x="406" y="675" width="5" height="19" fill="#38C19D"/>
<rect x="406" y="709" width="5" height="19" fill="#38C19D"/>
<rect x="406" y="743" width="5" height="19" fill="#38C19D"/>
<rect x="406" y="777" width="5" height="19" fill="#38C19D"/>
<rect x="406" y="810" width="5" height="19" fill="#38C19D"/>
<rect x="406" y="844" width="5" height="19" fill="#38C19D"/>
<rect x="406" y="878" width="5" height="19" fill="#38C19D"/>
<rect x="406" y="912" width="5" height="19" fill="#38C19D"/>
<rect x="406" y="946" width="5" height="19" fill="#38C19D"/>
<rect x="406" y="980" width="5" height="19" fill="#38C19D"/>
<rect x="406" y="1014" width="5" height="19" fill="#38C19D"/>
<rect x="406" y="1048" width="5" height="19" fill="#38C19D"/>
<rect x="406" y="1082" width="5" height="19" fill="#38C19D"/>
<rect x="406" y="1116" width="5" height="19" fill="#38C19D"/>
<rect x="406" y="1286" width="5" height="19" fill="#38C19D"/>
<rect x="406" y="1150" width="5" height="19" fill="#38C19D"/>
<rect x="406" y="1320" width="5" height="19" fill="#38C19D"/>
<rect x="406" y="1184" width="5" height="19" fill="#38C19D"/>
<rect x="406" y="1354" width="5" height="19" fill="#38C19D"/>
<rect x="406" y="1218" width="5" height="19" fill="#38C19D"/>
<rect x="406" y="1388" width="5" height="19" fill="#38C19D"/>
<rect x="406" y="1252" width="5" height="19" fill="#38C19D"/>
<rect x="406" y="1422" width="5" height="19" fill="#38C19D"/>
<rect x="406" y="1456" width="5" height="19" fill="#38C19D"/>
<rect x="406" y="1491" width="5" height="19" fill="#38C19D"/>
<rect x="406" y="1490" width="5" height="19" fill="#38C19D"/>
<rect x="406" y="1524" width="5" height="10" fill="#38C19D"/>
<rect x="567" y="5" width="5" height="11" fill="#38C19D"/>
<rect x="567" y="30" width="5" height="19" fill="#38C19D"/>
<rect x="567" y="64" width="5" height="19" fill="#38C19D"/>
<rect x="567" y="98" width="5" height="19" fill="#38C19D"/>
<rect x="567" y="132" width="5" height="19" fill="#38C19D"/>
<rect x="567" y="166" width="5" height="19" fill="#38C19D"/>
<rect x="567" y="200" width="5" height="19" fill="#38C19D"/>
<rect x="567" y="234" width="5" height="19" fill="#38C19D"/>
<rect x="567" y="268" width="5" height="19" fill="#38C19D"/>
<rect x="567" y="302" width="5" height="19" fill="#38C19D"/>
<rect x="567" y="336" width="5" height="19" fill="#38C19D"/>
<rect x="567" y="370" width="5" height="19" fill="#38C19D"/>
<rect x="567" y="404" width="5" height="19" fill="#38C19D"/>
<rect x="567" y="438" width="5" height="19" fill="#38C19D"/>
<rect x="567" y="472" width="5" height="19" fill="#38C19D"/>
<rect x="567" y="506" width="5" height="19" fill="#38C19D"/>
<rect x="567" y="540" width="5" height="19" fill="#38C19D"/>
<rect x="567" y="574" width="5" height="19" fill="#38C19D"/>
<rect x="567" y="608" width="5" height="19" fill="#38C19D"/>
<rect x="567" y="642" width="5" height="19" fill="#38C19D"/>
<rect x="567" y="676" width="5" height="19" fill="#38C19D"/>
<rect x="567" y="710" width="5" height="19" fill="#38C19D"/>
<rect x="567" y="744" width="5" height="19" fill="#38C19D"/>
<rect x="567" y="778" width="5" height="19" fill="#38C19D"/>
<rect x="567" y="811" width="5" height="19" fill="#38C19D"/>
<rect x="567" y="845" width="5" height="19" fill="#38C19D"/>
<rect x="567" y="879" width="5" height="19" fill="#38C19D"/>
<rect x="567" y="913" width="5" height="19" fill="#38C19D"/>
<rect x="567" y="947" width="5" height="19" fill="#38C19D"/>
<rect x="567" y="981" width="5" height="19" fill="#38C19D"/>
<rect x="567" y="1015" width="5" height="19" fill="#38C19D"/>
<rect x="567" y="1049" width="5" height="19" fill="#38C19D"/>
<rect x="567" y="1083" width="5" height="19" fill="#38C19D"/>
<rect x="567" y="1117" width="5" height="19" fill="#38C19D"/>
<rect x="567" y="1151" width="5" height="19" fill="#38C19D"/>
<rect x="567" y="1185" width="5" height="19" fill="#38C19D"/>
<rect x="567" y="1219" width="5" height="19" fill="#38C19D"/>
<rect x="567" y="1253" width="5" height="19" fill="#38C19D"/>
<rect x="567" y="1287" width="5" height="19" fill="#38C19D"/>
<rect x="567" y="1321" width="5" height="19" fill="#38C19D"/>
<rect x="567" y="1355" width="5" height="19" fill="#38C19D"/>
<rect x="567" y="1389" width="5" height="19" fill="#38C19D"/>
<rect x="567" y="1423" width="5" height="19" fill="#38C19D"/>
<rect x="567" y="1457" width="5" height="19" fill="#38C19D"/>
<rect x="567" y="1492" width="5" height="19" fill="#38C19D"/>
<rect x="567" y="1491" width="5" height="19" fill="#38C19D"/>
<rect x="567" y="1525" width="5" height="10" fill="#38C19D"/>
<rect x="728" y="5" width="5" height="11" fill="#38C19D"/>
<rect x="728" y="30" width="5" height="19" fill="#38C19D"/>
<rect x="728" y="64" width="5" height="19" fill="#38C19D"/>
<rect x="728" y="98" width="5" height="19" fill="#38C19D"/>
<rect x="728" y="132" width="5" height="19" fill="#38C19D"/>
<rect x="728" y="166" width="5" height="19" fill="#38C19D"/>
<rect x="728" y="200" width="5" height="19" fill="#38C19D"/>
<rect x="728" y="234" width="5" height="19" fill="#38C19D"/>
<rect x="728" y="268" width="5" height="19" fill="#38C19D"/>
<rect x="728" y="302" width="5" height="19" fill="#38C19D"/>
<rect x="728" y="336" width="5" height="19" fill="#38C19D"/>
<rect x="728" y="370" width="5" height="19" fill="#38C19D"/>
<rect x="728" y="404" width="5" height="19" fill="#38C19D"/>
<rect x="728" y="438" width="5" height="19" fill="#38C19D"/>
<rect x="728" y="472" width="5" height="19" fill="#38C19D"/>
<rect x="728" y="506" width="5" height="19" fill="#38C19D"/>
<rect x="728" y="540" width="5" height="19" fill="#38C19D"/>
<rect x="728" y="574" width="5" height="19" fill="#38C19D"/>
<rect x="728" y="608" width="5" height="19" fill="#38C19D"/>
<rect x="728" y="642" width="5" height="19" fill="#38C19D"/>
<rect x="728" y="676" width="5" height="19" fill="#38C19D"/>
<rect x="728" y="710" width="5" height="19" fill="#38C19D"/>
<rect x="728" y="744" width="5" height="19" fill="#38C19D"/>
<rect x="728" y="778" width="5" height="19" fill="#38C19D"/>
<rect x="728" y="811" width="5" height="19" fill="#38C19D"/>
<rect x="728" y="845" width="5" height="19" fill="#38C19D"/>
<rect x="728" y="879" width="5" height="19" fill="#38C19D"/>
<rect x="728" y="913" width="5" height="19" fill="#38C19D"/>
<rect x="728" y="947" width="5" height="19" fill="#38C19D"/>
<rect x="728" y="981" width="5" height="19" fill="#38C19D"/>
<rect x="728" y="1015" width="5" height="19" fill="#38C19D"/>
<rect x="728" y="1049" width="5" height="19" fill="#38C19D"/>
<rect x="728" y="1083" width="5" height="19" fill="#38C19D"/>
<rect x="728" y="1117" width="5" height="19" fill="#38C19D"/>
<rect x="728" y="1151" width="5" height="19" fill="#38C19D"/>
<rect x="728" y="1185" width="5" height="19" fill="#38C19D"/>
<rect x="728" y="1219" width="5" height="19" fill="#38C19D"/>
<rect x="728" y="1253" width="5" height="19" fill="#38C19D"/>
<rect x="728" y="1287" width="5" height="19" fill="#38C19D"/>
<rect x="728" y="1321" width="5" height="19" fill="#38C19D"/>
<rect x="728" y="1355" width="5" height="19" fill="#38C19D"/>
<rect x="728" y="1389" width="5" height="19" fill="#38C19D"/>
<rect x="728" y="1423" width="5" height="19" fill="#38C19D"/>
<rect x="728" y="1457" width="5" height="19" fill="#38C19D"/>
<rect x="728" y="1492" width="5" height="19" fill="#38C19D"/>
<rect x="728" y="1491" width="5" height="19" fill="#38C19D"/>
<rect x="728" y="1525" width="5" height="10" fill="#38C19D"/>
<rect x="889" y="4" width="5" height="11" fill="#38C19D"/>
<rect x="889" y="29" width="5" height="19" fill="#38C19D"/>
<rect x="889" y="63" width="5" height="19" fill="#38C19D"/>
<rect x="889" y="97" width="5" height="19" fill="#38C19D"/>
<rect x="889" y="131" width="5" height="19" fill="#38C19D"/>
<rect x="889" y="165" width="5" height="19" fill="#38C19D"/>
<rect x="889" y="199" width="5" height="19" fill="#38C19D"/>
<rect x="889" y="233" width="5" height="19" fill="#38C19D"/>
<rect x="889" y="267" width="5" height="19" fill="#38C19D"/>
<rect x="889" y="301" width="5" height="19" fill="#38C19D"/>
<rect x="889" y="335" width="5" height="19" fill="#38C19D"/>
<rect x="889" y="369" width="5" height="19" fill="#38C19D"/>
<rect x="889" y="403" width="5" height="19" fill="#38C19D"/>
<rect x="889" y="437" width="5" height="19" fill="#38C19D"/>
<rect x="889" y="471" width="5" height="19" fill="#38C19D"/>
<rect x="889" y="505" width="5" height="19" fill="#38C19D"/>
<rect x="889" y="539" width="5" height="19" fill="#38C19D"/>
<rect x="889" y="573" width="5" height="19" fill="#38C19D"/>
<rect x="889" y="607" width="5" height="19" fill="#38C19D"/>
<rect x="889" y="641" width="5" height="19" fill="#38C19D"/>
<rect x="889" y="675" width="5" height="19" fill="#38C19D"/>
<rect x="889" y="709" width="5" height="19" fill="#38C19D"/>
<rect x="889" y="743" width="5" height="19" fill="#38C19D"/>
<rect x="889" y="777" width="5" height="19" fill="#38C19D"/>
<rect x="889" y="810" width="5" height="19" fill="#38C19D"/>
<rect x="889" y="844" width="5" height="19" fill="#38C19D"/>
<rect x="889" y="878" width="5" height="19" fill="#38C19D"/>
<rect x="889" y="912" width="5" height="19" fill="#38C19D"/>
<rect x="889" y="946" width="5" height="19" fill="#38C19D"/>
<rect x="889" y="980" width="5" height="19" fill="#38C19D"/>
<rect x="889" y="1014" width="5" height="19" fill="#38C19D"/>
<rect x="889" y="1048" width="5" height="19" fill="#38C19D"/>
<rect x="889" y="1082" width="5" height="19" fill="#38C19D"/>
<rect x="889" y="1116" width="5" height="19" fill="#38C19D"/>
<rect x="889" y="1150" width="5" height="19" fill="#38C19D"/>
<rect x="889" y="1184" width="5" height="19" fill="#38C19D"/>
<rect x="889" y="1218" width="5" height="19" fill="#38C19D"/>
<rect x="889" y="1252" width="5" height="19" fill="#38C19D"/>
<rect x="889" y="1286" width="5" height="19" fill="#38C19D"/>
<rect x="889" y="1320" width="5" height="19" fill="#38C19D"/>
<rect x="889" y="1354" width="5" height="19" fill="#38C19D"/>
<rect x="889" y="1388" width="5" height="19" fill="#38C19D"/>
<rect x="889" y="1422" width="5" height="19" fill="#38C19D"/>
<rect x="889" y="1456" width="5" height="19" fill="#38C19D"/>
<rect x="889" y="1491" width="5" height="19" fill="#38C19D"/>
<rect x="889" y="1490" width="5" height="19" fill="#38C19D"/>
<rect x="889" y="1524" width="5" height="10" fill="#38C19D"/>
<rect x="1050" y="5" width="5" height="11" fill="#38C19D"/>
<rect x="1050" y="30" width="5" height="19" fill="#38C19D"/>
<rect x="1050" y="64" width="5" height="19" fill="#38C19D"/>
<rect x="1050" y="98" width="5" height="19" fill="#38C19D"/>
<rect x="1050" y="132" width="5" height="19" fill="#38C19D"/>
<rect x="1050" y="166" width="5" height="19" fill="#38C19D"/>
<rect x="1050" y="200" width="5" height="19" fill="#38C19D"/>
<rect x="1050" y="234" width="5" height="19" fill="#38C19D"/>
<rect x="1050" y="268" width="5" height="19" fill="#38C19D"/>
<rect x="1050" y="302" width="5" height="19" fill="#38C19D"/>
<rect x="1050" y="336" width="5" height="19" fill="#38C19D"/>
<rect x="1050" y="370" width="5" height="19" fill="#38C19D"/>
<rect x="1050" y="404" width="5" height="19" fill="#38C19D"/>
<rect x="1050" y="438" width="5" height="19" fill="#38C19D"/>
<rect x="1050" y="472" width="5" height="19" fill="#38C19D"/>
<rect x="1050" y="506" width="5" height="19" fill="#38C19D"/>
<rect x="1050" y="540" width="5" height="19" fill="#38C19D"/>
<rect x="1050" y="574" width="5" height="19" fill="#38C19D"/>
<rect x="1050" y="608" width="5" height="19" fill="#38C19D"/>
<rect x="1050" y="642" width="5" height="19" fill="#38C19D"/>
<rect x="1050" y="676" width="5" height="19" fill="#38C19D"/>
<rect x="1050" y="710" width="5" height="19" fill="#38C19D"/>
<rect x="1050" y="744" width="5" height="19" fill="#38C19D"/>
<rect x="1050" y="778" width="5" height="19" fill="#38C19D"/>
<rect x="1050" y="811" width="5" height="19" fill="#38C19D"/>
<rect x="1050" y="845" width="5" height="19" fill="#38C19D"/>
<rect x="1050" y="879" width="5" height="19" fill="#38C19D"/>
<rect x="1050" y="913" width="5" height="19" fill="#38C19D"/>
<rect x="1050" y="947" width="5" height="19" fill="#38C19D"/>
<rect x="1050" y="981" width="5" height="19" fill="#38C19D"/>
<rect x="1050" y="1015" width="5" height="19" fill="#38C19D"/>
<rect x="1050" y="1049" width="5" height="19" fill="#38C19D"/>
<rect x="1050" y="1083" width="5" height="19" fill="#38C19D"/>
<rect x="1050" y="1117" width="5" height="19" fill="#38C19D"/>
<rect x="1050" y="1151" width="5" height="19" fill="#38C19D"/>
<rect x="1050" y="1185" width="5" height="19" fill="#38C19D"/>
<rect x="1050" y="1219" width="5" height="19" fill="#38C19D"/>
<rect x="1050" y="1253" width="5" height="19" fill="#38C19D"/>
<rect x="1050" y="1287" width="5" height="19" fill="#38C19D"/>
<rect x="1050" y="1321" width="5" height="19" fill="#38C19D"/>
<rect x="1050" y="1355" width="5" height="19" fill="#38C19D"/>
<rect x="1050" y="1389" width="5" height="19" fill="#38C19D"/>
<rect x="1050" y="1423" width="5" height="19" fill="#38C19D"/>
<rect x="1050" y="1457" width="5" height="19" fill="#38C19D"/>
<rect x="1050" y="1492" width="5" height="19" fill="#38C19D"/>
<rect x="1050" y="1491" width="5" height="19" fill="#38C19D"/>
<rect x="1050" y="1525" width="5" height="10" fill="#38C19D"/>
<rect x="1211" y="5" width="5" height="11" fill="#38C19D"/>
<rect x="1211" y="30" width="5" height="19" fill="#38C19D"/>
<rect x="1211" y="64" width="5" height="19" fill="#38C19D"/>
<rect x="1211" y="98" width="5" height="19" fill="#38C19D"/>
<rect x="1211" y="132" width="5" height="19" fill="#38C19D"/>
<rect x="1211" y="166" width="5" height="19" fill="#38C19D"/>
<rect x="1211" y="200" width="5" height="19" fill="#38C19D"/>
<rect x="1211" y="234" width="5" height="19" fill="#38C19D"/>
<rect x="1211" y="268" width="5" height="19" fill="#38C19D"/>
<rect x="1211" y="302" width="5" height="19" fill="#38C19D"/>
<rect x="1211" y="336" width="5" height="19" fill="#38C19D"/>
<rect x="1211" y="370" width="5" height="19" fill="#38C19D"/>
<rect x="1211" y="404" width="5" height="19" fill="#38C19D"/>
<rect x="1211" y="438" width="5" height="19" fill="#38C19D"/>
<rect x="1211" y="472" width="5" height="19" fill="#38C19D"/>
<rect x="1211" y="506" width="5" height="19" fill="#38C19D"/>
<rect x="1211" y="540" width="5" height="19" fill="#38C19D"/>
<rect x="1211" y="574" width="5" height="19" fill="#38C19D"/>
<rect x="1211" y="608" width="5" height="19" fill="#38C19D"/>
<rect x="1211" y="642" width="5" height="19" fill="#38C19D"/>
<rect x="1211" y="676" width="5" height="19" fill="#38C19D"/>
<rect x="1211" y="710" width="5" height="19" fill="#38C19D"/>
<rect x="1211" y="744" width="5" height="19" fill="#38C19D"/>
<rect x="1211" y="778" width="5" height="19" fill="#38C19D"/>
<rect x="1211" y="811" width="5" height="19" fill="#38C19D"/>
<rect x="1211" y="845" width="5" height="19" fill="#38C19D"/>
<rect x="1211" y="879" width="5" height="19" fill="#38C19D"/>
<rect x="1211" y="913" width="5" height="19" fill="#38C19D"/>
<rect x="1211" y="947" width="5" height="19" fill="#38C19D"/>
<rect x="1211" y="981" width="5" height="19" fill="#38C19D"/>
<rect x="1211" y="1015" width="5" height="19" fill="#38C19D"/>
<rect x="1211" y="1049" width="5" height="19" fill="#38C19D"/>
<rect x="1211" y="1083" width="5" height="19" fill="#38C19D"/>
<rect x="1211" y="1117" width="5" height="19" fill="#38C19D"/>
<rect x="1211" y="1151" width="5" height="19" fill="#38C19D"/>
<rect x="1211" y="1185" width="5" height="19" fill="#38C19D"/>
<rect x="1211" y="1219" width="5" height="19" fill="#38C19D"/>
<rect x="1211" y="1253" width="5" height="19" fill="#38C19D"/>
<rect x="1211" y="1287" width="5" height="19" fill="#38C19D"/>
<rect x="1211" y="1321" width="5" height="19" fill="#38C19D"/>
<rect x="1211" y="1355" width="5" height="19" fill="#38C19D"/>
<rect x="1211" y="1389" width="5" height="19" fill="#38C19D"/>
<rect x="1211" y="1423" width="5" height="19" fill="#38C19D"/>
<rect x="1211" y="1457" width="5" height="19" fill="#38C19D"/>
<rect x="1211" y="1492" width="5" height="19" fill="#38C19D"/>
<rect x="1211" y="1491" width="5" height="19" fill="#38C19D"/>
<rect x="1211" y="1525" width="5" height="10" fill="#38C19D"/>
<rect x="1369" y="5" width="5" height="11" fill="#38C19D"/>
<rect x="1369" y="30" width="5" height="19" fill="#38C19D"/>
<rect x="1369" y="64" width="5" height="19" fill="#38C19D"/>
<rect x="1369" y="98" width="5" height="19" fill="#38C19D"/>
<rect x="1369" y="132" width="5" height="19" fill="#38C19D"/>
<rect x="1369" y="166" width="5" height="19" fill="#38C19D"/>
<rect x="1369" y="200" width="5" height="19" fill="#38C19D"/>
<rect x="1369" y="234" width="5" height="19" fill="#38C19D"/>
<rect x="1369" y="268" width="5" height="19" fill="#38C19D"/>
<rect x="1369" y="302" width="5" height="19" fill="#38C19D"/>
<rect x="1369" y="336" width="5" height="19" fill="#38C19D"/>
<rect x="1369" y="370" width="5" height="19" fill="#38C19D"/>
<rect x="1369" y="404" width="5" height="19" fill="#38C19D"/>
<rect x="1369" y="438" width="5" height="19" fill="#38C19D"/>
<rect x="1369" y="472" width="5" height="19" fill="#38C19D"/>
<rect x="1369" y="506" width="5" height="19" fill="#38C19D"/>
<rect x="1369" y="540" width="5" height="19" fill="#38C19D"/>
<rect x="1369" y="574" width="5" height="19" fill="#38C19D"/>
<rect x="1369" y="608" width="5" height="19" fill="#38C19D"/>
<rect x="1369" y="642" width="5" height="19" fill="#38C19D"/>
<rect x="1369" y="676" width="5" height="19" fill="#38C19D"/>
<rect x="1369" y="710" width="5" height="19" fill="#38C19D"/>
<rect x="1369" y="744" width="5" height="19" fill="#38C19D"/>
<rect x="1369" y="778" width="5" height="19" fill="#38C19D"/>
<rect x="1369" y="811" width="5" height="19" fill="#38C19D"/>
<rect x="1369" y="845" width="5" height="19" fill="#38C19D"/>
<rect x="1369" y="879" width="5" height="19" fill="#38C19D"/>
<rect x="1369" y="913" width="5" height="19" fill="#38C19D"/>
<rect x="1369" y="947" width="5" height="19" fill="#38C19D"/>
<rect x="1369" y="981" width="5" height="19" fill="#38C19D"/>
<rect x="1369" y="1015" width="5" height="19" fill="#38C19D"/>
<rect x="1369" y="1049" width="5" height="19" fill="#38C19D"/>
<rect x="1369" y="1083" width="5" height="19" fill="#38C19D"/>
<rect x="1369" y="1117" width="5" height="19" fill="#38C19D"/>
<rect x="1369" y="1151" width="5" height="19" fill="#38C19D"/>
<rect x="1369" y="1185" width="5" height="19" fill="#38C19D"/>
<rect x="1369" y="1219" width="5" height="19" fill="#38C19D"/>
<rect x="1369" y="1253" width="5" height="19" fill="#38C19D"/>
<rect x="1369" y="1287" width="5" height="19" fill="#38C19D"/>
<rect x="1369" y="1321" width="5" height="19" fill="#38C19D"/>
<rect x="1369" y="1355" width="5" height="19" fill="#38C19D"/>
<rect x="1369" y="1389" width="5" height="19" fill="#38C19D"/>
<rect x="1369" y="1423" width="5" height="19" fill="#38C19D"/>
<rect x="1369" y="1457" width="5" height="19" fill="#38C19D"/>
<rect x="1369" y="1492" width="5" height="19" fill="#38C19D"/>
<rect x="1369" y="1491" width="5" height="19" fill="#38C19D"/>
<rect x="1369" y="1525" width="5" height="10" fill="#38C19D"/>
<rect x="1530" y="5" width="5" height="11" fill="#38C19D"/>
<rect x="1530" y="30" width="5" height="19" fill="#38C19D"/>
<rect x="1530" y="64" width="5" height="19" fill="#38C19D"/>
<rect x="1530" y="98" width="5" height="19" fill="#38C19D"/>
<rect x="1530" y="132" width="5" height="19" fill="#38C19D"/>
<rect x="1530" y="166" width="5" height="19" fill="#38C19D"/>
<rect x="1530" y="200" width="5" height="19" fill="#38C19D"/>
<rect x="1530" y="234" width="5" height="19" fill="#38C19D"/>
<rect x="1530" y="268" width="5" height="19" fill="#38C19D"/>
<rect x="1530" y="302" width="5" height="19" fill="#38C19D"/>
<rect x="1530" y="336" width="5" height="19" fill="#38C19D"/>
<rect x="1530" y="370" width="5" height="19" fill="#38C19D"/>
<rect x="1530" y="404" width="5" height="19" fill="#38C19D"/>
<rect x="1530" y="438" width="5" height="19" fill="#38C19D"/>
<rect x="1530" y="472" width="5" height="19" fill="#38C19D"/>
<rect x="1530" y="506" width="5" height="19" fill="#38C19D"/>
<rect x="1530" y="540" width="5" height="19" fill="#38C19D"/>
<rect x="1530" y="574" width="5" height="19" fill="#38C19D"/>
<rect x="1530" y="608" width="5" height="19" fill="#38C19D"/>
<rect x="1530" y="642" width="5" height="19" fill="#38C19D"/>
<rect x="1530" y="676" width="5" height="19" fill="#38C19D"/>
<rect x="1530" y="710" width="5" height="19" fill="#38C19D"/>
<rect x="1530" y="744" width="5" height="19" fill="#38C19D"/>
<rect x="1530" y="778" width="5" height="19" fill="#38C19D"/>
<rect x="1530" y="811" width="5" height="19" fill="#38C19D"/>
<rect x="1530" y="845" width="5" height="19" fill="#38C19D"/>
<rect x="1530" y="879" width="5" height="19" fill="#38C19D"/>
<rect x="1530" y="913" width="5" height="19" fill="#38C19D"/>
<rect x="1530" y="947" width="5" height="19" fill="#38C19D"/>
<rect x="1530" y="981" width="5" height="19" fill="#38C19D"/>
<rect x="1530" y="1015" width="5" height="19" fill="#38C19D"/>
<rect x="1530" y="1049" width="5" height="19" fill="#38C19D"/>
<rect x="1530" y="1083" width="5" height="19" fill="#38C19D"/>
<rect x="1530" y="1117" width="5" height="19" fill="#38C19D"/>
<rect x="1530" y="1151" width="5" height="19" fill="#38C19D"/>
<rect x="1530" y="1185" width="5" height="19" fill="#38C19D"/>
<rect x="1530" y="1219" width="5" height="19" fill="#38C19D"/>
<rect x="1530" y="1253" width="5" height="19" fill="#38C19D"/>
<rect x="1530" y="1287" width="5" height="19" fill="#38C19D"/>
<rect x="1530" y="1321" width="5" height="19" fill="#38C19D"/>
<rect x="1530" y="1355" width="5" height="19" fill="#38C19D"/>
<rect x="1530" y="1389" width="5" height="19" fill="#38C19D"/>
<rect x="1530" y="1423" width="5" height="19" fill="#38C19D"/>
<rect x="1530" y="1457" width="5" height="19" fill="#38C19D"/>
<rect x="1530" y="1492" width="5" height="19" fill="#38C19D"/>
<rect x="1530" y="1491" width="5" height="19" fill="#38C19D"/>
<rect x="1530" y="1525" width="5" height="10" fill="#38C19D"/>
<rect x="1691" y="5" width="5" height="11" fill="#38C19D"/>
<rect x="1691" y="30" width="5" height="19" fill="#38C19D"/>
<rect x="1691" y="64" width="5" height="19" fill="#38C19D"/>
<rect x="1691" y="98" width="5" height="19" fill="#38C19D"/>
<rect x="1691" y="132" width="5" height="19" fill="#38C19D"/>
<rect x="1691" y="166" width="5" height="19" fill="#38C19D"/>
<rect x="1691" y="200" width="5" height="19" fill="#38C19D"/>
<rect x="1691" y="234" width="5" height="19" fill="#38C19D"/>
<rect x="1691" y="268" width="5" height="19" fill="#38C19D"/>
<rect x="1691" y="302" width="5" height="19" fill="#38C19D"/>
<rect x="1691" y="336" width="5" height="19" fill="#38C19D"/>
<rect x="1691" y="370" width="5" height="19" fill="#38C19D"/>
<rect x="1691" y="404" width="5" height="19" fill="#38C19D"/>
<rect x="1691" y="438" width="5" height="19" fill="#38C19D"/>
<rect x="1691" y="472" width="5" height="19" fill="#38C19D"/>
<rect x="1691" y="506" width="5" height="19" fill="#38C19D"/>
<rect x="1691" y="540" width="5" height="19" fill="#38C19D"/>
<rect x="1691" y="574" width="5" height="19" fill="#38C19D"/>
<rect x="1691" y="608" width="5" height="19" fill="#38C19D"/>
<rect x="1691" y="642" width="5" height="19" fill="#38C19D"/>
<rect x="1691" y="676" width="5" height="19" fill="#38C19D"/>
<rect x="1691" y="710" width="5" height="19" fill="#38C19D"/>
<rect x="1691" y="744" width="5" height="19" fill="#38C19D"/>
<rect x="1691" y="778" width="5" height="19" fill="#38C19D"/>
<rect x="1691" y="811" width="5" height="19" fill="#38C19D"/>
<rect x="1691" y="845" width="5" height="19" fill="#38C19D"/>
<rect x="1691" y="879" width="5" height="19" fill="#38C19D"/>
<rect x="1691" y="913" width="5" height="19" fill="#38C19D"/>
<rect x="1691" y="947" width="5" height="19" fill="#38C19D"/>
<rect x="1691" y="981" width="5" height="19" fill="#38C19D"/>
<rect x="1691" y="1015" width="5" height="19" fill="#38C19D"/>
<rect x="1691" y="1049" width="5" height="19" fill="#38C19D"/>
<rect x="1691" y="1083" width="5" height="19" fill="#38C19D"/>
<rect x="1691" y="1117" width="5" height="19" fill="#38C19D"/>
<rect x="1691" y="1151" width="5" height="19" fill="#38C19D"/>
<rect x="1691" y="1185" width="5" height="19" fill="#38C19D"/>
<rect x="1691" y="1219" width="5" height="19" fill="#38C19D"/>
<rect x="1691" y="1253" width="5" height="19" fill="#38C19D"/>
<rect x="1691" y="1287" width="5" height="19" fill="#38C19D"/>
<rect x="1691" y="1321" width="5" height="19" fill="#38C19D"/>
<rect x="1691" y="1355" width="5" height="19" fill="#38C19D"/>
<rect x="1691" y="1389" width="5" height="19" fill="#38C19D"/>
<rect x="1691" y="1423" width="5" height="19" fill="#38C19D"/>
<rect x="1691" y="1457" width="5" height="19" fill="#38C19D"/>
<rect x="1691" y="1492" width="5" height="19" fill="#38C19D"/>
<rect x="1691" y="1491" width="5" height="19" fill="#38C19D"/>
<rect x="1691" y="1525" width="5" height="10" fill="#38C19D"/>
<rect x="1852" y="5" width="5" height="11" fill="#38C19D"/>
<rect x="1852" y="30" width="5" height="19" fill="#38C19D"/>
<rect x="1852" y="64" width="5" height="19" fill="#38C19D"/>
<rect x="1852" y="98" width="5" height="19" fill="#38C19D"/>
<rect x="1852" y="132" width="5" height="19" fill="#38C19D"/>
<rect x="1852" y="166" width="5" height="19" fill="#38C19D"/>
<rect x="1852" y="200" width="5" height="19" fill="#38C19D"/>
<rect x="1852" y="234" width="5" height="19" fill="#38C19D"/>
<rect x="1852" y="268" width="5" height="19" fill="#38C19D"/>
<rect x="1852" y="302" width="5" height="19" fill="#38C19D"/>
<rect x="1852" y="336" width="5" height="19" fill="#38C19D"/>
<rect x="1852" y="370" width="5" height="19" fill="#38C19D"/>
<rect x="1852" y="404" width="5" height="19" fill="#38C19D"/>
<rect x="1852" y="438" width="5" height="19" fill="#38C19D"/>
<rect x="1852" y="472" width="5" height="19" fill="#38C19D"/>
<rect x="1852" y="506" width="5" height="19" fill="#38C19D"/>
<rect x="1852" y="540" width="5" height="19" fill="#38C19D"/>
<rect x="1852" y="574" width="5" height="19" fill="#38C19D"/>
<rect x="1852" y="608" width="5" height="19" fill="#38C19D"/>
<rect x="1852" y="642" width="5" height="19" fill="#38C19D"/>
<rect x="1852" y="676" width="5" height="19" fill="#38C19D"/>
<rect x="1852" y="710" width="5" height="19" fill="#38C19D"/>
<rect x="1852" y="744" width="5" height="19" fill="#38C19D"/>
<rect x="1852" y="778" width="5" height="19" fill="#38C19D"/>
<rect x="1852" y="811" width="5" height="19" fill="#38C19D"/>
<rect x="1852" y="845" width="5" height="19" fill="#38C19D"/>
<rect x="1852" y="879" width="5" height="19" fill="#38C19D"/>
<rect x="1852" y="913" width="5" height="19" fill="#38C19D"/>
<rect x="1852" y="947" width="5" height="19" fill="#38C19D"/>
<rect x="1852" y="981" width="5" height="19" fill="#38C19D"/>
<rect x="1852" y="1015" width="5" height="19" fill="#38C19D"/>
<rect x="1852" y="1049" width="5" height="19" fill="#38C19D"/>
<rect x="1852" y="1083" width="5" height="19" fill="#38C19D"/>
<rect x="1852" y="1117" width="5" height="19" fill="#38C19D"/>
<rect x="1852" y="1151" width="5" height="19" fill="#38C19D"/>
<rect x="1852" y="1185" width="5" height="19" fill="#38C19D"/>
<rect x="1852" y="1219" width="5" height="19" fill="#38C19D"/>
<rect x="1852" y="1253" width="5" height="19" fill="#38C19D"/>
<rect x="1852" y="1287" width="5" height="19" fill="#38C19D"/>
<rect x="1852" y="1321" width="5" height="19" fill="#38C19D"/>
<rect x="1852" y="1355" width="5" height="19" fill="#38C19D"/>
<rect x="1852" y="1389" width="5" height="19" fill="#38C19D"/>
<rect x="1852" y="1423" width="5" height="19" fill="#38C19D"/>
<rect x="1852" y="1457" width="5" height="19" fill="#38C19D"/>
<rect x="1852" y="1492" width="5" height="19" fill="#38C19D"/>
<rect x="1852" y="1491" width="5" height="19" fill="#38C19D"/>
<rect x="1852" y="1525" width="5" height="10" fill="#38C19D"/>
<rect x="2013" y="5" width="5" height="11" fill="#38C19D"/>
<rect x="2013" y="30" width="5" height="19" fill="#38C19D"/>
<rect x="2013" y="64" width="5" height="19" fill="#38C19D"/>
<rect x="2013" y="98" width="5" height="19" fill="#38C19D"/>
<rect x="2013" y="132" width="5" height="19" fill="#38C19D"/>
<rect x="2013" y="166" width="5" height="19" fill="#38C19D"/>
<rect x="2013" y="200" width="5" height="19" fill="#38C19D"/>
<rect x="2013" y="234" width="5" height="19" fill="#38C19D"/>
<rect x="2013" y="268" width="5" height="19" fill="#38C19D"/>
<rect x="2013" y="302" width="5" height="19" fill="#38C19D"/>
<rect x="2013" y="336" width="5" height="19" fill="#38C19D"/>
<rect x="2013" y="370" width="5" height="19" fill="#38C19D"/>
<rect x="2013" y="404" width="5" height="19" fill="#38C19D"/>
<rect x="2013" y="438" width="5" height="19" fill="#38C19D"/>
<rect x="2013" y="472" width="5" height="19" fill="#38C19D"/>
<rect x="2013" y="506" width="5" height="19" fill="#38C19D"/>
<rect x="2013" y="540" width="5" height="19" fill="#38C19D"/>
<rect x="2013" y="574" width="5" height="19" fill="#38C19D"/>
<rect x="2013" y="608" width="5" height="19" fill="#38C19D"/>
<rect x="2013" y="642" width="5" height="19" fill="#38C19D"/>
<rect x="2013" y="676" width="5" height="19" fill="#38C19D"/>
<rect x="2013" y="710" width="5" height="19" fill="#38C19D"/>
<rect x="2013" y="744" width="5" height="19" fill="#38C19D"/>
<rect x="2013" y="778" width="5" height="19" fill="#38C19D"/>
<rect x="2013" y="811" width="5" height="19" fill="#38C19D"/>
<rect x="2013" y="845" width="5" height="19" fill="#38C19D"/>
<rect x="2013" y="879" width="5" height="19" fill="#38C19D"/>
<rect x="2013" y="913" width="5" height="19" fill="#38C19D"/>
<rect x="2013" y="947" width="5" height="19" fill="#38C19D"/>
<rect x="2013" y="981" width="5" height="19" fill="#38C19D"/>
<rect x="2013" y="1015" width="5" height="19" fill="#38C19D"/>
<rect x="2013" y="1049" width="5" height="19" fill="#38C19D"/>
<rect x="2013" y="1083" width="5" height="19" fill="#38C19D"/>
<rect x="2013" y="1117" width="5" height="19" fill="#38C19D"/>
<rect x="2013" y="1151" width="5" height="19" fill="#38C19D"/>
<rect x="2013" y="1185" width="5" height="19" fill="#38C19D"/>
<rect x="2013" y="1219" width="5" height="19" fill="#38C19D"/>
<rect x="2013" y="1253" width="5" height="19" fill="#38C19D"/>
<rect x="2013" y="1287" width="5" height="19" fill="#38C19D"/>
<rect x="2013" y="1321" width="5" height="19" fill="#38C19D"/>
<rect x="2013" y="1355" width="5" height="19" fill="#38C19D"/>
<rect x="2013" y="1389" width="5" height="19" fill="#38C19D"/>
<rect x="2013" y="1423" width="5" height="19" fill="#38C19D"/>
<rect x="2013" y="1457" width="5" height="19" fill="#38C19D"/>
<rect x="2013" y="1492" width="5" height="19" fill="#38C19D"/>
<rect x="2013" y="1491" width="5" height="19" fill="#38C19D"/>
<rect x="2013" y="1525" width="5" height="10" fill="#38C19D"/>
<rect x="352" y="44" width="10" height="5" fill="#FF4040"/>
<rect x="377" y="44" width="17" height="5" fill="#FF4040"/>
<rect x="411" y="44" width="17" height="5" fill="#FF4040"/>
<rect x="444" y="44" width="17" height="5" fill="#FF4040"/>
<rect x="478" y="44" width="17" height="5" fill="#FF4040"/>
<rect x="512" y="44" width="17" height="5" fill="#FF4040"/>
<rect x="545" y="44" width="17" height="5" fill="#FF4040"/>
<rect x="577" y="44" width="17" height="5" fill="#FF4040"/>
<rect x="611" y="44" width="17" height="5" fill="#FF4040"/>
<rect x="644" y="44" width="17" height="5" fill="#FF4040"/>
<rect x="678" y="44" width="17" height="5" fill="#FF4040"/>
<rect x="712" y="44" width="17" height="5" fill="#FF4040"/>
<rect x="745" y="44" width="17" height="5" fill="#FF4040"/>
<rect x="779" y="44" width="17" height="5" fill="#FF4040"/>
<rect x="812" y="44" width="17" height="5" fill="#FF4040"/>
<rect x="844" y="44" width="17" height="5" fill="#FF4040"/>
<rect x="878" y="44" width="17" height="5" fill="#FF4040"/>
<rect x="912" y="44" width="17" height="5" fill="#FF4040"/>
<rect x="945" y="44" width="17" height="5" fill="#FF4040"/>
<rect x="979" y="44" width="17" height="5" fill="#FF4040"/>
<rect x="1013" y="44" width="17" height="5" fill="#FF4040"/>
<rect x="1145" y="44" width="17" height="5" fill="#FF4040"/>
<rect x="1278" y="42" width="17" height="5" fill="#FF4040"/>
<rect x="1412" y="41" width="17" height="5" fill="#FF4040"/>
<rect x="1044" y="44" width="17" height="5" fill="#FF4040"/>
<rect x="1176" y="44" width="17" height="5" fill="#FF4040"/>
<rect x="1312" y="42" width="17" height="5" fill="#FF4040"/>
<rect x="1446" y="40" width="17" height="5" fill="#FF4040"/>
<rect x="1546" y="40" width="17" height="5" fill="#FF4040"/>
<rect x="1613" y="40" width="17" height="5" fill="#FF4040"/>
<rect x="1713" y="40" width="17" height="5" fill="#FF4040"/>
<rect x="1078" y="44" width="17" height="5" fill="#FF4040"/>
<rect x="1212" y="42" width="17" height="5" fill="#FF4040"/>
<rect x="1345" y="42" width="17" height="5" fill="#FF4040"/>
<rect x="1480" y="40" width="17" height="5" fill="#FF4040"/>
<rect x="1580" y="40" width="17" height="5" fill="#FF4040"/>
<rect x="1642" y="40" width="17" height="5" fill="#FF4040"/>
<rect x="1746" y="39" width="17" height="5" fill="#FF4040"/>
<rect x="1112" y="44" width="17" height="5" fill="#FF4040"/>
<rect x="1245" y="42" width="17" height="5" fill="#FF4040"/>
<rect x="1379" y="42" width="17" height="5" fill="#FF4040"/>
<rect x="1514" y="40" width="17" height="5" fill="#FF4040"/>
<rect x="1676" y="40" width="17" height="5" fill="#FF4040"/>
<rect x="1779" y="39" width="17" height="5" fill="#FF4040"/>
<rect x="1813" y="39" width="17" height="5" fill="#FF4040"/>
<rect x="1846" y="38" width="17" height="5" fill="#FF4040"/>
<rect x="1880" y="38" width="17" height="5" fill="#FF4040"/>
<rect x="1914" y="38" width="17" height="5" fill="#FF4040"/>
<rect x="1947" y="38" width="17" height="5" fill="#FF4040"/>
<rect x="1980" y="38" width="17" height="5" fill="#FF4040"/>
<rect x="2014" y="38" width="17" height="5" fill="#FF4040"/>
<rect x="2046" y="38" width="9" height="5" fill="#FF4040"/>
<rect x="352" y="331" width="10" height="5" fill="#FF4040"/>
<rect x="377" y="331" width="17" height="5" fill="#FF4040"/>
<rect x="411" y="331" width="17" height="5" fill="#FF4040"/>
<rect x="444" y="331" width="17" height="5" fill="#FF4040"/>
<rect x="478" y="331" width="17" height="5" fill="#FF4040"/>
<rect x="512" y="331" width="17" height="5" fill="#FF4040"/>
<rect x="545" y="331" width="17" height="5" fill="#FF4040"/>
<rect x="577" y="331" width="17" height="5" fill="#FF4040"/>
<rect x="611" y="331" width="17" height="5" fill="#FF4040"/>
<rect x="644" y="331" width="17" height="5" fill="#FF4040"/>
<rect x="678" y="331" width="17" height="5" fill="#FF4040"/>
<rect x="712" y="331" width="17" height="5" fill="#FF4040"/>
<rect x="745" y="331" width="17" height="5" fill="#FF4040"/>
<rect x="779" y="331" width="17" height="5" fill="#FF4040"/>
<rect x="812" y="331" width="17" height="5" fill="#FF4040"/>
<rect x="844" y="331" width="17" height="5" fill="#FF4040"/>
<rect x="878" y="331" width="17" height="5" fill="#FF4040"/>
<rect x="912" y="331" width="17" height="5" fill="#FF4040"/>
<rect x="945" y="331" width="17" height="5" fill="#FF4040"/>
<rect x="979" y="331" width="17" height="5" fill="#FF4040"/>
<rect x="1013" y="331" width="17" height="5" fill="#FF4040"/>
<rect x="1145" y="331" width="17" height="5" fill="#FF4040"/>
<rect x="1278" y="329" width="17" height="5" fill="#FF4040"/>
<rect x="1412" y="328" width="17" height="5" fill="#FF4040"/>
<rect x="1044" y="331" width="17" height="5" fill="#FF4040"/>
<rect x="1176" y="331" width="17" height="5" fill="#FF4040"/>
<rect x="1312" y="329" width="17" height="5" fill="#FF4040"/>
<rect x="1446" y="327" width="17" height="5" fill="#FF4040"/>
<rect x="1546" y="327" width="17" height="5" fill="#FF4040"/>
<rect x="1613" y="327" width="17" height="5" fill="#FF4040"/>
<rect x="1713" y="327" width="17" height="5" fill="#FF4040"/>
<rect x="1078" y="331" width="17" height="5" fill="#FF4040"/>
<rect x="1212" y="329" width="17" height="5" fill="#FF4040"/>
<rect x="1345" y="329" width="17" height="5" fill="#FF4040"/>
<rect x="1480" y="327" width="17" height="5" fill="#FF4040"/>
<rect x="1580" y="327" width="17" height="5" fill="#FF4040"/>
<rect x="1642" y="327" width="17" height="5" fill="#FF4040"/>
<rect x="1746" y="326" width="17" height="5" fill="#FF4040"/>
<rect x="1112" y="331" width="17" height="5" fill="#FF4040"/>
<rect x="1245" y="329" width="17" height="5" fill="#FF4040"/>
<rect x="1379" y="329" width="17" height="5" fill="#FF4040"/>
<rect x="1514" y="327" width="17" height="5" fill="#FF4040"/>
<rect x="1676" y="327" width="17" height="5" fill="#FF4040"/>
<rect x="1779" y="326" width="17" height="5" fill="#FF4040"/>
<rect x="1813" y="326" width="17" height="5" fill="#FF4040"/>
<rect x="1846" y="325" width="17" height="5" fill="#FF4040"/>
<rect x="1880" y="325" width="17" height="5" fill="#FF4040"/>
<rect x="1914" y="325" width="17" height="5" fill="#FF4040"/>
<rect x="1947" y="325" width="17" height="5" fill="#FF4040"/>
<rect x="1980" y="325" width="17" height="5" fill="#FF4040"/>
<rect x="2014" y="325" width="17" height="5" fill="#FF4040"/>
<rect x="2046" y="325" width="9" height="5" fill="#FF4040"/>
<rect x="352" y="618" width="10" height="5" fill="#FF4040"/>
<rect x="377" y="618" width="17" height="5" fill="#FF4040"/>
<rect x="411" y="618" width="17" height="5" fill="#FF4040"/>
<rect x="444" y="618" width="17" height="5" fill="#FF4040"/>
<rect x="478" y="618" width="17" height="5" fill="#FF4040"/>
<rect x="512" y="618" width="17" height="5" fill="#FF4040"/>
<rect x="545" y="618" width="17" height="5" fill="#FF4040"/>
<rect x="577" y="618" width="17" height="5" fill="#FF4040"/>
<rect x="611" y="618" width="17" height="5" fill="#FF4040"/>
<rect x="644" y="618" width="17" height="5" fill="#FF4040"/>
<rect x="678" y="618" width="17" height="5" fill="#FF4040"/>
<rect x="712" y="618" width="17" height="5" fill="#FF4040"/>
<rect x="745" y="618" width="17" height="5" fill="#FF4040"/>
<rect x="779" y="618" width="17" height="5" fill="#FF4040"/>
<rect x="812" y="618" width="17" height="5" fill="#FF4040"/>
<rect x="844" y="618" width="17" height="5" fill="#FF4040"/>
<rect x="878" y="618" width="17" height="5" fill="#FF4040"/>
<rect x="912" y="618" width="17" height="5" fill="#FF4040"/>
<rect x="945" y="618" width="17" height="5" fill="#FF4040"/>
<rect x="979" y="618" width="17" height="5" fill="#FF4040"/>
<rect x="1013" y="618" width="17" height="5" fill="#FF4040"/>
<rect x="1145" y="618" width="17" height="5" fill="#FF4040"/>
<rect x="1278" y="616" width="17" height="5" fill="#FF4040"/>
<rect x="1412" y="615" width="17" height="5" fill="#FF4040"/>
<rect x="1044" y="618" width="17" height="5" fill="#FF4040"/>
<rect x="1176" y="618" width="17" height="5" fill="#FF4040"/>
<rect x="1312" y="616" width="17" height="5" fill="#FF4040"/>
<rect x="1446" y="614" width="17" height="5" fill="#FF4040"/>
<rect x="1546" y="614" width="17" height="5" fill="#FF4040"/>
<rect x="1613" y="614" width="17" height="5" fill="#FF4040"/>
<rect x="1713" y="614" width="17" height="5" fill="#FF4040"/>
<rect x="1078" y="618" width="17" height="5" fill="#FF4040"/>
<rect x="1212" y="616" width="17" height="5" fill="#FF4040"/>
<rect x="1345" y="616" width="17" height="5" fill="#FF4040"/>
<rect x="1480" y="614" width="17" height="5" fill="#FF4040"/>
<rect x="1580" y="614" width="17" height="5" fill="#FF4040"/>
<rect x="1642" y="614" width="17" height="5" fill="#FF4040"/>
<rect x="1746" y="613" width="17" height="5" fill="#FF4040"/>
<rect x="1112" y="618" width="17" height="5" fill="#FF4040"/>
<rect x="1245" y="616" width="17" height="5" fill="#FF4040"/>
<rect x="1379" y="616" width="17" height="5" fill="#FF4040"/>
<rect x="1514" y="614" width="17" height="5" fill="#FF4040"/>
<rect x="1676" y="614" width="17" height="5" fill="#FF4040"/>
<rect x="1779" y="613" width="17" height="5" fill="#FF4040"/>
<rect x="1813" y="613" width="17" height="5" fill="#FF4040"/>
<rect x="1846" y="612" width="17" height="5" fill="#FF4040"/>
<rect x="1880" y="612" width="17" height="5" fill="#FF4040"/>
<rect x="1914" y="612" width="17" height="5" fill="#FF4040"/>
<rect x="1947" y="612" width="17" height="5" fill="#FF4040"/>
<rect x="1980" y="612" width="17" height="5" fill="#FF4040"/>
<rect x="2014" y="612" width="17" height="5" fill="#FF4040"/>
<rect x="2046" y="612" width="9" height="5" fill="#FF4040"/>
<rect x="357" y="904" width="10" height="5" fill="#FF4040"/>
<rect x="382" y="904" width="17" height="5" fill="#FF4040"/>
<rect x="416" y="904" width="17" height="5" fill="#FF4040"/>
<rect x="449" y="904" width="17" height="5" fill="#FF4040"/>
<rect x="483" y="904" width="17" height="5" fill="#FF4040"/>
<rect x="517" y="904" width="17" height="5" fill="#FF4040"/>
<rect x="550" y="904" width="17" height="5" fill="#FF4040"/>
<rect x="582" y="904" width="17" height="5" fill="#FF4040"/>
<rect x="616" y="904" width="17" height="5" fill="#FF4040"/>
<rect x="649" y="904" width="17" height="5" fill="#FF4040"/>
<rect x="683" y="904" width="17" height="5" fill="#FF4040"/>
<rect x="717" y="904" width="17" height="5" fill="#FF4040"/>
<rect x="750" y="904" width="17" height="5" fill="#FF4040"/>
<rect x="784" y="904" width="17" height="5" fill="#FF4040"/>
<rect x="817" y="904" width="17" height="5" fill="#FF4040"/>
<rect x="849" y="904" width="17" height="5" fill="#FF4040"/>
<rect x="883" y="904" width="17" height="5" fill="#FF4040"/>
<rect x="917" y="904" width="17" height="5" fill="#FF4040"/>
<rect x="950" y="904" width="17" height="5" fill="#FF4040"/>
<rect x="984" y="904" width="17" height="5" fill="#FF4040"/>
<rect x="1018" y="904" width="17" height="5" fill="#FF4040"/>
<rect x="1150" y="904" width="17" height="5" fill="#FF4040"/>
<rect x="1283" y="902" width="17" height="5" fill="#FF4040"/>
<rect x="1417" y="901" width="17" height="5" fill="#FF4040"/>
<rect x="1049" y="904" width="17" height="5" fill="#FF4040"/>
<rect x="1181" y="904" width="17" height="5" fill="#FF4040"/>
<rect x="1317" y="902" width="17" height="5" fill="#FF4040"/>
<rect x="1451" y="900" width="17" height="5" fill="#FF4040"/>
<rect x="1551" y="900" width="17" height="5" fill="#FF4040"/>
<rect x="1618" y="900" width="17" height="5" fill="#FF4040"/>
<rect x="1718" y="900" width="17" height="5" fill="#FF4040"/>
<rect x="1083" y="904" width="17" height="5" fill="#FF4040"/>
<rect x="1217" y="902" width="17" height="5" fill="#FF4040"/>
<rect x="1350" y="902" width="17" height="5" fill="#FF4040"/>
<rect x="1485" y="900" width="17" height="5" fill="#FF4040"/>
<rect x="1585" y="900" width="17" height="5" fill="#FF4040"/>
<rect x="1647" y="900" width="17" height="5" fill="#FF4040"/>
<rect x="1751" y="899" width="17" height="5" fill="#FF4040"/>
<rect x="1117" y="904" width="17" height="5" fill="#FF4040"/>
<rect x="1250" y="902" width="17" height="5" fill="#FF4040"/>
<rect x="1384" y="902" width="17" height="5" fill="#FF4040"/>
<rect x="1519" y="900" width="17" height="5" fill="#FF4040"/>
<rect x="1681" y="900" width="17" height="5" fill="#FF4040"/>
<rect x="1784" y="899" width="17" height="5" fill="#FF4040"/>
<rect x="1818" y="899" width="17" height="5" fill="#FF4040"/>
<rect x="1851" y="898" width="17" height="5" fill="#FF4040"/>
<rect x="1885" y="898" width="17" height="5" fill="#FF4040"/>
<rect x="1919" y="898" width="17" height="5" fill="#FF4040"/>
<rect x="1952" y="898" width="17" height="5" fill="#FF4040"/>
<rect x="1985" y="898" width="17" height="5" fill="#FF4040"/>
<rect x="2019" y="898" width="17" height="5" fill="#FF4040"/>
<rect x="2051" y="898" width="9" height="5" fill="#FF4040"/>
<rect x="352" y="1190" width="10" height="5" fill="#FF4040"/>
<rect x="377" y="1190" width="17" height="5" fill="#FF4040"/>
<rect x="411" y="1190" width="17" height="5" fill="#FF4040"/>
<rect x="444" y="1190" width="17" height="5" fill="#FF4040"/>
<rect x="478" y="1190" width="17" height="5" fill="#FF4040"/>
<rect x="512" y="1190" width="17" height="5" fill="#FF4040"/>
<rect x="545" y="1190" width="17" height="5" fill="#FF4040"/>
<rect x="577" y="1190" width="17" height="5" fill="#FF4040"/>
<rect x="611" y="1190" width="17" height="5" fill="#FF4040"/>
<rect x="644" y="1190" width="17" height="5" fill="#FF4040"/>
<rect x="678" y="1190" width="17" height="5" fill="#FF4040"/>
<rect x="712" y="1190" width="17" height="5" fill="#FF4040"/>
<rect x="745" y="1190" width="17" height="5" fill="#FF4040"/>
<rect x="779" y="1190" width="17" height="5" fill="#FF4040"/>
<rect x="812" y="1190" width="17" height="5" fill="#FF4040"/>
<rect x="844" y="1190" width="17" height="5" fill="#FF4040"/>
<rect x="878" y="1190" width="17" height="5" fill="#FF4040"/>
<rect x="912" y="1190" width="17" height="5" fill="#FF4040"/>
<rect x="945" y="1190" width="17" height="5" fill="#FF4040"/>
<rect x="979" y="1190" width="17" height="5" fill="#FF4040"/>
<rect x="1013" y="1190" width="17" height="5" fill="#FF4040"/>
<rect x="1145" y="1190" width="17" height="5" fill="#FF4040"/>
<rect x="1278" y="1188" width="17" height="5" fill="#FF4040"/>
<rect x="1412" y="1187" width="17" height="5" fill="#FF4040"/>
<rect x="1044" y="1190" width="17" height="5" fill="#FF4040"/>
<rect x="1176" y="1190" width="17" height="5" fill="#FF4040"/>
<rect x="1312" y="1188" width="17" height="5" fill="#FF4040"/>
<rect x="1446" y="1186" width="17" height="5" fill="#FF4040"/>
<rect x="1546" y="1186" width="17" height="5" fill="#FF4040"/>
<rect x="1613" y="1186" width="17" height="5" fill="#FF4040"/>
<rect x="1713" y="1186" width="17" height="5" fill="#FF4040"/>
<rect x="1078" y="1190" width="17" height="5" fill="#FF4040"/>
<rect x="1212" y="1188" width="17" height="5" fill="#FF4040"/>
<rect x="1345" y="1188" width="17" height="5" fill="#FF4040"/>
<rect x="1480" y="1186" width="17" height="5" fill="#FF4040"/>
<rect x="1580" y="1186" width="17" height="5" fill="#FF4040"/>
<rect x="1642" y="1186" width="17" height="5" fill="#FF4040"/>
<rect x="1746" y="1185" width="17" height="5" fill="#FF4040"/>
<rect x="1112" y="1190" width="17" height="5" fill="#FF4040"/>
<rect x="1245" y="1188" width="17" height="5" fill="#FF4040"/>
<rect x="1379" y="1188" width="17" height="5" fill="#FF4040"/>
<rect x="1514" y="1186" width="17" height="5" fill="#FF4040"/>
<rect x="1676" y="1186" width="17" height="5" fill="#FF4040"/>
<rect x="1779" y="1185" width="17" height="5" fill="#FF4040"/>
<rect x="1813" y="1185" width="17" height="5" fill="#FF4040"/>
<rect x="1846" y="1184" width="17" height="5" fill="#FF4040"/>
<rect x="1880" y="1184" width="17" height="5" fill="#FF4040"/>
<rect x="1914" y="1184" width="17" height="5" fill="#FF4040"/>
<rect x="1947" y="1184" width="17" height="5" fill="#FF4040"/>
<rect x="1980" y="1184" width="17" height="5" fill="#FF4040"/>
<rect x="2014" y="1184" width="17" height="5" fill="#FF4040"/>
<rect x="2046" y="1184" width="9" height="5" fill="#FF4040"/>
<rect x="358" y="1480" width="10" height="5" fill="#FF4040"/>
<rect x="383" y="1480" width="17" height="5" fill="#FF4040"/>
<rect x="417" y="1480" width="17" height="5" fill="#FF4040"/>
<rect x="450" y="1480" width="17" height="5" fill="#FF4040"/>
<rect x="484" y="1480" width="17" height="5" fill="#FF4040"/>
<rect x="518" y="1480" width="17" height="5" fill="#FF4040"/>
<rect x="551" y="1480" width="17" height="5" fill="#FF4040"/>
<rect x="583" y="1480" width="17" height="5" fill="#FF4040"/>
<rect x="617" y="1480" width="17" height="5" fill="#FF4040"/>
<rect x="650" y="1480" width="17" height="5" fill="#FF4040"/>
<rect x="684" y="1480" width="17" height="5" fill="#FF4040"/>
<rect x="718" y="1480" width="17" height="5" fill="#FF4040"/>
<rect x="751" y="1480" width="17" height="5" fill="#FF4040"/>
<rect x="785" y="1480" width="17" height="5" fill="#FF4040"/>
<rect x="818" y="1480" width="17" height="5" fill="#FF4040"/>
<rect x="850" y="1480" width="17" height="5" fill="#FF4040"/>
<rect x="884" y="1480" width="17" height="5" fill="#FF4040"/>
<rect x="918" y="1480" width="17" height="5" fill="#FF4040"/>
<rect x="951" y="1480" width="17" height="5" fill="#FF4040"/>
<rect x="985" y="1480" width="17" height="5" fill="#FF4040"/>
<rect x="1019" y="1480" width="17" height="5" fill="#FF4040"/>
<rect x="1151" y="1480" width="17" height="5" fill="#FF4040"/>
<rect x="1284" y="1478" width="17" height="5" fill="#FF4040"/>
<rect x="1418" y="1477" width="17" height="5" fill="#FF4040"/>
<rect x="1050" y="1480" width="17" height="5" fill="#FF4040"/>
<rect x="1182" y="1480" width="17" height="5" fill="#FF4040"/>
<rect x="1318" y="1478" width="17" height="5" fill="#FF4040"/>
<rect x="1452" y="1476" width="17" height="5" fill="#FF4040"/>
<rect x="1552" y="1476" width="17" height="5" fill="#FF4040"/>
<rect x="1619" y="1476" width="17" height="5" fill="#FF4040"/>
<rect x="1719" y="1476" width="17" height="5" fill="#FF4040"/>
<rect x="1084" y="1480" width="17" height="5" fill="#FF4040"/>
<rect x="1218" y="1478" width="17" height="5" fill="#FF4040"/>
<rect x="1351" y="1478" width="17" height="5" fill="#FF4040"/>
<rect x="1486" y="1476" width="17" height="5" fill="#FF4040"/>
<rect x="1586" y="1476" width="17" height="5" fill="#FF4040"/>
<rect x="1648" y="1476" width="17" height="5" fill="#FF4040"/>
<rect x="1752" y="1475" width="17" height="5" fill="#FF4040"/>
<rect x="1118" y="1480" width="17" height="5" fill="#FF4040"/>
<rect x="1251" y="1478" width="17" height="5" fill="#FF4040"/>
<rect x="1385" y="1478" width="17" height="5" fill="#FF4040"/>
<rect x="1520" y="1476" width="17" height="5" fill="#FF4040"/>
<rect x="1682" y="1476" width="17" height="5" fill="#FF4040"/>
<rect x="1785" y="1475" width="17" height="5" fill="#FF4040"/>
<rect x="1819" y="1475" width="17" height="5" fill="#FF4040"/>
<rect x="1852" y="1474" width="17" height="5" fill="#FF4040"/>
<rect x="1886" y="1474" width="17" height="5" fill="#FF4040"/>
<rect x="1920" y="1474" width="17" height="5" fill="#FF4040"/>
<rect x="1953" y="1474" width="17" height="5" fill="#FF4040"/>
<rect x="1986" y="1474" width="17" height="5" fill="#FF4040"/>
<rect x="2020" y="1474" width="17" height="5" fill="#FF4040"/>
<rect x="2052" y="1474" width="9" height="5" fill="#FF4040"/>
<rect x="1507" y="1099" width="554" height="459" fill="black"/>
<rect x="1511" y="1103" width="546" height="451" fill="white"/>
<path d="M410.5 1478H402.5V1262.5H437.5L438 667.5L454.5 650L455 217H469.5V193.5H490.5V149.312H505.5V99H528.5V84H2019V92.5H535V107.5H513.5V156.5H497V200H478L477.5 223.5H463.5L463 654.5L446.5 672V1270H410.5V1478Z" fill="#38C19D"/>
<path d="M410.5 1261H402.5V1185L419 1157.5V711.5L438 667.5V436L480 435.5V286H494.5L495 71.5L554 71L589 50.5H2019V58L591 59L556 80.5H503.5V293H487L486 444H444.5L444 669L427.5 711.5L427 1160L411 1185L410.5 1261Z" fill="#8B50D7"/>
<path d="M1750.98 1200V1157.7H1757.22V1194.66H1777.98V1200H1750.98ZM1784.09 1200V1157.7H1798.73C1803.49 1157.7 1807.51 1158.52 1810.79 1160.16C1814.11 1161.8 1816.61 1164.2 1818.29 1167.36C1820.01 1170.48 1820.87 1174.3 1820.87 1178.82C1820.87 1183.3 1820.01 1187.12 1818.29 1190.28C1816.61 1193.44 1814.11 1195.86 1810.79 1197.54C1807.51 1199.18 1803.49 1200 1798.73 1200H1784.09ZM1790.33 1194.78H1798.37C1803.81 1194.78 1807.85 1193.46 1810.49 1190.82C1813.17 1188.18 1814.51 1184.18 1814.51 1178.82C1814.51 1173.46 1813.17 1169.48 1810.49 1166.88C1807.85 1164.24 1803.81 1162.92 1798.37 1162.92H1790.33V1194.78ZM1824.12 1200L1842.96 1157.7H1848.3L1867.44 1200H1861.02L1855.8 1188L1858.44 1189.68H1832.82L1835.64 1188L1830.42 1200H1824.12ZM1845.54 1164.54L1836.42 1186.08L1834.98 1184.7H1856.28L1855.08 1186.08L1845.78 1164.54H1845.54Z" fill="black"/>
<path d="M1766.26 1301.54C1762.86 1301.54 1759.78 1301.12 1757.02 1300.28C1754.26 1299.4 1751.86 1298.16 1749.82 1296.56L1751.92 1291.64C1753.28 1292.68 1754.68 1293.54 1756.12 1294.22C1757.6 1294.9 1759.16 1295.42 1760.8 1295.78C1762.48 1296.1 1764.3 1296.26 1766.26 1296.26C1769.62 1296.26 1772.08 1295.66 1773.64 1294.46C1775.24 1293.26 1776.04 1291.68 1776.04 1289.72C1776.04 1288.04 1775.48 1286.74 1774.36 1285.82C1773.28 1284.9 1771.36 1284.16 1768.6 1283.6L1762.06 1282.28C1758.18 1281.48 1755.28 1280.18 1753.36 1278.38C1751.48 1276.54 1750.54 1274.04 1750.54 1270.88C1750.54 1268.32 1751.22 1266.08 1752.58 1264.16C1753.94 1262.24 1755.82 1260.76 1758.22 1259.72C1760.66 1258.68 1763.5 1258.16 1766.74 1258.16C1769.74 1258.16 1772.5 1258.6 1775.02 1259.48C1777.54 1260.32 1779.66 1261.58 1781.38 1263.26L1779.34 1268C1777.54 1266.44 1775.62 1265.3 1773.58 1264.58C1771.54 1263.82 1769.22 1263.44 1766.62 1263.44C1763.54 1263.44 1761.12 1264.08 1759.36 1265.36C1757.64 1266.64 1756.78 1268.38 1756.78 1270.58C1756.78 1272.34 1757.32 1273.72 1758.4 1274.72C1759.52 1275.72 1761.36 1276.48 1763.92 1277L1770.46 1278.26C1774.5 1279.1 1777.48 1280.4 1779.4 1282.16C1781.32 1283.88 1782.28 1286.26 1782.28 1289.3C1782.28 1291.74 1781.62 1293.88 1780.3 1295.72C1779.02 1297.56 1777.18 1299 1774.78 1300.04C1772.38 1301.04 1769.54 1301.54 1766.26 1301.54ZM1802.75 1301L1784.15 1258.7H1790.87L1806.71 1295.78H1804.55L1820.45 1258.7H1826.87L1808.21 1301H1802.75ZM1831.79 1301V1258.7H1837.25L1853.57 1295.48H1851.77L1868.09 1258.7H1873.49V1301H1867.85V1267.16H1869.83L1854.59 1301H1850.69L1835.45 1267.16H1837.49V1301H1831.79Z" fill="black"/>
<path d="M1751.98 1402V1359.7H1769.86C1774.38 1359.7 1777.88 1360.78 1780.36 1362.94C1782.84 1365.06 1784.08 1368.04 1784.08 1371.88C1784.08 1374.4 1783.52 1376.56 1782.4 1378.36C1781.28 1380.16 1779.7 1381.54 1777.66 1382.5C1775.62 1383.42 1773.22 1383.88 1770.46 1383.88L1771.42 1382.92H1773.04C1774.68 1382.92 1776.14 1383.34 1777.42 1384.18C1778.74 1385.02 1779.82 1386.36 1780.66 1388.2L1786.72 1402H1779.88L1773.88 1388.14C1773.28 1386.5 1772.34 1385.44 1771.06 1384.96C1769.82 1384.48 1768.28 1384.24 1766.44 1384.24H1758.22V1402H1751.98ZM1758.22 1379.5H1768.84C1771.84 1379.5 1774.1 1378.86 1775.62 1377.58C1777.18 1376.3 1777.96 1374.46 1777.96 1372.06C1777.96 1369.62 1777.18 1367.78 1775.62 1366.54C1774.1 1365.3 1771.84 1364.68 1768.84 1364.68H1758.22V1379.5ZM1793.82 1402V1359.7H1820.94V1364.68H1800.06V1378.24H1819.56V1383.22H1800.06V1402H1793.82Z" fill="black"/>
<path d="M1770 1503.54C1765.68 1503.54 1762 1502.66 1758.96 1500.9C1755.92 1499.14 1753.58 1496.64 1751.94 1493.4C1750.34 1490.12 1749.54 1486.26 1749.54 1481.82C1749.54 1477.38 1750.34 1473.54 1751.94 1470.3C1753.58 1467.06 1755.92 1464.56 1758.96 1462.8C1762 1461.04 1765.68 1460.16 1770 1460.16C1773 1460.16 1775.68 1460.6 1778.04 1461.48C1780.4 1462.36 1782.46 1463.64 1784.22 1465.32L1782.06 1470.3C1780.14 1468.66 1778.26 1467.48 1776.42 1466.76C1774.62 1466.04 1772.52 1465.68 1770.12 1465.68C1765.56 1465.68 1762.08 1467.08 1759.68 1469.88C1757.28 1472.68 1756.08 1476.66 1756.08 1481.82C1756.08 1486.98 1757.28 1490.98 1759.68 1493.82C1762.08 1496.62 1765.56 1498.02 1770.12 1498.02C1772.52 1498.02 1774.62 1497.66 1776.42 1496.94C1778.26 1496.22 1780.14 1495.02 1782.06 1493.34L1784.22 1498.32C1782.46 1500 1780.4 1501.3 1778.04 1502.22C1775.68 1503.1 1773 1503.54 1770 1503.54ZM1789.33 1481.82C1789.33 1477.38 1790.11 1473.54 1791.67 1470.3C1793.23 1467.06 1795.49 1464.56 1798.45 1462.8C1801.45 1461.04 1805.01 1460.16 1809.13 1460.16C1813.21 1460.16 1816.73 1461.04 1819.69 1462.8C1822.65 1464.56 1824.93 1467.06 1826.53 1470.3C1828.17 1473.54 1828.99 1477.36 1828.99 1481.76C1828.99 1486.2 1828.17 1490.06 1826.53 1493.34C1824.93 1496.58 1822.63 1499.1 1819.63 1500.9C1816.67 1502.66 1813.17 1503.54 1809.13 1503.54C1805.01 1503.54 1801.47 1502.66 1798.51 1500.9C1795.55 1499.1 1793.27 1496.58 1791.67 1493.34C1790.11 1490.06 1789.33 1486.22 1789.33 1481.82ZM1795.87 1481.82C1795.87 1486.94 1796.99 1490.94 1799.23 1493.82C1801.47 1496.7 1804.77 1498.14 1809.13 1498.14C1813.37 1498.14 1816.65 1496.72 1818.97 1493.88C1821.29 1491 1822.45 1486.98 1822.45 1481.82C1822.45 1476.66 1821.29 1472.66 1818.97 1469.82C1816.69 1466.98 1813.41 1465.56 1809.13 1465.56C1804.77 1465.56 1801.47 1466.98 1799.23 1469.82C1796.99 1472.66 1795.87 1476.66 1795.87 1481.82ZM1837.58 1503V1460.7H1843.04L1859.36 1497.48H1857.56L1873.88 1460.7H1879.28V1503H1873.64V1469.16H1875.62L1860.38 1503H1856.48L1841.24 1469.16H1843.28V1503H1837.58ZM1889.38 1503V1460.7H1907.02C1911.58 1460.7 1915.08 1461.66 1917.52 1463.58C1920 1465.5 1921.24 1468.2 1921.24 1471.68C1921.24 1474.28 1920.46 1476.46 1918.9 1478.22C1917.34 1479.98 1915.2 1481.16 1912.48 1481.76V1480.86C1915.6 1481.26 1918.02 1482.36 1919.74 1484.16C1921.46 1485.96 1922.32 1488.34 1922.32 1491.3C1922.32 1495.06 1921.04 1497.96 1918.48 1500C1915.96 1502 1912.4 1503 1907.8 1503H1889.38ZM1895.44 1498.14H1907.14C1909.98 1498.14 1912.2 1497.6 1913.8 1496.52C1915.44 1495.44 1916.26 1493.62 1916.26 1491.06C1916.26 1488.5 1915.44 1486.68 1913.8 1485.6C1912.2 1484.52 1909.98 1483.98 1907.14 1483.98H1895.44V1498.14ZM1895.44 1479.18H1906.06C1909.1 1479.18 1911.38 1478.6 1912.9 1477.44C1914.42 1476.28 1915.18 1474.58 1915.18 1472.34C1915.18 1470.1 1914.42 1468.4 1912.9 1467.24C1911.38 1466.08 1909.1 1465.5 1906.06 1465.5H1895.44V1479.18ZM1940.01 1503V1483.14L1941.39 1487.1L1923.57 1460.7H1930.77L1944.03 1480.92H1942.53L1955.79 1460.7H1962.75L1944.99 1487.1L1946.25 1483.14V1503H1940.01Z" fill="black"/>
<path d="M406.5 1111.5V1103H417V1047H440V1017H459V915.5H476V883H555V817H579V722H596V701H625.5V549.5H644.5V416.845H701.24V379H766.5V351.5H1126.5V330.5H1156V307.5L1217 307V284.5L1293 284V259H1341L1352 215L1444.5 214.5V185.5L1490.5 185V156L1570.5 155.5V122H1688.5V80H2019V85L1695 85.5L1694.8 130H1577V162H1497V191.5H1450.5V221H1358L1347 267.5H1299V290.5H1223.5V313.5H1162V338.5H1132.5V360H772.5V385L707.5 385.5V425.5H650.602V555.629H631.5V707H602V728.5H585.5V825H562V890.5H482V922H467.5V1023H448.5V1054.5H425.5V1111.5H406.5Z" fill="black"/>
<rect x="1609" y="1476" width="113" height="8" fill="#FF4040"/>
<rect x="1609" y="1375" width="113" height="8" fill="#6416CA"/>
<rect x="1609" y="1274" width="113" height="8" fill="#38C19D"/>
<rect x="1609" y="1173" width="113" height="8" fill="black"/>
<path d="M226 9.68H231.568V20.176H265.488V23.504L257.68 10.704H264.08L271.12 22.032V26.832H231.568V36.688H226V9.68ZM218.128 47.415L220.304 44.599C221.627 45.8363 222.843 46.6683 223.952 47.095C225.061 47.5643 226.213 47.799 227.408 47.799L226 49.207V44.151H233.616V51.767H228.432C226.512 51.767 224.741 51.447 223.12 50.807C221.456 50.167 219.792 49.0363 218.128 47.415ZM225.424 74.7625C225.424 69.5572 227.408 65.5465 231.376 62.7305C235.387 59.9572 241.125 58.5705 248.592 58.5705C256.187 58.5705 261.925 59.9572 265.808 62.7305C269.733 65.5465 271.696 69.5572 271.696 74.7625C271.696 80.0105 269.733 84.0212 265.808 86.7945C261.925 89.5678 256.208 90.9545 248.656 90.9545C241.147 90.9545 235.387 89.5465 231.376 86.7305C227.408 83.9572 225.424 79.9678 225.424 74.7625ZM230.992 74.7625C230.992 78.0478 232.421 80.4798 235.28 82.0585C238.139 83.6798 242.597 84.4905 248.656 84.4905C254.757 84.4905 259.195 83.6798 261.968 82.0585C264.784 80.4798 266.192 78.0478 266.192 74.7625C266.192 71.5198 264.784 69.0878 261.968 67.4665C259.195 65.8452 254.779 65.0345 248.72 65.0345C242.619 65.0345 238.139 65.8452 235.28 67.4665C232.421 69.1305 230.992 71.5625 230.992 74.7625Z" fill="black"/>
<path d="M227.424 307.2C227.424 301.995 229.408 297.984 233.376 295.168C237.387 292.395 243.125 291.008 250.592 291.008C258.187 291.008 263.925 292.395 267.808 295.168C271.733 297.984 273.696 301.995 273.696 307.2C273.696 312.448 271.733 316.459 267.808 319.232C263.925 322.005 258.208 323.392 250.656 323.392C243.147 323.392 237.387 321.984 233.376 319.168C229.408 316.395 227.424 312.405 227.424 307.2ZM232.992 307.2C232.992 310.485 234.421 312.917 237.28 314.496C240.139 316.117 244.597 316.928 250.656 316.928C256.757 316.928 261.195 316.117 263.968 314.496C266.784 312.917 268.192 310.485 268.192 307.2C268.192 303.957 266.784 301.525 263.968 299.904C261.195 298.283 256.779 297.472 250.72 297.472C244.619 297.472 240.139 298.283 237.28 299.904C234.421 301.568 232.992 304 232.992 307.2ZM220.128 333.415L222.304 330.599C223.627 331.836 224.843 332.668 225.952 333.095C227.061 333.564 228.213 333.799 229.408 333.799L228 335.207V330.151H235.616V337.767H230.432C228.512 337.767 226.741 337.447 225.12 336.807C223.456 336.167 221.792 335.036 220.128 333.415ZM227.424 360.763C227.424 355.557 228.533 351.504 230.752 348.603C232.971 345.701 236.064 344.251 240.032 344.251C243.189 344.251 245.792 345.211 247.84 347.131C249.931 349.051 251.189 351.568 251.616 354.683H250.464C251.061 351.867 252.363 349.605 254.368 347.899C256.373 346.235 258.805 345.403 261.664 345.403C265.419 345.403 268.363 346.768 270.496 349.499C272.629 352.229 273.696 355.984 273.696 360.763C273.696 365.584 272.629 369.36 270.496 372.091C268.363 374.821 265.419 376.187 261.664 376.187C258.805 376.187 256.352 375.376 254.304 373.755C252.299 372.176 251.04 370 250.528 367.227H251.616C251.189 370.299 249.931 372.752 247.84 374.587C245.792 376.421 243.189 377.339 240.032 377.339C236.064 377.339 232.971 375.888 230.752 372.987C228.533 370.085 227.424 366.011 227.424 360.763ZM232.672 360.763C232.672 364.219 233.312 366.8 234.592 368.507C235.915 370.213 237.877 371.067 240.48 371.067C243.083 371.067 245.024 370.213 246.304 368.507C247.584 366.8 248.224 364.219 248.224 360.763C248.224 357.307 247.584 354.725 246.304 353.019C245.024 351.312 243.083 350.459 240.48 350.459C237.877 350.459 235.915 351.312 234.592 353.019C233.312 354.768 232.672 357.349 232.672 360.763ZM253.472 360.763C253.472 363.749 254.133 366.011 255.456 367.547C256.821 369.125 258.677 369.915 261.024 369.915C263.328 369.915 265.141 369.125 266.464 367.547C267.787 366.011 268.448 363.749 268.448 360.763C268.448 357.819 267.787 355.557 266.464 353.979C265.141 352.4 263.328 351.611 261.024 351.611C258.677 351.611 256.821 352.4 255.456 353.979C254.133 355.557 253.472 357.819 253.472 360.763Z" fill="black"/>
<path d="M227.424 594.2C227.424 588.995 229.408 584.984 233.376 582.168C237.387 579.395 243.125 578.008 250.592 578.008C258.187 578.008 263.925 579.395 267.808 582.168C271.733 584.984 273.696 588.995 273.696 594.2C273.696 599.448 271.733 603.459 267.808 606.232C263.925 609.005 258.208 610.392 250.656 610.392C243.147 610.392 237.387 608.984 233.376 606.168C229.408 603.395 227.424 599.405 227.424 594.2ZM232.992 594.2C232.992 597.485 234.421 599.917 237.28 601.496C240.139 603.117 244.597 603.928 250.656 603.928C256.757 603.928 261.195 603.117 263.968 601.496C266.784 599.917 268.192 597.485 268.192 594.2C268.192 590.957 266.784 588.525 263.968 586.904C261.195 585.283 256.779 584.472 250.72 584.472C244.619 584.472 240.139 585.283 237.28 586.904C234.421 588.568 232.992 591 232.992 594.2ZM220.128 620.415L222.304 617.599C223.627 618.836 224.843 619.668 225.952 620.095C227.061 620.564 228.213 620.799 229.408 620.799L228 622.207V617.151H235.616V624.767H230.432C228.512 624.767 226.741 624.447 225.12 623.807C223.456 623.167 221.792 622.036 220.128 620.415ZM227.424 649.299C227.424 643.709 229.365 639.4 233.248 636.371C237.131 633.384 242.571 631.891 249.568 631.891C254.773 631.891 259.147 632.659 262.688 634.195C266.272 635.731 269.003 637.907 270.88 640.723C272.757 643.581 273.696 647.016 273.696 651.027C273.696 653.416 273.227 655.805 272.288 658.195C271.392 660.584 270.112 662.589 268.448 664.211L263.456 661.843C264.992 660.264 266.144 658.536 266.912 656.659C267.68 654.781 268.064 652.883 268.064 650.963C268.064 646.824 266.613 643.667 263.712 641.491C260.853 639.315 256.565 638.227 250.848 638.227H245.408V637.587C247.712 637.885 249.696 638.611 251.36 639.763C253.067 640.915 254.368 642.408 255.264 644.243C256.16 646.077 256.608 648.125 256.608 650.387C256.608 653.075 255.989 655.443 254.752 657.491C253.515 659.581 251.808 661.224 249.632 662.419C247.499 663.613 245.045 664.211 242.272 664.211C239.413 664.211 236.853 663.571 234.592 662.291C232.331 661.011 230.56 659.24 229.28 656.979C228.043 654.76 227.424 652.2 227.424 649.299ZM232.8 648.915C232.8 650.707 233.184 652.264 233.952 653.587C234.72 654.952 235.787 656.019 237.152 656.787C238.56 657.555 240.181 657.939 242.016 657.939C243.851 657.939 245.451 657.555 246.816 656.787C248.181 656.019 249.248 654.952 250.016 653.587C250.827 652.264 251.232 650.707 251.232 648.915C251.232 647.123 250.827 645.544 250.016 644.179C249.248 642.813 248.181 641.747 246.816 640.979C245.451 640.211 243.851 639.827 242.016 639.827C240.181 639.827 238.56 640.211 237.152 640.979C235.787 641.747 234.72 642.813 233.952 644.179C233.184 645.544 232.8 647.123 232.8 648.915Z" fill="black"/>
<path d="M230.424 880.2C230.424 874.995 232.408 870.984 236.376 868.168C240.387 865.395 246.125 864.008 253.592 864.008C261.187 864.008 266.925 865.395 270.808 868.168C274.733 870.984 276.696 874.995 276.696 880.2C276.696 885.448 274.733 889.459 270.808 892.232C266.925 895.005 261.208 896.392 253.656 896.392C246.147 896.392 240.387 894.984 236.376 892.168C232.408 889.395 230.424 885.405 230.424 880.2ZM235.992 880.2C235.992 883.485 237.421 885.917 240.28 887.496C243.139 889.117 247.597 889.928 253.656 889.928C259.757 889.928 264.195 889.117 266.968 887.496C269.784 885.917 271.192 883.485 271.192 880.2C271.192 876.957 269.784 874.525 266.968 872.904C264.195 871.283 259.779 870.472 253.72 870.472C247.619 870.472 243.139 871.283 240.28 872.904C237.421 874.568 235.992 877 235.992 880.2ZM223.128 906.415L225.304 903.599C226.627 904.836 227.843 905.668 228.952 906.095C230.061 906.564 231.213 906.799 232.408 906.799L231 908.207V903.151H238.616V910.767H233.432C231.512 910.767 229.741 910.447 228.12 909.807C226.456 909.167 224.792 908.036 223.128 906.415ZM231 938.371H240.344V917.507H245.08L276.12 939.459V944.835H245.528V951.555H240.344V944.835H231V938.371ZM245.528 938.371H268.248V939.843L243.928 922.691H245.528V938.371Z" fill="black"/>
<path d="M230.424 1168.2C230.424 1162.99 232.408 1158.98 236.376 1156.17C240.387 1153.39 246.125 1152.01 253.592 1152.01C261.187 1152.01 266.925 1153.39 270.808 1156.17C274.733 1158.98 276.696 1162.99 276.696 1168.2C276.696 1173.45 274.733 1177.46 270.808 1180.23C266.925 1183.01 261.208 1184.39 253.656 1184.39C246.147 1184.39 240.387 1182.98 236.376 1180.17C232.408 1177.39 230.424 1173.41 230.424 1168.2ZM235.992 1168.2C235.992 1171.49 237.421 1173.92 240.28 1175.5C243.139 1177.12 247.597 1177.93 253.656 1177.93C259.757 1177.93 264.195 1177.12 266.968 1175.5C269.784 1173.92 271.192 1171.49 271.192 1168.2C271.192 1164.96 269.784 1162.53 266.968 1160.9C264.195 1159.28 259.779 1158.47 253.72 1158.47C247.619 1158.47 243.139 1159.28 240.28 1160.9C237.421 1162.57 235.992 1165 235.992 1168.2ZM223.128 1194.42L225.304 1191.6C226.627 1192.84 227.843 1193.67 228.952 1194.1C230.061 1194.56 231.213 1194.8 232.408 1194.8L231 1196.21V1191.15H238.616V1198.77H233.432C231.512 1198.77 229.741 1198.45 228.12 1197.81C226.456 1197.17 224.792 1196.04 223.128 1194.42ZM231 1207.87H235.928L252.12 1223.36C254.211 1225.37 256.173 1226.86 258.008 1227.84C259.843 1228.82 261.741 1229.31 263.704 1229.31C266.136 1229.31 267.971 1228.55 269.208 1227.01C270.445 1225.52 271.064 1223.34 271.064 1220.48C271.064 1218.22 270.659 1216.09 269.848 1214.08C269.037 1212.12 267.8 1210.22 266.136 1208.39L271.192 1206.08C272.856 1207.87 274.179 1210.09 275.16 1212.74C276.184 1215.43 276.696 1218.26 276.696 1221.25C276.696 1225.94 275.629 1229.55 273.496 1232.07C271.363 1234.63 268.312 1235.91 264.344 1235.91C261.528 1235.91 258.819 1235.22 256.216 1233.86C253.656 1232.49 251.011 1230.45 248.28 1227.71L234.776 1214.34H236.568V1237.76H231V1207.87Z" fill="black"/>
<path d="M233.424 1456.2C233.424 1450.99 235.408 1446.98 239.376 1444.17C243.387 1441.39 249.125 1440.01 256.592 1440.01C264.187 1440.01 269.925 1441.39 273.808 1444.17C277.733 1446.98 279.696 1450.99 279.696 1456.2C279.696 1461.45 277.733 1465.46 273.808 1468.23C269.925 1471.01 264.208 1472.39 256.656 1472.39C249.147 1472.39 243.387 1470.98 239.376 1468.17C235.408 1465.39 233.424 1461.41 233.424 1456.2ZM238.992 1456.2C238.992 1459.49 240.421 1461.92 243.28 1463.5C246.139 1465.12 250.597 1465.93 256.656 1465.93C262.757 1465.93 267.195 1465.12 269.968 1463.5C272.784 1461.92 274.192 1459.49 274.192 1456.2C274.192 1452.96 272.784 1450.53 269.968 1448.9C267.195 1447.28 262.779 1446.47 256.72 1446.47C250.619 1446.47 246.139 1447.28 243.28 1448.9C240.421 1450.57 238.992 1453 238.992 1456.2ZM226.128 1482.42L228.304 1479.6C229.627 1480.84 230.843 1481.67 231.952 1482.1C233.061 1482.56 234.213 1482.8 235.408 1482.8L234 1484.21V1479.15H241.616V1486.77H236.432C234.512 1486.77 232.741 1486.45 231.12 1485.81C229.456 1485.17 227.792 1484.04 226.128 1482.42ZM233.424 1509.76C233.424 1504.56 235.408 1500.55 239.376 1497.73C243.387 1494.96 249.125 1493.57 256.592 1493.57C264.187 1493.57 269.925 1494.96 273.808 1497.73C277.733 1500.55 279.696 1504.56 279.696 1509.76C279.696 1515.01 277.733 1519.02 273.808 1521.79C269.925 1524.57 264.208 1525.95 256.656 1525.95C249.147 1525.95 243.387 1524.55 239.376 1521.73C235.408 1518.96 233.424 1514.97 233.424 1509.76ZM238.992 1509.76C238.992 1513.05 240.421 1515.48 243.28 1517.06C246.139 1518.68 250.597 1519.49 256.656 1519.49C262.757 1519.49 267.195 1518.68 269.968 1517.06C272.784 1515.48 274.192 1513.05 274.192 1509.76C274.192 1506.52 272.784 1504.09 269.968 1502.47C267.195 1500.85 262.779 1500.03 256.72 1500.03C250.619 1500.03 246.139 1500.85 243.28 1502.47C240.421 1504.13 238.992 1506.56 238.992 1509.76Z" fill="black"/>
<path d="M370.68 1658V1652.43H381.176V1618.51H384.504L371.704 1626.32V1619.92L383.032 1612.88H387.832V1652.43H397.688V1658H370.68ZM408.415 1665.87L405.599 1663.7C406.836 1662.37 407.668 1661.16 408.095 1660.05C408.564 1658.94 408.799 1657.79 408.799 1656.59L410.207 1658H405.151V1650.38H412.767V1655.57C412.767 1657.49 412.447 1659.26 411.807 1660.88C411.167 1662.54 410.036 1664.21 408.415 1665.87ZM435.763 1658.58C430.557 1658.58 426.547 1656.59 423.731 1652.62C420.957 1648.61 419.571 1642.87 419.571 1635.41C419.571 1627.81 420.957 1622.07 423.731 1618.19C426.547 1614.27 430.557 1612.3 435.763 1612.3C441.011 1612.3 445.021 1614.27 447.795 1618.19C450.568 1622.07 451.955 1627.79 451.955 1635.34C451.955 1642.85 450.547 1648.61 447.731 1652.62C444.957 1656.59 440.968 1658.58 435.763 1658.58ZM435.763 1653.01C439.048 1653.01 441.48 1651.58 443.059 1648.72C444.68 1645.86 445.491 1641.4 445.491 1635.34C445.491 1629.24 444.68 1624.81 443.059 1622.03C441.48 1619.22 439.048 1617.81 435.763 1617.81C432.52 1617.81 430.088 1619.22 428.467 1622.03C426.845 1624.81 426.035 1629.22 426.035 1635.28C426.035 1641.38 426.845 1645.86 428.467 1648.72C430.131 1651.58 432.563 1653.01 435.763 1653.01Z" fill="black"/>
<path d="M703.2 1658.58C697.995 1658.58 693.984 1656.59 691.168 1652.62C688.395 1648.61 687.008 1642.87 687.008 1635.41C687.008 1627.81 688.395 1622.07 691.168 1618.19C693.984 1614.27 697.995 1612.3 703.2 1612.3C708.448 1612.3 712.459 1614.27 715.232 1618.19C718.005 1622.07 719.392 1627.79 719.392 1635.34C719.392 1642.85 717.984 1648.61 715.168 1652.62C712.395 1656.59 708.405 1658.58 703.2 1658.58ZM703.2 1653.01C706.485 1653.01 708.917 1651.58 710.496 1648.72C712.117 1645.86 712.928 1641.4 712.928 1635.34C712.928 1629.24 712.117 1624.81 710.496 1622.03C708.917 1619.22 706.485 1617.81 703.2 1617.81C699.957 1617.81 697.525 1619.22 695.904 1622.03C694.283 1624.81 693.472 1629.22 693.472 1635.28C693.472 1641.38 694.283 1645.86 695.904 1648.72C697.568 1651.58 700 1653.01 703.2 1653.01ZM729.415 1665.87L726.599 1663.7C727.836 1662.37 728.668 1661.16 729.095 1660.05C729.564 1658.94 729.799 1657.79 729.799 1656.59L731.207 1658H726.151V1650.38H733.767V1655.57C733.767 1657.49 733.447 1659.26 732.807 1660.88C732.167 1662.54 731.036 1664.21 729.415 1665.87ZM756.763 1658.58C751.557 1658.58 747.504 1657.47 744.603 1655.25C741.701 1653.03 740.251 1649.94 740.251 1645.97C740.251 1642.81 741.211 1640.21 743.131 1638.16C745.051 1636.07 747.568 1634.81 750.683 1634.38V1635.54C747.867 1634.94 745.605 1633.64 743.899 1631.63C742.235 1629.63 741.403 1627.19 741.403 1624.34C741.403 1620.58 742.768 1617.64 745.499 1615.5C748.229 1613.37 751.984 1612.3 756.763 1612.3C761.584 1612.3 765.36 1613.37 768.091 1615.5C770.821 1617.64 772.187 1620.58 772.187 1624.34C772.187 1627.19 771.376 1629.65 769.755 1631.7C768.176 1633.7 766 1634.96 763.227 1635.47V1634.38C766.299 1634.81 768.752 1636.07 770.587 1638.16C772.421 1640.21 773.339 1642.81 773.339 1645.97C773.339 1649.94 771.888 1653.03 768.987 1655.25C766.085 1657.47 762.011 1658.58 756.763 1658.58ZM756.763 1653.33C760.219 1653.33 762.8 1652.69 764.507 1651.41C766.213 1650.09 767.067 1648.12 767.067 1645.52C767.067 1642.92 766.213 1640.98 764.507 1639.7C762.8 1638.42 760.219 1637.78 756.763 1637.78C753.307 1637.78 750.725 1638.42 749.019 1639.7C747.312 1640.98 746.459 1642.92 746.459 1645.52C746.459 1648.12 747.312 1650.09 749.019 1651.41C750.768 1652.69 753.349 1653.33 756.763 1653.33ZM756.763 1632.53C759.749 1632.53 762.011 1631.87 763.547 1630.54C765.125 1629.18 765.915 1627.32 765.915 1624.98C765.915 1622.67 765.125 1620.86 763.547 1619.54C762.011 1618.21 759.749 1617.55 756.763 1617.55C753.819 1617.55 751.557 1618.21 749.979 1619.54C748.4 1620.86 747.611 1622.67 747.611 1624.98C747.611 1627.32 748.4 1629.18 749.979 1630.54C751.557 1631.87 753.819 1632.53 756.763 1632.53Z" fill="black"/>
<path d="M1024.2 1658.58C1018.99 1658.58 1014.98 1656.59 1012.17 1652.62C1009.39 1648.61 1008.01 1642.87 1008.01 1635.41C1008.01 1627.81 1009.39 1622.07 1012.17 1618.19C1014.98 1614.27 1018.99 1612.3 1024.2 1612.3C1029.45 1612.3 1033.46 1614.27 1036.23 1618.19C1039.01 1622.07 1040.39 1627.79 1040.39 1635.34C1040.39 1642.85 1038.98 1648.61 1036.17 1652.62C1033.39 1656.59 1029.41 1658.58 1024.2 1658.58ZM1024.2 1653.01C1027.49 1653.01 1029.92 1651.58 1031.5 1648.72C1033.12 1645.86 1033.93 1641.4 1033.93 1635.34C1033.93 1629.24 1033.12 1624.81 1031.5 1622.03C1029.92 1619.22 1027.49 1617.81 1024.2 1617.81C1020.96 1617.81 1018.53 1619.22 1016.9 1622.03C1015.28 1624.81 1014.47 1629.22 1014.47 1635.28C1014.47 1641.38 1015.28 1645.86 1016.9 1648.72C1018.57 1651.58 1021 1653.01 1024.2 1653.01ZM1050.42 1665.87L1047.6 1663.7C1048.84 1662.37 1049.67 1661.16 1050.1 1660.05C1050.56 1658.94 1050.8 1657.79 1050.8 1656.59L1052.21 1658H1047.15V1650.38H1054.77V1655.57C1054.77 1657.49 1054.45 1659.26 1053.81 1660.88C1053.17 1662.54 1052.04 1664.21 1050.42 1665.87ZM1079.3 1658.58C1073.71 1658.58 1069.4 1656.63 1066.37 1652.75C1063.38 1648.87 1061.89 1643.43 1061.89 1636.43C1061.89 1631.23 1062.66 1626.85 1064.19 1623.31C1065.73 1619.73 1067.91 1617 1070.72 1615.12C1073.58 1613.24 1077.02 1612.3 1081.03 1612.3C1083.42 1612.3 1085.81 1612.77 1088.19 1613.71C1090.58 1614.61 1092.59 1615.89 1094.21 1617.55L1091.84 1622.54C1090.26 1621.01 1088.54 1619.86 1086.66 1619.09C1084.78 1618.32 1082.88 1617.94 1080.96 1617.94C1076.82 1617.94 1073.67 1619.39 1071.49 1622.29C1069.31 1625.15 1068.23 1629.43 1068.23 1635.15V1640.59H1067.59C1067.89 1638.29 1068.61 1636.3 1069.76 1634.64C1070.91 1632.93 1072.41 1631.63 1074.24 1630.74C1076.08 1629.84 1078.13 1629.39 1080.39 1629.39C1083.07 1629.39 1085.44 1630.01 1087.49 1631.25C1089.58 1632.49 1091.22 1634.19 1092.42 1636.37C1093.61 1638.5 1094.21 1640.95 1094.21 1643.73C1094.21 1646.59 1093.57 1649.15 1092.29 1651.41C1091.01 1653.67 1089.24 1655.44 1086.98 1656.72C1084.76 1657.96 1082.2 1658.58 1079.3 1658.58ZM1078.91 1653.2C1080.71 1653.2 1082.26 1652.82 1083.59 1652.05C1084.95 1651.28 1086.02 1650.21 1086.79 1648.85C1087.55 1647.44 1087.94 1645.82 1087.94 1643.98C1087.94 1642.15 1087.55 1640.55 1086.79 1639.18C1086.02 1637.82 1084.95 1636.75 1083.59 1635.98C1082.26 1635.17 1080.71 1634.77 1078.91 1634.77C1077.12 1634.77 1075.54 1635.17 1074.18 1635.98C1072.81 1636.75 1071.75 1637.82 1070.98 1639.18C1070.21 1640.55 1069.83 1642.15 1069.83 1643.98C1069.83 1645.82 1070.21 1647.44 1070.98 1648.85C1071.75 1650.21 1072.81 1651.28 1074.18 1652.05C1075.54 1652.82 1077.12 1653.2 1078.91 1653.2Z" fill="black"/>
<path d="M1345.2 1658.58C1339.99 1658.58 1335.98 1656.59 1333.17 1652.62C1330.39 1648.61 1329.01 1642.87 1329.01 1635.41C1329.01 1627.81 1330.39 1622.07 1333.17 1618.19C1335.98 1614.27 1339.99 1612.3 1345.2 1612.3C1350.45 1612.3 1354.46 1614.27 1357.23 1618.19C1360.01 1622.07 1361.39 1627.79 1361.39 1635.34C1361.39 1642.85 1359.98 1648.61 1357.17 1652.62C1354.39 1656.59 1350.41 1658.58 1345.2 1658.58ZM1345.2 1653.01C1348.49 1653.01 1350.92 1651.58 1352.5 1648.72C1354.12 1645.86 1354.93 1641.4 1354.93 1635.34C1354.93 1629.24 1354.12 1624.81 1352.5 1622.03C1350.92 1619.22 1348.49 1617.81 1345.2 1617.81C1341.96 1617.81 1339.53 1619.22 1337.9 1622.03C1336.28 1624.81 1335.47 1629.22 1335.47 1635.28C1335.47 1641.38 1336.28 1645.86 1337.9 1648.72C1339.57 1651.58 1342 1653.01 1345.2 1653.01ZM1371.42 1665.87L1368.6 1663.7C1369.84 1662.37 1370.67 1661.16 1371.1 1660.05C1371.56 1658.94 1371.8 1657.79 1371.8 1656.59L1373.21 1658H1368.15V1650.38H1375.77V1655.57C1375.77 1657.49 1375.45 1659.26 1374.81 1660.88C1374.17 1662.54 1373.04 1664.21 1371.42 1665.87ZM1403.37 1658V1648.66H1382.51V1643.92L1404.46 1612.88H1409.83V1643.47H1416.55V1648.66H1409.83V1658H1403.37ZM1403.37 1643.47V1620.75H1404.84L1387.69 1645.07V1643.47H1403.37Z" fill="black"/>
<path d="M1667.2 1658.58C1661.99 1658.58 1657.98 1656.59 1655.17 1652.62C1652.39 1648.61 1651.01 1642.87 1651.01 1635.41C1651.01 1627.81 1652.39 1622.07 1655.17 1618.19C1657.98 1614.27 1661.99 1612.3 1667.2 1612.3C1672.45 1612.3 1676.46 1614.27 1679.23 1618.19C1682.01 1622.07 1683.39 1627.79 1683.39 1635.34C1683.39 1642.85 1681.98 1648.61 1679.17 1652.62C1676.39 1656.59 1672.41 1658.58 1667.2 1658.58ZM1667.2 1653.01C1670.49 1653.01 1672.92 1651.58 1674.5 1648.72C1676.12 1645.86 1676.93 1641.4 1676.93 1635.34C1676.93 1629.24 1676.12 1624.81 1674.5 1622.03C1672.92 1619.22 1670.49 1617.81 1667.2 1617.81C1663.96 1617.81 1661.53 1619.22 1659.9 1622.03C1658.28 1624.81 1657.47 1629.22 1657.47 1635.28C1657.47 1641.38 1658.28 1645.86 1659.9 1648.72C1661.57 1651.58 1664 1653.01 1667.2 1653.01ZM1693.42 1665.87L1690.6 1663.7C1691.84 1662.37 1692.67 1661.16 1693.1 1660.05C1693.56 1658.94 1693.8 1657.79 1693.8 1656.59L1695.21 1658H1690.15V1650.38H1697.77V1655.57C1697.77 1657.49 1697.45 1659.26 1696.81 1660.88C1696.17 1662.54 1695.04 1664.21 1693.42 1665.87ZM1706.87 1658V1653.07L1722.36 1636.88C1724.37 1634.79 1725.86 1632.83 1726.84 1630.99C1727.82 1629.16 1728.31 1627.26 1728.31 1625.3C1728.31 1622.86 1727.55 1621.03 1726.01 1619.79C1724.52 1618.55 1722.34 1617.94 1719.48 1617.94C1717.22 1617.94 1715.09 1618.34 1713.08 1619.15C1711.12 1619.96 1709.22 1621.2 1707.39 1622.86L1705.08 1617.81C1706.87 1616.14 1709.09 1614.82 1711.74 1613.84C1714.43 1612.82 1717.26 1612.3 1720.25 1612.3C1724.94 1612.3 1728.55 1613.37 1731.07 1615.5C1733.63 1617.64 1734.91 1620.69 1734.91 1624.66C1734.91 1627.47 1734.22 1630.18 1732.86 1632.78C1731.49 1635.34 1729.45 1637.99 1726.71 1640.72L1713.34 1654.22V1652.43H1736.76V1658H1706.87Z" fill="black"/>
<path d="M1988.2 1658.58C1982.99 1658.58 1978.98 1656.59 1976.17 1652.62C1973.39 1648.61 1972.01 1642.87 1972.01 1635.41C1972.01 1627.81 1973.39 1622.07 1976.17 1618.19C1978.98 1614.27 1982.99 1612.3 1988.2 1612.3C1993.45 1612.3 1997.46 1614.27 2000.23 1618.19C2003.01 1622.07 2004.39 1627.79 2004.39 1635.34C2004.39 1642.85 2002.98 1648.61 2000.17 1652.62C1997.39 1656.59 1993.41 1658.58 1988.2 1658.58ZM1988.2 1653.01C1991.49 1653.01 1993.92 1651.58 1995.5 1648.72C1997.12 1645.86 1997.93 1641.4 1997.93 1635.34C1997.93 1629.24 1997.12 1624.81 1995.5 1622.03C1993.92 1619.22 1991.49 1617.81 1988.2 1617.81C1984.96 1617.81 1982.53 1619.22 1980.9 1622.03C1979.28 1624.81 1978.47 1629.22 1978.47 1635.28C1978.47 1641.38 1979.28 1645.86 1980.9 1648.72C1982.57 1651.58 1985 1653.01 1988.2 1653.01ZM2014.42 1665.87L2011.6 1663.7C2012.84 1662.37 2013.67 1661.16 2014.1 1660.05C2014.56 1658.94 2014.8 1657.79 2014.8 1656.59L2016.21 1658H2011.15V1650.38H2018.77V1655.57C2018.77 1657.49 2018.45 1659.26 2017.81 1660.88C2017.17 1662.54 2016.04 1664.21 2014.42 1665.87ZM2041.76 1658.58C2036.56 1658.58 2032.55 1656.59 2029.73 1652.62C2026.96 1648.61 2025.57 1642.87 2025.57 1635.41C2025.57 1627.81 2026.96 1622.07 2029.73 1618.19C2032.55 1614.27 2036.56 1612.3 2041.76 1612.3C2047.01 1612.3 2051.02 1614.27 2053.79 1618.19C2056.57 1622.07 2057.95 1627.79 2057.95 1635.34C2057.95 1642.85 2056.55 1648.61 2053.73 1652.62C2050.96 1656.59 2046.97 1658.58 2041.76 1658.58ZM2041.76 1653.01C2045.05 1653.01 2047.48 1651.58 2049.06 1648.72C2050.68 1645.86 2051.49 1641.4 2051.49 1635.34C2051.49 1629.24 2050.68 1624.81 2049.06 1622.03C2047.48 1619.22 2045.05 1617.81 2041.76 1617.81C2038.52 1617.81 2036.09 1619.22 2034.47 1622.03C2032.85 1624.81 2032.03 1629.22 2032.03 1635.28C2032.03 1641.38 2032.85 1645.86 2034.47 1648.72C2036.13 1651.58 2038.56 1653.01 2041.76 1653.01Z" fill="black"/>
<path d="M960.47 1850.63C956.503 1850.63 952.91 1850.14 949.69 1849.16C946.47 1848.13 943.67 1846.69 941.29 1844.82L943.74 1839.08C945.327 1840.29 946.96 1841.3 948.64 1842.09C950.367 1842.88 952.187 1843.49 954.1 1843.91C956.06 1844.28 958.183 1844.47 960.47 1844.47C964.39 1844.47 967.26 1843.77 969.08 1842.37C970.947 1840.97 971.88 1839.13 971.88 1836.84C971.88 1834.88 971.227 1833.36 969.92 1832.29C968.66 1831.22 966.42 1830.35 963.2 1829.7L955.57 1828.16C951.043 1827.23 947.66 1825.71 945.42 1823.61C943.227 1821.46 942.13 1818.55 942.13 1814.86C942.13 1811.87 942.923 1809.26 944.51 1807.02C946.097 1804.78 948.29 1803.05 951.09 1801.84C953.937 1800.63 957.25 1800.02 961.03 1800.02C964.53 1800.02 967.75 1800.53 970.69 1801.56C973.63 1802.54 976.103 1804.01 978.11 1805.97L975.73 1811.5C973.63 1809.68 971.39 1808.35 969.01 1807.51C966.63 1806.62 963.923 1806.18 960.89 1806.18C957.297 1806.18 954.473 1806.93 952.42 1808.42C950.413 1809.91 949.41 1811.94 949.41 1814.51C949.41 1816.56 950.04 1818.17 951.3 1819.34C952.607 1820.51 954.753 1821.39 957.74 1822L965.37 1823.47C970.083 1824.45 973.56 1825.97 975.8 1828.02C978.04 1830.03 979.16 1832.8 979.16 1836.35C979.16 1839.2 978.39 1841.69 976.85 1843.84C975.357 1845.99 973.21 1847.67 970.41 1848.88C967.61 1850.05 964.297 1850.63 960.47 1850.63ZM990.277 1865.12V1823.19C990.277 1821.84 990.207 1820.46 990.067 1819.06C989.974 1817.61 989.857 1816.17 989.717 1814.72H996.577L997.277 1822.7H996.507C997.254 1820.04 998.747 1817.94 1000.99 1816.4C1003.27 1814.86 1005.98 1814.09 1009.11 1814.09C1012.23 1814.09 1014.96 1814.84 1017.3 1816.33C1019.63 1817.78 1021.43 1819.85 1022.69 1822.56C1023.99 1825.27 1024.65 1828.53 1024.65 1832.36C1024.65 1836.14 1023.99 1839.41 1022.69 1842.16C1021.43 1844.91 1019.63 1847.01 1017.3 1848.46C1014.96 1849.91 1012.23 1850.63 1009.11 1850.63C1006.03 1850.63 1003.34 1849.88 1001.06 1848.39C998.817 1846.85 997.324 1844.77 996.577 1842.16H997.347V1865.12H990.277ZM1007.36 1845.1C1010.44 1845.1 1012.89 1844.03 1014.71 1841.88C1016.57 1839.73 1017.51 1836.56 1017.51 1832.36C1017.51 1828.16 1016.57 1825.01 1014.71 1822.91C1012.89 1820.76 1010.44 1819.69 1007.36 1819.69C1004.28 1819.69 1001.8 1820.76 999.937 1822.91C998.117 1825.01 997.207 1828.16 997.207 1832.36C997.207 1836.56 998.117 1839.73 999.937 1841.88C1001.8 1844.03 1004.28 1845.1 1007.36 1845.1ZM1052.04 1850.63C1046.35 1850.63 1041.87 1849.02 1038.6 1845.8C1035.34 1842.58 1033.7 1838.12 1033.7 1832.43C1033.7 1828.74 1034.4 1825.52 1035.8 1822.77C1037.25 1820.02 1039.23 1817.89 1041.75 1816.4C1044.32 1814.86 1047.28 1814.09 1050.64 1814.09C1053.96 1814.09 1056.73 1814.79 1058.97 1816.19C1061.21 1817.59 1062.92 1819.57 1064.08 1822.14C1065.25 1824.66 1065.83 1827.65 1065.83 1831.1V1833.34H1039.23V1829.28H1061L1059.81 1830.19C1059.81 1826.69 1059.02 1823.98 1057.43 1822.07C1055.89 1820.11 1053.65 1819.13 1050.71 1819.13C1047.45 1819.13 1044.93 1820.27 1043.15 1822.56C1041.38 1824.8 1040.49 1827.9 1040.49 1831.87V1832.57C1040.49 1836.72 1041.5 1839.85 1043.5 1841.95C1045.56 1844.05 1048.45 1845.1 1052.18 1845.1C1054.24 1845.1 1056.15 1844.82 1057.92 1844.26C1059.74 1843.65 1061.47 1842.67 1063.1 1841.32L1065.41 1846.15C1063.78 1847.6 1061.8 1848.72 1059.46 1849.51C1057.13 1850.26 1054.66 1850.63 1052.04 1850.63ZM1092.22 1850.63C1088.67 1850.63 1085.57 1849.91 1082.91 1848.46C1080.29 1846.97 1078.26 1844.84 1076.82 1842.09C1075.42 1839.29 1074.72 1835.98 1074.72 1832.15C1074.72 1828.37 1075.44 1825.13 1076.89 1822.42C1078.33 1819.71 1080.36 1817.66 1082.98 1816.26C1085.59 1814.81 1088.67 1814.09 1092.22 1814.09C1094.5 1814.09 1096.72 1814.49 1098.87 1815.28C1101.01 1816.03 1102.79 1817.1 1104.19 1818.5L1101.88 1823.47C1100.57 1822.21 1099.1 1821.28 1097.47 1820.67C1095.83 1820.02 1094.25 1819.69 1092.71 1819.69C1089.35 1819.69 1086.71 1820.76 1084.8 1822.91C1082.88 1825.06 1081.93 1828.16 1081.93 1832.22C1081.93 1836.33 1082.88 1839.48 1084.8 1841.67C1086.71 1843.86 1089.35 1844.96 1092.71 1844.96C1094.2 1844.96 1095.76 1844.68 1097.4 1844.12C1099.03 1843.51 1100.52 1842.56 1101.88 1841.25L1104.19 1846.22C1102.74 1847.62 1100.92 1848.72 1098.73 1849.51C1096.58 1850.26 1094.41 1850.63 1092.22 1850.63ZM1114.48 1850V1814.72H1121.55V1850H1114.48ZM1113.92 1807.37V1800.02H1122.11V1807.37H1113.92ZM1136.81 1850V1820.18H1129.95V1814.72H1138.77L1136.81 1816.54V1810.94C1136.81 1806.79 1137.84 1803.64 1139.89 1801.49C1141.99 1799.3 1145.02 1798.2 1148.99 1798.2C1149.92 1798.2 1150.93 1798.27 1152 1798.41C1153.07 1798.55 1153.98 1798.78 1154.73 1799.11V1804.85C1154.17 1804.62 1153.47 1804.43 1152.63 1804.29C1151.79 1804.1 1150.97 1804.01 1150.18 1804.01C1148.13 1804.01 1146.54 1804.62 1145.42 1805.83C1144.35 1807 1143.81 1808.84 1143.81 1811.36V1816.12L1142.76 1814.72H1166.21V1850H1159.14V1820.18H1143.88V1850H1136.81ZM1158.58 1807.37V1800.02H1166.77V1807.37H1158.58ZM1194.82 1850.63C1191.27 1850.63 1188.17 1849.91 1185.51 1848.46C1182.89 1846.97 1180.86 1844.84 1179.42 1842.09C1178.02 1839.29 1177.32 1835.98 1177.32 1832.15C1177.32 1828.37 1178.04 1825.13 1179.49 1822.42C1180.93 1819.71 1182.96 1817.66 1185.58 1816.26C1188.19 1814.81 1191.27 1814.09 1194.82 1814.09C1197.1 1814.09 1199.32 1814.49 1201.47 1815.28C1203.61 1816.03 1205.39 1817.1 1206.79 1818.5L1204.48 1823.47C1203.17 1822.21 1201.7 1821.28 1200.07 1820.67C1198.43 1820.02 1196.85 1819.69 1195.31 1819.69C1191.95 1819.69 1189.31 1820.76 1187.4 1822.91C1185.48 1825.06 1184.53 1828.16 1184.53 1832.22C1184.53 1836.33 1185.48 1839.48 1187.4 1841.67C1189.31 1843.86 1191.95 1844.96 1195.31 1844.96C1196.8 1844.96 1198.36 1844.68 1200 1844.12C1201.63 1843.51 1203.12 1842.56 1204.48 1841.25L1206.79 1846.22C1205.34 1847.62 1203.52 1848.72 1201.33 1849.51C1199.18 1850.26 1197.01 1850.63 1194.82 1850.63ZM1217.08 1850V1814.72H1224.15V1850H1217.08ZM1216.52 1807.37V1800.02H1224.71V1807.37H1216.52ZM1251.03 1850.63C1247.2 1850.63 1244.31 1849.6 1242.35 1847.55C1240.39 1845.45 1239.41 1842.32 1239.41 1838.17V1820.18H1232.55V1814.72H1239.41V1805.41L1246.48 1803.52V1814.72H1256.28V1820.18H1246.48V1837.54C1246.48 1840.15 1246.95 1842.02 1247.88 1843.14C1248.81 1844.26 1250.17 1844.82 1251.94 1844.82C1252.83 1844.82 1253.6 1844.75 1254.25 1844.61C1254.95 1844.42 1255.58 1844.21 1256.14 1843.98V1849.72C1255.44 1850 1254.62 1850.21 1253.69 1850.35C1252.76 1850.54 1251.87 1850.63 1251.03 1850.63ZM1264.97 1865.89L1263.29 1860.15C1265.48 1859.68 1267.3 1859.12 1268.75 1858.47C1270.24 1857.82 1271.48 1856.95 1272.46 1855.88C1273.44 1854.85 1274.28 1853.52 1274.98 1851.89L1276.73 1847.76L1276.59 1850.63L1261.26 1814.72H1268.82L1280.72 1844.12H1278.83L1290.73 1814.72H1298.01L1281.84 1852.52C1280.81 1854.85 1279.71 1856.81 1278.55 1858.4C1277.38 1859.99 1276.12 1861.27 1274.77 1862.25C1273.41 1863.23 1271.92 1864 1270.29 1864.56C1268.65 1865.12 1266.88 1865.56 1264.97 1865.89Z" fill="black"/>
<path d="M67.63 1039.53C67.63 1043.5 67.14 1047.09 66.16 1050.31C65.1333 1053.53 63.6867 1056.33 61.82 1058.71L56.08 1056.26C57.2933 1054.67 58.2967 1053.04 59.09 1051.36C59.8833 1049.63 60.49 1047.81 60.91 1045.9C61.2833 1043.94 61.47 1041.82 61.47 1039.53C61.47 1035.61 60.77 1032.74 59.37 1030.92C57.97 1029.05 56.1267 1028.12 53.84 1028.12C51.88 1028.12 50.3633 1028.77 49.29 1030.08C48.2167 1031.34 47.3533 1033.58 46.7 1036.8L45.16 1044.43C44.2267 1048.96 42.71 1052.34 40.61 1054.58C38.4633 1056.77 35.5467 1057.87 31.86 1057.87C28.8733 1057.87 26.26 1057.08 24.02 1055.49C21.78 1053.9 20.0533 1051.71 18.84 1048.91C17.6267 1046.06 17.02 1042.75 17.02 1038.97C17.02 1035.47 17.5333 1032.25 18.56 1029.31C19.54 1026.37 21.01 1023.9 22.97 1021.89L28.5 1024.27C26.68 1026.37 25.35 1028.61 24.51 1030.99C23.6233 1033.37 23.18 1036.08 23.18 1039.11C23.18 1042.7 23.9267 1045.53 25.42 1047.58C26.9133 1049.59 28.9433 1050.59 31.51 1050.59C33.5633 1050.59 35.1733 1049.96 36.34 1048.7C37.5067 1047.39 38.3933 1045.25 39 1042.26L40.47 1034.63C41.45 1029.92 42.9667 1026.44 45.02 1024.2C47.0267 1021.96 49.8033 1020.84 53.35 1020.84C56.1967 1020.84 58.6933 1021.61 60.84 1023.15C62.9867 1024.64 64.6667 1026.79 65.88 1029.59C67.0467 1032.39 67.63 1035.7 67.63 1039.53ZM67.63 993.413C67.63 999.106 66.02 1003.59 62.8 1006.85C59.58 1010.12 55.1233 1011.75 49.43 1011.75C45.7433 1011.75 42.5233 1011.05 39.77 1009.65C37.0167 1008.21 34.8933 1006.22 33.4 1003.7C31.86 1001.14 31.09 998.173 31.09 994.813C31.09 991.5 31.79 988.723 33.19 986.483C34.59 984.243 36.5733 982.54 39.14 981.373C41.66 980.206 44.6467 979.623 48.1 979.623H50.34L50.34 1006.22H46.28L46.28 984.453L47.19 985.643C43.69 985.643 40.9833 986.436 39.07 988.023C37.11 989.563 36.13 991.803 36.13 994.743C36.13 998.01 37.2733 1000.53 39.56 1002.3C41.8 1004.08 44.9033 1004.96 48.87 1004.96H49.57C53.7233 1004.96 56.85 1003.96 58.95 1001.95C61.05 999.9 62.1 997.006 62.1 993.273C62.1 991.22 61.82 989.306 61.26 987.533C60.6533 985.713 59.6733 983.986 58.32 982.353L63.15 980.043C64.5967 981.676 65.7167 983.66 66.51 985.993C67.2567 988.326 67.63 990.8 67.63 993.413ZM67 968.71H40.19C38.8367 968.71 37.46 968.78 36.06 968.92C34.6133 969.014 33.1667 969.13 31.72 969.27V962.41L39.14 961.78V962.62C36.5267 961.547 34.5433 959.89 33.19 957.65C31.79 955.41 31.09 952.82 31.09 949.88C31.09 945.727 32.2333 942.6 34.52 940.5C36.8067 938.354 40.3533 937.28 45.16 937.28H67V944.35H45.58C42.4533 944.35 40.2133 944.98 38.86 946.24C37.46 947.454 36.76 949.32 36.76 951.84C36.76 954.827 37.6933 957.207 39.56 958.98C41.38 960.754 43.8533 961.64 46.98 961.64H67V968.71ZM67.63 912.306C67.63 915.246 67.2567 917.953 66.51 920.426C65.7633 922.899 64.7133 924.953 63.36 926.586L58.53 924.416C59.8367 922.689 60.8167 920.776 61.47 918.676C62.1233 916.576 62.45 914.429 62.45 912.236C62.45 909.669 62.0067 907.733 61.12 906.426C60.1867 905.119 58.9267 904.466 57.34 904.466C56.1267 904.466 55.1467 904.886 54.4 905.726C53.6533 906.519 53.0933 907.849 52.72 909.716L51.39 916.436C50.7367 919.423 49.6167 921.686 48.03 923.226C46.4433 924.766 44.4133 925.536 41.94 925.536C39.84 925.536 37.9733 924.976 36.34 923.856C34.7067 922.689 33.4233 921.056 32.49 918.956C31.5567 916.809 31.09 914.313 31.09 911.466C31.09 908.853 31.4633 906.426 32.21 904.186C32.9567 901.946 34.03 900.079 35.43 898.586L40.12 900.826C38.9067 902.273 37.9733 903.906 37.32 905.726C36.62 907.546 36.27 909.389 36.27 911.256C36.27 913.869 36.76 915.806 37.74 917.066C38.72 918.326 40.0033 918.956 41.59 918.956C42.8033 918.956 43.8067 918.583 44.6 917.836C45.3467 917.043 45.93 915.806 46.35 914.126L47.68 907.406C48.3333 904.233 49.4067 901.853 50.9 900.266C52.3933 898.679 54.4 897.886 56.92 897.886C59.1133 897.886 61.0267 898.493 62.66 899.706C64.2933 900.919 65.53 902.599 66.37 904.746C67.21 906.893 67.63 909.413 67.63 912.306ZM67 886.753H31.72V879.683H67V886.753ZM24.37 887.313H17.02V879.123H24.37V887.313ZM67.63 852.801C67.63 856.628 66.6033 859.521 64.55 861.481C62.45 863.441 59.3233 864.421 55.17 864.421H37.18V871.281H31.72V864.421H22.41L20.52 857.351H31.72V847.551H37.18V857.351H54.54C57.1533 857.351 59.02 856.885 60.14 855.951C61.26 855.018 61.82 853.665 61.82 851.891C61.82 851.005 61.75 850.235 61.61 849.581C61.4233 848.881 61.2133 848.251 60.98 847.691H66.72C67 848.391 67.21 849.208 67.35 850.141C67.5367 851.075 67.63 851.961 67.63 852.801ZM67 838.291H31.72V831.221H67V838.291ZM24.37 838.851H17.02V830.661H24.37V838.851ZM67 807.7L31.72 822.82V815.26L61.19 803.36V805.39L31.72 793.28V786.07L67 801.26V807.7ZM67 777.662H31.72V770.592H67V777.662ZM24.37 778.222H17.02V770.032H24.37V778.222ZM67.63 743.711C67.63 747.537 66.6033 750.431 64.55 752.391C62.45 754.351 59.3233 755.331 55.17 755.331H37.18V762.191H31.72V755.331H22.41L20.52 748.261H31.72L31.72 738.461H37.18V748.261H54.54C57.1533 748.261 59.02 747.794 60.14 746.861C61.26 745.927 61.82 744.574 61.82 742.801C61.82 741.914 61.75 741.144 61.61 740.491C61.4233 739.791 61.2133 739.161 60.98 738.601H66.72C67 739.301 67.21 740.117 67.35 741.051C67.5367 741.984 67.63 742.871 67.63 743.711ZM82.89 729.772L77.15 731.452C76.6833 729.259 76.1233 727.439 75.47 725.992C74.8167 724.499 73.9533 723.262 72.88 722.282C71.8533 721.302 70.5233 720.462 68.89 719.762L64.76 718.012L67.63 718.152L31.72 733.482V725.922L61.12 714.022V715.912L31.72 704.012V696.732L69.52 712.902C71.8533 713.929 73.8133 715.026 75.4 716.192C76.9867 717.359 78.27 718.619 79.25 719.972C80.23 721.326 81 722.819 81.56 724.452C82.12 726.086 82.5633 727.859 82.89 729.772Z" fill="black"/>
</g>
<defs>
<clipPath id="clip0_2046_30">
<rect width="2060" height="1866" fill="white"/>
</clipPath>
</defs>
</svg>
