<svg width="119" height="86" viewBox="0 0 119 86" fill="none" xmlns="http://www.w3.org/2000/svg">
<path d="M36.7576 18.1006C22.5906 7.22343 20.0707 9.5503 1 1V86H119C114.232 79.2939 108.63 67.3905 102.909 63.3669C97.1879 59.3432 74.899 62.8639 62.9798 55.8225C46.4007 46.0282 51.7271 29.5939 36.7576 18.1006Z" fill="url(#paint0_linear_214_1065)"/>
<path d="M36.7576 18.1006L37.3666 17.3074L36.7576 18.1006ZM62.9798 55.8225L63.4884 54.9615L62.9798 55.8225ZM119 86L118.535 74.4624L108.776 80.6339L119 86ZM0.59089 1.91249C10.1527 6.19948 15.6519 7.79441 20.3576 9.61065C25.0433 11.4192 29.1322 13.5067 36.1486 18.8938L37.3666 17.3074C30.216 11.8173 25.9614 9.62972 21.0778 7.7448C16.2141 5.8676 10.918 4.35081 1.40911 0.0875149L0.59089 1.91249ZM36.1486 18.8938C43.3787 24.445 45.7074 31.156 48.3321 37.9586C50.9575 44.7629 53.8718 51.6033 62.4712 56.6835L63.4884 54.9615C55.5086 50.2473 52.7966 43.9735 50.1981 37.2387C47.5989 30.5023 45.1059 23.2496 37.3666 17.3074L36.1486 18.8938ZM62.4712 56.6835C68.668 60.3443 77.4623 61.2236 85.2042 61.7242C89.1274 61.978 92.772 62.1323 95.8211 62.4745C97.3392 62.6449 98.6746 62.8587 99.7913 63.1449C100.917 63.4336 101.76 63.781 102.334 64.1848L103.484 62.5489C102.628 61.9468 101.523 61.5241 100.288 61.2076C99.0442 60.8887 97.6064 60.6624 96.0442 60.487C92.9326 60.1377 89.1873 59.9777 85.3332 59.7284C77.5205 59.2232 69.2108 58.3421 63.4884 54.9615L62.4712 56.6835ZM102.334 64.1848C104.133 65.4501 105.983 67.6115 107.858 70.2657C109.722 72.9057 111.55 75.945 113.332 78.9077L115.046 77.8769C113.273 74.9286 111.406 71.8231 109.492 69.1121C107.587 66.4153 105.575 64.0195 103.484 62.5489L102.334 64.1848Z" fill="#38C19D"/>
<rect x="52" y="45" width="10" height="10" rx="5" fill="#38C19D"/>
<rect x="53.4285" y="46.4286" width="7.14286" height="7.14286" rx="3.57143" fill="#6416CA"/>
<rect x="23" y="7" width="10" height="10" rx="5" fill="#38C19D"/>
<rect x="24.4285" y="8.42856" width="7.14286" height="7.14286" rx="3.57143" fill="#6416CA"/>
<rect x="95" y="57" width="10" height="10" rx="5" fill="#38C19D"/>
<rect x="96.4285" y="58.4286" width="7.14286" height="7.14286" rx="3.57143" fill="#6416CA"/>
<defs>
<linearGradient id="paint0_linear_214_1065" x1="57.1596" y1="-86.0118" x2="59.1828" y2="86.0096" gradientUnits="userSpaceOnUse">
<stop stop-color="#38C19D"/>
<stop offset="1" stop-color="#38C19D" stop-opacity="0.46"/>
</linearGradient>
</defs>
</svg>
