<svg width="450" height="383" viewBox="0 0 450 383" fill="none" xmlns="http://www.w3.org/2000/svg">
<g clip-path="url(#clip0_751_364)">
<path d="M449.906 224.883C449.906 273.862 434.62 320.06 405.634 358.953L357.148 320.268C377.323 292.451 387.928 259.641 387.928 224.883C387.928 215.265 387.096 205.673 385.433 196.286L445.93 182.482C448.555 196.39 449.906 210.636 449.906 224.883Z" fill="#00BF58"/>
<path d="M381.977 181.052V181.078L439.875 167.871L381.977 181.052Z" fill="white"/>
<path d="M442.467 167.273L439.868 167.871L381.97 181.078V181.052C370.141 138.339 341.752 102.749 302.68 81.6104L329.587 25.7422C384.988 54.8846 426.479 106.933 442.467 167.273Z" fill="#99E63F"/>
<path d="M315.548 18.9821L288.615 74.8242C268.544 66.2978 247.198 61.9811 225.023 61.9811C202.847 61.9811 181.478 66.2978 161.407 74.8242L134.5 18.9821C162.993 6.39881 193.411 0.0292136 225.023 0.0292136C256.611 0.0292136 287.026 6.39881 315.548 18.9821Z" fill="#FFD919"/>
<path d="M147.375 81.6104C108.3 102.749 79.8853 138.339 68.0563 181.052V181.078L11.5116 168.157L7.58594 167.273C23.5749 106.933 65.067 54.8846 120.467 25.7422L147.375 81.6104Z" fill="#FF9533"/>
<path d="M92.9073 320.268L44.422 358.953C15.4346 320.06 0.148438 273.862 0.148438 224.883C0.148438 210.636 1.47433 196.39 4.12582 182.482L64.6222 196.286C62.9582 205.673 62.1263 215.265 62.1263 224.883C62.1263 259.641 72.7334 292.451 92.9073 320.268Z" fill="#FF4D4D"/>
<path d="M11.5078 168.157L68.0525 181.078V181.052L11.5078 168.157Z" fill="white"/>
<mask id="mask0_751_364" style="mask-type:luminance" maskUnits="userSpaceOnUse" x="357" y="182" width="93" height="177">
<path d="M449.906 224.883C449.906 273.862 434.62 320.06 405.634 358.953L357.148 320.268C377.323 292.451 387.928 259.641 387.928 224.883C387.928 215.265 387.096 205.673 385.433 196.286L445.93 182.482C448.555 196.39 449.906 210.636 449.906 224.883Z" fill="white"/>
</mask>
<g mask="url(#mask0_751_364)">
<path d="M446.867 187.805C446.214 186.043 445.331 184.383 444.242 182.867L445.928 182.483C446.26 184.253 446.575 186.026 446.867 187.805Z" fill="#007A00"/>
<path d="M449.822 218.703C449.126 209.576 447.925 200.466 446.224 191.469C445.655 188.449 444.376 185.64 442.531 183.258L444.243 182.865C445.332 184.381 446.216 186.041 446.868 187.802C448.543 197.989 449.539 208.335 449.822 218.703Z" fill="#008400"/>
<path d="M448.677 248.754C448.848 245 448.932 241.226 448.932 237.441C448.932 222.193 447.491 206.823 444.647 191.765C444.078 188.745 442.735 185.956 440.789 183.652L442.53 183.256C444.375 185.638 445.654 188.448 446.223 191.468C447.924 200.465 449.125 209.575 449.821 218.702C449.876 220.761 449.905 222.822 449.905 224.881C449.905 232.919 449.495 240.886 448.677 248.754Z" fill="#008C00"/>
<path d="M444.621 273.918C446.42 261.956 447.332 249.774 447.332 237.444C447.332 222.294 445.9 207.026 443.073 192.066C442.504 189.04 441.078 186.271 439.008 184.062L440.792 183.655C442.738 185.959 444.081 188.749 444.65 191.769C447.494 206.827 448.935 222.196 448.935 237.444C448.935 241.23 448.851 245.004 448.681 248.757C447.797 257.263 446.443 265.66 444.621 273.918Z" fill="#009300"/>
<path d="M438.689 295.543C443.347 276.758 445.723 257.294 445.723 237.443C445.723 222.394 444.3 207.226 441.493 192.362C440.921 189.322 439.388 186.567 437.156 184.482L439.004 184.061C441.074 186.27 442.501 189.039 443.07 192.065C445.896 207.024 447.329 222.293 447.329 237.443C447.329 249.772 446.416 261.954 444.617 273.916C443.003 281.239 441.028 288.452 438.689 295.543Z" fill="#009900"/>
<path d="M431.398 314.645C439.801 290.096 444.12 264.121 444.12 237.444C444.12 222.493 442.708 207.427 439.922 192.661C439.339 189.586 437.658 186.843 435.21 184.928L437.159 184.484C439.391 186.568 440.924 189.323 441.496 192.364C444.302 207.228 445.726 222.395 445.726 237.444C445.726 257.295 443.349 276.759 438.692 295.544C436.558 302.018 434.127 308.39 431.398 314.645Z" fill="#009F05"/>
<path d="M422.984 331.852C435.848 302.397 442.515 270.46 442.515 237.443C442.515 222.593 441.108 207.624 438.342 192.959C437.774 189.959 436.012 187.32 433.46 185.646C433.336 185.565 433.211 185.487 433.084 185.412L435.207 184.927C437.655 186.841 439.336 189.584 439.919 192.659C442.705 207.425 444.117 222.492 444.117 237.443C444.117 264.119 439.798 290.094 431.395 314.643C428.846 320.484 426.042 326.224 422.984 331.852Z" fill="#00A412"/>
<path d="M413.586 347.578C431.546 313.949 440.912 276.456 440.912 237.444C440.912 222.693 439.518 207.826 436.766 193.259C436.281 190.686 434.771 188.425 432.582 186.99C431.95 186.574 431.274 186.239 430.575 185.988L433.087 185.414C433.214 185.489 433.339 185.567 433.463 185.647C436.015 187.322 437.777 189.961 438.345 192.961C441.111 207.626 442.518 222.595 442.518 237.444C442.518 270.462 435.851 302.399 422.987 331.853C420.08 337.201 416.947 342.447 413.586 347.578Z" fill="#00A91D"/>
<path d="M405.63 358.953L405.347 358.728C427.623 322.379 439.303 280.858 439.303 237.443C439.303 222.792 437.92 208.023 435.185 193.555C434.781 191.412 433.522 189.527 431.7 188.331C430.381 187.468 428.85 187.023 427.3 187.023C426.705 187.023 426.107 187.087 425.518 187.22L385.444 196.367C385.438 196.341 385.433 196.312 385.43 196.286L430.571 185.987C431.27 186.238 431.946 186.573 432.578 186.989C434.767 188.424 436.277 190.685 436.762 193.257C439.513 207.824 440.908 222.691 440.908 237.443C440.908 276.455 431.541 313.947 413.582 347.577C411.058 351.434 408.408 355.226 405.63 358.953Z" fill="#00AD28"/>
<path d="M405.348 358.727L404.083 357.719C426.137 321.661 437.701 280.49 437.701 237.442C437.701 222.889 436.324 208.221 433.61 193.851C433.287 192.136 432.282 190.628 430.821 189.673C429.767 188.983 428.543 188.625 427.304 188.625C426.827 188.625 426.348 188.677 425.877 188.783L385.717 197.948C385.627 197.42 385.538 196.891 385.445 196.366L425.519 187.218C426.108 187.086 426.706 187.022 427.301 187.022C428.852 187.022 430.382 187.467 431.701 188.33C433.523 189.525 434.782 191.411 435.186 193.553C437.921 208.022 439.304 222.791 439.304 237.442C439.304 280.856 427.624 322.377 405.348 358.727Z" fill="#00B133"/>
<path d="M404.085 357.719L402.821 356.708C424.652 320.945 436.098 280.123 436.098 237.442C436.098 222.99 434.732 208.423 432.035 194.148C431.793 192.863 431.039 191.731 429.945 191.015C429.154 190.495 428.236 190.23 427.306 190.23C426.948 190.23 426.59 190.267 426.235 190.348L385.973 199.536C385.892 199.005 385.805 198.476 385.719 197.948L425.879 188.783C426.35 188.676 426.829 188.624 427.306 188.624C428.545 188.624 429.769 188.982 430.823 189.673C432.284 190.628 433.289 192.136 433.612 193.851C436.326 208.221 437.703 222.889 437.703 237.442C437.703 280.49 426.139 321.661 404.085 357.719Z" fill="#00B43B"/>
<path d="M402.824 356.711L401.56 355.703C423.169 320.232 434.496 279.759 434.496 237.444C434.496 223.091 433.139 208.625 430.463 194.448C430.301 193.591 429.799 192.837 429.068 192.358C428.543 192.014 427.933 191.832 427.315 191.832C427.076 191.832 426.833 191.861 426.596 191.916L386.219 201.13C386.141 200.598 386.06 200.067 385.977 199.539L426.238 190.351C426.594 190.27 426.952 190.233 427.31 190.233C428.239 190.233 429.158 190.498 429.949 191.018C431.043 191.734 431.797 192.866 432.039 194.151C434.736 208.426 436.102 222.993 436.102 237.444C436.102 280.126 424.656 320.948 402.824 356.711Z" fill="#00B743"/>
<path d="M401.559 355.703L400.295 354.693C421.685 319.515 432.893 279.392 432.893 237.444C432.893 223.192 431.545 208.824 428.886 194.745C428.805 194.318 428.554 193.94 428.19 193.7C427.924 193.53 427.618 193.44 427.309 193.44C427.191 193.44 427.07 193.452 426.954 193.478L386.441 202.723C386.369 202.192 386.294 201.661 386.219 201.129L426.596 191.916C426.833 191.861 427.075 191.832 427.315 191.832C427.933 191.832 428.542 192.014 429.068 192.358C429.798 192.837 430.301 193.591 430.462 194.448C433.139 208.625 434.496 223.091 434.496 237.444C434.496 279.759 423.169 320.232 401.559 355.703Z" fill="#00BA4B"/>
<path d="M400.291 354.691L399.032 353.687C420.208 318.816 431.284 279.137 431.284 237.443C431.284 223.197 429.933 208.95 427.306 195.042L386.648 204.322C386.579 203.788 386.51 203.253 386.438 202.722L426.95 193.477C427.066 193.451 427.187 193.439 427.306 193.439C427.615 193.439 427.921 193.529 428.186 193.699C428.55 193.939 428.801 194.317 428.882 194.744C431.541 208.823 432.89 223.191 432.89 237.443C432.89 279.391 421.681 319.514 400.291 354.691Z" fill="#00BD52"/>
<path d="M399.033 353.688L357.148 320.269C377.323 292.452 387.928 259.642 387.928 224.884C387.928 217.995 387.501 211.117 386.649 204.323L427.306 195.043C429.934 208.951 431.285 223.198 431.285 237.444C431.285 279.138 420.209 318.816 399.033 353.688Z" fill="#00BF58"/>
</g>
<mask id="mask1_751_364" style="mask-type:luminance" maskUnits="userSpaceOnUse" x="302" y="25" width="141" height="157">
<path d="M442.467 167.273L439.868 167.871L381.97 181.078V181.052C370.141 138.339 341.752 102.749 302.68 81.6104L329.587 25.7422C384.988 54.8846 426.479 106.933 442.467 167.273Z" fill="white"/>
</mask>
<g mask="url(#mask1_751_364)">
<path d="M442.007 167.379C426.271 114.528 393.005 68.4626 348.242 36.7591C394.25 67.042 428.333 113.916 442.469 167.275L442.007 167.379Z" fill="#2ACB00"/>
<path d="M440.438 167.738C422.741 108.391 382.788 57.668 329.25 26.4322L329.585 25.7421C335.995 29.1146 342.217 32.7931 348.238 36.7575C393.001 68.4611 426.266 114.527 442.003 167.377L440.438 167.738Z" fill="#3ACF00"/>
<path d="M438.873 168.098C421.289 109.224 381.657 58.8965 328.555 27.883L329.253 26.4307C382.791 57.6665 422.744 108.389 440.441 167.737L439.869 167.87L438.873 168.098Z" fill="#47D200"/>
<path d="M437.306 168.453C419.834 110.05 380.525 60.1326 327.859 29.3328L328.555 27.8833C381.657 58.8968 421.29 109.224 438.874 168.098L437.306 168.453Z" fill="#53D500"/>
<path d="M435.734 168.812C418.378 110.889 379.383 61.3669 327.156 30.7836L327.855 29.3342C380.521 60.134 419.83 110.051 437.302 168.454L435.734 168.812Z" fill="#5DD800"/>
<path d="M434.169 169.172C416.926 111.721 378.249 62.5983 326.461 32.2345L327.16 30.785C379.387 61.3682 418.381 110.89 435.737 168.814L434.169 169.172Z" fill="#66DA00"/>
<path d="M432.597 169.527C415.466 112.548 377.116 63.8286 325.758 33.6842L326.457 32.2319C378.245 62.5957 416.921 111.719 434.165 169.169L432.597 169.527Z" fill="#6EDC00"/>
<path d="M431.033 169.887C414.014 113.38 375.985 65.0629 325.062 35.1351L325.761 33.6856C377.119 63.8299 415.47 112.549 432.601 169.529L431.033 169.887Z" fill="#75DE00"/>
<path d="M429.468 170.246C412.565 114.213 374.847 66.2971 324.367 36.5858L325.066 35.1364C375.988 65.0642 414.018 113.382 431.036 169.888L429.468 170.246Z" fill="#7CDF08"/>
<path d="M427.896 170.602C411.109 115.039 373.711 67.5275 323.664 38.0357L324.363 36.5833C374.843 66.2945 412.561 114.211 429.464 170.244L427.896 170.602Z" fill="#82E114"/>
<path d="M426.332 170.957C409.657 115.874 372.58 68.7607 322.969 39.4854L323.667 38.0359C373.715 67.5278 411.112 115.04 427.899 170.602L426.332 170.957Z" fill="#88E21E"/>
<path d="M424.759 171.316C408.2 116.704 371.441 69.9949 322.266 40.9362L322.964 39.4868C372.576 68.762 409.653 115.876 426.327 170.958L424.759 171.316Z" fill="#8CE327"/>
<path d="M423.195 171.676C406.748 117.54 370.309 71.2292 321.57 42.3899L322.269 40.9376C371.444 69.9963 408.204 116.706 424.763 171.318L423.195 171.676Z" fill="#91E430"/>
<path d="M421.623 172.031C405.335 118.629 368.965 72.396 320.867 43.8426L321.569 42.3874C370.308 71.2266 406.747 117.538 423.193 171.673L421.623 172.031Z" fill="#96E638"/>
<path d="M381.97 181.078V181.052C370.141 138.339 341.752 102.749 302.68 81.6104L320.867 43.8433C368.966 72.3967 405.335 118.63 421.623 172.032L381.97 181.078Z" fill="#99E63F"/>
</g>
<mask id="mask2_751_364" style="mask-type:luminance" maskUnits="userSpaceOnUse" x="134" y="0" width="182" height="75">
<path d="M315.548 18.9821L288.615 74.8242C268.544 66.2978 247.198 61.9811 225.023 61.9811C202.847 61.9811 181.478 66.2978 161.407 74.8242L134.5 18.9821C162.993 6.39881 193.411 0.0292136 225.023 0.0292136C256.611 0.0292136 287.026 6.39881 315.548 18.9821Z" fill="white"/>
</mask>
<g mask="url(#mask2_751_364)">
<path d="M314.727 20.6758C314.072 19.6046 313.324 18.594 312.492 17.6613C313.511 18.0944 314.528 18.5333 315.547 18.9809L314.727 20.6758Z" fill="#FFB000"/>
<path d="M313.888 22.4297C312.479 19.8108 310.487 17.5558 308.07 15.8435C309.549 16.4326 311.027 17.0389 312.497 17.6626C313.328 18.5952 314.076 19.6058 314.732 20.677L313.888 22.4297Z" fill="#FFB600"/>
<path d="M313.003 24.2617C311.218 20.3204 308.036 17.1587 304.052 15.3974C298.473 12.9374 292.826 10.6968 287.117 8.67559C294.2 10.7083 301.185 13.0991 308.068 15.845C310.485 17.5572 312.477 19.8123 313.886 22.4311L313.003 24.2617Z" fill="#FFBB00"/>
<path d="M312.06 26.2148C312.034 26.1427 312.008 26.0705 311.98 25.9983C310.478 21.9155 307.383 18.621 303.401 16.8655C290.266 11.0676 276.748 6.49972 262.914 3.17633C271.091 4.55651 279.164 6.39001 287.116 8.67394C292.825 10.6951 298.472 12.9357 304.051 15.3958C308.035 17.1571 311.217 20.3188 313.002 24.2601L312.06 26.2148Z" fill="#FFBF00"/>
<path d="M311.017 28.3789C310.879 27.761 310.7 27.1518 310.477 26.5512C309.123 22.8784 306.337 19.9102 302.756 18.3308C282.842 9.54445 262.036 3.59929 240.594 0.550201C248.115 1.05838 255.556 1.93327 262.916 3.17485C276.75 6.49824 290.268 11.0661 303.403 16.864C307.385 18.6195 310.48 21.914 311.982 25.9968C312.011 26.069 312.036 26.1412 312.062 26.2134L311.017 28.3789Z" fill="#FFC300"/>
<path d="M309.751 31.0039C309.693 29.6844 309.436 28.3706 308.972 27.1088C307.768 23.8432 305.29 21.207 302.108 19.8008C275.885 8.23105 248.111 1.6247 219.367 0.100161C221.25 0.0539626 223.135 0.0308521 225.024 0.0308521C230.247 0.0308521 235.438 0.206972 240.592 0.553459C262.034 3.60254 282.841 9.54771 302.755 18.334C306.335 19.9134 309.122 22.8817 310.476 26.5544C310.698 27.155 310.877 27.7643 311.016 28.3822L309.751 31.0039Z" fill="#FFC600"/>
<path d="M288.615 74.8242C288.589 74.8127 288.563 74.804 288.537 74.7925L307.042 36.4248C308.364 33.6789 308.517 30.5201 307.464 27.6616C306.412 24.803 304.244 22.4989 301.458 21.2689C271.518 8.05907 239.538 1.36029 206.402 1.36029C204.028 1.36029 201.664 1.39499 199.305 1.46429C205.931 0.716451 212.621 0.263108 219.366 0.0985271C248.11 1.62307 275.884 8.22942 302.107 19.7992C305.289 21.2054 307.767 23.8416 308.971 27.1072C309.436 28.369 309.693 29.6827 309.75 31.0023L288.615 74.8242Z" fill="#FFC900"/>
<path d="M288.54 74.793C288.046 74.5822 287.552 74.3772 287.055 74.1722L305.598 35.7266C306.733 33.3762 306.863 30.6649 305.962 28.2164C305.058 25.7679 303.202 23.7901 300.814 22.7362C271.079 9.61876 239.315 2.96623 206.405 2.96623C197.818 2.96623 189.31 3.41663 180.898 4.31749C186.975 3.11345 193.114 2.16065 199.308 1.46479C201.667 1.39549 204.031 1.36079 206.405 1.36079C239.54 1.36079 271.521 8.05957 301.461 21.2694C304.247 22.4994 306.415 24.8035 307.466 27.6621C308.52 30.5206 308.367 33.6794 307.045 36.4253L288.54 74.793Z" fill="#FFCC00"/>
<path d="M287.055 74.1719C286.561 73.9669 286.061 73.7648 285.565 73.5655L304.154 35.0275C305.098 33.0699 305.208 30.8119 304.454 28.7705C303.703 26.7291 302.156 25.0833 300.166 24.2056C270.637 11.1748 239.092 4.5684 206.404 4.5684C191.953 4.5684 177.726 5.85907 163.805 8.42019C169.445 6.82635 175.142 5.4606 180.898 4.31719C189.309 3.41632 197.817 2.96592 206.404 2.96592C239.315 2.96592 271.079 9.61845 300.813 22.7359C303.201 23.7898 305.058 25.7676 305.961 28.2161C306.862 30.6646 306.732 33.3759 305.598 35.7263L287.055 74.1719Z" fill="#FFCF00"/>
<path d="M285.564 73.5664C285.068 73.3672 284.568 73.1708 284.069 72.9745L302.707 34.3325C303.463 32.7647 303.55 30.9601 302.949 29.3258C302.349 27.6944 301.11 26.3749 299.519 25.6732C270.195 12.7348 238.866 6.17469 206.404 6.17469C186.325 6.17469 166.689 8.68094 147.703 13.6473C153.011 11.6983 158.38 9.95428 163.804 8.42107C177.725 5.85996 191.952 4.56928 206.404 4.56928C239.092 4.56928 270.636 11.1757 300.166 24.2064C302.155 25.0842 303.703 26.73 304.454 28.7714C305.207 30.8128 305.097 33.0707 304.153 35.0284L285.564 73.5664Z" fill="#FFD100"/>
<path d="M284.067 72.9727C283.567 72.7792 283.068 72.5857 282.565 72.3952L301.261 33.6348C301.827 32.4568 301.894 31.1026 301.44 29.8783C300.99 28.6541 300.063 27.6666 298.868 27.1382C269.751 14.2922 238.64 7.77822 206.402 7.77822C181.659 7.77822 157.595 11.6069 134.6 19.1892L134.5 18.9813C138.856 17.0583 143.257 15.2797 147.701 13.6454C166.687 8.6791 186.324 6.17285 206.402 6.17285C238.865 6.17285 270.193 12.733 299.517 25.6714C301.108 26.373 302.347 27.6926 302.948 29.3239C303.548 30.9582 303.461 32.7628 302.705 34.3307L284.067 72.9727Z" fill="#FFD300"/>
<path d="M282.567 72.3945C282.065 72.2069 281.56 72.0192 281.057 71.8344L299.817 32.9354C300.195 32.1529 300.238 31.2492 299.938 30.432C299.638 29.6178 299.02 28.9566 298.223 28.6072C269.311 15.8507 238.416 9.38008 206.404 9.38008C181.906 9.38008 158.076 13.1626 135.304 20.6467L134.602 19.1886C157.596 11.6063 181.661 7.77758 206.404 7.77758C238.642 7.77758 269.753 14.2915 298.87 27.1375C300.065 27.6659 300.992 28.6534 301.442 29.8777C301.896 31.1019 301.829 32.4561 301.263 33.6342L282.567 72.3945Z" fill="#FFD500"/>
<path d="M281.058 71.8359C280.552 71.6511 280.047 71.4664 279.539 71.2873L298.373 32.2411C298.561 31.8485 298.584 31.398 298.434 30.988C298.284 30.5809 297.972 30.2517 297.573 30.0756C268.867 17.4086 238.194 10.987 206.404 10.987C182.149 10.987 158.557 14.7204 136.007 22.1064L135.305 20.6483C158.077 13.1641 181.906 9.38166 206.404 9.38166C238.417 9.38166 269.312 15.8523 298.223 28.6088C299.02 28.9582 299.638 29.6194 299.938 30.4336C300.239 31.2507 300.195 32.1545 299.817 32.937L281.058 71.8359Z" fill="#FFD607"/>
<path d="M279.539 71.2891C279.034 71.11 278.523 70.931 278.018 70.7549L296.927 31.5441C268.409 18.9609 237.993 12.5913 206.405 12.5913C182.375 12.5913 159.038 16.2727 136.71 23.5634L136.008 22.1081C158.558 14.7222 182.15 10.9888 206.405 10.9888C238.195 10.9888 268.868 17.4103 297.574 30.0773C297.973 30.2535 298.284 30.5826 298.435 30.9897C298.585 31.3997 298.562 31.8502 298.374 32.2429L279.539 71.2891Z" fill="#FFD811"/>
<path d="M161.404 74.8242L136.703 23.5615C159.031 16.2708 182.368 12.5894 206.398 12.5894C237.986 12.5894 268.402 18.959 296.921 31.5422L278.011 70.753C261.08 64.9262 243.334 61.9811 225.019 61.9811C202.844 61.9811 181.474 66.2978 161.404 74.8242Z" fill="#FFD919"/>
</g>
<mask id="mask3_751_364" style="mask-type:luminance" maskUnits="userSpaceOnUse" x="7" y="25" width="141" height="157">
<path d="M147.375 81.6104C108.3 102.749 79.8853 138.339 68.0563 181.052V181.078L11.5116 168.157L7.58594 167.273C23.5749 106.933 65.067 54.8846 120.467 25.7422L147.375 81.6104Z" fill="white"/>
</mask>
<g mask="url(#mask3_751_364)">
<path d="M146.168 82.2656L120.635 29.2502C120.171 28.2859 119.636 27.3677 119.039 26.4957C119.514 26.2416 119.988 25.9904 120.464 25.7392L147.372 81.6073C146.969 81.8267 146.568 82.0462 146.168 82.2656Z" fill="#FF2200"/>
<path d="M144.77 83.0508L119.195 29.9487C118.742 29.0075 118.216 28.1095 117.625 27.2664C118.098 27.0094 118.571 26.7524 119.045 26.4983C119.643 27.3703 120.177 28.2885 120.641 29.2529L146.174 82.2683C145.704 82.5281 145.236 82.788 144.77 83.0508Z" fill="#FF3300"/>
<path d="M143.374 83.8477L117.75 30.6446C117.309 29.7293 116.794 28.8602 116.211 28.043C116.681 27.7832 117.153 27.5233 117.625 27.2663C118.217 28.1095 118.742 29.0074 119.196 29.9487L144.77 83.0507C144.304 83.3164 143.837 83.582 143.374 83.8477Z" fill="#FF4000"/>
<path d="M141.98 84.6562L116.301 31.3377C115.874 30.4513 115.37 29.6139 114.797 28.8285C115.265 28.5658 115.736 28.303 116.207 28.0403C116.79 28.8574 117.305 29.7265 117.746 30.6418L143.37 83.8449C142.905 84.1134 142.442 84.3848 141.98 84.6562Z" fill="#FF4C00"/>
<path d="M140.595 85.4844L114.854 32.0359C114.443 31.1812 113.951 30.3785 113.391 29.6307C113.857 29.3621 114.327 29.0965 114.795 28.8308C115.368 29.6162 115.872 30.4536 116.3 31.34L141.979 84.6586C141.516 84.9329 141.054 85.2072 140.595 85.4844Z" fill="#FF5700"/>
<path d="M68.06 181.051L67.2734 180.872C68.1515 178.689 69.0795 176.529 70.0543 174.398C69.3446 176.596 68.6796 178.813 68.06 181.051Z" fill="#FF6000"/>
<path d="M139.22 86.3242L113.41 32.7314C113.016 31.9142 112.54 31.1462 111.992 30.4417C112.459 30.1674 112.923 29.8988 113.392 29.6303C113.953 30.3781 114.444 31.1808 114.855 32.0355L140.597 85.484C140.138 85.7612 139.676 86.0441 139.22 86.3242Z" fill="#FF6000"/>
<path d="M67.2724 180.871L65.6875 180.51C68.2706 174.054 71.2769 167.823 74.6797 161.855C72.9741 165.955 71.4294 170.139 70.0532 174.398C69.0785 176.528 68.1504 178.688 67.2724 180.871Z" fill="#FF6800"/>
<path d="M137.848 87.1797L111.961 33.428C111.586 32.6513 111.126 31.9237 110.594 31.2624C111.056 30.9881 111.525 30.711 111.989 30.4424C112.537 31.147 113.013 31.915 113.407 32.7321L139.217 86.325C138.759 86.608 138.303 86.8938 137.848 87.1797Z" fill="#FF6800"/>
<path d="M65.6844 180.512L64.1016 180.151C68.3166 169.563 73.6542 159.584 80.0085 150.341C78.0861 154.101 76.3086 157.938 74.6766 161.856C71.2738 167.825 68.2675 174.056 65.6844 180.512Z" fill="#FF7000"/>
<path d="M136.487 88.0469L110.517 34.122C110.163 33.3886 109.72 32.7071 109.203 32.0921C109.666 31.8149 110.13 31.5377 110.595 31.2605C111.128 31.9218 111.588 32.6494 111.963 33.4261L137.85 87.1778C137.392 87.4665 136.941 87.7524 136.487 88.0469Z" fill="#FF7000"/>
<path d="M64.0991 180.148L62.5156 179.785C68.31 165.163 76.2183 151.685 85.9771 139.682C83.8572 143.149 81.8643 146.707 80.006 150.339C73.6517 159.582 68.3141 169.56 64.0991 180.148Z" fill="#FF7700"/>
<path d="M135.131 88.9297L109.072 34.82C108.74 34.1299 108.315 33.4976 107.812 32.9403C108.277 32.6544 108.737 32.3743 109.203 32.0914C109.721 32.7064 110.163 33.3878 110.518 34.1212L136.487 88.0462C136.034 88.3378 135.582 88.6323 135.131 88.9297Z" fill="#FF7700"/>
<path d="M62.5201 179.785L60.9375 179.424C68.2689 160.841 78.9782 144.077 92.5322 129.802C90.2304 133.009 88.0452 136.307 85.9816 139.682C76.2228 151.685 68.3145 165.163 62.5201 179.785Z" fill="#FF7E05"/>
<path d="M133.784 89.8281L107.628 35.5192C107.319 34.8782 106.91 34.3007 106.422 33.8041C106.884 33.5153 107.35 33.2266 107.814 32.9436C108.316 33.5009 108.741 34.1332 109.073 34.8233L135.132 88.933C134.682 89.2275 134.231 89.5278 133.784 89.8281Z" fill="#FF7E05"/>
<path d="M60.9344 179.426L59.3516 179.065C68.1919 156.552 81.9344 136.675 99.6512 120.598C97.1674 123.578 94.7914 126.65 92.5291 129.803C78.9752 144.078 68.2658 160.843 60.9344 179.426Z" fill="#FF8310"/>
<path d="M132.446 90.7383L106.186 36.2128C105.902 35.6237 105.505 35.104 105.023 34.6825C105.489 34.3879 105.958 34.0934 106.426 33.8018C106.914 34.2984 107.323 34.8759 107.632 35.5169L133.788 89.8258C133.339 90.129 132.892 90.4322 132.446 90.7383Z" fill="#FF8310"/>
<path d="M59.3551 179.062L57.7734 178.704C68.1048 152.27 85.113 129.431 107.341 112.011C104.676 114.783 102.112 117.645 99.6548 120.596C81.938 136.673 68.1955 156.55 59.3551 179.062Z" fill="#FF8819"/>
<path d="M131.105 91.6641L104.734 36.9076C104.474 36.3676 104.072 35.9172 103.578 35.5996C104.058 35.2906 104.534 34.9875 105.016 34.6814C105.498 35.1029 105.895 35.6227 106.179 36.2117L132.439 90.7372C131.991 91.0462 131.549 91.3522 131.105 91.6641Z" fill="#FF8819"/>
<path d="M57.7692 178.707L56.1875 178.346C68.0004 147.985 88.5289 122.302 115.606 104.01C112.751 106.583 109.993 109.254 107.337 112.014C85.1088 129.434 68.1006 152.273 57.7692 178.707Z" fill="#FF8D23"/>
<path d="M129.779 92.6055L103.29 37.6035C103.101 37.2108 102.761 36.9135 102.347 36.7777C102.201 36.7287 102.05 36.6998 101.898 36.6969C102.457 36.3273 103.018 35.9635 103.58 35.5997C104.074 35.9173 104.476 36.3677 104.736 36.9077L131.107 91.6642C130.662 91.976 130.219 92.2879 129.779 92.6055Z" fill="#FF8D23"/>
<path d="M56.1879 178.344L54.6172 177.986C67.9301 143.741 92.3903 115.153 124.506 96.5469C121.442 98.9347 118.477 101.421 115.606 104.008C88.5293 122.299 68.0008 147.983 56.1879 178.344Z" fill="#FF922C"/>
<path d="M128.46 93.5625L101.846 38.3007C98.0177 40.3161 94.2537 42.4383 90.5625 44.6674C94.2526 41.8984 98.0374 39.2391 101.9 36.6982C102.051 36.7011 102.202 36.73 102.349 36.7791C102.762 36.9148 103.103 37.2122 103.291 37.6049L129.78 92.6068C129.339 92.9215 128.897 93.242 128.46 93.5625Z" fill="#FF922C"/>
<path d="M54.6189 177.988L11.5116 168.157L7.58594 167.273C20.5466 118.361 50.2625 74.8997 90.5626 44.6687C94.2539 42.4396 98.0179 40.3174 101.846 38.302L128.46 93.5638C127.127 94.5398 125.807 95.5359 124.507 96.5494C92.3921 115.156 67.9318 143.744 54.6189 177.988Z" fill="#FF9533"/>
</g>
<mask id="mask4_751_364" style="mask-type:luminance" maskUnits="userSpaceOnUse" x="0" y="182" width="93" height="177">
<path d="M92.9073 320.268L44.422 358.953C15.4346 320.06 0.148438 273.862 0.148438 224.883C0.148438 210.636 1.47433 196.39 4.12582 182.482L64.6222 196.286C62.9582 205.673 62.1263 215.265 62.1263 224.883C62.1263 259.641 72.7334 292.451 92.9073 320.268Z" fill="white"/>
</mask>
<g mask="url(#mask4_751_364)">
<path d="M91.6532 321.273C91.4987 321.042 91.3387 320.811 91.1739 320.583C78.9489 303.727 70.7415 284.653 66.8906 264.409C71.8379 284.43 80.5907 303.282 92.9112 320.269L91.6532 321.273Z" fill="#FF0000"/>
<path d="M64.216 198.688C63.6376 197.651 62.9718 196.666 62.2266 195.742L64.6225 196.288C64.481 197.088 64.3453 197.885 64.216 198.688Z" fill="#FF0000"/>
<path d="M90.389 322.277C90.223 322.023 90.0498 321.772 89.8702 321.524C72.5637 297.662 63.2184 269.409 62.7734 239.675C63.5155 248.08 64.8911 256.338 66.8854 264.408C70.7363 284.652 78.9437 303.726 91.1686 320.582C91.3335 320.811 91.4935 321.042 91.6479 321.273L90.389 322.277Z" fill="#FF0000"/>
<path d="M63.7884 201.477C62.7991 199.094 61.3393 196.929 59.5 195.116L62.2251 195.739C62.9704 196.663 63.6362 197.648 64.2145 198.684C64.0644 199.614 63.9223 200.544 63.7884 201.477Z" fill="#FF0000"/>
<path d="M89.1322 323.281C88.9552 323.007 88.7692 322.736 88.5749 322.467C70.6376 297.734 61.1562 268.334 61.1562 237.442C61.1562 231.543 61.5082 225.65 62.2052 219.849C62.1544 221.524 62.129 223.204 62.129 224.882C62.129 229.857 62.3461 234.788 62.7775 239.674C63.2225 269.408 72.5678 297.661 89.8743 321.523C90.0538 321.771 90.2271 322.022 90.3931 322.276L89.1322 323.281Z" fill="#FF0000"/>
<path d="M63.2853 205.281C62.3685 200.843 59.7635 196.908 56.0391 194.329L59.4973 195.118C61.3366 196.931 62.7964 199.096 63.7856 201.479C63.604 202.743 63.4371 204.011 63.2853 205.281Z" fill="#FF0000"/>
<path d="M87.8693 324.289C87.6819 323.992 87.4836 323.697 87.2745 323.408C69.1371 298.401 59.5498 268.672 59.5498 237.442C59.5498 228.742 60.3066 220.063 61.7994 211.646C63.2933 203.224 57.9129 195.107 49.571 193.204L4.0625 182.818C4.08358 182.706 4.10523 182.593 4.1266 182.481L56.0436 194.328C59.7681 196.906 62.3731 200.842 63.2898 205.279C62.7129 210.104 62.3509 214.97 62.2033 219.849C61.5063 225.65 61.1543 231.543 61.1543 237.442C61.1543 268.334 70.6356 297.734 88.573 322.467C88.7673 322.736 88.9533 323.007 89.1302 323.281L87.8693 324.289Z" fill="#FF0000"/>
<path d="M86.602 325.297C86.4057 324.976 86.1955 324.659 85.9714 324.35C67.6333 299.068 57.9412 269.016 57.9412 237.442C57.9412 228.65 58.7063 219.875 60.215 211.366C61.5594 203.784 56.7172 196.482 49.2094 194.769L3.76562 184.398C3.8612 183.872 3.95851 183.344 4.05812 182.819L49.5666 193.204C57.9086 195.107 63.2889 203.224 61.795 211.646C60.3022 220.063 59.5454 228.742 59.5454 237.442C59.5454 268.672 69.1327 298.401 87.2701 323.409C87.4792 323.697 87.6776 323.992 87.865 324.289L86.602 325.297Z" fill="#FF0000"/>
<path d="M85.3367 326.305C85.1332 325.961 84.9117 325.623 84.6723 325.294C66.135 299.732 56.3372 269.354 56.3372 237.442C56.3372 228.555 57.1099 219.688 58.6353 211.086C59.8304 204.347 55.5259 197.856 48.8525 196.332L3.48438 185.98C3.57619 185.452 3.67003 184.924 3.76561 184.398L49.2094 194.77C56.7172 196.482 61.5594 203.784 60.215 211.366C58.7063 219.875 57.9412 228.65 57.9412 237.442C57.9412 269.016 67.6333 299.068 85.9714 324.35C86.1954 324.659 86.4056 324.976 86.602 325.297L85.3367 326.305Z" fill="#FF0000"/>
<path d="M84.0727 327.32C83.8639 326.951 83.6323 326.587 83.3776 326.238C64.6402 300.401 54.7365 269.697 54.7365 237.444C54.7365 228.465 55.5178 219.502 57.0596 210.808C58.1055 204.912 54.3392 199.233 48.5 197.899L3.21875 187.565C3.30682 187.036 3.39661 186.508 3.48843 185.982L48.8566 196.334C55.5299 197.858 59.8344 204.349 58.6393 211.088C57.1139 219.69 56.3413 228.557 56.3413 237.444C56.3413 269.356 66.1391 299.734 84.6764 325.296C84.9158 325.625 85.1372 325.963 85.3408 326.307L84.0727 327.32Z" fill="#FF0202"/>
<path d="M82.8005 328.332C82.5906 327.936 82.3503 327.55 82.0795 327.177C63.142 301.066 53.1325 270.036 53.1325 237.443C53.1325 228.368 53.9222 219.313 55.4803 210.526C56.3765 205.474 53.1484 200.602 48.1431 199.462L2.96094 189.151C3.04496 188.623 3.1313 188.091 3.21936 187.563L48.5006 197.897C54.3398 199.231 58.1061 204.91 57.0603 210.807C55.5184 219.5 54.7371 228.463 54.7371 237.443C54.7371 269.695 64.6408 300.399 83.3783 326.236C83.6329 326.585 83.8645 326.949 84.0733 327.319L82.8005 328.332Z" fill="#FF0E0E"/>
<path d="M81.5159 329.355C81.3106 328.931 81.0649 328.515 80.7776 328.12C61.6403 301.735 51.5252 270.378 51.5252 237.444C51.5252 228.277 52.3235 219.126 53.8978 210.248C54.6447 206.035 51.9542 201.978 47.7837 201.028L2.71094 190.74C2.7915 190.212 2.87378 189.681 2.95809 189.152L48.1403 199.463C53.1456 200.604 56.3737 205.475 55.4774 210.528C53.9194 219.314 53.1297 228.369 53.1297 237.444C53.1297 270.037 63.1391 301.068 82.0767 327.178C82.3475 327.551 82.5877 327.938 82.7977 328.333L81.5159 329.355Z" fill="#FF1A1A"/>
<path d="M80.2222 330.387C80.0322 329.928 79.7853 329.48 79.4801 329.059C60.1433 302.396 49.9219 270.716 49.9219 237.442C49.9219 228.179 50.7286 218.936 52.3193 209.965C52.9164 206.596 50.7647 203.35 47.428 202.588L2.47656 192.332C2.55337 191.801 2.63162 191.269 2.71218 190.738L47.7849 201.026C51.9555 201.976 54.646 206.033 53.899 210.245C52.3248 219.124 51.5264 228.274 51.5264 237.442C51.5264 270.375 61.6415 301.732 80.7789 328.117C81.0662 328.513 81.3119 328.929 81.5172 329.353L80.2222 330.387Z" fill="#FF2525"/>
<path d="M78.8944 331.449C78.7431 330.944 78.5057 330.453 78.1792 330.006C58.6425 303.066 48.3152 271.059 48.3152 237.444C48.3152 228.089 49.13 218.751 50.7371 209.688C51.1852 207.161 49.5712 204.727 47.0684 204.156L2.25 193.929C2.32276 193.397 2.39755 192.863 2.47435 192.335L47.4258 202.591C50.7625 203.353 52.9142 206.598 52.3171 209.968C50.7264 218.939 49.9197 228.182 49.9197 237.444C49.9197 270.719 60.141 302.399 79.4779 329.061C79.7831 329.483 80.03 329.93 80.22 330.39L78.8944 331.449Z" fill="#FF2E2E"/>
<path d="M77.4843 332.574C77.4395 332.005 77.242 331.439 76.8831 330.946C57.1455 303.732 46.7136 271.399 46.7136 237.443C46.7136 227.996 47.5363 218.563 49.1596 209.407C49.4587 207.723 48.3823 206.098 46.7142 205.72L2.03906 195.524C2.10836 194.993 2.17939 194.459 2.25244 193.927L47.0708 204.155C49.5736 204.726 51.1877 207.16 50.7395 209.687C49.1324 218.75 48.3176 228.088 48.3176 237.443C48.3176 271.058 58.6449 303.065 78.1816 330.004C78.5082 330.452 78.7455 330.943 78.8968 331.448L77.4843 332.574Z" fill="#FF3737"/>
<path d="M44.4203 358.953C44.3831 358.904 44.3435 358.849 44.3063 358.8L75.2848 334.084C75.955 333.55 76.0861 332.583 75.5825 331.887C55.6459 304.399 45.1078 271.739 45.1078 237.443C45.1078 227.9 45.9391 218.375 47.5789 209.126C47.7281 208.283 47.1902 207.472 46.3558 207.284L1.83594 197.123C1.90148 196.589 1.96876 196.058 2.03777 195.524L46.7129 205.719C48.381 206.097 49.4574 207.723 49.1583 209.406C47.535 218.562 46.7124 227.995 46.7124 237.443C46.7124 271.399 57.1442 303.732 76.8818 330.945C77.2407 331.439 77.4383 332.005 77.483 332.574L44.4203 358.953Z" fill="#FF3F3F"/>
<path d="M44.3091 358.801C43.9894 358.371 43.6715 357.94 43.3551 357.51L74.2868 332.829C54.1129 305.012 43.5058 272.205 43.5058 237.444C43.5058 227.826 44.3377 218.234 46.0014 208.847L1.64844 198.727C1.70994 198.192 1.77346 197.658 1.83872 197.124L46.3585 207.285C47.193 207.473 47.7309 208.284 47.5816 209.127C45.9419 218.375 45.1106 227.901 45.1106 237.444C45.1106 271.74 55.6487 304.399 75.5853 331.887C76.0889 332.583 75.9578 333.551 75.2876 334.085L44.3091 358.801Z" fill="#FF4747"/>
<path d="M43.3539 357.508C15.0578 318.918 0.148438 273.257 0.148438 224.881C0.148438 216.138 0.647954 207.392 1.64728 198.724L46.0002 208.845C44.3365 218.232 43.5046 227.824 43.5046 237.441C43.5046 272.203 54.1118 305.009 74.2857 332.826L43.3539 357.508Z" fill="#FF4D4D"/>
</g>
<mask id="mask5_751_364" style="mask-type:luminance" maskUnits="userSpaceOnUse" x="11" y="168" width="58" height="14">
<path d="M11.5078 168.157L68.0525 181.078V181.052L11.5078 168.157Z" fill="white"/>
</mask>
<g mask="url(#mask5_751_364)">
<path d="M68.0531 181.078L65.6805 180.535C65.6724 180.527 65.6643 180.515 65.6562 180.506L68.0531 181.052V181.078Z" fill="white"/>
<path d="M65.6802 180.535L62.9609 179.914C62.9505 179.903 62.9401 179.894 62.9297 179.883L65.656 180.506C65.664 180.515 65.6721 180.526 65.6802 180.535Z" fill="white"/>
<path d="M62.9611 179.914L59.5158 179.126C59.5005 179.114 59.4841 179.106 59.4688 179.094L62.9299 179.882C62.9403 179.894 62.9507 179.903 62.9611 179.914Z" fill="white"/>
<path d="M59.5153 179.125L11.5078 168.156L54.6151 177.987L59.4683 179.093C59.4836 179.105 59.5 179.113 59.5153 179.125Z" fill="white"/>
</g>
<path d="M208.494 188.391C192.567 198.017 187.426 218.801 197.034 234.716C201.688 242.437 209.074 247.879 217.823 250.045C226.572 252.208 235.644 250.833 243.356 246.17C253.228 240.231 259.321 229.796 259.658 218.255C259.852 211.79 258.177 205.432 254.825 199.862C245.219 183.938 224.435 178.79 208.494 188.391ZM225.983 253.051C223.104 253.051 220.208 252.699 217.344 251.991C208.072 249.699 200.247 243.932 195.316 235.752C185.138 218.89 190.583 196.874 207.457 186.675C224.346 176.503 246.362 181.955 256.54 198.826C260.094 204.727 261.867 211.464 261.665 218.313C261.304 230.538 254.848 241.594 244.393 247.885C238.748 251.298 232.416 253.051 225.983 253.051Z" fill="#002E54"/>
<path d="M219.304 209.754L322.58 130.764C323.672 129.915 325.194 131.486 324.137 132.534L232.543 224.815C222.142 234.436 208.399 218.896 219.304 209.754Z" fill="#002E54"/>
<path d="M213.263 196.299C224.853 189.317 239.917 193.036 246.907 204.629C249.428 208.813 250.554 213.435 250.418 217.986C250.184 226.03 245.983 233.8 238.58 238.255C226.996 245.257 211.932 241.53 204.939 229.94C197.949 218.355 201.679 203.301 213.263 196.299Z" fill="#002E54"/>
<path d="M426.204 216.176L426.414 223.186L424.151 223.256L424.038 219.502L419.765 219.629L419.854 222.531L417.567 222.6L417.481 219.701L412.434 219.852L412.549 223.648L410.323 223.715L410.109 216.661L426.204 216.176Z" fill="#002E54"/>
<path d="M418.865 230.347L426.435 227.535L426.331 230.633L421.622 232.386L426.216 234.13L426.126 236.91L417.978 233.72L410.023 236.656L410.124 233.598L415.281 231.661L410.257 229.645L410.347 226.882L418.865 230.347Z" fill="#002E54"/>
<path d="M410.836 241.239C411.826 240.618 413.183 240.399 414.91 240.575L420.644 241.158C422.411 241.337 423.71 241.825 424.542 242.625C425.371 243.422 425.7 244.675 425.527 246.39C425.359 248.025 424.842 249.142 423.976 249.74C423.11 250.334 421.932 250.56 420.442 250.407L419.096 250.271L419.42 247.106L420.904 247.256C421.377 247.306 421.761 247.323 422.056 247.306C422.351 247.288 422.605 247.193 422.813 247.023C423.026 246.852 423.15 246.566 423.191 246.171C423.251 245.579 423.098 245.178 422.735 244.967C422.368 244.756 421.816 244.615 421.08 244.539L413.804 243.797C413.05 243.722 412.481 243.763 412.092 243.924C411.702 244.083 411.479 244.433 411.425 244.975C411.37 245.527 411.52 245.902 411.881 246.099C412.239 246.295 412.787 246.431 413.527 246.506L415.089 246.667L414.765 249.829L413.443 249.693C411.913 249.54 410.763 249.081 409.995 248.325C409.227 247.568 408.924 246.364 409.092 244.718C409.268 243.018 409.848 241.857 410.836 241.239Z" fill="#002E54"/>
<path d="M424.064 256.426L422.888 263.344L420.654 262.963L421.283 259.261L417.07 258.545L416.582 261.406L414.33 261.022L414.815 258.161L409.84 257.315L409.202 261.06L407.008 260.684L408.192 253.729L424.064 256.426Z" fill="#002E54"/>
<path d="M421.828 268.48L421.089 271.654L407.576 268.503L406.715 272.199L404.547 271.694L406.149 264.822L421.828 268.48Z" fill="#002E54"/>
<path d="M418.891 280.286L417.958 283.41L404.662 279.443L403.579 283.084L401.445 282.446L403.464 275.683L418.891 280.286Z" fill="#002E54"/>
<path d="M415.247 291.876L412.836 298.465L410.708 297.685L411.999 294.157L407.988 292.687L406.989 295.413L404.841 294.628L405.84 291.902L401.099 290.164L399.794 293.73L397.703 292.964L400.129 286.338L415.247 291.876Z" fill="#002E54"/>
<path d="M410.84 303.428L409.91 305.519L400.812 305.386L408.458 308.787L407.352 311.273L392.641 304.731L393.536 302.715L403.128 303.065L394.991 299.447L396.129 296.886L410.84 303.428Z" fill="#002E54"/>
<path d="M401.814 316.914L402.975 314.717L405.117 315.849L401.274 323.125L399.132 321.993L400.272 319.83L388.18 313.444L389.722 310.527L401.814 316.914Z" fill="#002E54"/>
<path d="M337.98 58.6599L340.295 60.3115L335.387 70.4808L343.304 62.4568L345.718 64.1777L333.877 75.5078L331.125 73.5473L337.98 58.6599Z" fill="#002E54"/>
<path d="M349.856 67.4043L355.29 71.8393L353.858 73.5948L350.947 71.2185L348.245 74.5303L350.494 76.3667L349.047 78.1367L346.798 76.3003L343.604 80.2127L346.547 82.6122L345.141 84.3359L339.672 79.8749L349.856 67.4043Z" fill="#002E54"/>
<path d="M357.764 83.2701C358.325 83.7956 358.847 84.0266 359.332 83.9631C359.817 83.9025 360.337 83.5762 360.889 82.9843C361.434 82.4068 361.732 81.8842 361.781 81.4222C361.833 80.9631 361.59 80.4809 361.059 79.9843L360.233 79.2105L357.051 82.6032L357.764 83.2701ZM359.364 75.3702L362.407 78.2259C363.675 79.4126 364.411 80.5358 364.613 81.5983C364.815 82.6609 364.385 83.761 363.314 84.9044C362.598 85.6667 361.914 86.1835 361.264 86.4549C360.609 86.7235 359.901 86.7235 359.133 86.4607L355.388 93.7109L352.937 91.4126L356.589 84.8409L355.72 84.0237L350.731 89.3481L348.352 87.119L359.364 75.3702Z" fill="#002E54"/>
<path d="M364.401 93.9003L369.385 84.984L371.481 87.2419L368.507 92.3642L373.739 89.6731L375.783 91.8733L366.552 96.2159L361.878 100.559L359.727 98.2458L364.401 93.9003Z" fill="#002E54"/>
<path d="M372.762 111.591C373.134 110.483 374.041 109.397 375.479 108.331L379.807 105.126C381.277 104.035 382.605 103.495 383.786 103.501C384.97 103.507 386.073 104.202 387.1 105.586C388.085 106.917 388.463 108.106 388.232 109.151C387.998 110.197 387.271 111.173 386.047 112.079L385.296 112.637L383.402 110.081L384.314 109.406C384.909 108.964 385.299 108.571 385.484 108.23C385.665 107.887 385.585 107.483 385.238 107.015C384.883 106.535 384.496 106.345 384.072 106.443C383.65 106.541 383.136 106.816 382.53 107.266L376.778 111.525C376.172 111.972 375.77 112.403 375.571 112.813C375.372 113.226 375.447 113.664 375.793 114.132C376.131 114.591 376.544 114.785 377.029 114.715C377.511 114.643 378.063 114.381 378.681 113.924L380.055 112.905L379.12 111.646L380.716 110.462L383.413 114.103L376.769 119.023L375.49 117.3L376.512 116.272C375.326 116.54 374.353 116.162 373.596 115.14C372.666 113.884 372.389 112.703 372.762 111.591Z" fill="#002E54"/>
<path d="M384.747 126.309C385.171 126.269 385.662 126.075 386.222 125.72L392.661 121.66C393.221 121.308 393.605 120.953 393.81 120.595C394.018 120.24 393.972 119.827 393.674 119.353C393.377 118.883 393.025 118.663 392.615 118.695C392.205 118.73 391.717 118.92 391.157 119.273L384.718 123.332C384.146 123.693 383.751 124.051 383.537 124.403C383.32 124.761 383.367 125.177 383.67 125.659C383.967 126.13 384.325 126.347 384.747 126.309ZM380.869 123.101C381.238 122.007 382.157 120.999 383.626 120.072L388.705 116.873C390.172 115.946 391.471 115.559 392.6 115.709C393.729 115.86 394.749 116.659 395.661 118.103C396.565 119.538 396.839 120.803 396.487 121.894C396.132 122.989 395.228 123.993 393.77 124.912L388.676 128.122C387.218 129.041 385.913 129.427 384.764 129.283C383.618 129.136 382.59 128.345 381.686 126.91C380.774 125.466 380.502 124.196 380.869 123.101Z" fill="#002E54"/>
<path d="M391.765 138.598C392.19 138.592 392.692 138.433 393.278 138.121L400.006 134.561C400.592 134.249 401.002 133.926 401.233 133.585C401.467 133.245 401.452 132.829 401.192 132.338C400.933 131.844 400.595 131.599 400.182 131.599C399.769 131.602 399.272 131.758 398.686 132.067L391.959 135.63C391.361 135.944 390.942 136.271 390.7 136.608C390.46 136.946 390.472 137.368 390.74 137.87C391 138.364 391.344 138.607 391.765 138.598ZM388.141 135.107C388.589 134.047 389.582 133.109 391.118 132.295L396.422 129.488C397.956 128.674 399.278 128.385 400.393 128.622C401.507 128.856 402.466 129.728 403.266 131.241C404.06 132.739 404.239 134.018 403.803 135.081C403.367 136.144 402.391 137.079 400.866 137.885L395.545 140.703C394.023 141.508 392.692 141.794 391.56 141.563C390.422 141.332 389.461 140.466 388.667 138.967C387.867 137.457 387.691 136.17 388.141 135.107Z" fill="#002E54"/>
<path d="M396.797 150.037C397.025 150.56 397.273 150.909 397.547 151.088C397.819 151.264 398.128 151.319 398.471 151.247C398.818 151.175 399.288 151.01 399.883 150.75L405.987 148.088C406.544 147.843 406.949 147.62 407.2 147.418C407.451 147.213 407.593 146.959 407.627 146.656C407.659 146.353 407.564 145.94 407.336 145.417L407.058 144.779L396.508 149.381L396.797 150.037ZM407.867 140.869L409.441 144.476C409.983 145.714 410.243 146.754 410.226 147.594C410.209 148.432 409.931 149.148 409.394 149.734C408.854 150.323 408.034 150.86 406.928 151.342L401.555 153.687C400.423 154.18 399.453 154.432 398.639 154.437C397.824 154.446 397.1 154.177 396.465 153.629C395.829 153.083 395.246 152.202 394.715 150.987L393.109 147.308L407.867 140.869Z" fill="#002E54"/>
<path d="M199.087 40.7902C198.308 39.9153 197.814 38.59 197.603 36.8143L196.968 31.4639C196.754 29.6478 196.942 28.2272 197.534 27.2021C198.126 26.18 199.278 25.565 200.99 25.3629C202.633 25.1665 203.852 25.4293 204.646 26.1482C205.44 26.8701 205.925 27.9846 206.104 29.5005L206.214 30.4274L203.055 30.8027L202.922 29.6766C202.835 28.9404 202.688 28.4062 202.483 28.077C202.275 27.7479 201.885 27.6179 201.305 27.6872C200.713 27.7565 200.355 27.9991 200.231 28.4148C200.107 28.8306 200.089 29.411 200.176 30.1617L201.022 37.2676C201.109 38.0183 201.285 38.5814 201.542 38.9596C201.799 39.335 202.217 39.488 202.798 39.4187C203.364 39.3523 203.736 39.0924 203.915 38.6362C204.094 38.1829 204.14 37.5708 204.048 36.8085L203.846 35.1107L202.287 35.2955L202.053 33.3234L206.554 32.7892L207.527 41.001L205.396 41.2522L205.009 39.8576C204.654 41.0212 203.846 41.6766 202.581 41.8268C201.028 42.0116 199.864 41.6651 199.087 40.7902Z" fill="#002E54"/>
<path d="M217.805 37.6805C217.981 37.2935 218.054 36.7709 218.025 36.1097L217.696 28.5043C217.664 27.8431 217.548 27.3321 217.34 26.9769C217.133 26.6218 216.748 26.4543 216.194 26.4803C215.637 26.5034 215.27 26.7026 215.097 27.0751C214.921 27.4475 214.846 27.9644 214.875 28.6256L215.207 36.2339C215.235 36.9066 215.351 37.4264 215.553 37.7902C215.752 38.1511 216.139 38.3186 216.708 38.2955C217.265 38.2724 217.629 38.0674 217.805 37.6805ZM213.099 39.4562C212.331 38.5958 211.909 37.2964 211.834 35.564L211.574 29.5669C211.496 27.8316 211.805 26.512 212.495 25.6054C213.185 24.7017 214.384 24.2108 216.093 24.1386C217.785 24.0635 219.021 24.4504 219.795 25.2993C220.566 26.1482 220.99 27.4302 221.065 29.154L221.328 35.1684C221.403 36.8893 221.091 38.2146 220.395 39.1386C219.699 40.0654 218.504 40.565 216.812 40.64C215.103 40.7122 213.864 40.3195 213.099 39.4562Z" fill="#002E54"/>
<path d="M231.962 37.671C232.165 37.2985 232.277 36.7817 232.297 36.1176L232.525 28.5093C232.546 27.8481 232.465 27.3313 232.286 26.9617C232.104 26.5921 231.734 26.3957 231.177 26.3813C230.623 26.364 230.242 26.5343 230.039 26.8924C229.837 27.2504 229.725 27.7615 229.704 28.4227L229.473 36.0338C229.456 36.7095 229.531 37.235 229.704 37.6104C229.881 37.9886 230.253 38.185 230.822 38.2023C231.379 38.2196 231.757 38.0406 231.962 37.671ZM227.135 39.0945C226.433 38.1792 226.11 36.8539 226.162 35.1185L226.344 29.1185C226.396 27.3832 226.8 26.0897 227.553 25.2379C228.31 24.3861 229.54 23.9847 231.249 24.0367C232.944 24.0887 234.148 24.5651 234.856 25.4689C235.566 26.3697 235.892 27.6835 235.84 29.4044L235.658 35.4246C235.606 37.1484 235.199 38.4448 234.437 39.3168C233.675 40.1859 232.447 40.5959 230.753 40.5468C229.043 40.4949 227.839 40.0098 227.135 39.0945Z" fill="#002E54"/>
<path d="M244.357 38.9377C244.922 38.9955 245.35 38.9522 245.639 38.802C245.927 38.6519 246.127 38.4093 246.236 38.0744C246.343 37.7395 246.433 37.2486 246.499 36.6018L247.192 29.9782C247.256 29.3747 247.261 28.9098 247.209 28.5922C247.154 28.2746 247.004 28.0263 246.756 27.8444C246.508 27.6683 246.101 27.547 245.535 27.4892L244.845 27.417L243.643 38.8627L244.357 38.9377ZM241.842 24.7837L245.754 25.1937C247.1 25.3352 248.133 25.6182 248.855 26.0455C249.574 26.4757 250.059 27.0677 250.305 27.827C250.553 28.5864 250.614 29.5652 250.489 30.7664L249.877 36.5961C249.75 37.8232 249.487 38.7905 249.092 39.5008C248.699 40.2139 248.107 40.7106 247.319 40.9935C246.528 41.2794 245.474 41.3516 244.157 41.213L240.164 40.7943L241.842 24.7837Z" fill="#002E54"/>
<path d="M54.7188 117.925L58.4383 112.237L60.318 113.467L58.3826 116.426L62.01 118.797L63.6518 116.285L65.5649 117.535L63.9232 120.047L69.9795 124.006L68.1956 126.734L54.7188 117.925Z" fill="#002E54"/>
<path d="M72.6391 110.554L66.8655 107.459L71.4859 112.099L72.6391 110.554ZM62.5234 106.497L64.7 103.581L79.4534 110.733L77.6462 113.155L74.4544 111.515L72.931 113.551L75.3972 116.164L73.5536 118.633L62.5234 106.497Z" fill="#002E54"/>
<path d="M69.8359 97.1225L71.9351 94.6307L84.2535 104.996L82.1547 107.488L69.8359 97.1225Z" fill="#002E54"/>
<path d="M83.7466 91.7554C84.2755 91.1981 84.5103 90.6784 84.4517 90.1904C84.3928 89.7054 84.07 89.1856 83.4844 88.6283C82.9078 88.0797 82.3898 87.7795 81.9287 87.7246C81.4676 87.6697 80.9857 87.9094 80.4844 88.4378L79.7031 89.2578L83.0753 92.4599L83.7466 91.7554ZM75.8594 90.1009L78.7338 87.0749C79.9303 85.816 81.0602 85.0913 82.1236 84.895C83.1867 84.6986 84.2854 85.1375 85.419 86.2174C86.1778 86.9363 86.6897 87.6235 86.9545 88.279C87.2207 88.9315 87.2166 89.6447 86.9464 90.4099L94.1701 94.2039L91.8564 96.638L85.3092 92.9392L84.4869 93.8026L89.776 98.8295L87.5299 101.191L75.8594 90.1009Z" fill="#002E54"/>
<path d="M41.356 289.875C41.1239 289.213 40.8115 288.824 40.4199 288.708C40.0293 288.593 39.4388 288.673 38.6505 288.951C38.1377 289.13 37.7479 289.309 37.4806 289.488C37.2135 289.667 37.0411 289.904 36.9637 290.207C36.8866 290.507 36.9334 290.9 37.1058 291.388L37.4866 292.476L41.7447 290.983L41.356 289.875ZM36.3911 296.316L34.6991 291.494C33.7781 288.87 34.7736 287.045 37.6873 286.023C39.2245 285.483 40.4482 285.477 41.3549 286C42.2624 286.525 42.9507 287.455 43.4199 288.792L43.92 290.218L50.5033 287.908L51.5823 290.983L36.3911 296.316Z" fill="#002E54"/>
<path d="M43.2136 273.448C42.7996 273.362 42.2717 273.402 41.6313 273.575L34.2806 275.553C33.6402 275.724 33.1701 275.952 32.8675 276.232C32.5652 276.512 32.487 276.919 32.6319 277.456C32.7757 277.996 33.0488 278.308 33.4505 278.4C33.8535 278.49 34.3736 278.449 35.0128 278.279L42.3656 276.301C43.0176 276.125 43.4995 275.9 43.809 275.625C44.12 275.348 44.2005 274.935 44.0527 274.387C43.9077 273.85 43.6285 273.535 43.2136 273.448ZM45.9716 277.658C45.2972 278.594 44.122 279.287 42.4458 279.737L36.648 281.296C34.9715 281.747 33.6168 281.735 32.5828 281.256C31.5488 280.782 30.8108 279.717 30.3662 278.065C29.9255 276.428 30.0353 275.14 30.695 274.202C31.356 273.261 32.5181 272.568 34.1807 272.12L39.9973 270.558C41.6608 270.111 43.0196 270.125 44.0752 270.604C45.1297 271.081 45.8766 272.14 46.3173 273.778C46.7616 275.429 46.6461 276.72 45.9716 277.658Z" fill="#002E54"/>
<path d="M40.1453 259.645C39.739 259.527 39.2103 259.527 38.5592 259.651L31.0792 261.066C30.4281 261.19 29.9415 261.381 29.6184 261.638C29.2974 261.892 29.1876 262.296 29.2913 262.842C29.3941 263.387 29.643 263.722 30.0362 263.844C30.4309 263.965 30.953 263.965 31.6038 263.841L39.0842 262.426C39.7477 262.299 40.2452 262.111 40.5752 261.86C40.9052 261.609 41.0167 261.202 40.911 260.642C40.8071 260.096 40.5527 259.764 40.1453 259.645ZM42.5773 264.049C41.8341 264.932 40.6093 265.533 38.9037 265.856L33.0059 266.974C31.3003 267.297 29.9502 267.182 28.9546 266.627C27.9599 266.076 27.3039 264.958 26.9866 263.278C26.6713 261.612 26.878 260.336 27.6074 259.449C28.3358 258.563 29.5468 257.959 31.2397 257.639L37.1571 256.518C38.8491 256.198 40.2039 256.316 41.2194 256.874C42.2346 257.428 42.9004 258.54 43.2157 260.206C43.5339 261.886 43.3214 263.168 42.5773 264.049Z" fill="#002E54"/>
<path d="M31.7675 247.73C31.6832 246.968 31.4346 246.451 31.0254 246.182C30.6151 245.917 30.0091 245.827 29.2052 245.917C28.4149 246.003 27.8513 246.208 27.5135 246.526C27.1757 246.844 27.0463 247.363 27.1277 248.088L27.2539 249.214L31.8761 248.697L31.7675 247.73ZM25.4233 252.699L24.959 248.55C24.767 246.826 24.9377 245.492 25.4733 244.554C26.0086 243.613 27.0524 243.055 28.607 242.882C29.6467 242.767 30.5025 242.819 31.1741 243.035C31.8449 243.255 32.3863 243.714 32.7974 244.415L40.3537 241.332L40.7259 244.669L33.6795 247.297L33.8118 248.481L41.0617 247.672L41.4229 250.912L25.4233 252.699Z" fill="#002E54"/>
<path d="M117.755 380.303C116.923 379.09 116.508 377.413 116.508 375.273V367.988C116.508 365.73 116.915 364.015 117.73 362.843C118.544 361.671 119.988 361.085 122.06 361.085C123.911 361.085 125.24 361.587 126.047 362.589C126.853 363.591 127.256 365.066 127.256 367.021V368.65H124.531V367.197C124.531 366.247 124.489 365.517 124.403 365.009C124.319 364.497 124.101 364.09 123.754 363.784C123.406 363.478 122.85 363.325 122.085 363.325C121.304 363.325 120.723 363.493 120.341 363.822C119.958 364.154 119.707 364.613 119.59 365.199C119.47 365.785 119.412 366.571 119.412 367.555V375.732C119.412 376.783 119.496 377.609 119.666 378.201C119.835 378.796 120.112 379.22 120.494 379.474C120.876 379.731 121.406 379.858 122.085 379.858C122.815 379.858 123.359 379.697 123.716 379.373C124.072 379.053 124.297 378.611 124.391 378.048C124.484 377.488 124.531 376.726 124.531 375.758V374.228H127.256V375.758C127.256 377.811 126.87 379.388 126.098 380.482C125.325 381.576 123.979 382.125 122.06 382.125C120.023 382.125 118.587 381.519 117.755 380.303Z" fill="#002E54"/>
<path d="M141.621 370.152C142.861 370.152 143.748 369.906 144.283 369.412C144.819 368.919 145.085 368.026 145.085 366.739C145.085 365.89 144.992 365.223 144.805 364.738C144.619 364.253 144.287 363.897 143.813 363.669C143.337 363.438 142.666 363.323 141.8 363.323H140.527V370.152H141.621ZM137.648 361.261H141.8C143.889 361.261 145.421 361.689 146.397 362.546C147.374 363.404 147.862 364.801 147.862 366.739C147.862 369.386 147.013 370.992 145.316 371.552L148.245 381.895H145.468L142.768 372.213H140.527V381.895H137.648V361.261Z" fill="#002E54"/>
<path d="M158.508 361.261H166.506V363.401H161.387V370.227H165.538V372.265H161.387V379.83H166.557V381.895H158.508V361.261Z" fill="#002E54"/>
<path d="M181.024 379.83C182.026 379.83 182.752 379.634 183.203 379.244C183.652 378.854 183.932 378.323 184.043 377.653C184.153 376.98 184.209 375.967 184.209 374.607V367.908C184.209 366.739 184.137 365.841 183.992 365.223C183.847 364.602 183.546 364.143 183.087 363.845C182.629 363.548 181.916 363.401 180.948 363.401H179.394V379.83H181.024ZM176.516 361.261H180.999C183.223 361.261 184.799 361.769 185.725 362.789C186.649 363.808 187.113 365.396 187.113 367.553V375.144C187.113 377.419 186.658 379.114 185.75 380.226C184.842 381.337 183.334 381.895 181.229 381.895H176.516V361.261Z" fill="#002E54"/>
<path d="M197.734 361.261H200.564V381.895H197.734V361.261Z" fill="#002E54"/>
<path d="M213.811 363.401H210.32V361.261H220.077V363.401H216.69V381.895H213.811V363.401Z" fill="#002E54"/>
<path d="M244.87 380.634C243.911 379.589 243.397 377.929 243.328 375.654L247.226 375.067C247.243 376.375 247.399 377.314 247.697 377.883C247.997 378.451 248.442 378.737 249.037 378.737C249.799 378.737 250.183 378.235 250.183 377.233C250.183 376.436 249.998 375.749 249.634 375.168C249.267 374.594 248.696 373.973 247.916 373.309L246.132 371.756C245.248 371.011 244.564 370.217 244.082 369.376C243.597 368.533 243.354 367.537 243.354 366.382C243.354 364.65 243.868 363.316 244.896 362.383C245.924 361.448 247.339 360.983 249.138 360.983C251.089 360.983 252.421 361.551 253.125 362.689C253.83 363.827 254.208 365.21 254.257 366.841L250.336 367.323C250.301 366.255 250.203 365.487 250.041 365.019C249.88 364.551 249.527 364.318 248.985 364.318C248.595 364.318 248.292 364.485 248.081 364.814C247.87 365.146 247.763 365.516 247.763 365.923C247.763 366.622 247.919 367.205 248.234 367.681C248.549 368.158 249.051 368.701 249.75 369.31L251.456 370.814C252.475 371.68 253.264 372.599 253.827 373.566C254.384 374.533 254.664 375.679 254.664 377.005C254.664 377.972 254.439 378.85 253.988 379.641C253.538 380.429 252.906 381.053 252.091 381.512C251.277 381.971 250.336 382.199 249.265 382.199C247.295 382.199 245.831 381.679 244.87 380.634Z" fill="#002E54"/>
<path d="M265.657 380.429C264.716 379.251 264.242 377.548 264.242 375.324V367.886C264.242 365.608 264.71 363.89 265.645 362.727C266.578 361.563 268.175 360.983 270.433 360.983C272.59 360.983 274.117 361.5 275.018 362.536C275.919 363.573 276.369 365.042 276.369 366.942V368.727H271.911V366.662C271.911 365.865 271.824 365.253 271.657 364.829C271.487 364.404 271.08 364.191 270.433 364.191C269.789 364.191 269.364 364.416 269.159 364.866C268.957 365.317 268.853 365.94 268.853 366.74V376.445C268.853 377.259 268.96 377.883 269.171 378.316C269.385 378.749 269.803 378.965 270.433 378.965C271.062 378.965 271.464 378.749 271.643 378.316C271.822 377.883 271.911 377.259 271.911 376.445V374.279H276.369V376.061C276.369 377.998 275.919 379.505 275.018 380.582C274.117 381.662 272.59 382.199 270.433 382.199C268.192 382.199 266.601 381.61 265.657 380.429Z" fill="#002E54"/>
<path d="M293.69 378.316C293.893 377.883 293.994 377.294 293.994 376.546V366.61C293.994 365.848 293.893 365.253 293.69 364.829C293.485 364.404 293.061 364.191 292.414 364.191C291.805 364.191 291.398 364.407 291.193 364.84C290.988 365.273 290.887 365.865 290.887 366.61V376.546C290.887 377.294 290.979 377.883 291.167 378.316C291.355 378.749 291.77 378.965 292.414 378.965C293.061 378.965 293.485 378.749 293.69 378.316ZM287.653 380.481C286.7 379.335 286.227 377.64 286.227 375.399V367.731C286.227 365.49 286.7 363.807 287.653 362.675C288.603 361.546 290.191 360.983 292.414 360.983C294.658 360.983 296.257 361.551 297.219 362.689C298.177 363.827 298.657 365.507 298.657 367.731V375.399C298.657 377.64 298.177 379.335 297.219 380.481C296.257 381.628 294.658 382.199 292.414 382.199C290.191 382.199 288.603 381.628 287.653 380.481Z" fill="#002E54"/>
<path d="M314.911 370.024C315.829 370.024 316.47 369.782 316.834 369.297C317.2 368.812 317.382 368.087 317.382 367.12C317.382 366.184 317.212 365.485 316.874 365.018C316.533 364.55 315.947 364.316 315.116 364.316H313.637V370.024H314.911ZM309.078 361.261H314.758C317.016 361.261 318.725 361.66 319.88 362.457C321.032 363.256 321.609 364.674 321.609 366.713C321.609 368.087 321.433 369.181 321.075 369.998C320.72 370.813 320.059 371.451 319.089 371.907L321.915 381.895H317.203L314.937 372.646H313.637V381.895H309.078V361.261Z" fill="#002E54"/>
<path d="M332 361.261H341.271V364.368H336.559V369.487H340.151V372.646H336.559V378.811H341.323V381.895H332V361.261Z" fill="#002E54"/>
<path d="M288.324 335.012H169.503C168.948 335.012 168.5 334.564 168.5 334.01C168.5 333.455 168.948 333.008 169.503 333.008H288.324C288.878 333.008 289.329 333.455 289.329 334.01C289.329 334.564 288.878 335.012 288.324 335.012Z" fill="#002E54"/>
</g>
<defs>
<clipPath id="clip0_751_364">
<rect width="450" height="382.218" fill="white"/>
</clipPath>
</defs>
</svg>
