<svg width="95" height="94" viewBox="0 0 95 94" fill="none" xmlns="http://www.w3.org/2000/svg">
<path d="M47.5 5.875L12.25 17.625V52.875C12.25 72.3451 28.0299 88.125 47.5 88.125C66.9701 88.125 82.75 72.3451 82.75 52.875V17.625L47.5 5.875ZM76.1406 52.875C76.1406 68.6916 63.3166 81.5156 47.5 81.5156C31.6834 81.5156 18.8594 68.6916 18.8594 52.875V22.582L47.5 12.4844L76.1406 22.582V52.875Z" fill="#38C19D"/>
<path d="M35.2361 43.6127C34.9298 43.305 34.5657 43.0608 34.1648 42.8942C33.7639 42.7276 33.334 42.6419 32.8998 42.6419C32.4657 42.6419 32.0358 42.7276 31.6349 42.8942C31.2339 43.0608 30.8699 43.305 30.5636 43.6127C30.2559 43.919 30.0117 44.2831 29.8451 44.684C29.6785 45.0849 29.5928 45.5148 29.5928 45.9489C29.5928 46.3831 29.6785 46.813 29.8451 47.2139C30.0117 47.6148 30.2559 47.9789 30.5636 48.2852L42.4421 60.1637L42.6349 60.3564C42.9246 60.6467 43.2687 60.877 43.6476 61.0341C44.0264 61.1913 44.4325 61.2721 44.8426 61.2721C45.2527 61.2721 45.6588 61.1913 46.0376 61.0341C46.4165 60.877 46.7606 60.6467 47.0503 60.3564L67.5669 39.8398C67.8572 39.5501 68.0875 39.206 68.2446 38.8272C68.4017 38.4483 68.4826 38.0423 68.4826 37.6321C68.4826 37.222 68.4017 36.8159 68.2446 36.4371C68.0875 36.0583 67.8572 35.7141 67.5669 35.4244L67.3099 35.1674C67.0202 34.8771 66.676 34.6468 66.2972 34.4897C65.9184 34.3326 65.5123 34.2517 65.1022 34.2517C64.6921 34.2517 64.286 34.3326 63.9071 34.4897C63.5283 34.6468 63.1842 34.8771 62.8945 35.1674L44.838 53.2147L35.2361 43.6127Z" fill="#38C19D"/>
</svg>
