<svg width="94" height="94" viewBox="0 0 94 94" fill="none" xmlns="http://www.w3.org/2000/svg">
<path d="M47 9C25.7377 9 8.5 26.2377 8.5 47.5C8.5 68.7623 25.7377 86 47 86C68.2623 86 85.5 68.7623 85.5 47.5C85.5 26.2377 68.2623 9 47 9ZM58.8952 18.5583L59.3354 17.2133L59.7743 18.5583H61.1988L60.0489 19.395L60.4878 20.7412L59.3367 19.9083L58.1842 20.7412L58.6257 19.395L57.472 18.5596H58.8952V18.5583ZM58.8952 23.1064L59.3367 21.7576L59.7756 23.1064H61.2001L60.0502 23.9393L60.4891 25.2868L59.338 24.4552L58.1855 25.2868L58.627 23.9393L57.4733 23.1064H58.8952ZM58.8952 27.6507L59.3367 26.3032L59.7756 27.6507H61.2001L60.0502 28.4836L60.4891 29.8323L59.338 28.9995L58.1855 29.8323L58.627 28.4836L57.4733 27.6507H58.8952ZM53.5168 18.5583L53.9582 17.2133L54.3997 18.5583H55.8242L54.6705 19.395L55.1094 20.7412L53.9595 19.9083L52.8071 20.7412L53.2485 19.395L52.0948 18.5583H53.5168ZM53.5168 23.1064L53.9582 21.7576L54.3997 23.1064H55.8242L54.6705 23.9393L55.1094 25.2868L53.9595 24.4552L52.8071 25.2868L53.2485 23.9393L52.0974 23.1064H53.5168ZM53.5168 27.6507L53.9582 26.3032L54.3997 27.6507H55.8242L54.6705 28.4836L55.1094 29.8323L53.9595 28.9995L52.8071 29.8323L53.2485 28.4836L52.0974 27.6507H53.5168ZM48.1422 18.5583L48.5798 17.2133L49.0213 18.5583H50.4445L49.292 19.395L49.7335 20.7412L48.5811 19.9083L47.4299 20.7412L47.8688 19.395L46.7189 18.5596H48.1422V18.5583ZM48.1422 23.1064L48.5811 21.7576L49.0225 23.1064H50.4458L49.2933 23.9393L49.7348 25.2868L48.5824 24.4552L47.4312 25.2868L47.8701 23.9393L46.7202 23.1064H48.1422ZM48.1422 27.6507L48.5811 26.3032L49.0225 27.6507H50.4458L49.2933 28.4836L49.7348 29.8323L48.5824 28.9995L47.4312 29.8323L47.8701 28.4836L46.7202 27.6507H48.1422ZM42.7624 23.1064L43.2039 21.7576L43.6428 23.1064H45.0673L43.9174 23.9393L44.3563 25.2868L43.2052 24.4552L42.0527 25.2868L42.4942 23.9393L41.3418 23.1064H42.7624ZM42.7624 27.6507L43.2039 26.3032L43.6428 27.6507H45.0673L43.9174 28.4836L44.3563 29.8323L43.2052 28.9995L42.0527 29.8323L42.4942 28.4836L41.3418 27.6507H42.7624ZM37.3878 27.6507L37.8267 26.3032L38.2682 27.6507H39.6927L38.539 28.4836L38.9804 29.8323L37.828 28.9995L36.6756 29.8323L37.117 28.4836L35.9633 27.6507H37.3878ZM30.5746 17.2133C32.0068 17.2133 33.3209 17.6959 34.381 18.5044C33.7433 18.248 33.0625 18.1156 32.3751 18.1142C30.9427 18.1163 29.5696 18.6871 28.5579 19.7012C27.5462 20.7153 26.9786 22.0897 26.98 23.5222C26.979 24.2316 27.1178 24.9342 27.3884 25.59C27.659 26.2457 28.0561 26.8417 28.5572 27.3439C29.0582 27.8461 29.6532 28.2447 30.3083 28.5169C30.9634 28.7891 31.6657 28.9295 32.3751 28.9302C33.0848 28.9302 33.7598 28.7903 34.381 28.54C33.2889 29.3778 31.951 29.832 30.5746 29.8323C27.1019 29.8323 24.285 27.0077 24.285 23.5222C24.285 20.0367 27.1019 17.2133 30.5746 17.2133ZM12.9159 58.8575C10.4508 51.4865 10.4508 43.5135 12.9159 36.1425H81.0828C83.5509 43.513 83.5514 51.4868 81.084 58.8575H12.9159Z" fill="#38C19D"/>
</svg>
