<svg width="95" height="95" viewBox="0 0 95 95" fill="none" xmlns="http://www.w3.org/2000/svg">
<path d="M82.75 43.5833V35.75H74.9167V27.9167C74.9105 25.841 74.0832 23.8522 72.6155 22.3845C71.1478 20.9168 69.159 20.0895 67.0833 20.0833H59.25V12.25H51.4167V20.0833H43.5833V12.25H35.75V20.0833H27.9167C25.841 20.0895 23.8522 20.9168 22.3845 22.3845C20.9168 23.8522 20.0895 25.841 20.0833 27.9167V35.75H12.25V43.5833H20.0833V51.4167H12.25V59.25H20.0833V67.0833C20.0895 69.159 20.9168 71.1478 22.3845 72.6155C23.8522 74.0832 25.841 74.9105 27.9167 74.9167H35.75V82.75H43.5833V74.9167H51.4167V82.75H59.25V74.9167H67.0833C69.159 74.9105 71.1478 74.0832 72.6155 72.6155C74.0832 71.1478 74.9105 69.159 74.9167 67.0833V59.25H82.75V51.4167H74.9167V43.5833H82.75ZM67.0833 67.0833H27.9167V27.9167H67.0833V67.0833Z" fill="#38C19D"/>
<path d="M44.9974 31.8335H39.7294L31.8569 63.1668H35.8794L37.6967 55.8231H46.7677L48.538 63.1668H52.6975L44.9974 31.8335ZM38.2254 52.6858L42.2126 35.5543H42.3928L46.2429 52.6858H38.2254ZM56.2891 31.8335H60.2058V63.1668H56.2891V31.8335Z" fill="#38C19D"/>
</svg>
