<svg width="94" height="95" viewBox="0 0 94 95" fill="none" xmlns="http://www.w3.org/2000/svg">
<path d="M21.5416 27.9167C21.5416 25.3198 22.5732 22.8292 24.4095 20.9929C26.2458 19.1566 28.7363 18.125 31.3333 18.125C33.9302 18.125 36.4207 19.1566 38.257 20.9929C40.0933 22.8292 41.1249 25.3198 41.1249 27.9167C41.1249 30.5136 40.0933 33.0041 38.257 34.8404C36.4207 36.6767 33.9302 37.7083 31.3333 37.7083C28.7363 37.7083 26.2458 36.6767 24.4095 34.8404C22.5732 33.0041 21.5416 30.5136 21.5416 27.9167ZM31.3333 12.25C27.1782 12.25 23.1933 13.9006 20.2552 16.8387C17.3172 19.7767 15.6666 23.7616 15.6666 27.9167C15.6666 32.0717 17.3172 36.0566 20.2552 38.9947C23.1933 41.9327 27.1782 43.5833 31.3333 43.5833C35.4883 43.5833 39.4732 41.9327 42.4113 38.9947C45.3493 36.0566 46.9999 32.0717 46.9999 27.9167C46.9999 23.7616 45.3493 19.7767 42.4113 16.8387C39.4732 13.9006 35.4883 12.25 31.3333 12.25ZM60.7083 31.8333C60.7083 30.2752 61.3272 28.7809 62.429 27.6791C63.5308 26.5773 65.0251 25.9583 66.5833 25.9583C68.1414 25.9583 69.6357 26.5773 70.7375 27.6791C71.8393 28.7809 72.4583 30.2752 72.4583 31.8333C72.4583 33.3915 71.8393 34.8858 70.7375 35.9876C69.6357 37.0894 68.1414 37.7083 66.5833 37.7083C65.0251 37.7083 63.5308 37.0894 62.429 35.9876C61.3272 34.8858 60.7083 33.3915 60.7083 31.8333ZM66.5833 20.0833C63.467 20.0833 60.4783 21.3213 58.2747 23.5248C56.0712 25.7284 54.8333 28.717 54.8333 31.8333C54.8333 34.9496 56.0712 37.9383 58.2747 40.1418C60.4783 42.3454 63.467 43.5833 66.5833 43.5833C69.6995 43.5833 72.6882 42.3454 74.8918 40.1418C77.0953 37.9383 78.3333 34.9496 78.3333 31.8333C78.3333 28.717 77.0953 25.7284 74.8918 23.5248C72.6882 21.3213 69.6995 20.0833 66.5833 20.0833ZM16.6458 51.4167C14.3085 51.4167 12.067 52.3451 10.4144 53.9978C8.76171 55.6505 7.83325 57.8919 7.83325 60.2292V61.318C7.83786 61.5903 7.85616 61.8622 7.88809 62.1327C8.21152 65.0471 9.25906 67.8342 10.9353 70.2402C14.1391 74.8148 20.2569 78.8333 31.3333 78.8333C42.4096 78.8333 48.5274 74.8187 51.7313 70.2362C53.4079 67.8305 54.4555 65.0433 54.7784 62.1287C54.8061 61.8592 54.8244 61.5888 54.8333 61.318V60.2292C54.8333 57.8919 53.9048 55.6505 52.2521 53.9978C50.5995 52.3451 48.358 51.4167 46.0208 51.4167H16.6458ZM13.7083 61.2357V60.2292C13.7083 59.4501 14.0177 58.7029 14.5686 58.152C15.1195 57.6012 15.8667 57.2917 16.6458 57.2917H46.0208C46.7998 57.2917 47.547 57.6012 48.0979 58.152C48.6488 58.7029 48.9583 59.4501 48.9583 60.2292V61.2357L48.9308 61.5491C48.7076 63.4607 48.0161 65.2876 46.9177 66.8679C44.9868 69.6292 40.8194 72.9583 31.3333 72.9583C21.8471 72.9583 17.6798 69.6292 15.7449 66.8679C14.6472 65.2861 13.9571 63.4578 13.7357 61.5452C13.7239 61.4423 13.7147 61.3391 13.7083 61.2357ZM71.2519 55.3137L73.1162 50.5942C74.0641 48.1893 76.7196 46.9399 79.1793 47.7428L80.8673 48.2951C83.703 49.2233 86.0608 51.4519 86.1548 54.4403C86.5465 66.6212 76.4572 84.1404 65.7373 89.9057C63.1013 91.3236 59.9876 90.3875 57.7668 88.3743L56.4469 87.1797C55.524 86.3443 54.9531 85.1892 54.8499 83.9486C54.7466 82.708 55.1187 81.4745 55.8908 80.4979L59.0241 76.5421C60.1599 75.1047 62.0282 74.4663 63.8024 74.8971L68.8628 76.123C73.1828 73.2638 75.4976 69.2453 75.8109 64.0636L72.2193 60.2879C71.601 59.6371 71.1814 58.8232 71.01 57.942C70.8386 57.0607 70.9226 56.1489 71.2519 55.3137Z" fill="#38C19D"/>
</svg>
