<svg width="95" height="94" viewBox="0 0 95 94" fill="none" xmlns="http://www.w3.org/2000/svg">
<path d="M82.1703 70.6567L78.8333 67.3197V43.8354H55.3489L46.0077 34.4981H78.8333V25.9088C78.8333 25.2064 78.6074 24.6294 78.1557 24.1777C77.704 23.7259 77.1269 23.5001 76.4245 23.5001H35.0136L31.0969 19.5834H76.4245C78.2262 19.5834 79.7302 20.1879 80.9365 21.3968C82.1455 22.6032 82.75 24.1072 82.75 25.9088V68.0913C82.75 68.5431 82.6977 68.9909 82.5933 69.4347C82.4888 69.8786 82.3478 70.286 82.1703 70.6567ZM38.7462 43.8354H16.1666V68.0913C16.1666 68.6919 16.4173 69.2441 16.9186 69.7481C17.4226 70.2494 17.9748 70.5001 18.5754 70.5001H65.4109L38.7462 43.8354ZM83.1573 88.2465L69.3314 74.4167H18.5714C16.7698 74.4167 15.2658 73.8136 14.0594 72.6072C12.8531 71.3983 12.2499 69.893 12.2499 68.0913V25.9088C12.2499 24.1072 12.8544 22.6032 14.0634 21.3968C15.2697 20.1879 16.7737 19.5834 18.5754 19.5834H20.0833L23.9999 23.5001H18.5754C17.9748 23.5001 17.4226 23.7507 16.9186 24.2521C16.4173 24.756 16.1666 25.3083 16.1666 25.9088V34.4981H29.4049L7.86328 12.9564L10.6598 10.1599L85.9499 85.45L83.1573 88.2465Z" fill="#38C19D"/>
</svg>
