<svg width="112" height="100" viewBox="0 0 112 100" fill="none" xmlns="http://www.w3.org/2000/svg">
<path d="M72.4583 57.01C69.642 60.2202 66.2129 62.8468 62.3533 64.7511V75.6951C62.3533 76.6626 61.9689 77.5905 61.2848 78.2747C60.6007 78.9588 59.6728 79.3431 58.7053 79.3431H36.8172C35.8497 79.3431 34.9218 78.9588 34.2376 78.2747C33.5535 77.5905 33.1692 76.6626 33.1692 75.6951V64.7511C25.4817 60.9139 19.6047 54.216 16.7994 46.095C13.9941 37.9739 14.484 29.0767 18.164 21.3128C21.844 13.5488 28.4209 7.53677 36.4832 4.56682C44.5455 1.59688 53.4508 1.9057 61.2881 5.42702M33.1692 97.357H62.3533" stroke="#38C19D" stroke-width="5" stroke-linecap="round" stroke-linejoin="round"/>
<path d="M65.0823 27.5632C62.5214 27.1181 62.5214 23.4409 65.0823 22.9959C69.6167 22.2067 73.8133 20.0851 77.1372 16.9015C80.4611 13.718 82.7616 9.61669 83.7456 5.12057L83.8988 4.40556C84.4533 1.87384 88.0575 1.85925 88.6339 4.38367L88.8236 5.20812C89.8454 9.6839 92.1668 13.758 95.4963 16.9188C98.8259 20.0796 103.015 22.1862 107.538 22.974C110.113 23.4263 110.113 27.1181 107.538 27.5705C103.016 28.3596 98.8288 30.4667 95.5006 33.6274C92.1725 36.7881 89.8521 40.8615 88.8309 45.3363L88.6412 46.1608C88.0648 48.6852 84.4606 48.6706 83.9061 46.1389L83.7601 45.4312C82.7752 40.933 80.4725 36.8303 77.1458 33.6466C73.8191 30.4628 69.6193 28.3497 65.0823 27.5632Z" stroke="#38C19D" stroke-width="5" stroke-linecap="round" stroke-linejoin="round"/>
</svg>
