<svg width="1440" height="1225" viewBox="0 0 1440 1225" fill="none" xmlns="http://www.w3.org/2000/svg">
<g opacity="0.43">
<path d="M-248.648 798.23C-201.226 647.46 -43.6847 332.593 207.106 279.285C520.594 212.651 652.36 395.309 897.089 577.323C1045.83 687.949 1235.92 763.516 1447.81 540.793" stroke="url(#paint0_linear_158_5872)" stroke-width="1.37543"/>
<path d="M-221.114 1065.79C-159.543 912.19 38.3842 589.327 337.529 526.693C711.461 448.4 861.139 627.758 1144.73 802.446C1317.09 908.621 1539.7 977.999 1798.76 746.047" stroke="url(#paint1_linear_158_5872)" stroke-width="1.37543"/>
<path d="M-248.196 802.617C-200.542 651.801 -42.3387 336.803 209.244 283.342C523.723 216.517 655.784 399.121 901.149 581.015C1050.28 691.568 1240.9 767.034 1453.56 544.159" stroke="url(#paint2_linear_158_5872)" stroke-width="1.37543"/>
<path d="M-247.748 807.003C-199.862 656.14 -40.9961 341.01 211.38 287.397C526.849 220.381 659.203 402.931 905.206 584.704C1054.72 695.184 1245.88 770.549 1459.31 547.523" stroke="url(#paint3_linear_158_5872)" stroke-width="1.37543"/>
<path d="M-247.296 811.389C-199.178 660.48 -39.6503 345.219 213.518 291.453C529.979 224.245 662.626 406.741 909.266 588.395C1059.17 698.802 1250.86 774.065 1465.06 550.887" stroke="url(#paint4_linear_158_5872)" stroke-width="1.37543"/>
<path d="M-246.844 815.776C-198.494 664.82 -38.3042 349.429 215.657 295.51C533.108 228.111 666.05 410.553 913.326 592.086C1063.62 702.42 1255.84 777.582 1470.82 554.253" stroke="url(#paint5_linear_158_5872)" stroke-width="1.37543"/>
<path d="M-246.392 820.161C-197.811 669.159 -36.9587 353.636 217.795 299.564C536.238 231.974 669.473 414.362 917.386 595.775C1068.07 706.037 1260.82 781.097 1476.57 557.617" stroke="url(#paint6_linear_158_5872)" stroke-width="1.37543"/>
<path d="M-245.941 824.547C-197.127 673.499 -35.613 357.845 219.934 303.62C539.367 235.839 672.895 418.173 921.446 599.466C1072.51 709.654 1265.8 784.613 1482.33 560.981" stroke="url(#paint7_linear_158_5872)" stroke-width="1.37543"/>
<path d="M-245.489 828.935C-196.443 677.84 -34.2671 362.055 222.072 307.677C542.496 239.705 676.318 421.984 925.506 603.158C1076.96 713.273 1270.78 788.13 1488.08 564.347" stroke="url(#paint8_linear_158_5872)" stroke-width="1.37543"/>
<path d="M-245.037 833.32C-195.759 682.179 -32.9213 366.263 224.211 311.733C545.626 243.569 679.741 425.795 929.566 606.848C1081.41 716.89 1275.76 791.646 1493.83 567.712" stroke="url(#paint9_linear_158_5872)" stroke-width="1.37543"/>
<path d="M-244.588 837.707C-195.079 686.519 -31.5785 370.472 226.346 315.788C548.752 247.434 683.162 429.605 933.623 610.538C1085.85 720.507 1280.74 795.162 1499.58 571.076" stroke="url(#paint10_linear_158_5872)" stroke-width="1.37543"/>
<path d="M-244.136 842.093C-194.395 690.859 -30.2327 374.681 228.485 319.845C551.882 251.299 686.585 433.416 937.683 614.229C1090.3 724.126 1285.72 798.678 1505.34 574.442" stroke="url(#paint11_linear_158_5872)" stroke-width="1.37543"/>
<path d="M-243.685 846.48C-193.711 695.199 -28.8869 378.89 230.623 323.901C555.011 255.164 690.007 437.227 941.743 617.92C1094.75 727.743 1290.7 802.194 1511.09 577.807" stroke="url(#paint12_linear_158_5872)" stroke-width="1.37543"/>
<path d="M-243.233 850.865C-193.028 699.538 -27.5414 383.098 232.761 327.956C558.14 259.028 693.43 441.037 945.803 621.609C1099.19 731.36 1295.68 805.71 1516.85 581.17" stroke="url(#paint13_linear_158_5872)" stroke-width="1.37543"/>
<path d="M-242.781 855.252C-192.344 703.879 -26.1953 387.308 234.9 332.012C561.27 262.894 696.854 444.848 949.864 625.301C1103.64 734.978 1300.66 809.227 1522.6 584.536" stroke="url(#paint14_linear_158_5872)" stroke-width="1.37543"/>
<path d="M-242.329 859.639C-191.66 708.219 -24.8495 391.516 237.039 336.068C564.399 266.758 700.276 448.659 953.924 628.992C1108.09 738.596 1305.64 812.743 1528.35 587.901" stroke="url(#paint15_linear_158_5872)" stroke-width="1.37543"/>
<path d="M-241.878 864.023C-190.977 712.557 -23.504 395.724 239.177 340.123C567.528 270.622 703.699 452.468 957.983 632.681C1112.53 742.212 1310.62 816.258 1534.11 591.265" stroke="url(#paint16_linear_158_5872)" stroke-width="1.37543"/>
<path d="M-241.426 868.411C-190.293 716.898 -22.1582 399.934 241.315 344.18C570.658 274.487 707.122 456.28 962.043 636.372C1116.98 745.831 1315.6 819.775 1539.86 594.63" stroke="url(#paint17_linear_158_5872)" stroke-width="1.37543"/>
<path d="M-240.977 872.797C-189.612 721.238 -20.815 404.143 243.451 348.236C573.784 278.353 710.543 460.091 966.101 640.063C1121.43 749.449 1320.58 823.291 1545.61 597.996" stroke="url(#paint18_linear_158_5872)" stroke-width="1.37543"/>
<path d="M-240.526 877.182C-188.929 725.577 -19.4697 408.35 245.589 352.29C576.913 282.216 713.965 463.9 970.16 643.752C1125.87 753.065 1325.56 826.806 1551.37 601.359" stroke="url(#paint19_linear_158_5872)" stroke-width="1.37543"/>
<path d="M-240.071 881.569C-188.242 729.917 -18.1211 412.559 247.731 356.347C580.045 286.081 717.391 467.711 974.223 647.444C1130.32 756.683 1330.54 830.323 1557.12 604.724" stroke="url(#paint20_linear_158_5872)" stroke-width="1.37543"/>
<path d="M-239.622 885.956C-187.561 734.257 -16.7779 416.769 249.867 360.403C583.172 289.947 720.811 471.523 978.281 651.135C1134.77 760.301 1335.52 833.839 1562.87 608.09" stroke="url(#paint21_linear_158_5872)" stroke-width="1.37543"/>
<path d="M-239.17 890.341C-186.877 738.596 -15.4324 420.976 252.005 364.458C586.301 293.81 724.234 475.332 982.341 654.824C1139.22 763.917 1340.5 837.354 1568.63 611.453" stroke="url(#paint22_linear_158_5872)" stroke-width="1.37543"/>
<path d="M-238.718 894.728C-186.193 742.936 -14.0864 425.186 254.144 368.515C589.431 297.676 727.657 479.143 986.401 658.515C1143.66 767.536 1345.48 840.871 1574.38 614.819" stroke="url(#paint23_linear_158_5872)" stroke-width="1.37543"/>
<path d="M-238.267 899.114C-185.51 747.276 -12.7408 429.395 256.282 372.57C592.56 301.54 731.08 482.954 990.461 662.206C1148.11 771.153 1350.46 844.387 1580.13 618.184" stroke="url(#paint24_linear_158_5872)" stroke-width="1.37543"/>
<path d="M-237.817 903.502C-184.828 751.618 -11.3972 433.605 258.418 376.628C595.687 305.407 734.501 486.766 994.519 665.898C1152.55 774.772 1355.44 847.905 1585.89 621.55" stroke="url(#paint25_linear_158_5872)" stroke-width="1.37543"/>
<path d="M-237.366 907.887C-184.145 755.956 -10.0519 437.812 260.556 380.682C598.816 309.27 737.923 490.575 998.578 669.587C1157 778.389 1360.42 851.419 1591.64 624.913" stroke="url(#paint26_linear_158_5872)" stroke-width="1.37543"/>
<path d="M-236.911 912.273C-183.459 760.295 -8.70343 442.02 262.697 384.738C601.948 313.134 741.349 494.386 1002.64 673.277C1161.45 782.006 1365.4 854.935 1597.4 628.278" stroke="url(#paint27_linear_158_5872)" stroke-width="1.37543"/>
<path d="M-236.462 916.66C-182.777 764.637 -7.3601 446.231 264.833 388.795C605.075 317 744.77 498.198 1006.7 676.969C1165.9 785.625 1370.38 858.453 1603.15 631.644" stroke="url(#paint28_linear_158_5872)" stroke-width="1.37543"/>
<path d="M-236.011 921.045C-182.094 768.975 -6.01474 450.438 266.971 392.849C608.204 320.864 748.192 502.007 1010.76 680.658C1170.34 789.241 1375.36 861.967 1608.9 635.008" stroke="url(#paint29_linear_158_5872)" stroke-width="1.37543"/>
<path d="M-235.559 925.431C-181.41 773.315 -4.66897 454.647 269.11 396.905C611.333 324.728 751.615 505.817 1014.82 684.349C1174.79 792.858 1380.34 865.483 1614.65 638.372" stroke="url(#paint30_linear_158_5872)" stroke-width="1.37543"/>
<path d="M-235.107 929.819C-180.727 777.656 -3.32293 458.857 271.249 400.962C614.463 328.594 755.038 509.629 1018.88 688.04C1179.24 796.477 1385.32 869.001 1620.41 641.738" stroke="url(#paint31_linear_158_5872)" stroke-width="1.37543"/>
<path d="M-234.658 934.204C-180.046 781.995 -1.98012 463.065 273.384 405.018C617.589 332.459 758.458 513.439 1022.94 691.73C1183.68 800.094 1390.3 872.516 1626.16 645.103" stroke="url(#paint32_linear_158_5872)" stroke-width="1.37543"/>
<path d="M-234.204 938.59C-179.359 786.335 -0.631589 467.273 275.525 409.073C620.721 336.323 761.884 517.249 1027 695.421C1188.13 803.711 1395.28 876.032 1631.92 648.467" stroke="url(#paint33_linear_158_5872)" stroke-width="1.37543"/>
<path d="M-233.752 942.977C-178.676 790.675 0.714231 471.483 277.664 413.129C623.851 340.188 765.307 521.061 1031.06 699.112C1192.58 807.329 1400.26 879.549 1637.67 651.832" stroke="url(#paint34_linear_158_5872)" stroke-width="1.37543"/>
<path d="M-233.3 947.362C-177.992 795.014 2.05974 475.69 279.802 417.184C626.98 344.052 768.73 524.87 1035.12 702.801C1197.03 810.946 1405.24 883.064 1643.42 655.196" stroke="url(#paint35_linear_158_5872)" stroke-width="1.37543"/>
<path d="M-232.851 951.749C-177.311 799.354 3.4028 479.9 281.938 421.241C630.106 347.917 772.15 528.681 1039.18 706.492C1201.47 814.564 1410.22 886.58 1649.17 658.561" stroke="url(#paint36_linear_158_5872)" stroke-width="1.37543"/>
<path d="M-232.399 956.136C-176.627 803.695 4.74885 484.109 284.077 425.298C633.236 351.783 775.573 532.493 1043.24 710.184C1205.92 818.183 1415.2 890.097 1654.93 661.927" stroke="url(#paint37_linear_158_5872)" stroke-width="1.37543"/>
<path d="M-231.948 960.521C-175.944 808.033 6.09446 488.317 286.215 429.352C636.365 355.646 778.996 536.302 1047.3 713.873C1210.37 821.799 1420.18 893.612 1660.68 665.291" stroke="url(#paint38_linear_158_5872)" stroke-width="1.37543"/>
<path d="M-231.498 964.908C-175.263 812.374 7.43755 492.526 288.351 433.408C639.492 359.511 782.417 540.113 1051.35 717.564C1214.81 825.417 1425.16 897.129 1666.43 668.656" stroke="url(#paint39_linear_158_5872)" stroke-width="1.37543"/>
<path d="M-231.044 969.295C-174.576 816.714 8.786 496.735 290.492 437.465C642.624 363.377 785.842 543.925 1055.42 721.255C1219.26 829.035 1430.14 900.645 1672.19 672.021" stroke="url(#paint40_linear_158_5872)" stroke-width="1.37543"/>
<path d="M-230.592 973.681C-173.892 821.054 10.1318 500.944 292.63 441.521C645.753 367.241 789.265 547.735 1059.48 724.946C1223.71 832.653 1435.12 904.162 1677.94 675.386" stroke="url(#paint41_linear_158_5872)" stroke-width="1.37543"/>
<path d="M-230.141 978.066C-173.209 825.392 11.4771 505.151 294.768 445.575C648.882 371.105 792.688 551.544 1063.54 728.635C1228.15 836.269 1440.1 907.676 1683.7 678.75" stroke="url(#paint42_linear_158_5872)" stroke-width="1.37543"/>
<path d="M-229.692 982.454C-172.528 829.734 12.8205 509.362 296.904 449.632C652.009 374.971 796.108 555.356 1067.59 732.327C1232.6 839.888 1445.08 911.194 1689.45 682.116" stroke="url(#paint43_linear_158_5872)" stroke-width="1.37543"/>
<path d="M-229.24 986.84C-171.844 834.074 14.1663 513.57 299.043 453.688C655.139 378.836 799.531 559.167 1071.65 736.017C1237.05 843.505 1450.06 914.71 1695.2 685.481" stroke="url(#paint44_linear_158_5872)" stroke-width="1.37543"/>
<path d="M-228.788 991.225C-171.161 838.412 15.5118 517.778 301.181 457.743C658.268 382.699 802.954 562.976 1075.71 739.707C1241.49 847.121 1455.04 918.225 1700.96 688.844" stroke="url(#paint45_linear_158_5872)" stroke-width="1.37543"/>
<path d="M-228.336 995.612C-170.477 842.753 16.8578 521.988 303.32 461.8C661.397 386.565 806.377 566.788 1079.77 743.398C1245.94 850.74 1460.02 921.742 1706.71 692.21" stroke="url(#paint46_linear_158_5872)" stroke-width="1.37543"/>
<path d="M-227.885 999.998C-169.793 847.093 18.2034 526.196 305.458 465.856C664.527 390.43 809.8 570.599 1083.83 747.089C1250.39 854.358 1465 925.258 1712.46 695.575" stroke="url(#paint47_linear_158_5872)" stroke-width="1.37543"/>
<path d="M-227.433 1004.38C-169.11 851.431 19.549 530.404 307.596 469.91C667.656 394.293 813.223 574.408 1087.89 750.778C1254.83 857.974 1469.98 928.773 1718.22 698.938" stroke="url(#paint48_linear_158_5872)" stroke-width="1.37543"/>
<path d="M-226.981 1008.77C-168.426 855.772 20.895 534.614 309.735 473.967C670.785 398.159 816.646 578.22 1091.95 754.469C1259.28 861.592 1474.96 932.29 1723.97 702.304" stroke="url(#paint49_linear_158_5872)" stroke-width="1.37543"/>
<path d="M-226.532 1013.16C-167.745 860.112 22.2381 538.823 311.871 478.023C673.912 402.024 820.066 582.031 1096.01 758.16C1263.73 865.21 1479.94 935.806 1729.72 705.669" stroke="url(#paint50_linear_158_5872)" stroke-width="1.37543"/>
<path d="M-226.08 1017.54C-167.061 864.451 23.5836 543.031 314.009 482.078C677.041 405.888 823.489 585.84 1100.07 761.85C1268.17 868.827 1484.92 939.321 1735.48 709.033" stroke="url(#paint51_linear_158_5872)" stroke-width="1.37543"/>
<path d="M-225.629 1021.93C-166.378 868.792 24.9294 547.24 316.148 486.135C680.17 409.753 826.912 589.651 1104.13 765.541C1272.62 872.445 1489.9 942.838 1741.23 712.399" stroke="url(#paint52_linear_158_5872)" stroke-width="1.37543"/>
<path d="M-225.174 1026.32C-165.691 873.131 26.2779 551.449 318.289 490.19C683.303 413.618 830.338 593.462 1108.19 769.232C1277.07 876.063 1494.89 946.354 1746.99 715.763" stroke="url(#paint53_linear_158_5872)" stroke-width="1.37543"/>
<path d="M-224.725 1030.7C-165.01 877.47 27.6207 555.656 320.424 494.245C686.429 417.482 833.758 597.272 1112.25 772.921C1281.51 879.679 1499.86 949.869 1752.74 719.127" stroke="url(#paint54_linear_158_5872)" stroke-width="1.37543"/>
<path d="M-224.274 1035.09C-164.327 881.811 28.9665 559.866 322.563 498.302C689.558 421.347 837.181 601.083 1116.31 776.613C1285.96 883.298 1504.84 953.387 1758.49 722.493" stroke="url(#paint55_linear_158_5872)" stroke-width="1.37543"/>
<path d="M-223.822 1039.47C-163.643 886.151 30.3126 564.075 324.702 502.358C692.688 425.212 840.604 604.894 1120.37 780.303C1290.41 886.915 1509.82 956.903 1764.24 725.858" stroke="url(#paint56_linear_158_5872)" stroke-width="1.37543"/>
<path d="M-223.373 1043.86C-162.962 890.491 31.6555 568.284 326.837 506.414C695.814 429.077 844.024 608.705 1124.43 783.994C1294.85 890.534 1514.8 960.419 1770 729.223" stroke="url(#paint57_linear_158_5872)" stroke-width="1.37543"/>
<path d="M-222.921 1048.25C-162.278 894.831 33.0015 572.493 328.976 510.47C698.944 432.942 847.447 612.516 1128.49 787.685C1299.3 894.151 1519.78 963.935 1775.75 732.588" stroke="url(#paint58_linear_158_5872)" stroke-width="1.37543"/>
<path d="M-222.466 1052.63C-161.592 899.17 34.3497 576.701 331.117 514.525C702.076 436.806 850.873 616.326 1132.55 791.375C1303.75 897.768 1524.77 967.451 1781.51 735.952" stroke="url(#paint59_linear_158_5872)" stroke-width="1.37543"/>
<path d="M-222.015 1057.02C-160.908 903.51 35.6953 580.91 333.255 518.581C705.205 440.671 854.296 620.136 1136.61 795.065C1308.2 901.385 1529.75 970.967 1787.26 739.317" stroke="url(#paint60_linear_158_5872)" stroke-width="1.37543"/>
<path d="M-221.566 1061.41C-160.227 907.85 37.0384 585.119 335.391 522.637C708.332 444.535 857.716 623.947 1140.67 798.756C1312.64 905.003 1534.72 974.483 1793.01 742.682" stroke="url(#paint61_linear_158_5872)" stroke-width="1.37543"/>
</g>
<defs>
<linearGradient id="paint0_linear_158_5872" x1="623.643" y1="794.319" x2="512.945" y2="220.182" gradientUnits="userSpaceOnUse">
<stop stop-color="#38C19D"/>
<stop offset="0.205" stop-color="#38C19D" stop-opacity="0.13"/>
<stop offset="0.52" stop-color="#FFFAF3" stop-opacity="0.13"/>
<stop offset="0.885" stop-color="#38C19D" stop-opacity="0.39"/>
<stop offset="1" stop-color="#38C19D"/>
</linearGradient>
<linearGradient id="paint1_linear_158_5872" x1="812.906" y1="1030.82" x2="702.127" y2="456.261" gradientUnits="userSpaceOnUse">
<stop stop-color="#38C19D"/>
<stop offset="0.205" stop-color="#38C19D" stop-opacity="0.13"/>
<stop offset="0.52" stop-color="#FFFAF3" stop-opacity="0.13"/>
<stop offset="0.885" stop-color="#38C19D" stop-opacity="0.39"/>
<stop offset="1" stop-color="#38C19D"/>
</linearGradient>
<linearGradient id="paint2_linear_158_5872" x1="626.746" y1="798.197" x2="516.047" y2="224.054" gradientUnits="userSpaceOnUse">
<stop stop-color="#38C19D"/>
<stop offset="0.205" stop-color="#38C19D" stop-opacity="0.13"/>
<stop offset="0.52" stop-color="#FFFAF3" stop-opacity="0.13"/>
<stop offset="0.885" stop-color="#38C19D" stop-opacity="0.39"/>
<stop offset="1" stop-color="#38C19D"/>
</linearGradient>
<linearGradient id="paint3_linear_158_5872" x1="629.846" y1="802.073" x2="519.145" y2="227.923" gradientUnits="userSpaceOnUse">
<stop stop-color="#38C19D"/>
<stop offset="0.205" stop-color="#38C19D" stop-opacity="0.13"/>
<stop offset="0.52" stop-color="#FFFAF3" stop-opacity="0.13"/>
<stop offset="0.885" stop-color="#38C19D" stop-opacity="0.39"/>
<stop offset="1" stop-color="#38C19D"/>
</linearGradient>
<linearGradient id="paint4_linear_158_5872" x1="632.949" y1="805.95" x2="522.247" y2="231.793" gradientUnits="userSpaceOnUse">
<stop stop-color="#38C19D"/>
<stop offset="0.205" stop-color="#38C19D" stop-opacity="0.13"/>
<stop offset="0.52" stop-color="#FFFAF3" stop-opacity="0.13"/>
<stop offset="0.885" stop-color="#38C19D" stop-opacity="0.39"/>
<stop offset="1" stop-color="#38C19D"/>
</linearGradient>
<linearGradient id="paint5_linear_158_5872" x1="636.053" y1="809.828" x2="525.349" y2="235.664" gradientUnits="userSpaceOnUse">
<stop stop-color="#38C19D"/>
<stop offset="0.205" stop-color="#38C19D" stop-opacity="0.13"/>
<stop offset="0.52" stop-color="#FFFAF3" stop-opacity="0.13"/>
<stop offset="0.885" stop-color="#38C19D" stop-opacity="0.39"/>
<stop offset="1" stop-color="#38C19D"/>
</linearGradient>
<linearGradient id="paint6_linear_158_5872" x1="639.155" y1="813.704" x2="528.451" y2="239.533" gradientUnits="userSpaceOnUse">
<stop stop-color="#38C19D"/>
<stop offset="0.205" stop-color="#38C19D" stop-opacity="0.13"/>
<stop offset="0.52" stop-color="#FFFAF3" stop-opacity="0.13"/>
<stop offset="0.885" stop-color="#38C19D" stop-opacity="0.39"/>
<stop offset="1" stop-color="#38C19D"/>
</linearGradient>
<linearGradient id="paint7_linear_158_5872" x1="642.258" y1="817.581" x2="531.552" y2="243.403" gradientUnits="userSpaceOnUse">
<stop stop-color="#38C19D"/>
<stop offset="0.205" stop-color="#38C19D" stop-opacity="0.13"/>
<stop offset="0.52" stop-color="#FFFAF3" stop-opacity="0.13"/>
<stop offset="0.885" stop-color="#38C19D" stop-opacity="0.39"/>
<stop offset="1" stop-color="#38C19D"/>
</linearGradient>
<linearGradient id="paint8_linear_158_5872" x1="645.361" y1="821.459" x2="534.654" y2="247.274" gradientUnits="userSpaceOnUse">
<stop stop-color="#38C19D"/>
<stop offset="0.205" stop-color="#38C19D" stop-opacity="0.13"/>
<stop offset="0.52" stop-color="#FFFAF3" stop-opacity="0.13"/>
<stop offset="0.885" stop-color="#38C19D" stop-opacity="0.39"/>
<stop offset="1" stop-color="#38C19D"/>
</linearGradient>
<linearGradient id="paint9_linear_158_5872" x1="648.465" y1="825.336" x2="537.756" y2="251.144" gradientUnits="userSpaceOnUse">
<stop stop-color="#38C19D"/>
<stop offset="0.205" stop-color="#38C19D" stop-opacity="0.13"/>
<stop offset="0.52" stop-color="#FFFAF3" stop-opacity="0.13"/>
<stop offset="0.885" stop-color="#38C19D" stop-opacity="0.39"/>
<stop offset="1" stop-color="#38C19D"/>
</linearGradient>
<linearGradient id="paint10_linear_158_5872" x1="651.565" y1="829.213" x2="540.855" y2="255.014" gradientUnits="userSpaceOnUse">
<stop stop-color="#38C19D"/>
<stop offset="0.205" stop-color="#38C19D" stop-opacity="0.13"/>
<stop offset="0.52" stop-color="#FFFAF3" stop-opacity="0.13"/>
<stop offset="0.885" stop-color="#38C19D" stop-opacity="0.39"/>
<stop offset="1" stop-color="#38C19D"/>
</linearGradient>
<linearGradient id="paint11_linear_158_5872" x1="654.668" y1="833.09" x2="543.956" y2="258.885" gradientUnits="userSpaceOnUse">
<stop stop-color="#38C19D"/>
<stop offset="0.205" stop-color="#38C19D" stop-opacity="0.13"/>
<stop offset="0.52" stop-color="#FFFAF3" stop-opacity="0.13"/>
<stop offset="0.885" stop-color="#38C19D" stop-opacity="0.39"/>
<stop offset="1" stop-color="#38C19D"/>
</linearGradient>
<linearGradient id="paint12_linear_158_5872" x1="657.771" y1="836.967" x2="547.058" y2="262.755" gradientUnits="userSpaceOnUse">
<stop stop-color="#38C19D"/>
<stop offset="0.205" stop-color="#38C19D" stop-opacity="0.13"/>
<stop offset="0.52" stop-color="#FFFAF3" stop-opacity="0.13"/>
<stop offset="0.885" stop-color="#38C19D" stop-opacity="0.39"/>
<stop offset="1" stop-color="#38C19D"/>
</linearGradient>
<linearGradient id="paint13_linear_158_5872" x1="660.874" y1="840.843" x2="550.16" y2="266.624" gradientUnits="userSpaceOnUse">
<stop stop-color="#38C19D"/>
<stop offset="0.205" stop-color="#38C19D" stop-opacity="0.13"/>
<stop offset="0.52" stop-color="#FFFAF3" stop-opacity="0.13"/>
<stop offset="0.885" stop-color="#38C19D" stop-opacity="0.39"/>
<stop offset="1" stop-color="#38C19D"/>
</linearGradient>
<linearGradient id="paint14_linear_158_5872" x1="663.977" y1="844.721" x2="553.262" y2="270.495" gradientUnits="userSpaceOnUse">
<stop stop-color="#38C19D"/>
<stop offset="0.205" stop-color="#38C19D" stop-opacity="0.13"/>
<stop offset="0.52" stop-color="#FFFAF3" stop-opacity="0.13"/>
<stop offset="0.885" stop-color="#38C19D" stop-opacity="0.39"/>
<stop offset="1" stop-color="#38C19D"/>
</linearGradient>
<linearGradient id="paint15_linear_158_5872" x1="667.08" y1="848.598" x2="556.363" y2="274.365" gradientUnits="userSpaceOnUse">
<stop stop-color="#38C19D"/>
<stop offset="0.205" stop-color="#38C19D" stop-opacity="0.13"/>
<stop offset="0.52" stop-color="#FFFAF3" stop-opacity="0.13"/>
<stop offset="0.885" stop-color="#38C19D" stop-opacity="0.39"/>
<stop offset="1" stop-color="#38C19D"/>
</linearGradient>
<linearGradient id="paint16_linear_158_5872" x1="670.183" y1="852.474" x2="559.465" y2="278.234" gradientUnits="userSpaceOnUse">
<stop stop-color="#38C19D"/>
<stop offset="0.205" stop-color="#38C19D" stop-opacity="0.13"/>
<stop offset="0.52" stop-color="#FFFAF3" stop-opacity="0.13"/>
<stop offset="0.885" stop-color="#38C19D" stop-opacity="0.39"/>
<stop offset="1" stop-color="#38C19D"/>
</linearGradient>
<linearGradient id="paint17_linear_158_5872" x1="673.286" y1="856.352" x2="562.567" y2="282.105" gradientUnits="userSpaceOnUse">
<stop stop-color="#38C19D"/>
<stop offset="0.205" stop-color="#38C19D" stop-opacity="0.13"/>
<stop offset="0.52" stop-color="#FFFAF3" stop-opacity="0.13"/>
<stop offset="0.885" stop-color="#38C19D" stop-opacity="0.39"/>
<stop offset="1" stop-color="#38C19D"/>
</linearGradient>
<linearGradient id="paint18_linear_158_5872" x1="676.386" y1="860.23" x2="565.666" y2="285.976" gradientUnits="userSpaceOnUse">
<stop stop-color="#38C19D"/>
<stop offset="0.205" stop-color="#38C19D" stop-opacity="0.13"/>
<stop offset="0.52" stop-color="#FFFAF3" stop-opacity="0.13"/>
<stop offset="0.885" stop-color="#38C19D" stop-opacity="0.39"/>
<stop offset="1" stop-color="#38C19D"/>
</linearGradient>
<linearGradient id="paint19_linear_158_5872" x1="679.489" y1="864.105" x2="568.767" y2="289.844" gradientUnits="userSpaceOnUse">
<stop stop-color="#38C19D"/>
<stop offset="0.205" stop-color="#38C19D" stop-opacity="0.13"/>
<stop offset="0.52" stop-color="#FFFAF3" stop-opacity="0.13"/>
<stop offset="0.885" stop-color="#38C19D" stop-opacity="0.39"/>
<stop offset="1" stop-color="#38C19D"/>
</linearGradient>
<linearGradient id="paint20_linear_158_5872" x1="682.595" y1="867.983" x2="571.872" y2="293.715" gradientUnits="userSpaceOnUse">
<stop stop-color="#38C19D"/>
<stop offset="0.205" stop-color="#38C19D" stop-opacity="0.13"/>
<stop offset="0.52" stop-color="#FFFAF3" stop-opacity="0.13"/>
<stop offset="0.885" stop-color="#38C19D" stop-opacity="0.39"/>
<stop offset="1" stop-color="#38C19D"/>
</linearGradient>
<linearGradient id="paint21_linear_158_5872" x1="685.696" y1="871.86" x2="574.971" y2="297.586" gradientUnits="userSpaceOnUse">
<stop stop-color="#38C19D"/>
<stop offset="0.205" stop-color="#38C19D" stop-opacity="0.13"/>
<stop offset="0.52" stop-color="#FFFAF3" stop-opacity="0.13"/>
<stop offset="0.885" stop-color="#38C19D" stop-opacity="0.39"/>
<stop offset="1" stop-color="#38C19D"/>
</linearGradient>
<linearGradient id="paint22_linear_158_5872" x1="688.798" y1="875.736" x2="578.072" y2="301.455" gradientUnits="userSpaceOnUse">
<stop stop-color="#38C19D"/>
<stop offset="0.205" stop-color="#38C19D" stop-opacity="0.13"/>
<stop offset="0.52" stop-color="#FFFAF3" stop-opacity="0.13"/>
<stop offset="0.885" stop-color="#38C19D" stop-opacity="0.39"/>
<stop offset="1" stop-color="#38C19D"/>
</linearGradient>
<linearGradient id="paint23_linear_158_5872" x1="691.902" y1="879.614" x2="581.174" y2="305.326" gradientUnits="userSpaceOnUse">
<stop stop-color="#38C19D"/>
<stop offset="0.205" stop-color="#38C19D" stop-opacity="0.13"/>
<stop offset="0.52" stop-color="#FFFAF3" stop-opacity="0.13"/>
<stop offset="0.885" stop-color="#38C19D" stop-opacity="0.39"/>
<stop offset="1" stop-color="#38C19D"/>
</linearGradient>
<linearGradient id="paint24_linear_158_5872" x1="695.005" y1="883.491" x2="584.276" y2="309.196" gradientUnits="userSpaceOnUse">
<stop stop-color="#38C19D"/>
<stop offset="0.205" stop-color="#38C19D" stop-opacity="0.13"/>
<stop offset="0.52" stop-color="#FFFAF3" stop-opacity="0.13"/>
<stop offset="0.885" stop-color="#38C19D" stop-opacity="0.39"/>
<stop offset="1" stop-color="#38C19D"/>
</linearGradient>
<linearGradient id="paint25_linear_158_5872" x1="698.105" y1="887.37" x2="587.375" y2="313.067" gradientUnits="userSpaceOnUse">
<stop stop-color="#38C19D"/>
<stop offset="0.205" stop-color="#38C19D" stop-opacity="0.13"/>
<stop offset="0.52" stop-color="#FFFAF3" stop-opacity="0.13"/>
<stop offset="0.885" stop-color="#38C19D" stop-opacity="0.39"/>
<stop offset="1" stop-color="#38C19D"/>
</linearGradient>
<linearGradient id="paint26_linear_158_5872" x1="701.208" y1="891.245" x2="590.477" y2="316.936" gradientUnits="userSpaceOnUse">
<stop stop-color="#38C19D"/>
<stop offset="0.205" stop-color="#38C19D" stop-opacity="0.13"/>
<stop offset="0.52" stop-color="#FFFAF3" stop-opacity="0.13"/>
<stop offset="0.885" stop-color="#38C19D" stop-opacity="0.39"/>
<stop offset="1" stop-color="#38C19D"/>
</linearGradient>
<linearGradient id="paint27_linear_158_5872" x1="704.314" y1="895.122" x2="593.581" y2="320.806" gradientUnits="userSpaceOnUse">
<stop stop-color="#38C19D"/>
<stop offset="0.205" stop-color="#38C19D" stop-opacity="0.13"/>
<stop offset="0.52" stop-color="#FFFAF3" stop-opacity="0.13"/>
<stop offset="0.885" stop-color="#38C19D" stop-opacity="0.39"/>
<stop offset="1" stop-color="#38C19D"/>
</linearGradient>
<linearGradient id="paint28_linear_158_5872" x1="707.414" y1="899" x2="596.68" y2="324.677" gradientUnits="userSpaceOnUse">
<stop stop-color="#38C19D"/>
<stop offset="0.205" stop-color="#38C19D" stop-opacity="0.13"/>
<stop offset="0.52" stop-color="#FFFAF3" stop-opacity="0.13"/>
<stop offset="0.885" stop-color="#38C19D" stop-opacity="0.39"/>
<stop offset="1" stop-color="#38C19D"/>
</linearGradient>
<linearGradient id="paint29_linear_158_5872" x1="710.517" y1="902.876" x2="599.782" y2="328.546" gradientUnits="userSpaceOnUse">
<stop stop-color="#38C19D"/>
<stop offset="0.205" stop-color="#38C19D" stop-opacity="0.13"/>
<stop offset="0.52" stop-color="#FFFAF3" stop-opacity="0.13"/>
<stop offset="0.885" stop-color="#38C19D" stop-opacity="0.39"/>
<stop offset="1" stop-color="#38C19D"/>
</linearGradient>
<linearGradient id="paint30_linear_158_5872" x1="713.62" y1="906.753" x2="602.883" y2="332.416" gradientUnits="userSpaceOnUse">
<stop stop-color="#38C19D"/>
<stop offset="0.205" stop-color="#38C19D" stop-opacity="0.13"/>
<stop offset="0.52" stop-color="#FFFAF3" stop-opacity="0.13"/>
<stop offset="0.885" stop-color="#38C19D" stop-opacity="0.39"/>
<stop offset="1" stop-color="#38C19D"/>
</linearGradient>
<linearGradient id="paint31_linear_158_5872" x1="716.723" y1="910.631" x2="605.985" y2="336.287" gradientUnits="userSpaceOnUse">
<stop stop-color="#38C19D"/>
<stop offset="0.205" stop-color="#38C19D" stop-opacity="0.13"/>
<stop offset="0.52" stop-color="#FFFAF3" stop-opacity="0.13"/>
<stop offset="0.885" stop-color="#38C19D" stop-opacity="0.39"/>
<stop offset="1" stop-color="#38C19D"/>
</linearGradient>
<linearGradient id="paint32_linear_158_5872" x1="719.823" y1="914.507" x2="609.084" y2="340.157" gradientUnits="userSpaceOnUse">
<stop stop-color="#38C19D"/>
<stop offset="0.205" stop-color="#38C19D" stop-opacity="0.13"/>
<stop offset="0.52" stop-color="#FFFAF3" stop-opacity="0.13"/>
<stop offset="0.885" stop-color="#38C19D" stop-opacity="0.39"/>
<stop offset="1" stop-color="#38C19D"/>
</linearGradient>
<linearGradient id="paint33_linear_158_5872" x1="722.929" y1="918.384" x2="612.189" y2="344.027" gradientUnits="userSpaceOnUse">
<stop stop-color="#38C19D"/>
<stop offset="0.205" stop-color="#38C19D" stop-opacity="0.13"/>
<stop offset="0.52" stop-color="#FFFAF3" stop-opacity="0.13"/>
<stop offset="0.885" stop-color="#38C19D" stop-opacity="0.39"/>
<stop offset="1" stop-color="#38C19D"/>
</linearGradient>
<linearGradient id="paint34_linear_158_5872" x1="726.032" y1="922.262" x2="615.29" y2="347.898" gradientUnits="userSpaceOnUse">
<stop stop-color="#38C19D"/>
<stop offset="0.205" stop-color="#38C19D" stop-opacity="0.13"/>
<stop offset="0.52" stop-color="#FFFAF3" stop-opacity="0.13"/>
<stop offset="0.885" stop-color="#38C19D" stop-opacity="0.39"/>
<stop offset="1" stop-color="#38C19D"/>
</linearGradient>
<linearGradient id="paint35_linear_158_5872" x1="729.135" y1="926.138" x2="618.392" y2="351.767" gradientUnits="userSpaceOnUse">
<stop stop-color="#38C19D"/>
<stop offset="0.205" stop-color="#38C19D" stop-opacity="0.13"/>
<stop offset="0.52" stop-color="#FFFAF3" stop-opacity="0.13"/>
<stop offset="0.885" stop-color="#38C19D" stop-opacity="0.39"/>
<stop offset="1" stop-color="#38C19D"/>
</linearGradient>
<linearGradient id="paint36_linear_158_5872" x1="732.236" y1="930.015" x2="621.491" y2="355.637" gradientUnits="userSpaceOnUse">
<stop stop-color="#38C19D"/>
<stop offset="0.205" stop-color="#38C19D" stop-opacity="0.13"/>
<stop offset="0.52" stop-color="#FFFAF3" stop-opacity="0.13"/>
<stop offset="0.885" stop-color="#38C19D" stop-opacity="0.39"/>
<stop offset="1" stop-color="#38C19D"/>
</linearGradient>
<linearGradient id="paint37_linear_158_5872" x1="735.339" y1="933.893" x2="624.593" y2="359.509" gradientUnits="userSpaceOnUse">
<stop stop-color="#38C19D"/>
<stop offset="0.205" stop-color="#38C19D" stop-opacity="0.13"/>
<stop offset="0.52" stop-color="#FFFAF3" stop-opacity="0.13"/>
<stop offset="0.885" stop-color="#38C19D" stop-opacity="0.39"/>
<stop offset="1" stop-color="#38C19D"/>
</linearGradient>
<linearGradient id="paint38_linear_158_5872" x1="738.442" y1="937.769" x2="627.695" y2="363.377" gradientUnits="userSpaceOnUse">
<stop stop-color="#38C19D"/>
<stop offset="0.205" stop-color="#38C19D" stop-opacity="0.13"/>
<stop offset="0.52" stop-color="#FFFAF3" stop-opacity="0.13"/>
<stop offset="0.885" stop-color="#38C19D" stop-opacity="0.39"/>
<stop offset="1" stop-color="#38C19D"/>
</linearGradient>
<linearGradient id="paint39_linear_158_5872" x1="741.542" y1="941.646" x2="630.794" y2="367.248" gradientUnits="userSpaceOnUse">
<stop stop-color="#38C19D"/>
<stop offset="0.205" stop-color="#38C19D" stop-opacity="0.13"/>
<stop offset="0.52" stop-color="#FFFAF3" stop-opacity="0.13"/>
<stop offset="0.885" stop-color="#38C19D" stop-opacity="0.39"/>
<stop offset="1" stop-color="#38C19D"/>
</linearGradient>
<linearGradient id="paint40_linear_158_5872" x1="744.648" y1="945.524" x2="633.898" y2="371.119" gradientUnits="userSpaceOnUse">
<stop stop-color="#38C19D"/>
<stop offset="0.205" stop-color="#38C19D" stop-opacity="0.13"/>
<stop offset="0.52" stop-color="#FFFAF3" stop-opacity="0.13"/>
<stop offset="0.885" stop-color="#38C19D" stop-opacity="0.39"/>
<stop offset="1" stop-color="#38C19D"/>
</linearGradient>
<linearGradient id="paint41_linear_158_5872" x1="747.751" y1="949.401" x2="637" y2="374.989" gradientUnits="userSpaceOnUse">
<stop stop-color="#38C19D"/>
<stop offset="0.205" stop-color="#38C19D" stop-opacity="0.13"/>
<stop offset="0.52" stop-color="#FFFAF3" stop-opacity="0.13"/>
<stop offset="0.885" stop-color="#38C19D" stop-opacity="0.39"/>
<stop offset="1" stop-color="#38C19D"/>
</linearGradient>
<linearGradient id="paint42_linear_158_5872" x1="750.854" y1="953.277" x2="640.101" y2="378.857" gradientUnits="userSpaceOnUse">
<stop stop-color="#38C19D"/>
<stop offset="0.205" stop-color="#38C19D" stop-opacity="0.13"/>
<stop offset="0.52" stop-color="#FFFAF3" stop-opacity="0.13"/>
<stop offset="0.885" stop-color="#38C19D" stop-opacity="0.39"/>
<stop offset="1" stop-color="#38C19D"/>
</linearGradient>
<linearGradient id="paint43_linear_158_5872" x1="753.954" y1="957.155" x2="643.2" y2="382.729" gradientUnits="userSpaceOnUse">
<stop stop-color="#38C19D"/>
<stop offset="0.205" stop-color="#38C19D" stop-opacity="0.13"/>
<stop offset="0.52" stop-color="#FFFAF3" stop-opacity="0.13"/>
<stop offset="0.885" stop-color="#38C19D" stop-opacity="0.39"/>
<stop offset="1" stop-color="#38C19D"/>
</linearGradient>
<linearGradient id="paint44_linear_158_5872" x1="757.057" y1="961.032" x2="646.302" y2="386.599" gradientUnits="userSpaceOnUse">
<stop stop-color="#38C19D"/>
<stop offset="0.205" stop-color="#38C19D" stop-opacity="0.13"/>
<stop offset="0.52" stop-color="#FFFAF3" stop-opacity="0.13"/>
<stop offset="0.885" stop-color="#38C19D" stop-opacity="0.39"/>
<stop offset="1" stop-color="#38C19D"/>
</linearGradient>
<linearGradient id="paint45_linear_158_5872" x1="760.16" y1="964.908" x2="649.404" y2="390.468" gradientUnits="userSpaceOnUse">
<stop stop-color="#38C19D"/>
<stop offset="0.205" stop-color="#38C19D" stop-opacity="0.13"/>
<stop offset="0.52" stop-color="#FFFAF3" stop-opacity="0.13"/>
<stop offset="0.885" stop-color="#38C19D" stop-opacity="0.39"/>
<stop offset="1" stop-color="#38C19D"/>
</linearGradient>
<linearGradient id="paint46_linear_158_5872" x1="763.263" y1="968.786" x2="652.506" y2="394.339" gradientUnits="userSpaceOnUse">
<stop stop-color="#38C19D"/>
<stop offset="0.205" stop-color="#38C19D" stop-opacity="0.13"/>
<stop offset="0.52" stop-color="#FFFAF3" stop-opacity="0.13"/>
<stop offset="0.885" stop-color="#38C19D" stop-opacity="0.39"/>
<stop offset="1" stop-color="#38C19D"/>
</linearGradient>
<linearGradient id="paint47_linear_158_5872" x1="766.366" y1="972.663" x2="655.607" y2="398.209" gradientUnits="userSpaceOnUse">
<stop stop-color="#38C19D"/>
<stop offset="0.205" stop-color="#38C19D" stop-opacity="0.13"/>
<stop offset="0.52" stop-color="#FFFAF3" stop-opacity="0.13"/>
<stop offset="0.885" stop-color="#38C19D" stop-opacity="0.39"/>
<stop offset="1" stop-color="#38C19D"/>
</linearGradient>
<linearGradient id="paint48_linear_158_5872" x1="769.469" y1="976.539" x2="658.709" y2="402.078" gradientUnits="userSpaceOnUse">
<stop stop-color="#38C19D"/>
<stop offset="0.205" stop-color="#38C19D" stop-opacity="0.13"/>
<stop offset="0.52" stop-color="#FFFAF3" stop-opacity="0.13"/>
<stop offset="0.885" stop-color="#38C19D" stop-opacity="0.39"/>
<stop offset="1" stop-color="#38C19D"/>
</linearGradient>
<linearGradient id="paint49_linear_158_5872" x1="772.572" y1="980.417" x2="661.811" y2="405.949" gradientUnits="userSpaceOnUse">
<stop stop-color="#38C19D"/>
<stop offset="0.205" stop-color="#38C19D" stop-opacity="0.13"/>
<stop offset="0.52" stop-color="#FFFAF3" stop-opacity="0.13"/>
<stop offset="0.885" stop-color="#38C19D" stop-opacity="0.39"/>
<stop offset="1" stop-color="#38C19D"/>
</linearGradient>
<linearGradient id="paint50_linear_158_5872" x1="775.673" y1="984.294" x2="664.91" y2="409.82" gradientUnits="userSpaceOnUse">
<stop stop-color="#38C19D"/>
<stop offset="0.205" stop-color="#38C19D" stop-opacity="0.13"/>
<stop offset="0.52" stop-color="#FFFAF3" stop-opacity="0.13"/>
<stop offset="0.885" stop-color="#38C19D" stop-opacity="0.39"/>
<stop offset="1" stop-color="#38C19D"/>
</linearGradient>
<linearGradient id="paint51_linear_158_5872" x1="778.776" y1="988.17" x2="668.011" y2="413.689" gradientUnits="userSpaceOnUse">
<stop stop-color="#38C19D"/>
<stop offset="0.205" stop-color="#38C19D" stop-opacity="0.13"/>
<stop offset="0.52" stop-color="#FFFAF3" stop-opacity="0.13"/>
<stop offset="0.885" stop-color="#38C19D" stop-opacity="0.39"/>
<stop offset="1" stop-color="#38C19D"/>
</linearGradient>
<linearGradient id="paint52_linear_158_5872" x1="781.879" y1="992.048" x2="671.113" y2="417.56" gradientUnits="userSpaceOnUse">
<stop stop-color="#38C19D"/>
<stop offset="0.205" stop-color="#38C19D" stop-opacity="0.13"/>
<stop offset="0.52" stop-color="#FFFAF3" stop-opacity="0.13"/>
<stop offset="0.885" stop-color="#38C19D" stop-opacity="0.39"/>
<stop offset="1" stop-color="#38C19D"/>
</linearGradient>
<linearGradient id="paint53_linear_158_5872" x1="784.985" y1="995.925" x2="674.217" y2="421.43" gradientUnits="userSpaceOnUse">
<stop stop-color="#38C19D"/>
<stop offset="0.205" stop-color="#38C19D" stop-opacity="0.13"/>
<stop offset="0.52" stop-color="#FFFAF3" stop-opacity="0.13"/>
<stop offset="0.885" stop-color="#38C19D" stop-opacity="0.39"/>
<stop offset="1" stop-color="#38C19D"/>
</linearGradient>
<linearGradient id="paint54_linear_158_5872" x1="788.085" y1="999.801" x2="677.316" y2="425.299" gradientUnits="userSpaceOnUse">
<stop stop-color="#38C19D"/>
<stop offset="0.205" stop-color="#38C19D" stop-opacity="0.13"/>
<stop offset="0.52" stop-color="#FFFAF3" stop-opacity="0.13"/>
<stop offset="0.885" stop-color="#38C19D" stop-opacity="0.39"/>
<stop offset="1" stop-color="#38C19D"/>
</linearGradient>
<linearGradient id="paint55_linear_158_5872" x1="791.188" y1="1003.68" x2="680.418" y2="429.17" gradientUnits="userSpaceOnUse">
<stop stop-color="#38C19D"/>
<stop offset="0.205" stop-color="#38C19D" stop-opacity="0.13"/>
<stop offset="0.52" stop-color="#FFFAF3" stop-opacity="0.13"/>
<stop offset="0.885" stop-color="#38C19D" stop-opacity="0.39"/>
<stop offset="1" stop-color="#38C19D"/>
</linearGradient>
<linearGradient id="paint56_linear_158_5872" x1="794.291" y1="1007.56" x2="683.52" y2="433.04" gradientUnits="userSpaceOnUse">
<stop stop-color="#38C19D"/>
<stop offset="0.205" stop-color="#38C19D" stop-opacity="0.13"/>
<stop offset="0.52" stop-color="#FFFAF3" stop-opacity="0.13"/>
<stop offset="0.885" stop-color="#38C19D" stop-opacity="0.39"/>
<stop offset="1" stop-color="#38C19D"/>
</linearGradient>
<linearGradient id="paint57_linear_158_5872" x1="797.391" y1="1011.43" x2="686.619" y2="436.911" gradientUnits="userSpaceOnUse">
<stop stop-color="#38C19D"/>
<stop offset="0.205" stop-color="#38C19D" stop-opacity="0.13"/>
<stop offset="0.52" stop-color="#FFFAF3" stop-opacity="0.13"/>
<stop offset="0.885" stop-color="#38C19D" stop-opacity="0.39"/>
<stop offset="1" stop-color="#38C19D"/>
</linearGradient>
<linearGradient id="paint58_linear_158_5872" x1="800.495" y1="1015.31" x2="689.721" y2="440.781" gradientUnits="userSpaceOnUse">
<stop stop-color="#38C19D"/>
<stop offset="0.205" stop-color="#38C19D" stop-opacity="0.13"/>
<stop offset="0.52" stop-color="#FFFAF3" stop-opacity="0.13"/>
<stop offset="0.885" stop-color="#38C19D" stop-opacity="0.39"/>
<stop offset="1" stop-color="#38C19D"/>
</linearGradient>
<linearGradient id="paint59_linear_158_5872" x1="803.6" y1="1019.19" x2="692.825" y2="444.65" gradientUnits="userSpaceOnUse">
<stop stop-color="#38C19D"/>
<stop offset="0.205" stop-color="#38C19D" stop-opacity="0.13"/>
<stop offset="0.52" stop-color="#FFFAF3" stop-opacity="0.13"/>
<stop offset="0.885" stop-color="#38C19D" stop-opacity="0.39"/>
<stop offset="1" stop-color="#38C19D"/>
</linearGradient>
<linearGradient id="paint60_linear_158_5872" x1="806.703" y1="1023.06" x2="695.926" y2="448.52" gradientUnits="userSpaceOnUse">
<stop stop-color="#38C19D"/>
<stop offset="0.205" stop-color="#38C19D" stop-opacity="0.13"/>
<stop offset="0.52" stop-color="#FFFAF3" stop-opacity="0.13"/>
<stop offset="0.885" stop-color="#38C19D" stop-opacity="0.39"/>
<stop offset="1" stop-color="#38C19D"/>
</linearGradient>
<linearGradient id="paint61_linear_158_5872" x1="809.803" y1="1026.94" x2="699.026" y2="452.391" gradientUnits="userSpaceOnUse">
<stop stop-color="#38C19D"/>
<stop offset="0.205" stop-color="#38C19D" stop-opacity="0.13"/>
<stop offset="0.52" stop-color="#FFFAF3" stop-opacity="0.13"/>
<stop offset="0.885" stop-color="#38C19D" stop-opacity="0.39"/>
<stop offset="1" stop-color="#38C19D"/>
</linearGradient>
</defs>
</svg>
